<svg preserveAspectRatio="none" width="100%" height="100%" overflow="visible" style="display: block;" viewBox="0 0 88 88" fill="none" xmlns="http://www.w3.org/2000/svg">
<g id="UsersThree">
<path id="Vector" d="M84.151 51.697C83.8621 51.9137 83.5334 52.0714 83.1835 52.161C82.8337 52.2506 82.4696 52.2705 82.1121 52.2194C81.7546 52.1683 81.4107 52.0473 81.0999 51.8633C80.7892 51.6793 80.5177 51.4359 80.301 51.147C78.6435 48.9191 76.4861 47.1114 74.0023 45.8695C71.5186 44.6276 68.7779 43.9863 66.001 43.997C65.4603 43.997 64.9315 43.8375 64.4809 43.5385C64.0303 43.2395 63.6778 42.8143 63.4676 42.3161C63.3248 41.9778 63.2513 41.6143 63.2513 41.247C63.2513 40.8798 63.3248 40.5163 63.4676 40.178C63.6778 39.6797 64.0303 39.2545 64.4809 38.9555C64.9315 38.6566 65.4603 38.4971 66.001 38.497C67.544 38.4969 69.0561 38.064 70.3654 37.2476C71.6747 36.4312 72.7289 35.264 73.4081 33.8785C74.0873 32.4931 74.3643 30.9449 74.2077 29.4099C74.0512 27.8748 73.4672 26.4145 72.5223 25.1947C71.5773 23.9749 70.3093 23.0445 68.8621 22.5093C67.4149 21.974 65.8466 21.8554 64.3353 22.1668C62.8241 22.4782 61.4305 23.2072 60.3128 24.2709C59.195 25.3347 58.398 26.6905 58.0123 28.1845C57.922 28.5344 57.7637 28.863 57.5464 29.1517C57.3291 29.4404 57.0571 29.6834 56.7459 29.8669C56.4346 30.0505 56.0903 30.1709 55.7326 30.2214C55.3748 30.2719 55.0106 30.2514 54.6607 30.1611C54.3109 30.0708 53.9822 29.9125 53.6936 29.6952C53.4049 29.4779 53.1619 29.2059 52.9783 28.8947C52.7948 28.5835 52.6743 28.2391 52.6239 27.8814C52.5734 27.5236 52.5939 27.1594 52.6842 26.8095C53.2196 24.7378 54.2311 22.8196 55.6383 21.2076C57.0455 19.5956 58.8095 18.3343 60.79 17.524C62.7704 16.7137 64.9126 16.3768 67.0462 16.5401C69.1797 16.7034 71.2457 17.3624 73.0798 18.4647C74.9138 19.567 76.4653 21.0821 77.6108 22.8895C78.7562 24.6969 79.4641 26.7466 79.6779 28.8757C79.8918 31.0048 79.6058 33.1544 78.8427 35.1535C78.0796 37.1526 76.8605 38.9461 75.2823 40.3911C79.0216 42.0101 82.2723 44.5794 84.7113 47.8436C84.928 48.1332 85.0854 48.4628 85.1745 48.8133C85.2637 49.1639 85.2827 49.5286 85.2307 49.8866C85.1786 50.2445 85.0565 50.5887 84.8712 50.8993C84.686 51.21 84.4412 51.4811 84.151 51.697ZM65.6298 72.872C65.8288 73.185 65.9624 73.535 66.0226 73.901C66.0828 74.267 66.0683 74.6414 65.9801 75.0016C65.8918 75.3618 65.7316 75.7005 65.5091 75.9972C65.2866 76.2939 65.0063 76.5426 64.6852 76.7282C64.3641 76.9138 64.0088 77.0325 63.6406 77.0773C63.2724 77.122 62.899 77.0918 62.5428 76.9884C62.1866 76.8851 61.855 76.7108 61.5679 76.476C61.2808 76.2411 61.0442 75.9507 60.8723 75.622C59.1399 72.6887 56.6727 70.2577 53.7141 68.569C50.7555 66.8802 47.4077 65.992 44.001 65.992C40.5944 65.992 37.2466 66.8802 34.288 68.569C31.3293 70.2577 28.8621 72.6887 27.1298 75.622C26.9579 75.9507 26.7213 76.2411 26.4342 76.476C26.1471 76.7108 25.8155 76.8851 25.4593 76.9884C25.1031 77.0918 24.7296 77.122 24.3615 77.0773C23.9933 77.0325 23.6379 76.9138 23.3168 76.7282C22.9957 76.5426 22.7155 76.2939 22.493 75.9972C22.2705 75.7005 22.1103 75.3618 22.022 75.0016C21.9338 74.6414 21.9193 74.267 21.9795 73.901C22.0397 73.535 22.1733 73.185 22.3723 72.872C25.0384 68.2911 29.1036 64.6862 33.9704 62.587C31.2319 60.4903 29.2192 57.5881 28.2154 54.2883C27.2115 50.9886 27.2669 47.4572 28.3739 44.1906C29.4808 40.924 31.5836 38.0864 34.3866 36.0766C37.1896 34.0669 40.552 32.986 44.001 32.986C47.4501 32.986 50.8125 34.0669 53.6155 36.0766C56.4185 38.0864 58.5213 40.924 59.6282 44.1906C60.7351 47.4572 60.7906 50.9886 59.7867 54.2883C58.7829 57.5881 56.7702 60.4903 54.0317 62.587C58.8985 64.6862 62.9637 68.2911 65.6298 72.872ZM44.001 60.497C46.1766 60.497 48.3034 59.8519 50.1123 58.6432C51.9213 57.4345 53.3312 55.7165 54.1637 53.7065C54.9963 51.6966 55.2141 49.4848 54.7897 47.351C54.3652 45.2172 53.3176 43.2572 51.7792 41.7189C50.2408 40.1805 48.2808 39.1328 46.147 38.7084C44.0132 38.284 41.8015 38.5018 39.7915 39.3344C37.7815 40.1669 36.0636 41.5768 34.8549 43.3858C33.6462 45.1947 33.001 47.3214 33.001 49.497C33.001 52.4144 34.16 55.2123 36.2229 57.2752C38.2858 59.3381 41.0837 60.497 44.001 60.497ZM24.751 41.247C24.751 40.5177 24.4613 39.8182 23.9456 39.3025C23.4299 38.7868 22.7304 38.497 22.001 38.497C20.458 38.4969 18.946 38.064 17.6367 37.2476C16.3274 36.4312 15.2732 35.264 14.594 33.8785C13.9148 32.4931 13.6378 30.9449 13.7943 29.4099C13.9509 27.8748 14.5348 26.4145 15.4798 25.1947C16.4247 23.9749 17.6928 23.0445 19.14 22.5093C20.5872 21.974 22.1555 21.8554 23.6667 22.1668C25.178 22.4782 26.5716 23.2072 27.6893 24.2709C28.807 25.3347 29.604 26.6905 29.9898 28.1845C30.1721 28.8911 30.6277 29.4963 31.2562 29.8669C31.8848 30.2376 32.6348 30.3434 33.3414 30.1611C34.0479 29.9788 34.6531 29.5232 35.0238 28.8947C35.3944 28.2661 35.5003 27.5161 35.3179 26.8095C34.7825 24.7378 33.771 22.8196 32.3638 21.2076C30.9566 19.5956 29.1926 18.3343 27.2121 17.524C25.2317 16.7137 23.0895 16.3768 20.9559 16.5401C18.8223 16.7034 16.7563 17.3624 14.9223 18.4647C13.0882 19.567 11.5368 21.0821 10.3913 22.8895C9.24584 24.6969 8.53802 26.7466 8.32415 28.8757C8.11029 31.0048 8.39628 33.1544 9.15938 35.1535C9.92248 37.1526 11.1416 38.9461 12.7198 40.3911C8.9842 42.0117 5.73725 44.5808 3.30104 47.8436C2.86298 48.4271 2.67464 49.1607 2.77747 49.883C2.88029 50.6053 3.26585 51.2573 3.84932 51.6953C4.4328 52.1334 5.1664 52.3217 5.88874 52.2189C6.61107 52.1161 7.26298 51.7305 7.70104 51.147C9.35856 48.9191 11.516 47.1114 13.9998 45.8695C16.4835 44.6276 19.2241 43.9863 22.001 43.997C22.7304 43.997 23.4299 43.7073 23.9456 43.1916C24.4613 42.6758 24.751 41.9764 24.751 41.247Z" fill="var(--fill-0, #53B1FD)"/>
</g>
</svg>
