<svg preserveAspectRatio="none" width="100%" height="100%" overflow="visible" style="display: block;" viewBox="0 0 88 88" fill="none" xmlns="http://www.w3.org/2000/svg">
<g id="UserCheck" clip-path="url(#clip0_0_6)">
<path id="Vector" d="M49.4994 54.2055C53.8103 51.5205 57.1295 47.5045 58.9548 42.7651C60.7801 38.0257 61.0121 32.8207 59.6158 27.9377C58.2195 23.0547 55.2708 18.7593 51.2158 15.7013C47.1609 12.6434 42.2203 10.9893 37.1416 10.9893C32.0628 10.9893 27.1222 12.6434 23.0673 15.7013C19.0124 18.7593 16.0637 23.0547 14.6674 27.9377C13.271 32.8207 13.5031 38.0257 15.3283 42.7651C17.1536 47.5045 20.4728 51.5205 24.7838 54.2055C17.6853 56.5293 11.2984 60.8708 6.16281 66.9827C5.6933 67.5411 5.46484 68.2631 5.52769 68.99C5.59055 69.7168 5.93957 70.389 6.49797 70.8585C7.05638 71.328 7.77842 71.5565 8.50527 71.4936C9.23212 71.4307 9.90424 71.0817 10.3738 70.5233C17.2728 62.2871 26.7809 57.753 37.1244 57.753C47.4678 57.753 56.9759 62.2871 63.8922 70.5233C64.3617 71.0817 65.0338 71.4307 65.7607 71.4936C66.4875 71.5565 67.2096 71.328 67.768 70.8585C68.3264 70.389 68.6754 69.7168 68.7383 68.99C68.8011 68.2631 68.5726 67.5411 68.1031 66.9827C62.9675 60.8708 56.5806 56.5293 49.4994 54.2055ZM19.2494 34.378C19.2494 30.8427 20.2977 27.3867 22.2619 24.4472C24.226 21.5077 27.0177 19.2166 30.2839 17.8637C33.5501 16.5107 37.1442 16.1568 40.6116 16.8465C44.079 17.5362 47.264 19.2386 49.7639 21.7385C52.2638 24.2383 53.9662 27.4234 54.6559 30.8908C55.3456 34.3582 54.9916 37.9522 53.6387 41.2185C52.2858 44.4847 49.9947 47.2764 47.0552 49.2405C44.1157 51.2047 40.6597 52.253 37.1244 52.253C32.3853 52.2476 27.8419 50.3625 24.4909 47.0115C21.1398 43.6605 19.2548 39.1171 19.2494 34.378ZM87.195 45.9486L76.195 56.9486C75.9396 57.2043 75.6363 57.4072 75.3025 57.5456C74.9686 57.6839 74.6108 57.7552 74.2494 57.7552C73.888 57.7552 73.5301 57.6839 73.1963 57.5456C72.8624 57.4072 72.5592 57.2043 72.3037 56.9486L66.8037 51.4486C66.2877 50.9326 65.9978 50.2328 65.9978 49.503C65.9978 48.7733 66.2877 48.0734 66.8037 47.5574C67.3198 47.0414 68.0196 46.7515 68.7494 46.7515C69.4791 46.7515 70.179 47.0414 70.695 47.5574L74.2494 51.1152L83.3037 42.0574C83.8198 41.5414 84.5196 41.2515 85.2494 41.2515C85.9791 41.2515 86.679 41.5414 87.195 42.0574C87.711 42.5734 88.0009 43.2733 88.0009 44.003C88.0009 44.7328 87.711 45.4326 87.195 45.9486Z" fill="var(--fill-0, #53B1FD)"/>
</g>
<defs>
<clipPath id="clip0_0_6">
<rect width="88" height="88" fill="white"/>
</clipPath>
</defs>
</svg>
