<svg preserveAspectRatio="none" width="100%" height="100%" overflow="visible" style="display: block;" viewBox="0 0 24 24" fill="none" xmlns="http://www.w3.org/2000/svg">
<g id="PhosphorIcon/ArrowLeft/Regular">
<g id="Icon">
<mask id="path-1-inside-1_0_309" fill="white">
<path d="M20.9999 12.0001C20.9999 12.199 20.9208 12.3897 20.7802 12.5304C20.6395 12.671 20.4488 12.7501 20.2499 12.7501H5.56017L11.0305 18.2194C11.1002 18.2891 11.1554 18.3718 11.1932 18.4629C11.2309 18.5539 11.2503 18.6515 11.2503 18.7501C11.2503 18.8486 11.2309 18.9462 11.1932 19.0372C11.1554 19.1283 11.1002 19.211 11.0305 19.2807C10.9608 19.3504 10.8781 19.4056 10.787 19.4433C10.696 19.4811 10.5984 19.5005 10.4999 19.5005C10.4013 19.5005 10.3037 19.4811 10.2127 19.4433C10.1216 19.4056 10.0389 19.3504 9.96923 19.2807L3.21923 12.5307C3.1495 12.461 3.09418 12.3783 3.05644 12.2873C3.0187 12.1962 2.99927 12.0986 2.99927 12.0001C2.99927 11.9015 3.0187 11.8039 3.05644 11.7128C3.09418 11.6218 3.1495 11.5391 3.21923 11.4694L9.96923 4.71943C10.11 4.5787 10.3008 4.49963 10.4999 4.49963C10.6989 4.49963 10.8898 4.5787 11.0305 4.71943C11.1712 4.86016 11.2503 5.05103 11.2503 5.25005C11.2503 5.44907 11.1712 5.63995 11.0305 5.78068L5.56017 11.2501H20.2499C20.4488 11.2501 20.6395 11.3291 20.7802 11.4697C20.9208 11.6104 20.9999 11.8011 20.9999 12.0001Z"/>
</mask>
<path d="M20.9999 12.0001C20.9999 12.199 20.9208 12.3897 20.7802 12.5304C20.6395 12.671 20.4488 12.7501 20.2499 12.7501H5.56017L11.0305 18.2194C11.1002 18.2891 11.1554 18.3718 11.1932 18.4629C11.2309 18.5539 11.2503 18.6515 11.2503 18.7501C11.2503 18.8486 11.2309 18.9462 11.1932 19.0372C11.1554 19.1283 11.1002 19.211 11.0305 19.2807C10.9608 19.3504 10.8781 19.4056 10.787 19.4433C10.696 19.4811 10.5984 19.5005 10.4999 19.5005C10.4013 19.5005 10.3037 19.4811 10.2127 19.4433C10.1216 19.4056 10.0389 19.3504 9.96923 19.2807L3.21923 12.5307C3.1495 12.461 3.09418 12.3783 3.05644 12.2873C3.0187 12.1962 2.99927 12.0986 2.99927 12.0001C2.99927 11.9015 3.0187 11.8039 3.05644 11.7128C3.09418 11.6218 3.1495 11.5391 3.21923 11.4694L9.96923 4.71943C10.11 4.5787 10.3008 4.49963 10.4999 4.49963C10.6989 4.49963 10.8898 4.5787 11.0305 4.71943C11.1712 4.86016 11.2503 5.05103 11.2503 5.25005C11.2503 5.44907 11.1712 5.63995 11.0305 5.78068L5.56017 11.2501H20.2499C20.4488 11.2501 20.6395 11.3291 20.7802 11.4697C20.9208 11.6104 20.9999 11.8011 20.9999 12.0001Z" fill="var(--fill-0, #101828)"/>
<path d="M5.56017 12.7501V9.75005H-1.68335L3.43903 14.8716L5.56017 12.7501ZM11.0305 18.2194L13.1518 16.0981L13.1516 16.0979L11.0305 18.2194ZM10.4999 19.5005V22.5005V19.5005ZM9.96923 19.2807L7.84791 21.402V21.402L9.96923 19.2807ZM3.21923 12.5307L5.34055 10.4094L5.33937 10.4082L3.21923 12.5307ZM2.99927 12.0001H-0.000732422H2.99927ZM3.21923 11.4694L5.33937 13.5919L5.34055 13.5907L3.21923 11.4694ZM9.96923 4.71943L12.0906 6.84075L9.96923 4.71943ZM10.4999 4.49963V1.49963V4.49963ZM11.2503 5.25005H14.2503H11.2503ZM11.0305 5.78068L13.1516 7.90218L13.1518 7.902L11.0305 5.78068ZM5.56017 11.2501L3.43903 9.12855L-1.68335 14.2501H5.56017V11.2501ZM20.9999 12.0001H17.9999C17.9999 11.4033 18.2369 10.831 18.6589 10.4091L20.7802 12.5304L22.9015 14.6517C23.6048 13.9484 23.9999 12.9946 23.9999 12.0001H20.9999ZM20.7802 12.5304L18.6589 10.4091C19.0808 9.9871 19.6531 9.75005 20.2499 9.75005V12.7501V15.7501C21.2444 15.7501 22.1982 15.355 22.9015 14.6517L20.7802 12.5304ZM20.2499 12.7501V9.75005H5.56017V12.7501V15.7501H20.2499V12.7501ZM5.56017 12.7501L3.43903 14.8716L8.90935 20.3409L11.0305 18.2194L13.1516 16.0979L7.68131 10.6286L5.56017 12.7501ZM11.0305 18.2194L8.90916 20.3407C8.70027 20.1319 8.53457 19.8839 8.42152 19.6109L11.1932 18.4629L13.9648 17.3148C13.7763 16.8598 13.5001 16.4464 13.1518 16.0981L11.0305 18.2194ZM11.1932 18.4629L8.42152 19.6109C8.30846 19.338 8.25028 19.0455 8.25028 18.7501H11.2503H14.2503C14.2503 18.2575 14.1533 17.7699 13.9648 17.3148L11.1932 18.4629ZM11.2503 18.7501H8.25028C8.25028 18.4546 8.30846 18.1621 8.42152 17.8892L11.1932 19.0372L13.9648 20.1853C14.1533 19.7302 14.2503 19.2426 14.2503 18.7501H11.2503ZM11.1932 19.0372L8.42152 17.8892C8.53457 17.6162 8.70027 17.3683 8.90916 17.1594L11.0305 19.2807L13.1518 21.402C13.5001 21.0537 13.7763 20.6403 13.9648 20.1853L11.1932 19.0372ZM11.0305 19.2807L8.90916 17.1594C9.11807 16.9505 9.36606 16.7848 9.63898 16.6717L10.787 19.4433L11.9351 22.215C12.3901 22.0265 12.8035 21.7503 13.1518 21.402L11.0305 19.2807ZM10.787 19.4433L9.63898 16.6717C9.91189 16.5587 10.2044 16.5005 10.4999 16.5005V19.5005V22.5005C10.9924 22.5005 11.4801 22.4035 11.9351 22.215L10.787 19.4433ZM10.4999 19.5005V16.5005C10.7953 16.5005 11.0878 16.5587 11.3607 16.6717L10.2127 19.4433L9.06464 22.215C9.51964 22.4035 10.0073 22.5005 10.4999 22.5005V19.5005ZM10.2127 19.4433L11.3607 16.6717C11.6337 16.7848 11.8817 16.9505 12.0906 17.1594L9.96923 19.2807L7.84791 21.402C8.19618 21.7503 8.60963 22.0265 9.06464 22.215L10.2127 19.4433ZM9.96923 19.2807L12.0906 17.1594L5.34055 10.4094L3.21923 12.5307L1.09791 14.652L7.84791 21.402L9.96923 19.2807ZM3.21923 12.5307L5.33937 10.4082C5.54857 10.6171 5.71453 10.8653 5.82776 11.1384L3.05644 12.2873L0.285119 13.4361C0.473833 13.8913 0.750427 14.3049 1.09909 14.6532L3.21923 12.5307ZM3.05644 12.2873L5.82776 11.1384C5.94099 11.4116 5.99927 11.7044 5.99927 12.0001H2.99927H-0.000732422C-0.000732422 12.4929 0.0964026 12.9808 0.285119 13.4361L3.05644 12.2873ZM2.99927 12.0001H5.99927C5.99927 12.2957 5.94099 12.5885 5.82776 12.8617L3.05644 11.7128L0.285119 10.564C0.0964026 11.0193 -0.000732422 11.5072 -0.000732422 12.0001H2.99927ZM3.05644 11.7128L5.82776 12.8617C5.71453 13.1348 5.54857 13.383 5.33937 13.5919L3.21923 11.4694L1.09909 9.34693C0.750427 9.6952 0.473833 10.1088 0.285119 10.564L3.05644 11.7128ZM3.21923 11.4694L5.34055 13.5907L12.0906 6.84075L9.96923 4.71943L7.84791 2.59811L1.09791 9.34811L3.21923 11.4694ZM9.96923 4.71943L12.0906 6.84075C11.6687 7.26263 11.0965 7.49963 10.4999 7.49963V4.49963V1.49963C9.50519 1.49963 8.55126 1.89476 7.84791 2.59811L9.96923 4.71943ZM10.4999 4.49963V7.49963C9.90324 7.49963 9.33105 7.26263 8.90916 6.84075L11.0305 4.71943L13.1518 2.59811C12.4485 1.89476 11.4945 1.49963 10.4999 1.49963V4.49963ZM11.0305 4.71943L8.90916 6.84075C8.48728 6.41887 8.25028 5.84667 8.25028 5.25005H11.2503H14.2503C14.2503 4.25538 13.8551 3.30145 13.1518 2.59811L11.0305 4.71943ZM11.2503 5.25005H8.25028C8.25028 4.65343 8.48728 4.08124 8.90916 3.65936L11.0305 5.78068L13.1518 7.902C13.8551 7.19865 14.2503 6.24472 14.2503 5.25005H11.2503ZM11.0305 5.78068L8.90935 3.65917L3.43903 9.12855L5.56017 11.2501L7.68131 13.3716L13.1516 7.90218L11.0305 5.78068ZM5.56017 11.2501V14.2501H20.2499V11.2501V8.25005H5.56017V11.2501ZM20.2499 11.2501V14.2501C19.6531 14.2501 19.0808 14.013 18.6589 13.591L20.7802 11.4697L22.9015 9.3484C22.1983 8.64514 21.2444 8.25005 20.2499 8.25005V11.2501ZM20.7802 11.4697L18.6589 13.591C18.2369 13.1691 17.9999 12.5968 17.9999 12.0001H20.9999H23.9999C23.9999 11.0055 23.6048 10.0517 22.9015 9.3484L20.7802 11.4697Z" fill="var(--stroke-0, #667085)" mask="url(#path-1-inside-1_0_309)"/>
</g>
</g>
</svg>
