<svg width="484" height="425" viewBox="0 0 484 425" fill="none" xmlns="http://www.w3.org/2000/svg">
<path d="M439.825 25.9297H44.1738C34.0968 25.9297 25.9277 34.0987 25.9277 44.1757V252.565C25.9277 262.642 34.0968 270.811 44.1738 270.811H439.825C449.902 270.811 458.071 262.642 458.071 252.565V44.1757C458.071 34.0987 449.902 25.9297 439.825 25.9297Z" fill="#1C1C1C" stroke="url(#paint0_linear_40000008_13912)" stroke-width="9.60318"/>
<path d="M33.6094 94.1054C33.6094 81.9414 39.6914 75.8594 51.8554 75.8594H432.141C444.305 75.8594 450.387 81.9414 450.387 94.1054" stroke="white" stroke-opacity="0.13" stroke-width="0.720238"/>
<path d="M33.6094 150.762C33.6094 138.598 39.6914 132.516 51.8554 132.516H432.141C444.305 132.516 450.387 138.598 450.387 150.762" stroke="white" stroke-opacity="0.13" stroke-width="0.720238"/>
<path d="M21.127 227.111C21.127 204.704 32.3307 193.5 54.7381 193.5H165.175C193.984 193.5 203.587 245.357 242 245.357C280.413 245.357 290.016 193.5 318.825 193.5H429.262C451.669 193.5 462.873 204.704 462.873 227.111V377.881C462.873 394.526 454.55 402.849 437.905 402.849H46.0952C29.4497 402.849 21.127 394.526 21.127 377.881V227.111Z" fill="#1C1C1C"/>
<path d="M21.127 227.111C21.127 204.704 32.3307 193.5 54.7381 193.5H165.175C193.984 193.5 203.587 245.357 242 245.357C280.413 245.357 290.016 193.5 318.825 193.5H429.262C451.669 193.5 462.873 204.704 462.873 227.111" stroke="white" stroke-opacity="0.16" stroke-width="0.720238"/>
<path d="M126.041 236.234H70.3427C62.785 236.234 56.6582 242.361 56.6582 249.919C56.6582 257.477 62.785 263.603 70.3427 263.603H126.041C133.599 263.603 139.726 257.477 139.726 249.919C139.726 242.361 133.599 236.234 126.041 236.234Z" fill="#0D0D0D" stroke="#B8CCFF" stroke-width="0.720238"/>
<mask id="path-7-inside-1_40000008_13912" fill="white">
<path d="M82.3503 253.083C80.7434 253.083 79.7026 252.187 79.6002 250.958L79.5948 250.893H80.5277L80.5331 250.947C80.6139 251.713 81.315 252.241 82.3503 252.241C83.3695 252.241 84.0651 251.67 84.0651 250.845V250.834C84.0651 249.879 83.3802 249.346 82.291 249.346H81.315V248.526H82.2478C83.1753 248.526 83.8224 247.954 83.8224 247.178V247.167C83.8224 246.353 83.2886 245.884 82.3395 245.884C81.4228 245.884 80.7703 246.369 80.6894 247.156L80.684 247.21H79.7512L79.7565 247.156C79.8806 245.889 80.8836 245.042 82.3395 245.042C83.8224 245.042 84.7984 245.868 84.7984 247.048V247.059C84.7984 248.019 84.119 248.677 83.1484 248.882V248.903C84.2808 249 85.0519 249.707 85.0519 250.812V250.823C85.0519 252.123 83.9087 253.083 82.3503 253.083ZM90.1477 253.061C89.0315 253.061 88.2819 252.387 88.2819 251.368V251.357C88.2819 250.403 89.0261 249.804 90.3149 249.728L91.9218 249.637V249.168C91.9218 248.483 91.4742 248.068 90.6923 248.068C89.9698 248.068 89.5168 248.413 89.409 248.914L89.3982 248.963H88.4922L88.4976 248.903C88.5785 247.981 89.382 247.237 90.7031 247.237C92.0297 247.237 92.8601 247.954 92.8601 249.076V252.953H91.9218V252.042H91.9002C91.5713 252.657 90.8973 253.061 90.1477 253.061ZM89.2418 251.368C89.2418 251.907 89.684 252.247 90.358 252.247C91.2424 252.247 91.9218 251.637 91.9218 250.823V250.365L90.4227 250.456C89.6732 250.5 89.2418 250.834 89.2418 251.357V251.368ZM96.0416 253.061C94.7205 253.061 93.9224 252.387 93.8092 251.384L93.8038 251.335H94.742L94.7528 251.389C94.8661 251.95 95.2813 252.279 96.047 252.279C96.8073 252.279 97.2603 251.961 97.2603 251.454V251.449C97.2603 251.044 97.05 250.818 96.4137 250.661L95.5239 250.446C94.467 250.192 93.9548 249.702 93.9548 248.893V248.887C93.9548 247.922 94.8014 247.237 96.0147 247.237C97.2441 247.237 98.026 247.954 98.0961 248.893L98.1015 248.963H97.2064L97.201 248.925C97.1255 248.38 96.7103 248.019 96.0147 248.019C95.3352 248.019 94.9146 248.348 94.9146 248.844V248.85C94.9146 249.232 95.168 249.497 95.7882 249.648L96.6779 249.863C97.8103 250.138 98.2201 250.586 98.2201 251.384V251.389C98.2201 252.371 97.2927 253.061 96.0416 253.061ZM101.186 253.061C99.8648 253.061 99.0668 252.387 98.9535 251.384L98.9481 251.335H99.8864L99.8972 251.389C100.01 251.95 100.426 252.279 101.191 252.279C101.952 252.279 102.405 251.961 102.405 251.454V251.449C102.405 251.044 102.194 250.818 101.558 250.661L100.668 250.446C99.6114 250.192 99.0991 249.702 99.0991 248.893V248.887C99.0991 247.922 99.9457 247.237 101.159 247.237C102.388 247.237 103.17 247.954 103.24 248.893L103.246 248.963H102.351L102.345 248.925C102.27 248.38 101.855 248.019 101.159 248.019C100.48 248.019 100.059 248.348 100.059 248.844V248.85C100.059 249.232 100.312 249.497 100.933 249.648L101.822 249.863C102.955 250.138 103.365 250.586 103.365 251.384V251.389C103.365 252.371 102.437 253.061 101.186 253.061ZM106.648 253.061C105.036 253.061 104.066 251.934 104.066 250.171V250.165C104.066 248.429 105.058 247.237 106.589 247.237C108.121 247.237 109.053 248.375 109.053 250.057V250.403H105.015C105.036 251.556 105.672 252.231 106.67 252.231C107.382 252.231 107.883 251.875 108.045 251.395L108.061 251.346H108.983L108.973 251.4C108.789 252.328 107.873 253.061 106.648 253.061ZM106.584 248.068C105.77 248.068 105.133 248.623 105.031 249.669H108.099C108.007 248.58 107.403 248.068 106.584 248.068ZM111.825 253.061C110.795 253.061 110.288 252.597 110.288 251.524V248.122H109.469V247.345H110.288V245.83H111.259V247.345H112.327V248.122H111.259V251.519C111.259 252.117 111.523 252.284 112.025 252.284C112.138 252.284 112.246 252.268 112.327 252.263V253.023C112.208 253.039 112.009 253.061 111.825 253.061ZM115.325 253.061C114.004 253.061 113.206 252.387 113.092 251.384L113.087 251.335H114.025L114.036 251.389C114.149 251.95 114.565 252.279 115.33 252.279C116.091 252.279 116.544 251.961 116.544 251.454V251.449C116.544 251.044 116.333 250.818 115.697 250.661L114.807 250.446C113.75 250.192 113.238 249.702 113.238 248.893V248.887C113.238 247.922 114.085 247.237 115.298 247.237C116.527 247.237 117.309 247.954 117.379 248.893L117.385 248.963H116.49L116.484 248.925C116.409 248.38 115.994 248.019 115.298 248.019C114.618 248.019 114.198 248.348 114.198 248.844V248.85C114.198 249.232 114.451 249.497 115.071 249.648L115.961 249.863C117.094 250.138 117.503 250.586 117.503 251.384V251.389C117.503 252.371 116.576 253.061 115.325 253.061Z"/>
</mask>
<path d="M82.3503 253.083C80.7434 253.083 79.7026 252.187 79.6002 250.958L79.5948 250.893H80.5277L80.5331 250.947C80.6139 251.713 81.315 252.241 82.3503 252.241C83.3695 252.241 84.0651 251.67 84.0651 250.845V250.834C84.0651 249.879 83.3802 249.346 82.291 249.346H81.315V248.526H82.2478C83.1753 248.526 83.8224 247.954 83.8224 247.178V247.167C83.8224 246.353 83.2886 245.884 82.3395 245.884C81.4228 245.884 80.7703 246.369 80.6894 247.156L80.684 247.21H79.7512L79.7565 247.156C79.8806 245.889 80.8836 245.042 82.3395 245.042C83.8224 245.042 84.7984 245.868 84.7984 247.048V247.059C84.7984 248.019 84.119 248.677 83.1484 248.882V248.903C84.2808 249 85.0519 249.707 85.0519 250.812V250.823C85.0519 252.123 83.9087 253.083 82.3503 253.083ZM90.1477 253.061C89.0315 253.061 88.2819 252.387 88.2819 251.368V251.357C88.2819 250.403 89.0261 249.804 90.3149 249.728L91.9218 249.637V249.168C91.9218 248.483 91.4742 248.068 90.6923 248.068C89.9698 248.068 89.5168 248.413 89.409 248.914L89.3982 248.963H88.4922L88.4976 248.903C88.5785 247.981 89.382 247.237 90.7031 247.237C92.0297 247.237 92.8601 247.954 92.8601 249.076V252.953H91.9218V252.042H91.9002C91.5713 252.657 90.8973 253.061 90.1477 253.061ZM89.2418 251.368C89.2418 251.907 89.684 252.247 90.358 252.247C91.2424 252.247 91.9218 251.637 91.9218 250.823V250.365L90.4227 250.456C89.6732 250.5 89.2418 250.834 89.2418 251.357V251.368ZM96.0416 253.061C94.7205 253.061 93.9224 252.387 93.8092 251.384L93.8038 251.335H94.742L94.7528 251.389C94.8661 251.95 95.2813 252.279 96.047 252.279C96.8073 252.279 97.2603 251.961 97.2603 251.454V251.449C97.2603 251.044 97.05 250.818 96.4137 250.661L95.5239 250.446C94.467 250.192 93.9548 249.702 93.9548 248.893V248.887C93.9548 247.922 94.8014 247.237 96.0147 247.237C97.2441 247.237 98.026 247.954 98.0961 248.893L98.1015 248.963H97.2064L97.201 248.925C97.1255 248.38 96.7103 248.019 96.0147 248.019C95.3352 248.019 94.9146 248.348 94.9146 248.844V248.85C94.9146 249.232 95.168 249.497 95.7882 249.648L96.6779 249.863C97.8103 250.138 98.2201 250.586 98.2201 251.384V251.389C98.2201 252.371 97.2927 253.061 96.0416 253.061ZM101.186 253.061C99.8648 253.061 99.0668 252.387 98.9535 251.384L98.9481 251.335H99.8864L99.8972 251.389C100.01 251.95 100.426 252.279 101.191 252.279C101.952 252.279 102.405 251.961 102.405 251.454V251.449C102.405 251.044 102.194 250.818 101.558 250.661L100.668 250.446C99.6114 250.192 99.0991 249.702 99.0991 248.893V248.887C99.0991 247.922 99.9457 247.237 101.159 247.237C102.388 247.237 103.17 247.954 103.24 248.893L103.246 248.963H102.351L102.345 248.925C102.27 248.38 101.855 248.019 101.159 248.019C100.48 248.019 100.059 248.348 100.059 248.844V248.85C100.059 249.232 100.312 249.497 100.933 249.648L101.822 249.863C102.955 250.138 103.365 250.586 103.365 251.384V251.389C103.365 252.371 102.437 253.061 101.186 253.061ZM106.648 253.061C105.036 253.061 104.066 251.934 104.066 250.171V250.165C104.066 248.429 105.058 247.237 106.589 247.237C108.121 247.237 109.053 248.375 109.053 250.057V250.403H105.015C105.036 251.556 105.672 252.231 106.67 252.231C107.382 252.231 107.883 251.875 108.045 251.395L108.061 251.346H108.983L108.973 251.4C108.789 252.328 107.873 253.061 106.648 253.061ZM106.584 248.068C105.77 248.068 105.133 248.623 105.031 249.669H108.099C108.007 248.58 107.403 248.068 106.584 248.068ZM111.825 253.061C110.795 253.061 110.288 252.597 110.288 251.524V248.122H109.469V247.345H110.288V245.83H111.259V247.345H112.327V248.122H111.259V251.519C111.259 252.117 111.523 252.284 112.025 252.284C112.138 252.284 112.246 252.268 112.327 252.263V253.023C112.208 253.039 112.009 253.061 111.825 253.061ZM115.325 253.061C114.004 253.061 113.206 252.387 113.092 251.384L113.087 251.335H114.025L114.036 251.389C114.149 251.95 114.565 252.279 115.33 252.279C116.091 252.279 116.544 251.961 116.544 251.454V251.449C116.544 251.044 116.333 250.818 115.697 250.661L114.807 250.446C113.75 250.192 113.238 249.702 113.238 248.893V248.887C113.238 247.922 114.085 247.237 115.298 247.237C116.527 247.237 117.309 247.954 117.379 248.893L117.385 248.963H116.49L116.484 248.925C116.409 248.38 115.994 248.019 115.298 248.019C114.618 248.019 114.198 248.348 114.198 248.844V248.85C114.198 249.232 114.451 249.497 115.071 249.648L115.961 249.863C117.094 250.138 117.503 250.586 117.503 251.384V251.389C117.503 252.371 116.576 253.061 115.325 253.061Z" fill="#F2F2F2"/>
<path d="M79.5948 250.893V250.413H79.0729L79.1163 250.933L79.5948 250.893ZM80.5277 250.893L81.0054 250.845L80.9622 250.413H80.5277V250.893ZM80.5331 250.947L80.0553 250.995L80.0555 250.998L80.5331 250.947ZM81.315 249.346H80.8348V249.826H81.315V249.346ZM81.315 248.526V248.046H80.8348V248.526H81.315ZM80.6894 247.156L80.2118 247.107L80.2117 247.109L80.6894 247.156ZM80.684 247.21V247.69H81.1186L81.1618 247.258L80.684 247.21ZM79.7512 247.21L79.2734 247.162L79.2206 247.69H79.7512V247.21ZM79.7565 247.156L80.2343 247.204L80.2344 247.203L79.7565 247.156ZM83.1484 248.882L83.0492 248.412L82.6682 248.492V248.882H83.1484ZM83.1484 248.903H82.6682V249.344L83.1074 249.382L83.1484 248.903ZM82.3503 253.083V252.602C80.9288 252.602 80.1554 251.839 80.0787 250.918L79.6002 250.958L79.1217 250.998C79.2498 252.535 80.5579 253.563 82.3503 253.563V253.083ZM79.6002 250.958L80.0787 250.918L80.0733 250.853L79.5948 250.893L79.1163 250.933L79.1217 250.998L79.6002 250.958ZM79.5948 250.893V251.373H80.5277V250.893V250.413H79.5948V250.893ZM80.5277 250.893L80.0499 250.941L80.0553 250.995L80.5331 250.947L81.0108 250.899L81.0054 250.845L80.5277 250.893ZM80.5331 250.947L80.0555 250.998C80.1713 252.093 81.1661 252.721 82.3503 252.721V252.241V251.761C81.4638 251.761 81.0566 251.333 81.0106 250.897L80.5331 250.947ZM82.3503 252.241V252.721C82.9465 252.721 83.4896 252.554 83.8936 252.224C84.3048 251.889 84.5452 251.404 84.5452 250.845H84.0651H83.5849C83.5849 251.111 83.4776 251.324 83.2862 251.48C83.0875 251.643 82.7732 251.761 82.3503 251.761V252.241ZM84.0651 250.845H84.5452V250.834H84.0651H83.5849V250.845H84.0651ZM84.0651 250.834H84.5452C84.5452 250.232 84.3236 249.716 83.8915 249.361C83.4721 249.016 82.9076 248.865 82.291 248.865V249.346V249.826C82.7636 249.826 83.0862 249.942 83.2815 250.103C83.4641 250.253 83.5849 250.481 83.5849 250.834H84.0651ZM82.291 249.346V248.865H81.315V249.346V249.826H82.291V249.346ZM81.315 249.346H81.7951V248.526H81.315H80.8348V249.346H81.315ZM81.315 248.526V249.006H82.2478V248.526V248.046H81.315V248.526ZM82.2478 248.526V249.006C83.3723 249.006 84.3026 248.283 84.3026 247.178H83.8224H83.3423C83.3423 247.626 82.9784 248.046 82.2478 248.046V248.526ZM83.8224 247.178H84.3026V247.167H83.8224H83.3423V247.178H83.8224ZM83.8224 247.167H84.3026C84.3026 246.65 84.1287 246.185 83.7518 245.858C83.3848 245.539 82.8871 245.404 82.3395 245.404V245.884V246.364C82.741 246.364 82.9848 246.463 83.1219 246.582C83.2492 246.693 83.3423 246.87 83.3423 247.167H83.8224ZM82.3395 245.884V245.404C81.799 245.404 81.2979 245.547 80.9097 245.843C80.5148 246.145 80.2656 246.584 80.2118 247.107L80.6894 247.156L81.1671 247.205C81.1942 246.941 81.3116 246.744 81.4924 246.606C81.6798 246.463 81.9633 246.364 82.3395 246.364V245.884ZM80.6894 247.156L80.2117 247.109L80.2063 247.162L80.684 247.21L81.1618 247.258L81.1672 247.204L80.6894 247.156ZM80.684 247.21V246.73H79.7512V247.21V247.69H80.684V247.21ZM79.7512 247.21L80.2289 247.258L80.2343 247.204L79.7565 247.156L79.2788 247.109L79.2734 247.162L79.7512 247.21ZM79.7565 247.156L80.2344 247.203C80.2847 246.69 80.5085 246.28 80.8542 245.994C81.2031 245.706 81.7044 245.523 82.3395 245.523V245.042V244.562C81.5187 244.562 80.7905 244.802 80.2429 245.254C79.6921 245.709 79.3525 246.356 79.2787 247.11L79.7565 247.156ZM82.3395 245.042V245.523C82.9949 245.523 83.4941 245.705 83.8197 245.973C84.1381 246.236 84.3183 246.601 84.3183 247.048H84.7984H85.2786C85.2786 246.315 84.9708 245.677 84.4305 245.232C83.8973 244.793 83.167 244.562 82.3395 244.562V245.042ZM84.7984 247.048H84.3183V247.059H84.7984H85.2786V247.048H84.7984ZM84.7984 247.059H84.3183C84.3183 247.735 83.8589 248.241 83.0492 248.412L83.1484 248.882L83.2476 249.352C84.3791 249.113 85.2786 248.303 85.2786 247.059H84.7984ZM83.1484 248.882H82.6682V248.903H83.1484H83.6285V248.882H83.1484ZM83.1484 248.903L83.1074 249.382C83.5857 249.423 83.9495 249.589 84.1891 249.823C84.4237 250.052 84.5717 250.378 84.5717 250.812H85.0519H85.532C85.532 250.141 85.2945 249.561 84.8605 249.136C84.4314 248.717 83.8434 248.481 83.1894 248.425L83.1484 248.903ZM85.0519 250.812H84.5717V250.823H85.0519H85.532V250.812H85.0519ZM85.0519 250.823H84.5717C84.5717 251.781 83.7269 252.602 82.3503 252.602V253.083V253.563C84.0905 253.563 85.532 252.464 85.532 250.823H85.0519ZM90.3149 249.728L90.2875 249.249L90.2868 249.249L90.3149 249.728ZM91.9218 249.637L91.9492 250.116L92.402 250.09V249.637H91.9218ZM89.409 248.914L89.8777 249.018L89.8784 249.015L89.409 248.914ZM89.3982 248.963V249.443H89.7833L89.8669 249.067L89.3982 248.963ZM88.4922 248.963L88.0141 248.919L87.9665 249.443H88.4922V248.963ZM88.4976 248.903L88.9758 248.947L88.976 248.945L88.4976 248.903ZM92.8601 252.953V253.433H93.3403V252.953H92.8601ZM91.9218 252.953H91.4417V253.433H91.9218V252.953ZM91.9218 252.042H92.402V251.562H91.9218V252.042ZM91.9002 252.042V251.562H91.6126L91.4769 251.815L91.9002 252.042ZM91.9218 250.365H92.402V249.854L91.8925 249.886L91.9218 250.365ZM90.4227 250.456L90.4503 250.936L90.452 250.936L90.4227 250.456ZM90.1477 253.061V252.581C89.6852 252.581 89.3411 252.442 89.1185 252.241C88.9002 252.043 88.7621 251.753 88.7621 251.368H88.2819H87.8018C87.8018 252.002 88.0384 252.558 88.474 252.953C88.9052 253.343 89.494 253.541 90.1477 253.541V253.061ZM88.2819 251.368H88.7621V251.357H88.2819H87.8018V251.368H88.2819ZM88.2819 251.357H88.7621C88.7621 251.019 88.8867 250.771 89.1155 250.588C89.3596 250.392 89.7597 250.242 90.343 250.208L90.3149 249.728L90.2868 249.249C89.5813 249.29 88.9649 249.477 88.5147 249.839C88.0493 250.212 87.8018 250.74 87.8018 251.357H88.2819ZM90.3149 249.728L90.3422 250.208L91.9492 250.116L91.9218 249.637L91.8945 249.157L90.2875 249.249L90.3149 249.728ZM91.9218 249.637H92.402V249.168H91.9218H91.4417V249.637H91.9218ZM91.9218 249.168H92.402C92.402 248.716 92.251 248.302 91.9222 248.005C91.5998 247.713 91.1645 247.587 90.6923 247.587V248.068V248.548C91.0021 248.548 91.1815 248.63 91.2784 248.717C91.3688 248.799 91.4417 248.934 91.4417 249.168H91.9218ZM90.6923 248.068V247.587C89.8107 247.587 89.1078 248.031 88.9395 248.813L89.409 248.914L89.8784 249.015C89.9258 248.795 90.1288 248.548 90.6923 248.548V248.068ZM89.409 248.914L88.9402 248.81L88.9294 248.859L89.3982 248.963L89.8669 249.067L89.8777 249.018L89.409 248.914ZM89.3982 248.963V248.483H88.4922V248.963V249.443H89.3982V248.963ZM88.4922 248.963L88.9704 249.006L88.9758 248.947L88.4976 248.903L88.0195 248.86L88.0141 248.919L88.4922 248.963ZM88.4976 248.903L88.976 248.945C89.0303 248.326 89.5714 247.717 90.7031 247.717V247.237V246.757C89.1926 246.757 88.1268 247.636 88.0193 248.861L88.4976 248.903ZM90.7031 247.237V247.717C91.2835 247.717 91.7017 247.874 91.9669 248.101C92.224 248.321 92.3799 248.642 92.3799 249.076H92.8601H93.3403C93.3403 248.388 93.081 247.79 92.5912 247.371C92.1095 246.959 91.4493 246.757 90.7031 246.757V247.237ZM92.8601 249.076H92.3799V252.953H92.8601H93.3403V249.076H92.8601ZM92.8601 252.953V252.473H91.9218V252.953V253.433H92.8601V252.953ZM91.9218 252.953H92.402V252.042H91.9218H91.4417V252.953H91.9218ZM91.9218 252.042V251.562H91.9002V252.042V252.522H91.9218V252.042ZM91.9002 252.042L91.4769 251.815C91.2347 252.268 90.7271 252.581 90.1477 252.581V253.061V253.541C91.0674 253.541 91.9079 253.045 92.3236 252.268L91.9002 252.042ZM89.2418 251.368H88.7616C88.7616 251.782 88.9381 252.143 89.2514 252.388C89.5528 252.623 89.9458 252.727 90.358 252.727V252.247V251.767C90.0962 251.767 89.9311 251.7 89.8429 251.631C89.7666 251.572 89.7219 251.492 89.7219 251.368H89.2418ZM90.358 252.247V252.727C91.462 252.727 92.402 251.946 92.402 250.823H91.9218H91.4417C91.4417 251.329 91.0228 251.767 90.358 251.767V252.247ZM91.9218 250.823H92.402V250.365H91.9218H91.4417V250.823H91.9218ZM91.9218 250.365L91.8925 249.886L90.3934 249.977L90.4227 250.456L90.452 250.936L91.9511 250.844L91.9218 250.365ZM90.4227 250.456L90.3951 249.977C89.9626 250.002 89.5626 250.113 89.2592 250.346C88.9392 250.591 88.7616 250.946 88.7616 251.357H89.2418H89.7219C89.7219 251.245 89.7601 251.172 89.8431 251.108C89.9428 251.032 90.1333 250.954 90.4503 250.936L90.4227 250.456ZM89.2418 251.357H88.7616V251.368H89.2418H89.7219V251.357H89.2418ZM93.8092 251.384L93.3319 251.437L93.332 251.438L93.8092 251.384ZM93.8038 251.335V250.855H93.2673L93.3265 251.388L93.8038 251.335ZM94.742 251.335L95.2129 251.241L95.1357 250.855H94.742V251.335ZM94.7528 251.389L94.282 251.483L94.2822 251.484L94.7528 251.389ZM96.4137 250.661L96.5283 250.195L96.5268 250.195L96.4137 250.661ZM95.5239 250.446L95.6371 249.979L95.6359 249.979L95.5239 250.446ZM98.0961 248.893L97.6173 248.928L97.6174 248.929L98.0961 248.893ZM98.1015 248.963V249.443H98.62L98.5803 248.926L98.1015 248.963ZM97.2064 248.963L96.731 249.031L96.7899 249.443H97.2064V248.963ZM97.201 248.925L96.7254 248.991L96.7257 248.993L97.201 248.925ZM95.7882 249.648L95.6746 250.114L95.675 250.114L95.7882 249.648ZM96.6779 249.863L96.7912 249.397L96.791 249.397L96.6779 249.863ZM96.0416 253.061V252.581C95.4605 252.581 95.0422 252.433 94.7667 252.219C94.497 252.01 94.3294 251.712 94.2863 251.33L93.8092 251.384L93.332 251.438C93.4022 252.059 93.6902 252.599 94.1781 252.978C94.6603 253.352 95.3015 253.541 96.0416 253.541V253.061ZM93.8092 251.384L94.2864 251.331L94.281 251.282L93.8038 251.335L93.3265 251.388L93.3319 251.437L93.8092 251.384ZM93.8038 251.335V251.816H94.742V251.335V250.855H93.8038V251.335ZM94.742 251.335L94.2712 251.43L94.282 251.483L94.7528 251.389L95.2237 251.295L95.2129 251.241L94.742 251.335ZM94.7528 251.389L94.2822 251.484C94.3589 251.864 94.5483 252.202 94.8765 252.435C95.1962 252.663 95.5996 252.759 96.047 252.759V252.279V251.799C95.7287 251.799 95.5416 251.73 95.434 251.654C95.3348 251.583 95.26 251.475 95.2235 251.294L94.7528 251.389ZM96.047 252.279V252.759C96.4855 252.759 96.8953 252.669 97.2104 252.453C97.5441 252.224 97.7405 251.872 97.7405 251.454H97.2603H96.7801C96.7801 251.543 96.75 251.604 96.6671 251.661C96.5657 251.73 96.3689 251.799 96.047 251.799V252.279ZM97.2603 251.454H97.7405V251.449H97.2603H96.7801V251.454H97.2603ZM97.2603 251.449H97.7405C97.7405 251.153 97.6583 250.856 97.408 250.615C97.1836 250.4 96.8718 250.279 96.5283 250.195L96.4137 250.661L96.2991 251.128C96.5919 251.2 96.7034 251.27 96.7432 251.309C96.7572 251.322 96.7801 251.34 96.7801 251.449H97.2603ZM96.4137 250.661L96.5268 250.195L95.6371 249.979L95.5239 250.446L95.4108 250.912L96.3006 251.128L96.4137 250.661ZM95.5239 250.446L95.6359 249.979C95.1502 249.862 94.8526 249.705 94.6794 249.535C94.5217 249.38 94.4349 249.184 94.4349 248.893H93.9548H93.4746C93.4746 249.41 93.644 249.864 94.0066 250.22C94.3538 250.561 94.8408 250.776 95.412 250.913L95.5239 250.446ZM93.9548 248.893H94.4349V248.887H93.9548H93.4746V248.893H93.9548ZM93.9548 248.887H94.4349C94.4349 248.28 94.9631 247.717 96.0147 247.717V247.237V246.757C94.6397 246.757 93.4746 247.564 93.4746 248.887H93.9548ZM96.0147 247.237V247.717C97.0433 247.717 97.5695 248.288 97.6173 248.928L98.0961 248.893L98.5749 248.857C98.4826 247.621 97.4449 246.757 96.0147 246.757V247.237ZM98.0961 248.893L97.6174 248.929L97.6228 249L98.1015 248.963L98.5803 248.926L98.5749 248.856L98.0961 248.893ZM98.1015 248.963V248.483H97.2064V248.963V249.443H98.1015V248.963ZM97.2064 248.963L97.6817 248.895L97.6763 248.857L97.201 248.925L96.7257 248.993L96.731 249.031L97.2064 248.963ZM97.201 248.925L97.6766 248.859C97.6237 248.478 97.4456 248.134 97.1383 247.891C96.8349 247.651 96.4445 247.539 96.0147 247.539V248.019V248.499C96.2804 248.499 96.4455 248.568 96.5424 248.644C96.6355 248.718 96.7028 248.828 96.7254 248.991L97.201 248.925ZM96.0147 248.019V247.539C95.6034 247.539 95.2163 247.638 94.9196 247.863C94.6103 248.098 94.4344 248.445 94.4344 248.844H94.9146H95.3948C95.3948 248.747 95.4292 248.682 95.5001 248.628C95.5836 248.565 95.7465 248.499 96.0147 248.499V248.019ZM94.9146 248.844H94.4344V248.85H94.9146H95.3948V248.844H94.9146ZM94.9146 248.85H94.4344C94.4344 249.162 94.5445 249.454 94.7895 249.685C95.0163 249.899 95.326 250.029 95.6746 250.114L95.7882 249.648L95.9018 249.181C95.6302 249.115 95.5032 249.038 95.4482 248.986C95.4114 248.951 95.3948 248.92 95.3948 248.85H94.9146ZM95.7882 249.648L95.675 250.114L96.5648 250.33L96.6779 249.863L96.791 249.397L95.9013 249.181L95.7882 249.648ZM96.6779 249.863L96.5646 250.33C97.0983 250.459 97.3813 250.613 97.5328 250.766C97.6645 250.898 97.74 251.075 97.74 251.384H98.2201H98.7003C98.7003 250.895 98.5708 250.449 98.2146 250.089C97.8781 249.75 97.3899 249.542 96.7912 249.397L96.6779 249.863ZM98.2201 251.384H97.74V251.389H98.2201H98.7003V251.384H98.2201ZM98.2201 251.389H97.74C97.74 251.992 97.1578 252.581 96.0416 252.581V253.061V253.541C97.4275 253.541 98.7003 252.75 98.7003 251.389H98.2201ZM98.9535 251.384L98.4763 251.437L98.4764 251.438L98.9535 251.384ZM98.9481 251.335V250.855H98.4117L98.4709 251.388L98.9481 251.335ZM99.8864 251.335L100.357 251.241L100.28 250.855H99.8864V251.335ZM99.8972 251.389L99.4264 251.483L99.4265 251.484L99.8972 251.389ZM101.558 250.661L101.673 250.195L101.671 250.195L101.558 250.661ZM100.668 250.446L100.781 249.979L100.78 249.979L100.668 250.446ZM103.24 248.893L102.762 248.928L102.762 248.929L103.24 248.893ZM103.246 248.963V249.443H103.764L103.725 248.926L103.246 248.963ZM102.351 248.963L101.875 249.031L101.934 249.443H102.351V248.963ZM102.345 248.925L101.87 248.991L101.87 248.993L102.345 248.925ZM100.933 249.648L100.819 250.114L100.819 250.114L100.933 249.648ZM101.822 249.863L101.936 249.397L101.935 249.397L101.822 249.863ZM101.186 253.061V252.581C100.605 252.581 100.187 252.433 99.9111 252.219C99.6414 252.01 99.4737 251.712 99.4306 251.33L98.9535 251.384L98.4764 251.438C98.5466 252.059 98.8346 252.599 99.3225 252.978C99.8046 253.352 100.446 253.541 101.186 253.541V253.061ZM98.9535 251.384L99.4307 251.331L99.4253 251.282L98.9481 251.335L98.4709 251.388L98.4763 251.437L98.9535 251.384ZM98.9481 251.335V251.816H99.8864V251.335V250.855H98.9481V251.335ZM99.8864 251.335L99.4156 251.43L99.4264 251.483L99.8972 251.389L100.368 251.295L100.357 251.241L99.8864 251.335ZM99.8972 251.389L99.4265 251.484C99.5033 251.864 99.6927 252.202 100.021 252.435C100.341 252.663 100.744 252.759 101.191 252.759V252.279V251.799C100.873 251.799 100.686 251.73 100.578 251.654C100.479 251.583 100.404 251.475 100.368 251.294L99.8972 251.389ZM101.191 252.279V252.759C101.63 252.759 102.04 252.669 102.355 252.453C102.688 252.224 102.885 251.872 102.885 251.454H102.405H101.924C101.924 251.543 101.894 251.604 101.811 251.661C101.71 251.73 101.513 251.799 101.191 251.799V252.279ZM102.405 251.454H102.885V251.449H102.405H101.924V251.454H102.405ZM102.405 251.449H102.885C102.885 251.153 102.803 250.856 102.552 250.615C102.328 250.4 102.016 250.279 101.673 250.195L101.558 250.661L101.443 251.128C101.736 251.2 101.848 251.27 101.888 251.309C101.902 251.322 101.924 251.34 101.924 251.449H102.405ZM101.558 250.661L101.671 250.195L100.781 249.979L100.668 250.446L100.555 250.912L101.445 251.128L101.558 250.661ZM100.668 250.446L100.78 249.979C100.295 249.862 99.9969 249.705 99.8238 249.535C99.666 249.38 99.5793 249.184 99.5793 248.893H99.0991H98.619C98.619 249.41 98.7883 249.864 99.151 250.22C99.4982 250.561 99.9851 250.776 100.556 250.913L100.668 250.446ZM99.0991 248.893H99.5793V248.887H99.0991H98.619V248.893H99.0991ZM99.0991 248.887H99.5793C99.5793 248.28 100.107 247.717 101.159 247.717V247.237V246.757C99.784 246.757 98.619 247.564 98.619 248.887H99.0991ZM101.159 247.237V247.717C102.188 247.717 102.714 248.288 102.762 248.928L103.24 248.893L103.719 248.857C103.627 247.621 102.589 246.757 101.159 246.757V247.237ZM103.24 248.893L102.762 248.929L102.767 249L103.246 248.963L103.725 248.926L103.719 248.856L103.24 248.893ZM103.246 248.963V248.483H102.351V248.963V249.443H103.246V248.963ZM102.351 248.963L102.826 248.895L102.821 248.857L102.345 248.925L101.87 248.993L101.875 249.031L102.351 248.963ZM102.345 248.925L102.821 248.859C102.768 248.478 102.59 248.134 102.283 247.891C101.979 247.651 101.589 247.539 101.159 247.539V248.019V248.499C101.425 248.499 101.59 248.568 101.687 248.644C101.78 248.718 101.847 248.828 101.87 248.991L102.345 248.925ZM101.159 248.019V247.539C100.748 247.539 100.361 247.638 100.064 247.863C99.7547 248.098 99.5788 248.445 99.5788 248.844H100.059H100.539C100.539 248.747 100.574 248.682 100.644 248.628C100.728 248.565 100.891 248.499 101.159 248.499V248.019ZM100.059 248.844H99.5788V248.85H100.059H100.539V248.844H100.059ZM100.059 248.85H99.5788C99.5788 249.162 99.6889 249.454 99.9339 249.685C100.161 249.899 100.47 250.029 100.819 250.114L100.933 249.648L101.046 249.181C100.775 249.115 100.648 249.038 100.593 248.986C100.556 248.951 100.539 248.92 100.539 248.85H100.059ZM100.933 249.648L100.819 250.114L101.709 250.33L101.822 249.863L101.935 249.397L101.046 249.181L100.933 249.648ZM101.822 249.863L101.709 250.33C102.243 250.459 102.526 250.613 102.677 250.766C102.809 250.898 102.884 251.075 102.884 251.384H103.365H103.845C103.845 250.895 103.715 250.449 103.359 250.089C103.022 249.75 102.534 249.542 101.936 249.397L101.822 249.863ZM103.365 251.384H102.884V251.389H103.365H103.845V251.384H103.365ZM103.365 251.389H102.884C102.884 251.992 102.302 252.581 101.186 252.581V253.061V253.541C102.572 253.541 103.845 252.75 103.845 251.389H103.365ZM109.053 250.403V250.883H109.534V250.403H109.053ZM105.015 250.403V249.922H104.525L104.535 250.411L105.015 250.403ZM108.045 251.395L108.5 251.548L108.501 251.547L108.045 251.395ZM108.061 251.346V250.866H107.715L107.606 251.194L108.061 251.346ZM108.983 251.346L109.454 251.44L109.569 250.866H108.983V251.346ZM108.973 251.4L108.502 251.306L108.502 251.307L108.973 251.4ZM105.031 249.669L104.553 249.622L104.501 250.149H105.031V249.669ZM108.099 249.669V250.149H108.621L108.578 249.629L108.099 249.669ZM106.648 253.061V252.581C105.961 252.581 105.453 252.345 105.112 251.959C104.765 251.566 104.546 250.967 104.546 250.171H104.066H103.585C103.585 251.137 103.852 251.984 104.393 252.595C104.94 253.214 105.724 253.541 106.648 253.541V253.061ZM104.066 250.171H104.546V250.165H104.066H103.585V250.171H104.066ZM104.066 250.165H104.546C104.546 249.386 104.768 248.772 105.118 248.362C105.462 247.959 105.958 247.717 106.589 247.717V247.237V246.757C105.689 246.757 104.923 247.112 104.388 247.738C103.859 248.358 103.585 249.208 103.585 250.165H104.066ZM106.589 247.237V247.717C107.227 247.717 107.706 247.95 108.031 248.329C108.364 248.717 108.573 249.301 108.573 250.057H109.053H109.534C109.534 249.131 109.277 248.305 108.76 247.704C108.236 247.094 107.483 246.757 106.589 246.757V247.237ZM109.053 250.057H108.573V250.403H109.053H109.534V250.057H109.053ZM109.053 250.403V249.922H105.015V250.403V250.883H109.053V250.403ZM105.015 250.403L104.535 250.411C104.547 251.072 104.737 251.653 105.122 252.074C105.513 252.5 106.058 252.711 106.67 252.711V252.231V251.75C106.285 251.75 106.013 251.624 105.83 251.425C105.643 251.22 105.504 250.887 105.495 250.394L105.015 250.403ZM106.67 252.231V252.711C107.541 252.711 108.259 252.264 108.5 251.548L108.045 251.395L107.59 251.241C107.508 251.485 107.222 251.75 106.67 251.75V252.231ZM108.045 251.395L108.501 251.547L108.517 251.498L108.061 251.346L107.606 251.194L107.59 251.243L108.045 251.395ZM108.061 251.346V251.826H108.983V251.346V250.866H108.061V251.346ZM108.983 251.346L108.513 251.252L108.502 251.306L108.973 251.4L109.443 251.494L109.454 251.44L108.983 251.346ZM108.973 251.4L108.502 251.307C108.371 251.969 107.687 252.581 106.648 252.581V253.061V253.541C108.058 253.541 109.208 252.686 109.444 251.493L108.973 251.4ZM106.584 248.068V247.587C106.063 247.587 105.575 247.767 105.203 248.134C104.834 248.498 104.613 249.012 104.553 249.622L105.031 249.669L105.509 249.716C105.551 249.28 105.7 248.993 105.877 248.818C106.053 248.645 106.29 248.548 106.584 248.548V248.068ZM105.031 249.669V250.149H108.099V249.669V249.189H105.031V249.669ZM108.099 249.669L108.578 249.629C108.525 249.005 108.32 248.486 107.953 248.12C107.583 247.75 107.097 247.587 106.584 247.587V248.068V248.548C106.89 248.548 107.116 248.641 107.275 248.8C107.439 248.963 107.581 249.244 107.621 249.709L108.099 249.669ZM110.288 248.122H110.769V247.641H110.288V248.122ZM109.469 248.122H108.989V248.602H109.469V248.122ZM109.469 247.345V246.865H108.989V247.345H109.469ZM110.288 247.345V247.825H110.769V247.345H110.288ZM110.288 245.83V245.35H109.808V245.83H110.288ZM111.259 245.83H111.739V245.35H111.259V245.83ZM111.259 247.345H110.779V247.825H111.259V247.345ZM112.327 247.345H112.807V246.865H112.327V247.345ZM112.327 248.122V248.602H112.807V248.122H112.327ZM111.259 248.122V247.641H110.779V248.122H111.259ZM112.327 252.263H112.807V251.75L112.295 251.784L112.327 252.263ZM112.327 253.023L112.392 253.499L112.807 253.442V253.023H112.327ZM111.825 253.061V252.581C111.372 252.581 111.135 252.478 111.006 252.352C110.88 252.228 110.769 251.994 110.769 251.524H110.288H109.808C109.808 252.128 109.95 252.662 110.335 253.038C110.717 253.412 111.249 253.541 111.825 253.541V253.061ZM110.288 251.524H110.769V248.122H110.288H109.808V251.524H110.288ZM110.288 248.122V247.641H109.469V248.122V248.602H110.288V248.122ZM109.469 248.122H109.949V247.345H109.469H108.989V248.122H109.469ZM109.469 247.345V247.825H110.288V247.345V246.865H109.469V247.345ZM110.288 247.345H110.769V245.83H110.288H109.808V247.345H110.288ZM110.288 245.83V246.31H111.259V245.83V245.35H110.288V245.83ZM111.259 245.83H110.779V247.345H111.259H111.739V245.83H111.259ZM111.259 247.345V247.825H112.327V247.345V246.865H111.259V247.345ZM112.327 247.345H111.847V248.122H112.327H112.807V247.345H112.327ZM112.327 248.122V247.641H111.259V248.122V248.602H112.327V248.122ZM111.259 248.122H110.779V251.519H111.259H111.739V248.122H111.259ZM111.259 251.519H110.779C110.779 251.874 110.856 252.232 111.131 252.482C111.397 252.722 111.742 252.765 112.025 252.765V252.284V251.804C111.806 251.804 111.768 251.763 111.776 251.77C111.795 251.787 111.739 251.762 111.739 251.519H111.259ZM112.025 252.284V252.765C112.153 252.765 112.337 252.743 112.359 252.742L112.327 252.263L112.295 251.784C112.247 251.787 112.179 251.794 112.144 251.798C112.098 251.802 112.06 251.804 112.025 251.804V252.284ZM112.327 252.263H111.847V253.023H112.327H112.807V252.263H112.327ZM112.327 253.023L112.262 252.547C112.153 252.562 111.977 252.581 111.825 252.581V253.061V253.541C112.04 253.541 112.263 253.516 112.392 253.499L112.327 253.023ZM113.092 251.384L112.615 251.437L112.615 251.438L113.092 251.384ZM113.087 251.335V250.855H112.551L112.61 251.388L113.087 251.335ZM114.025 251.335L114.496 251.241L114.419 250.855H114.025V251.335ZM114.036 251.389L113.565 251.483L113.565 251.484L114.036 251.389ZM115.697 250.661L115.812 250.195L115.81 250.195L115.697 250.661ZM114.807 250.446L114.92 249.979L114.919 249.979L114.807 250.446ZM117.379 248.893L116.901 248.928L116.901 248.929L117.379 248.893ZM117.385 248.963V249.443H117.903L117.864 248.926L117.385 248.963ZM116.49 248.963L116.014 249.031L116.073 249.443H116.49V248.963ZM116.484 248.925L116.009 248.991L116.009 248.993L116.484 248.925ZM115.071 249.648L114.958 250.114L114.958 250.114L115.071 249.648ZM115.961 249.863L116.074 249.397L116.074 249.397L115.961 249.863ZM115.325 253.061V252.581C114.744 252.581 114.325 252.433 114.05 252.219C113.78 252.01 113.613 251.712 113.57 251.33L113.092 251.384L112.615 251.438C112.685 252.059 112.973 252.599 113.461 252.978C113.944 253.352 114.585 253.541 115.325 253.541V253.061ZM113.092 251.384L113.57 251.331L113.564 251.282L113.087 251.335L112.61 251.388L112.615 251.437L113.092 251.384ZM113.087 251.335V251.816H114.025V251.335V250.855H113.087V251.335ZM114.025 251.335L113.554 251.43L113.565 251.483L114.036 251.389L114.507 251.295L114.496 251.241L114.025 251.335ZM114.036 251.389L113.565 251.484C113.642 251.864 113.832 252.202 114.16 252.435C114.479 252.663 114.883 252.759 115.33 252.759V252.279V251.799C115.012 251.799 114.825 251.73 114.717 251.654C114.618 251.583 114.543 251.475 114.507 251.294L114.036 251.389ZM115.33 252.279V252.759C115.769 252.759 116.179 252.669 116.494 252.453C116.827 252.224 117.024 251.872 117.024 251.454H116.544H116.063C116.063 251.543 116.033 251.604 115.95 251.661C115.849 251.73 115.652 251.799 115.33 251.799V252.279ZM116.544 251.454H117.024V251.449H116.544H116.063V251.454H116.544ZM116.544 251.449H117.024C117.024 251.153 116.942 250.856 116.691 250.615C116.467 250.4 116.155 250.279 115.812 250.195L115.697 250.661L115.582 251.128C115.875 251.2 115.987 251.27 116.026 251.309C116.04 251.322 116.063 251.34 116.063 251.449H116.544ZM115.697 250.661L115.81 250.195L114.92 249.979L114.807 250.446L114.694 250.912L115.584 251.128L115.697 250.661ZM114.807 250.446L114.919 249.979C114.433 249.862 114.136 249.705 113.963 249.535C113.805 249.38 113.718 249.184 113.718 248.893H113.238H112.758C112.758 249.41 112.927 249.864 113.29 250.22C113.637 250.561 114.124 250.776 114.695 250.913L114.807 250.446ZM113.238 248.893H113.718V248.887H113.238H112.758V248.893H113.238ZM113.238 248.887H113.718C113.718 248.28 114.246 247.717 115.298 247.717V247.237V246.757C113.923 246.757 112.758 247.564 112.758 248.887H113.238ZM115.298 247.237V247.717C116.327 247.717 116.853 248.288 116.901 248.928L117.379 248.893L117.858 248.857C117.766 247.621 116.728 246.757 115.298 246.757V247.237ZM117.379 248.893L116.901 248.929L116.906 249L117.385 248.963L117.864 248.926L117.858 248.856L117.379 248.893ZM117.385 248.963V248.483H116.49V248.963V249.443H117.385V248.963ZM116.49 248.963L116.965 248.895L116.96 248.857L116.484 248.925L116.009 248.993L116.014 249.031L116.49 248.963ZM116.484 248.925L116.96 248.859C116.907 248.478 116.729 248.134 116.422 247.891C116.118 247.651 115.728 247.539 115.298 247.539V248.019V248.499C115.564 248.499 115.729 248.568 115.826 248.644C115.919 248.718 115.986 248.828 116.009 248.991L116.484 248.925ZM115.298 248.019V247.539C114.887 247.539 114.5 247.638 114.203 247.863C113.894 248.098 113.718 248.445 113.718 248.844H114.198H114.678C114.678 248.747 114.712 248.682 114.783 248.628C114.867 248.565 115.03 248.499 115.298 248.499V248.019ZM114.198 248.844H113.718V248.85H114.198H114.678V248.844H114.198ZM114.198 248.85H113.718C113.718 249.162 113.828 249.454 114.073 249.685C114.299 249.899 114.609 250.029 114.958 250.114L115.071 249.648L115.185 249.181C114.913 249.115 114.786 249.038 114.731 248.986C114.695 248.951 114.678 248.92 114.678 248.85H114.198ZM115.071 249.648L114.958 250.114L115.848 250.33L115.961 249.863L116.074 249.397L115.185 249.181L115.071 249.648ZM115.961 249.863L115.848 250.33C116.382 250.459 116.665 250.613 116.816 250.766C116.948 250.898 117.023 251.075 117.023 251.384H117.503H117.984C117.984 250.895 117.854 250.449 117.498 250.089C117.161 249.75 116.673 249.542 116.074 249.397L115.961 249.863ZM117.503 251.384H117.023V251.389H117.503H117.984V251.384H117.503ZM117.503 251.389H117.023C117.023 251.992 116.441 252.581 115.325 252.581V253.061V253.541C116.711 253.541 117.984 252.75 117.984 251.389H117.503Z" fill="#B8CCFF" mask="url(#path-7-inside-1_40000008_13912)"/>
<path d="M60.661 308.09C57.4645 308.09 55.4079 305.762 55.4079 302.143V302.135C55.4079 298.516 57.4565 296.204 60.661 296.204C63.0524 296.204 64.9098 297.655 65.3482 299.831L65.3641 299.911H63.9133L63.8575 299.736C63.4111 298.341 62.2792 297.528 60.661 297.528C58.3653 297.528 56.8826 299.337 56.8826 302.135V302.143C56.8826 304.941 58.3732 306.767 60.661 306.767C62.2712 306.767 63.3872 305.969 63.8894 304.455L63.9133 304.383H65.3641L65.3482 304.463C64.9098 306.663 63.0684 308.09 60.661 308.09ZM69.6767 308.058C67.8592 308.058 66.807 306.878 66.807 304.989V299.608H68.194V304.742C68.194 306.089 68.8237 306.83 70.0991 306.83C71.4064 306.83 72.2594 305.898 72.2594 304.487V299.608H73.6464V307.898H72.2594V306.719H72.2275C71.7811 307.492 70.9361 308.058 69.6767 308.058ZM75.4559 307.898V299.608H76.8429V301.011H76.8748C77.1538 300.055 77.8712 299.449 78.8039 299.449C79.043 299.449 79.2503 299.489 79.3619 299.505V300.852C79.2503 300.812 78.9554 300.772 78.6206 300.772C77.5444 300.772 76.8429 301.521 76.8429 302.781V307.898H75.4559ZM80.4938 307.898V299.608H81.8808V301.011H81.9127C82.1917 300.055 82.9092 299.449 83.8418 299.449C84.081 299.449 84.2882 299.489 84.3998 299.505V300.852C84.2882 300.812 83.9933 300.772 83.6585 300.772C82.5823 300.772 81.8808 301.521 81.8808 302.781V307.898H80.4938ZM88.5449 308.058C86.1615 308.058 84.7266 306.392 84.7266 303.785V303.777C84.7266 301.21 86.1934 299.449 88.4572 299.449C90.7211 299.449 92.1002 301.131 92.1002 303.618V304.128H86.1296C86.1615 305.834 87.1021 306.83 88.5768 306.83C89.629 306.83 90.3704 306.304 90.6095 305.595L90.6334 305.523H91.9965L91.9806 305.603C91.7096 306.974 90.3544 308.058 88.5449 308.058ZM88.4493 300.676C87.2456 300.676 86.305 301.497 86.1535 303.044H90.6892C90.5537 301.434 89.6609 300.676 88.4493 300.676ZM93.5031 307.898V299.608H94.8902V300.788H94.922C95.3684 300.015 96.2134 299.449 97.4729 299.449C99.2904 299.449 100.343 300.629 100.343 302.518V307.898H98.9556V302.765C98.9556 301.418 98.3258 300.676 97.0504 300.676C95.7431 300.676 94.8902 301.609 94.8902 303.02V307.898H93.5031ZM104.807 308.058C103.284 308.058 102.535 307.372 102.535 305.786V300.756H101.323V299.608H102.535V297.368H103.97V299.608H105.548V300.756H103.97V305.778C103.97 306.663 104.36 306.91 105.101 306.91C105.269 306.91 105.428 306.886 105.548 306.878V308.002C105.373 308.026 105.078 308.058 104.807 308.058ZM114.508 308.058C113.32 308.058 112.395 307.46 111.877 306.495H111.845V307.898H110.458V296.396H111.845V300.995H111.877C112.395 300.039 113.36 299.449 114.532 299.449C116.612 299.449 118.031 301.131 118.031 303.745V303.753C118.031 306.368 116.628 308.058 114.508 308.058ZM114.237 306.83C115.703 306.83 116.612 305.658 116.612 303.753V303.745C116.612 301.856 115.703 300.676 114.237 300.676C112.842 300.676 111.837 301.896 111.837 303.745V303.753C111.837 305.611 112.834 306.83 114.237 306.83ZM121.849 308.058C120.199 308.058 119.091 307.061 119.091 305.555V305.539C119.091 304.128 120.191 303.243 122.096 303.132L124.472 302.996V302.303C124.472 301.29 123.81 300.676 122.654 300.676C121.586 300.676 120.917 301.187 120.757 301.928L120.741 302H119.402L119.41 301.912C119.53 300.549 120.717 299.449 122.67 299.449C124.631 299.449 125.859 300.509 125.859 302.167V307.898H124.472V306.551H124.44C123.954 307.46 122.957 308.058 121.849 308.058ZM120.51 305.555C120.51 306.352 121.164 306.854 122.16 306.854C123.468 306.854 124.472 305.953 124.472 304.75V304.072L122.256 304.208C121.148 304.271 120.51 304.766 120.51 305.539V305.555ZM127.692 307.898V296.396H129.079V307.898H127.692ZM133.376 308.058C131.726 308.058 130.618 307.061 130.618 305.555V305.539C130.618 304.128 131.718 303.243 133.623 303.132L135.999 302.996V302.303C135.999 301.29 135.337 300.676 134.181 300.676C133.113 300.676 132.443 301.187 132.284 301.928L132.268 302H130.929L130.937 301.912C131.056 300.549 132.244 299.449 134.197 299.449C136.158 299.449 137.386 300.509 137.386 302.167V307.898H135.999V306.551H135.967C135.48 307.46 134.484 308.058 133.376 308.058ZM132.037 305.555C132.037 306.352 132.69 306.854 133.687 306.854C134.994 306.854 135.999 305.953 135.999 304.75V304.072L133.783 304.208C132.675 304.271 132.037 304.766 132.037 305.539V305.555ZM139.147 307.898V299.608H140.534V300.788H140.566C141.013 300.015 141.858 299.449 143.117 299.449C144.935 299.449 145.987 300.629 145.987 302.518V307.898H144.6V302.765C144.6 301.418 143.97 300.676 142.695 300.676C141.387 300.676 140.534 301.609 140.534 303.02V307.898H139.147ZM151.192 308.058C148.84 308.058 147.35 306.384 147.35 303.745V303.737C147.35 301.123 148.872 299.449 151.176 299.449C153.241 299.449 154.46 300.82 154.636 302.239L154.644 302.303H153.289L153.273 302.239C153.065 301.41 152.396 300.676 151.176 300.676C149.733 300.676 148.769 301.872 148.769 303.753V303.761C148.769 305.69 149.757 306.83 151.192 306.83C152.324 306.83 153.049 306.193 153.281 305.268L153.296 305.204H154.66L154.652 305.26C154.428 306.838 153.065 308.058 151.192 308.058ZM159.347 308.058C156.963 308.058 155.528 306.392 155.528 303.785V303.777C155.528 301.21 156.995 299.449 159.259 299.449C161.523 299.449 162.902 301.131 162.902 303.618V304.128H156.931C156.963 305.834 157.904 306.83 159.379 306.83C160.431 306.83 161.172 306.304 161.411 305.595L161.435 305.523H162.798L162.782 305.603C162.511 306.974 161.156 308.058 159.347 308.058ZM159.251 300.676C158.047 300.676 157.107 301.497 156.955 303.044H161.491C161.356 301.434 160.463 300.676 159.251 300.676Z" fill="#F2F2F2" fill-opacity="0.95"/>
<path d="M55.8306 358.209V348.203H53.0453V345.871H55.8306V341.91H53.0453V339.579H55.8306V329.675H61.0711L65.8164 339.579H71.6139V329.675H75.926V339.579H78.7732V341.91H75.926V345.871H78.7732V348.203H75.926V358.209H70.6855L65.8989 348.203H60.1427V358.209H55.8306ZM60.1427 336.587V339.579H61.7726L60.3283 336.587H60.1427ZM60.1427 345.871H64.7848L62.8867 341.91H60.1427V345.871ZM68.8287 345.871H71.6139V341.91H66.9305L68.8287 345.871ZM71.4283 351.277H71.6139V348.203H69.9428L71.4283 351.277ZM95.485 358.828V352.907H80.5888V348.884L93.2361 329.056H99.9208V349.028H104.027V352.907H99.9208V358.828H95.485ZM84.8802 349.09H95.5262V332.708H95.4024L84.8802 348.966V349.09ZM118.18 359.323C112.217 359.323 108.07 355.713 107.658 350.802L107.637 350.555H112.052L112.073 350.72C112.465 353.402 114.9 355.465 118.221 355.465C121.976 355.465 124.596 352.866 124.596 349.172V349.131C124.576 345.479 121.956 342.9 118.262 342.9C116.426 342.9 114.838 343.437 113.641 344.51C113.084 344.984 112.609 345.562 112.217 346.222H108.174L109.638 329.056H127.382V332.956H113.373L112.465 342.385H112.568C113.909 340.383 116.385 339.249 119.315 339.249C125.009 339.249 129.115 343.354 129.115 349.049V349.09C129.115 355.135 124.596 359.323 118.18 359.323ZM143.743 359.323C136.625 359.323 132.375 353.402 132.375 343.953V343.911C132.375 334.462 136.625 328.561 143.743 328.561C150.84 328.561 155.111 334.462 155.111 343.911V343.953C155.111 353.402 150.84 359.323 143.743 359.323ZM143.743 355.465C147.972 355.465 150.448 351.091 150.448 343.953V343.911C150.448 336.773 147.972 332.44 143.743 332.44C139.493 332.44 137.037 336.773 137.037 343.911V343.953C137.037 351.091 139.493 355.465 143.743 355.465ZM156.885 364.811L158.577 354.248H163.034L160.021 364.811H156.885ZM178.672 359.323C172.71 359.323 168.563 355.713 168.15 350.802L168.13 350.555H172.545L172.565 350.72C172.957 353.402 175.392 355.465 178.714 355.465C182.469 355.465 185.089 352.866 185.089 349.172V349.131C185.068 345.479 182.448 342.9 178.755 342.9C176.919 342.9 175.33 343.437 174.133 344.51C173.576 344.984 173.102 345.562 172.71 346.222H168.666L170.131 329.056H187.874V332.956H173.865L172.957 342.385H173.061C174.402 340.383 176.877 339.249 179.807 339.249C185.502 339.249 189.607 343.354 189.607 349.049V349.09C189.607 355.135 185.089 359.323 178.672 359.323ZM207.516 358.828V352.907H192.62V348.884L205.267 329.056H211.952V349.028H216.057V352.907H211.952V358.828H207.516ZM196.911 349.09H207.557V332.708H207.433L196.911 348.966V349.09ZM233.718 358.828V352.907H218.822V348.884L231.469 329.056H238.154V349.028H242.26V352.907H238.154V358.828H233.718ZM223.113 349.09H233.759V332.708H233.636L223.113 348.966V349.09ZM248.202 359.138C246.675 359.138 245.478 357.941 245.478 356.435C245.478 354.908 246.675 353.732 248.202 353.732C249.708 353.732 250.904 354.908 250.904 356.435C250.904 357.941 249.708 359.138 248.202 359.138ZM265.924 359.323C258.806 359.323 254.556 353.402 254.556 343.953V343.911C254.556 334.462 258.806 328.561 265.924 328.561C273.022 328.561 277.293 334.462 277.293 343.911V343.953C277.293 353.402 273.022 359.323 265.924 359.323ZM265.924 355.465C270.154 355.465 272.63 351.091 272.63 343.953V343.911C272.63 336.773 270.154 332.44 265.924 332.44C261.674 332.44 259.219 336.773 259.219 343.911V343.953C259.219 351.091 261.674 355.465 265.924 355.465ZM292.292 359.323C285.174 359.323 280.924 353.402 280.924 343.953V343.911C280.924 334.462 285.174 328.561 292.292 328.561C299.389 328.561 303.66 334.462 303.66 343.911V343.953C303.66 353.402 299.389 359.323 292.292 359.323ZM292.292 355.465C296.521 355.465 298.997 351.091 298.997 343.953V343.911C298.997 336.773 296.521 332.44 292.292 332.44C288.042 332.44 285.587 336.773 285.587 343.911V343.953C285.587 351.091 288.042 355.465 292.292 355.465Z" fill="#FDFDFD"/>
<path d="M397.258 298.649C417.147 298.649 433.27 282.526 433.27 262.637C433.27 242.748 417.147 226.625 397.258 226.625C377.369 226.625 361.246 242.748 361.246 262.637C361.246 282.526 377.369 298.649 397.258 298.649Z" fill="url(#paint1_linear_40000008_13912)"/>
<path d="M397.258 250.641V274.649ZM385.254 262.645H409.262Z" fill="black"/>
<path d="M397.258 250.641V274.649M385.254 262.645H409.262" stroke="#15231A" stroke-width="3.36111" stroke-linecap="round"/>
<defs>
<linearGradient id="paint0_linear_40000008_13912" x1="25.9277" y1="25.9297" x2="252.119" y2="284.21" gradientUnits="userSpaceOnUse">
<stop stop-color="#B9CDFF"/>
<stop offset="1" stop-color="#B4C9FF"/>
</linearGradient>
<linearGradient id="paint1_linear_40000008_13912" x1="372.05" y1="226.625" x2="400.859" y2="298.649" gradientUnits="userSpaceOnUse">
<stop stop-color="#B4C9FE"/>
<stop offset="1" stop-color="#B8CCFF"/>
</linearGradient>
</defs>
</svg>
