<svg preserveAspectRatio="none" width="100%" height="100%" overflow="visible" style="display: block;" viewBox="0 0 442.466 209.709" fill="none" xmlns="http://www.w3.org/2000/svg">
<g id="Front card">
<path id="Front card fill" d="M0.360119 33.9712C0.360119 11.5638 11.5638 0.360119 33.9712 0.360119H144.408C173.217 0.360119 182.82 52.2173 221.233 52.2173C259.646 52.2173 269.249 0.360119 298.059 0.360119H408.495C430.902 0.360119 442.106 11.5638 442.106 33.9712V184.741C442.106 201.387 433.783 209.709 417.138 209.709H25.3284C8.68287 209.709 0.360119 201.387 0.360119 184.741V33.9712Z" fill="var(--fill-0, #1C1C1C)"/>
<path id="Wave line" d="M0.360119 33.9712C0.360119 11.5638 11.5638 0.360119 33.9712 0.360119H144.408C173.217 0.360119 182.82 52.2173 221.233 52.2173C259.646 52.2173 269.249 0.360119 298.059 0.360119H408.495C430.902 0.360119 442.106 11.5638 442.106 33.9712" stroke="var(--stroke-0, white)" stroke-opacity="0.16" stroke-width="0.720238"/>
</g>
</svg>
