<svg preserveAspectRatio="none" width="100%" height="100%" overflow="visible" style="display: block;" viewBox="0 0 39.9961 39.9961" fill="none" xmlns="http://www.w3.org/2000/svg">
<g id="image 40 [Vectorized]">
<path id="Vector" d="M9.31792 7.3044L16.5759 7.29757C18.1013 7.29855 20.3312 7.26687 21.7978 7.50435C23.509 7.77795 25.1588 8.35059 26.6716 9.19598C28.8184 10.4245 30.4583 12.3764 31.2982 14.7029C31.4453 15.1079 31.5869 15.725 31.7075 16.1586C32.6997 16.2597 33.9103 15.9961 34.8232 16.5477C35.5125 16.9642 35.8679 17.6576 35.9472 18.4435C35.9848 18.8159 35.947 19.1105 36.0414 19.4912L36.0464 19.5111C35.9346 19.3942 35.7987 19.2227 35.6699 19.1292C34.8966 18.568 33.8917 18.7678 32.9995 18.7413C32.6978 18.7324 32.4661 18.7611 32.1667 18.6874C32.1739 19.4209 32.1957 20.6182 32.1384 21.3062C33.8162 21.3462 35.5818 21.1584 35.9072 23.3671C35.9472 23.6383 36.0013 24.2595 35.9418 24.5033C35.8433 24.4944 35.7576 24.2767 35.6813 24.218C34.9327 23.6429 32.698 23.9058 31.7321 23.8626C31.6755 23.9984 31.635 24.1425 31.6058 24.2836C31.2074 26.2046 30.1552 28.0279 28.7474 29.3865C28.559 29.5684 28.3626 29.7211 28.1755 29.923C24.8259 32.5847 21.1889 32.7571 17.1266 32.7571L12.6899 32.7561L10.6622 32.7545C10.2251 32.7547 9.59578 32.7352 9.18199 32.8228C10.4162 31.5545 10.4243 29.9172 10.4471 28.2673C10.4675 26.7986 10.4562 25.3312 10.472 23.8631C9.37053 23.8791 8.26255 24.0411 7.42392 23.2303C6.66892 22.5002 6.66935 21.7128 6.64779 20.737C7.23832 21.0924 7.56063 21.3182 8.27431 21.3582C9.00127 21.3989 9.74245 21.3183 10.4634 21.361C10.4251 20.5209 10.4795 19.5907 10.4447 18.7204C10.4241 18.7222 10.4036 18.7237 10.383 18.7248C9.43865 18.7792 8.20018 18.856 7.46861 18.1796C6.62431 17.3988 6.69017 16.5658 6.6399 15.5237C6.68817 15.58 6.73751 15.6355 6.78785 15.69C7.52208 16.4836 9.39299 16.1586 10.4705 16.2016C10.3607 14.0123 10.6719 11.7186 10.2924 9.54219C10.2138 9.09153 9.88946 8.45515 9.70979 8.02223C9.615 7.79373 9.3642 7.54255 9.31792 7.3044ZM27.4115 16.1749C27.4307 15.9996 27.3144 15.6571 27.279 15.4747C26.6375 12.1668 24.5974 9.55141 21.2141 8.80402C19.6665 8.46218 17.9896 8.60057 16.4104 8.54104C15.7755 8.51491 14.8485 8.63677 14.261 8.50155C14.3277 10.7016 14.2404 12.9364 14.2723 15.139C14.2771 15.4684 14.2713 15.8451 14.2517 16.1742L22.7986 16.1696C24.2734 16.1696 25.9509 16.1329 27.4115 16.1749ZM14.2521 31.5352C17.8274 31.4835 22.1624 31.9682 24.8883 29.1788C24.9228 29.1435 24.9563 29.1074 24.9889 29.0704C26.4324 27.5791 27.0042 25.933 27.4037 23.93L27.3767 23.8872C26.5015 23.8278 24.9656 23.8797 24.0397 23.8799L17.4434 23.878L15.5368 23.8794C15.1645 23.8813 14.6055 23.9125 14.2546 23.8519C14.3055 26.2794 14.2954 29.1044 14.2521 31.5352ZM14.2594 21.3609C17.2952 21.3157 20.4074 21.3462 23.4481 21.3457L26.2168 21.3465C26.5713 21.347 27.3903 21.3313 27.7026 21.3797C27.6406 20.6063 27.699 19.5249 27.6814 18.7096C27.0095 18.7843 25.5994 18.7464 24.8631 18.7463L19.6146 18.7448L16.105 18.746C15.7111 18.7461 14.5927 18.7697 14.2817 18.6997C14.2797 19.5868 14.2723 20.4739 14.2594 21.3609Z" fill="var(--fill-0, white)"/>
</g>
</svg>
