<svg preserveAspectRatio="none" width="100%" height="100%" overflow="visible" style="display: block;" viewBox="0 0 48 48" fill="none" xmlns="http://www.w3.org/2000/svg">
<path id="Vector" d="M48 24C48 28.7468 46.5924 33.3869 43.9553 37.3337C41.3181 41.2805 37.5698 44.3566 33.1844 46.1731C28.799 47.9896 23.9734 48.4649 19.3178 47.5389C14.6623 46.6128 10.3859 44.327 7.02945 40.9706C3.67299 37.6141 1.38721 33.3377 0.461164 28.6822C-0.464881 24.0266 0.0103987 19.201 1.8269 14.8156C3.64341 10.4302 6.71955 6.68188 10.6663 4.04473C14.6131 1.40758 19.2533 0 24 0C30.3652 0 36.4697 2.52856 40.9706 7.02944C45.4715 11.5303 48 17.6348 48 24V24Z" fill="var(--fill-0, #333333)"/>
</svg>
