<svg preserveAspectRatio="none" width="100%" height="100%" overflow="visible" style="display: block;" viewBox="0 0 120.44 32" fill="none" xmlns="http://www.w3.org/2000/svg">
<g id="Frame 2085654312">
<path id="Union" d="M18.6712 0C19.8869 0 20.8724 0.985501 20.8724 2.20118V4.12265C20.8724 4.4666 21.0464 4.78721 21.3348 4.9746L21.6997 5.21164C22.0189 5.41901 22.3811 5.54516 22.7615 5.5569C23.3271 5.57436 24.2085 5.58594 25.1054 5.58594C27.3523 5.58509 27.6038 5.59949 28.0686 5.75696C28.348 5.85177 28.4671 5.88055 28.8305 6.04566C29.1268 6.18027 29.2581 6.32843 29.4706 6.53161C29.683 6.73395 29.9675 7.05227 30.103 7.23853C30.4221 7.67737 30.5734 8.18425 30.574 8.72689C30.575 9.74442 30.5624 11.5285 30.5625 13.1324H30.5713V14.0647C30.5713 15.7419 29.2117 17.1016 27.5345 17.1016H14.4016V15.9274C14.4016 13.8383 16.0952 13.1324 18.1843 13.1324C19.6039 13.1324 20.7547 11.9816 20.7547 10.562V9.60903C20.7378 7.22752 20.7217 6.95321 20.5752 6.64589C20.4863 6.45964 20.3077 6.20821 20.1773 6.08799C20.0359 5.95676 19.7371 5.82045 19.4331 5.74933C19.0361 5.65621 18.1234 5.63081 15.2424 5.6325C13.2165 5.6342 11.4166 5.66299 11.2422 5.696C11.0678 5.72987 10.7875 5.88057 10.619 6.03211C10.4514 6.18365 10.2321 6.44017 10.1322 6.60357C9.96038 6.88464 9.94852 7.03535 9.90365 9.52438C9.88452 10.5813 9.87052 12.6222 9.84653 14.6304C9.88794 17.3782 9.89307 21.1365 9.89096 22.4775C9.88927 24.1809 9.91805 24.9437 9.99679 25.1867C10.056 25.373 10.2034 25.6489 10.3244 25.8005C10.4447 25.9529 10.7054 26.1527 10.9035 26.245C11.2472 26.4067 11.4437 26.4143 15.2001 26.4143C18.0844 26.4143 19.2409 26.3864 19.5271 26.3085C19.7447 26.2492 20.0444 26.0807 20.2044 25.9275C20.3619 25.7759 20.5456 25.5474 20.6125 25.4195C20.7081 25.2358 20.8139 23.9592 20.814 23.8745C20.8027 21.7157 22.5496 19.9597 24.7084 19.9597H26.9104C28.7881 19.9479 30.3781 19.9665 30.445 20.0012C30.5466 20.0546 30.5661 20.5897 30.5661 23.3665C30.5661 25.0731 29.1826 26.4566 27.476 26.4566H22.642C22.1941 26.4566 21.7612 26.618 21.4227 26.9112C21.1966 27.1026 21.0519 27.2812 20.9613 27.4395C20.8174 27.691 20.7987 27.8722 20.814 28.9118C20.8267 29.7271 20.7928 30.2554 20.7064 30.605C20.6125 30.986 20.5007 31.1926 20.2611 31.4296C20.0241 31.6641 19.809 31.7784 19.4331 31.8707C19.0251 31.9715 18.1835 31.9969 15.1578 31.9994C11.4877 32.0028 11.3818 31.9977 11.0517 31.8241C10.8654 31.7259 10.6038 31.5448 10.4709 31.422C10.3371 31.2984 10.1517 31.0266 10.0595 30.8167C9.91807 30.4967 9.88673 30.2181 9.86895 29.0811C9.85202 28.0796 9.81224 27.6495 9.71573 27.4302C9.64292 27.2668 9.47613 27.034 9.34406 26.9112C9.21199 26.7893 9.0088 26.6403 8.89281 26.5819C8.73702 26.5032 7.91072 26.4685 5.76034 26.4524C2.97924 26.4312 2.81498 26.4211 2.33157 26.2416C2.17556 26.1839 1.98179 26.0893 1.80468 25.9879C1.55447 25.8447 1.3515 25.6363 1.17089 25.4116C0.415274 24.4715 0.00320891 23.3017 0.00289359 22.0956L0.00252939 20.7208C0.00222646 20.15 0.00573329 19.6007 0.0119726 19.1236C0.00303995 17.569 5.99777e-06 15.1845 5.99777e-06 11.5139C-0.000401428 10.2795 0.0199826 9.48799 0.050682 8.9613C0.0897247 8.29148 0.353813 7.66835 0.709418 7.09938C0.91256 6.77434 1.19615 6.50722 1.53272 6.32383L1.95572 6.09335C2.37267 5.86617 2.82427 5.70586 3.29798 5.67329C3.80381 5.63852 4.55944 5.61306 5.80267 5.59273C8.66335 5.54532 8.6837 5.5436 9.0926 5.33365C9.41685 5.16687 9.53794 5.04156 9.66916 4.74102C9.80461 4.43201 9.84186 4.12045 9.86557 3.09014V2.20118C9.86557 0.985507 10.8511 8.51475e-06 12.0667 0H18.6712Z" fill="var(--fill-0, white)"/>
<g id="Frame 2085654309">
<g id="H2">
<path d="M56.9984 16.207V17.9065H43.1261C43.4027 21.1078 45.0232 22.4911 47.7107 22.4911C50.0425 22.4911 51.5443 21.6611 51.7024 19.764H56.9984C56.8799 24.2301 53.1648 26.8385 47.5921 26.8385C41.1105 26.8385 37.0792 23.163 37.0792 16.958C37.0792 10.5158 41.1105 6.68215 47.7107 6.68215C53.1648 6.68215 56.9984 9.80442 56.9984 16.207ZM51.7024 14.7052V14.389C51.7024 12.1758 50.2006 11.0296 47.7107 11.0296C45.1813 11.0296 43.7584 12.1362 43.2842 14.7052H51.7024Z" fill="var(--fill-0, white)"/>
<path d="M60.0228 26.5224V6.99833H66.0302L65.7931 12.1758H65.8721C66.8602 8.46066 69.1525 6.68215 73.579 6.68215C78.2821 6.68215 81.3253 9.2511 81.3253 14.31V26.5224H75.3179V15.6537C75.3179 12.8872 73.7371 11.662 71.0891 11.662C67.9273 11.662 66.0302 13.5195 66.0302 17.2346V26.5224H60.0228Z" fill="var(--fill-0, white)"/>
<path d="M94.4606 26.8385C88.3742 26.8385 86.2005 24.151 86.2005 19.8036V11.662H83.3153V6.99833H85.6472C86.5562 6.99833 86.8724 6.48454 86.9909 5.29887L87.2676 2.57183H92.2079V6.99833H98.4524V11.662H92.2079V19.4874C92.2079 21.503 93.1564 22.1354 95.5277 22.1354C96.3577 22.1354 97.5829 22.0168 98.2548 21.8587V26.4038C97.741 26.5224 96.0811 26.8385 94.4606 26.8385Z" fill="var(--fill-0, white)"/>
<path d="M108.307 26.8385C103.762 26.8385 100.6 24.8624 100.6 20.9102C100.6 17.7089 102.892 15.3771 108.07 15.3771H114.433V14.0728C114.433 11.7015 113.089 10.753 110.323 10.753C108.07 10.753 106.766 11.7015 106.766 13.2824C106.766 13.4009 106.766 13.7171 106.805 14.1123H101.272C101.233 13.7962 101.193 13.3614 101.193 12.9662C101.193 9.01397 104.671 6.68215 110.599 6.68215C116.804 6.68215 120.44 9.44871 120.44 14.6657V26.5224H114.433C114.552 25.5343 114.71 23.7558 114.71 22.5701H114.67C114.077 25.3367 111.864 26.8385 108.307 26.8385ZM109.493 22.7677C112.615 22.7677 114.433 21.3845 114.433 19.0131V18.6179H108.623C107.003 18.6179 106.015 19.3688 106.015 20.4754C106.015 21.9773 107.319 22.7677 109.493 22.7677Z" fill="var(--fill-0, white)"/>
</g>
</g>
</g>
</svg>
