<svg width="48" height="48" viewBox="0 0 48 48" fill="none" xmlns="http://www.w3.org/2000/svg">
<g clip-path="url(#clip0_40000015_14826)">
<path d="M24 48C37.2548 48 48 37.2548 48 24C48 10.7452 37.2548 0 24 0C10.7452 0 0 10.7452 0 24C0 37.2548 10.7452 48 24 48Z" fill="#D3B25A"/>
<path fill-rule="evenodd" clip-rule="evenodd" d="M24.3616 24.3835C28.1633 24.3835 31.3405 23.7408 32.1169 22.882C31.4576 22.1536 29.073 21.58 26.0445 21.423V23.2373C25.5023 23.2655 24.9386 23.2793 24.3611 23.2793C23.7836 23.2793 23.2199 23.2655 22.6766 23.2373V21.423C19.6492 21.58 17.2635 22.1536 16.6041 22.882C17.3817 23.7408 20.5594 24.3835 24.3611 24.3835H24.3616ZM31.1161 15.8435V18.342H26.0445V20.0745C29.6068 20.2597 32.28 21.0212 32.2999 21.9325V23.8325C32.28 24.7439 29.6068 25.5037 26.0445 25.6894V29.9415H22.6772V25.6894C19.1148 25.5043 16.4428 24.7439 16.4229 23.8325V21.9325C16.4428 21.0212 19.1148 20.2597 22.6772 20.0745V18.342H17.6055V15.8435H31.1166H31.1161ZM15.611 11.8672H33.4151C33.8406 11.8672 34.2325 12.091 34.4447 12.4547L39.6313 21.3611C39.8999 21.8231 39.8203 22.4062 39.4367 22.7803L25.1597 36.717C24.6966 37.1685 23.9527 37.1685 23.4907 36.717L9.23129 22.7991C8.83946 22.4156 8.7654 21.8159 9.05444 21.3517L14.5991 12.427C14.8152 12.08 15.1988 11.8677 15.6116 11.8677L15.611 11.8672Z" fill="white"/>
</g>
<defs>
<clipPath id="clip0_40000015_14826">
<path d="M0 24C0 10.7452 10.7452 0 24 0V0C37.2548 0 48 10.7452 48 24V24C48 37.2548 37.2548 48 24 48V48C10.7452 48 0 37.2548 0 24V24Z" fill="white"/>
</clipPath>
</defs>
</svg>
