<svg preserveAspectRatio="none" width="100%" height="100%" overflow="visible" style="display: block;" viewBox="0 0 50 50" fill="none" xmlns="http://www.w3.org/2000/svg">
<g id="Currencies (Fiat &#38; Crypto)">
<g clip-path="url(#clip0_0_47)">
<path id="Vector" d="M49 24.9999C49 29.7467 47.5924 34.3869 44.9552 38.3336C42.3181 42.2804 38.5698 45.3566 34.1844 47.1731C29.7989 48.9896 24.9733 49.4648 20.3178 48.5388C15.6623 47.6127 11.3859 45.327 8.0294 41.9705C4.67294 38.6141 2.38716 34.3377 1.46112 29.6821C0.535071 25.0266 1.01035 20.201 2.82685 15.8155C4.64336 11.4301 7.7195 7.68183 11.6663 5.04467C15.6131 2.40752 20.2532 0.999941 25 0.999941C31.3652 0.999941 37.4697 3.52851 41.9705 8.02938C46.4714 12.5303 49 18.6347 49 24.9999V24.9999Z" fill="var(--fill-0, #0F8FF8)"/>
<path id="Vector_2" fill-rule="evenodd" clip-rule="evenodd" d="M13.3944 29.8338L14.6094 26.8278H15.8949C15.8616 26.3135 15.8446 25.7983 15.8439 25.2828C15.8439 24.6108 15.8724 23.9868 15.9279 23.4078H13.3944L14.6094 20.4033H16.5204C18.2994 14.6868 22.3104 11.8278 28.5489 11.8278C30.5994 11.8278 32.5479 12.0933 34.3944 12.6258V16.4118C32.6566 15.6353 30.7732 15.2385 28.8699 15.2478C25.1304 15.2478 22.7259 16.9668 21.6549 20.4048H32.7894L31.5744 23.4093H20.9289C20.8651 23.9042 20.8371 24.403 20.8449 24.9018C20.8449 25.6203 20.8674 26.2623 20.9124 26.8293H30.1869L28.9869 29.8338H21.5544C22.3539 31.9173 23.3289 33.3663 24.4779 34.1838C25.6254 34.9998 27.2649 35.4078 29.3934 35.4078C30.9144 35.4078 32.5809 35.0373 34.3944 34.2963V37.8558C32.6709 38.5038 30.6219 38.8278 28.2444 38.8278C21.9939 38.8278 18.0399 35.8293 16.3854 29.8338H13.3944Z" fill="var(--fill-0, white)"/>
</g>
<path d="M1 25C1 11.7452 11.7452 1 25 1V1C38.2548 1 49 11.7452 49 25V25C49 38.2548 38.2548 49 25 49V49C11.7452 49 1 38.2548 1 25V25Z" stroke="var(--stroke-0, #1D89C0)" stroke-width="2"/>
</g>
<defs>
<clipPath id="clip0_0_47">
<path d="M1 25C1 11.7452 11.7452 1 25 1V1C38.2548 1 49 11.7452 49 25V25C49 38.2548 38.2548 49 25 49V49C11.7452 49 1 38.2548 1 25V25Z" fill="white"/>
</clipPath>
</defs>
</svg>
