<svg preserveAspectRatio="none" width="100%" height="100%" overflow="visible" style="display: block;" viewBox="0 0 50 50" fill="none" xmlns="http://www.w3.org/2000/svg">
<g id="Currencies (Fiat &#38; Crypto)">
<g clip-path="url(#clip0_0_26)">
<path id="Vector" d="M48.9998 25C48.9998 29.7468 47.5922 34.3869 44.9551 38.3337C42.3179 42.2805 38.5696 45.3566 34.1842 47.1731C29.7988 48.9896 24.9732 49.4649 20.3176 48.5389C15.6621 47.6128 11.3857 45.327 8.02921 41.9706C4.67275 38.6141 2.38697 34.3377 1.46093 29.6822C0.534883 25.0266 1.01016 20.201 2.82667 15.8156C4.64317 11.4302 7.71931 7.6819 11.6661 5.04475C15.6129 2.40759 20.253 1.00002 24.9998 1.00002C31.365 1.00002 37.4695 3.52858 41.9703 8.02945C46.4712 12.5303 48.9998 18.6348 48.9998 25V25Z" fill="var(--fill-0, #F7931A)"/>
<path id="Vector_2" fill-rule="evenodd" clip-rule="evenodd" d="M18.0574 11.9592L23.573 13.4363L24.8057 8.84141L27.5636 9.58978L26.3788 13.9949L28.6283 14.5992L29.8152 10.1461L32.621 10.8967L31.4123 15.3738C31.4123 15.3738 35.9941 16.3883 37.0719 20.1149C38.1497 23.8414 34.7025 25.7985 33.6377 25.8727C33.6377 25.8727 37.6523 28.0741 36.2734 32.4051C34.8945 36.736 30.6617 37.5105 26.2087 36.5178L24.9999 41.1607L22.1941 40.4101L23.4268 35.8392L21.2014 35.2327L19.9687 39.8363L17.1847 39.088L18.4196 34.5061L12.7577 32.9789L14.1847 29.8109C14.1847 29.8109 15.7817 30.2472 16.3861 30.3912C16.9905 30.5352 17.3788 29.9069 17.549 29.2785C17.7192 28.6501 20.2828 18.2363 20.525 17.3789C20.7672 16.5214 20.669 15.8516 19.6523 15.5876C18.6356 15.3236 17.2523 14.9112 17.2523 14.9112L18.0574 11.9592ZM23.621 25.7505L22.0937 31.8225C22.0937 31.8225 29.6668 34.5563 30.6356 30.7098C31.6043 26.8632 23.621 25.7505 23.621 25.7505ZM24.3236 22.8705L25.8225 17.3069C25.8225 17.3069 32.3068 18.4676 31.5083 21.5636C30.7097 24.6596 26.8872 23.4727 24.3236 22.8705Z" fill="var(--fill-0, white)"/>
</g>
<path d="M1 25C1 11.7452 11.7452 1 25 1V1C38.2548 1 49 11.7452 49 25V25C49 38.2548 38.2548 49 25 49V49C11.7452 49 1 38.2548 1 25V25Z" stroke="var(--stroke-0, #1D89C0)" stroke-width="2"/>
</g>
<defs>
<clipPath id="clip0_0_26">
<path d="M1 25C1 11.7452 11.7452 1 25 1V1C38.2548 1 49 11.7452 49 25V25C49 38.2548 38.2548 49 25 49V49C11.7452 49 1 38.2548 1 25V25Z" fill="white"/>
</clipPath>
</defs>
</svg>
