<svg preserveAspectRatio="none" width="100%" height="100%" overflow="visible" style="display: block;" viewBox="0 0 48 48" fill="none" xmlns="http://www.w3.org/2000/svg">
<g id="Group">
<path id="Vector" d="M24 48C37.2548 48 48 37.2548 48 24C48 10.7452 37.2548 0 24 0C10.7452 0 0 10.7452 0 24C0 37.2548 10.7452 48 24 48Z" fill="var(--fill-0, #D3B25A)"/>
<path id="Vector_2" fill-rule="evenodd" clip-rule="evenodd" d="M24.3613 24.3798C28.163 24.3798 31.3401 23.7371 32.1166 22.8783C31.4573 22.1499 29.0726 21.5762 26.0441 21.4193V23.2336C25.502 23.2618 24.9383 23.2756 24.3607 23.2756C23.7832 23.2756 23.2195 23.2618 22.6763 23.2336V21.4193C19.6489 21.5762 17.2631 22.1499 16.6038 22.8783C17.3814 23.7371 20.5591 24.3798 24.3607 24.3798H24.3613ZM31.1158 15.8398V18.3383H26.0441V20.0708C29.6065 20.256 32.2796 21.0175 32.2995 21.9288V23.8288C32.2796 24.7401 29.6065 25.5 26.0441 25.6857V29.9378H22.6768V25.6857C19.1145 25.5006 16.4424 24.7401 16.4225 23.8288V21.9288C16.4424 21.0175 19.1145 20.256 22.6768 20.0708V18.3383H17.6052V15.8398H31.1163H31.1158ZM15.6107 11.8635H33.4148C33.8403 11.8635 34.2321 12.0873 34.4443 12.4509L39.6309 21.3574C39.8995 21.8194 39.8199 22.4024 39.4364 22.7766L25.1593 36.7132C24.6962 37.1647 23.9523 37.1647 23.4903 36.7132L9.23094 22.7954C8.83911 22.4118 8.76506 21.8122 9.05409 21.348L14.5988 12.4233C14.8149 12.0762 15.1984 11.864 15.6112 11.864L15.6107 11.8635Z" fill="var(--fill-0, white)"/>
</g>
</svg>
