<svg preserveAspectRatio="none" width="100%" height="100%" overflow="visible" style="display: block;" viewBox="0 0 48 48" fill="none" xmlns="http://www.w3.org/2000/svg">
<g id="Group">
<path id="Vector" d="M24 48C37.2548 48 48 37.2548 48 24C48 10.7452 37.2548 0 24 0C10.7452 0 0 10.7452 0 24C0 37.2548 10.7452 48 24 48Z" fill="var(--fill-0, #058353)"/>
<path id="Vector_2" fill-rule="evenodd" clip-rule="evenodd" d="M24.3627 24.3814C28.165 24.3814 31.3428 23.7386 32.1194 22.8796C31.46 22.1511 29.0748 21.5773 26.0458 21.4204V23.235C25.5035 23.2632 24.9397 23.277 24.3621 23.277C23.7845 23.277 23.2207 23.2632 22.6773 23.235V21.4204C19.6494 21.5773 17.2632 22.1511 16.6037 22.8796C17.3815 23.7386 20.5598 24.3814 24.3621 24.3814H24.3627ZM31.1184 15.8398V18.3388H26.0458V20.0716C29.6088 20.2568 32.2824 21.0185 32.3023 21.93V23.8303C32.2824 24.7418 29.6088 25.5018 26.0458 25.6876V29.9404H22.6779V25.6876C19.1149 25.5024 16.4423 24.7418 16.4224 23.8303V21.93C16.4423 21.0185 19.1149 20.2568 22.6779 20.0716V18.3388H17.6053V15.8398H31.1189H31.1184ZM15.6105 11.8628H33.4178C33.8434 11.8628 34.2353 12.0867 34.4476 12.4504L39.6351 21.3584C39.9037 21.8205 39.8241 22.4037 39.4405 22.7779L25.1608 36.7171C24.6976 37.1687 23.9536 37.1687 23.4915 36.7171L9.22954 22.7967C8.83764 22.4131 8.76357 21.8134 9.05266 21.349L14.5984 12.4227C14.8145 12.0756 15.1981 11.8633 15.611 11.8633L15.6105 11.8628Z" fill="var(--fill-0, white)"/>
</g>
</svg>
