<svg preserveAspectRatio="none" width="100%" height="100%" overflow="visible" style="display: block;" viewBox="0 0 50 50" fill="none" xmlns="http://www.w3.org/2000/svg">
<g id="Currencies (Fiat &#38; Crypto)">
<g clip-path="url(#clip0_0_40)">
<path id="Vector" d="M49 24.9999C49 29.7467 47.5924 34.3869 44.9552 38.3336C42.3181 42.2804 38.5698 45.3566 34.1844 47.1731C29.7989 48.9896 24.9733 49.4648 20.3178 48.5388C15.6623 47.6127 11.3859 45.327 8.0294 41.9705C4.67294 38.6141 2.38716 34.3377 1.46112 29.6821C0.535071 25.0266 1.01035 20.201 2.82685 15.8155C4.64336 11.4301 7.7195 7.68183 11.6663 5.04467C15.6131 2.40752 20.2532 0.999941 25 0.999941C31.3652 0.999941 37.4697 3.52851 41.9705 8.02938C46.4714 12.5303 49 18.6347 49 24.9999V24.9999Z" fill="var(--fill-0, #255A1F)"/>
<g id="Group 1000001955">
<path id="&#226;&#130;&#166;" d="M35.4949 22.1668V24.2173H14.498V22.1668H35.4949ZM35.4949 26.5958V28.6463H14.498V26.5958H35.4949ZM33.6731 14.498V35.4949H30.2765L20.3339 21.1928H20.1692V35.4949H16.3404V14.498H19.7678L29.6796 28.8103H29.8751V14.498H33.6731Z" fill="var(--fill-0, white)"/>
</g>
</g>
<path d="M1 25C1 11.7452 11.7452 1 25 1V1C38.2548 1 49 11.7452 49 25V25C49 38.2548 38.2548 49 25 49V49C11.7452 49 1 38.2548 1 25V25Z" stroke="var(--stroke-0, #1D89C0)" stroke-width="2"/>
</g>
<defs>
<clipPath id="clip0_0_40">
<path d="M1 25C1 11.7452 11.7452 1 25 1V1C38.2548 1 49 11.7452 49 25V25C49 38.2548 38.2548 49 25 49V49C11.7452 49 1 38.2548 1 25V25Z" fill="white"/>
</clipPath>
</defs>
</svg>
