<svg width="48" height="48" viewBox="0 0 48 48" fill="none" xmlns="http://www.w3.org/2000/svg">
<g clip-path="url(#clip0_40000015_14837)">
<path d="M48 24C48 28.7468 46.5924 33.3869 43.9553 37.3337C41.3181 41.2805 37.5698 44.3566 33.1844 46.1731C28.799 47.9896 23.9734 48.4649 19.3178 47.5389C14.6623 46.6128 10.3859 44.327 7.02945 40.9706C3.67299 37.6141 1.38721 33.3377 0.461164 28.6822C-0.464881 24.0266 0.0103987 19.201 1.8269 14.8156C3.64341 10.4302 6.71955 6.68188 10.6663 4.04473C14.6131 1.40758 19.2533 0 24 0C30.3652 0 36.4697 2.52856 40.9706 7.02944C45.4715 11.5303 48 17.6348 48 24V24Z" fill="#0F8FF8"/>
<path fill-rule="evenodd" clip-rule="evenodd" d="M12.3945 28.8341L13.6095 25.8281H14.895C14.8617 25.3138 14.8447 24.7985 14.844 24.2831C14.844 23.6111 14.8725 22.9871 14.928 22.4081H12.3945L13.6095 19.4036H15.5205C17.2995 13.6871 21.3105 10.8281 27.549 10.8281C29.5995 10.8281 31.548 11.0936 33.3945 11.6261V15.4121C31.6568 14.6356 29.7734 14.2388 27.87 14.2481C24.1305 14.2481 21.726 15.9671 20.655 19.4051H31.7895L30.5745 22.4096H19.929C19.8653 22.9045 19.8372 23.4033 19.845 23.9021C19.845 24.6206 19.8675 25.2626 19.9125 25.8296H29.187L27.987 28.8341H20.5545C21.354 30.9176 22.329 32.3666 23.478 33.1841C24.6255 34.0001 26.265 34.4081 28.3935 34.4081C29.9145 34.4081 31.581 34.0376 33.3945 33.2966V36.8561C31.671 37.5041 29.622 37.8281 27.2445 37.8281C20.994 37.8281 17.04 34.8296 15.3855 28.8341H12.3945Z" fill="white"/>
</g>
<defs>
<clipPath id="clip0_40000015_14837">
<path d="M0 24C0 10.7452 10.7452 0 24 0V0C37.2548 0 48 10.7452 48 24V24C48 37.2548 37.2548 48 24 48V48C10.7452 48 0 37.2548 0 24V24Z" fill="white"/>
</clipPath>
</defs>
</svg>
