<svg width="58" height="58" viewBox="0 0 58 58" fill="none" xmlns="http://www.w3.org/2000/svg">
<circle cx="29" cy="29" r="29" fill="#121111"/>
<path d="M32.6712 13C33.8869 13 34.8724 13.9855 34.8724 15.2012V17.1227C34.8724 17.4666 35.0464 17.7872 35.3348 17.9746L35.6997 18.2116C36.0189 18.419 36.3811 18.5452 36.7615 18.5569C37.3271 18.5744 38.2085 18.5859 39.1054 18.5859C41.3523 18.5851 41.6038 18.5995 42.0686 18.757C42.348 18.8518 42.4671 18.8805 42.8305 19.0457C43.1268 19.1803 43.2581 19.3284 43.4706 19.5316C43.683 19.734 43.9675 20.0523 44.103 20.2385C44.4221 20.6774 44.5734 21.1843 44.574 21.7269C44.575 22.7444 44.5624 24.5285 44.5625 26.1324H44.5713V27.0647C44.5713 28.7419 43.2117 30.1016 41.5345 30.1016H28.4016V28.9274C28.4016 26.8383 30.0952 26.1324 32.1843 26.1324C33.6039 26.1324 34.7547 24.9816 34.7547 23.562V22.609C34.7378 20.2275 34.7217 19.9532 34.5752 19.6459C34.4863 19.4596 34.3077 19.2082 34.1773 19.088C34.0359 18.9568 33.7371 18.8204 33.4331 18.7493C33.0361 18.6562 32.1234 18.6308 29.2424 18.6325C27.2165 18.6342 25.4166 18.663 25.2422 18.696C25.0678 18.7299 24.7875 18.8806 24.619 19.0321C24.4514 19.1837 24.2321 19.4402 24.1322 19.6036C23.9604 19.8846 23.9485 20.0354 23.9037 22.5244C23.8845 23.5813 23.8705 25.6222 23.8465 27.6304C23.8879 30.3782 23.8931 34.1365 23.891 35.4775C23.8893 37.1809 23.9181 37.9437 23.9968 38.1867C24.056 38.373 24.2034 38.6489 24.3244 38.8005C24.4447 38.9529 24.7054 39.1527 24.9035 39.245C25.2472 39.4067 25.4437 39.4143 29.2001 39.4143C32.0844 39.4143 33.2409 39.3864 33.5271 39.3085C33.7447 39.2492 34.0444 39.0807 34.2044 38.9275C34.3619 38.7759 34.5456 38.5474 34.6125 38.4195C34.7081 38.2358 34.8139 36.9592 34.814 36.8745C34.8027 34.7157 36.5496 32.9597 38.7084 32.9597H40.9104C42.7881 32.9479 44.3781 32.9665 44.445 33.0012C44.5466 33.0546 44.5661 33.5897 44.5661 36.3665C44.5661 38.0731 43.1826 39.4566 41.476 39.4566H36.642C36.1941 39.4566 35.7612 39.618 35.4227 39.9112C35.1966 40.1026 35.0519 40.2812 34.9613 40.4395C34.8174 40.691 34.7987 40.8722 34.814 41.9118C34.8267 42.7271 34.7928 43.2554 34.7064 43.605C34.6125 43.986 34.5007 44.1926 34.2611 44.4296C34.0241 44.6641 33.809 44.7784 33.4331 44.8707C33.0251 44.9715 32.1835 44.9969 29.1578 44.9994C25.4877 45.0028 25.3818 44.9977 25.0517 44.8241C24.8654 44.7259 24.6038 44.5448 24.4709 44.422C24.3371 44.2984 24.1517 44.0266 24.0595 43.8167C23.9181 43.4967 23.8867 43.2181 23.869 42.0811C23.852 41.0796 23.8122 40.6495 23.7157 40.4302C23.6429 40.2668 23.4761 40.034 23.3441 39.9112C23.212 39.7893 23.0088 39.6403 22.8928 39.5819C22.737 39.5032 21.9107 39.4685 19.7603 39.4524C16.9792 39.4312 16.815 39.4211 16.3316 39.2416C16.1756 39.1839 15.9818 39.0893 15.8047 38.9879C15.5545 38.8447 15.3515 38.6363 15.1709 38.4116C14.4153 37.4715 14.0032 36.3017 14.0029 35.0956L14.0025 33.7208C14.0022 33.15 14.0057 32.6007 14.012 32.1236C14.003 30.569 14 28.1845 14 24.5139C13.9996 23.2795 14.02 22.488 14.0507 21.9613C14.0897 21.2915 14.3538 20.6684 14.7094 20.0994C14.9126 19.7743 15.1961 19.5072 15.5327 19.3238L15.9557 19.0933C16.3727 18.8662 16.8243 18.7059 17.298 18.6733C17.8038 18.6385 18.5594 18.6131 19.8027 18.5927C22.6634 18.5453 22.6837 18.5436 23.0926 18.3336C23.4169 18.1669 23.5379 18.0416 23.6692 17.741C23.8046 17.432 23.8419 17.1204 23.8656 16.0901V15.2012C23.8656 13.9855 24.8511 13 26.0667 13H32.6712Z" fill="white"/>
</svg>
