<svg preserveAspectRatio="none" width="100%" height="100%" overflow="visible" style="display: block;" viewBox="0 0 42.24 42.24" fill="none" xmlns="http://www.w3.org/2000/svg">
<g id="Frame">
<path id="Vector" d="M33.0225 18.0201C33.5153 14.6849 30.9897 12.9073 27.5119 11.7L28.6383 7.20667L25.8927 6.52203L24.7962 10.9044L22.605 10.3817L23.7156 5.96763L20.97 5.28475L19.8418 9.79387L18.0959 9.38203V9.36443L14.2996 8.41403L13.5692 11.3497C13.5692 11.3497 15.602 11.8284 15.5703 11.8425C16.6809 12.1294 16.8727 12.8598 16.841 13.4318L15.5703 18.5763L15.8554 18.6713L15.5545 18.6079L13.7592 25.8011C13.6325 26.1355 13.284 26.6424 12.5061 26.4347C12.5378 26.484 10.5209 25.9595 10.5209 25.9595L9.15509 29.0887L12.7279 29.9776L14.6815 30.4862L13.5375 35.0446L16.2831 35.7257L17.3954 31.2166L19.6024 31.7868L18.4761 36.2819L21.2216 36.9648L22.3498 32.4064C27.0349 33.2952 30.5602 32.9484 32.0386 28.7068C33.2284 25.2924 31.9735 23.3388 29.513 22.0364C31.3082 21.6404 32.6564 20.4489 33.0066 18.0201H33.0225ZM26.7498 26.8183C25.9068 30.2327 20.1586 28.3742 18.3018 27.9271L19.8101 21.8798C21.6669 22.355 27.6386 23.2596 26.7498 26.8008V26.8183ZM27.5911 17.9726C26.829 21.0702 22.033 19.4968 20.493 19.1166L21.857 13.6377C23.4146 14.0196 28.4007 14.75 27.5911 17.9726Z" fill="var(--fill-0, white)"/>
</g>
</svg>
