<svg preserveAspectRatio="none" width="100%" height="100%" overflow="visible" style="display: block;" viewBox="0 0 34.5303 30.0694" fill="none" xmlns="http://www.w3.org/2000/svg">
<g id="Group 1597880425">
<path id="Subtract" d="M7.917 0.00586379H10.5566L18.6699 0.00488723H26.8848C27.2693 0.00490596 27.7318 -0.00930317 28.1094 0.0224654C28.2364 0.184409 28.5435 0.863166 28.6445 1.0752L29.6104 3.10352L33.5029 11.2754C33.6577 11.5996 34.536 13.3195 34.5303 13.5566C34.5284 13.6317 34.3966 13.7445 34.3447 13.7969C33.9231 14.2227 33.477 14.6294 33.044 15.0439L30.4824 17.4951L22.7979 24.8574L19.2393 28.2676C18.9445 28.5502 17.5312 29.9646 17.3135 30.0596C17.2747 30.0764 17.2257 30.0696 17.1875 30.0537C16.9994 29.9753 16.087 29.039 15.8897 28.8506L12.5899 25.6885L0.250983 13.8574C0.202505 13.8102 -0.00130544 13.6051 6.30319e-06 13.5684C0.00825222 13.3501 0.376121 12.6504 0.457038 12.4805L1.17481 10.9736L3.34473 6.417L5.30762 2.29297L5.94727 0.94727C6.06535 0.699033 6.182 0.444427 6.30762 0.2002C6.3621 0.0942554 6.38575 0.0535208 6.49122 0.0107466C6.91287 -0.0101806 7.48736 0.00591346 7.917 0.00586379ZM9.0713 8.11719L15.0928 8.11329L15.0957 10.7549C13.2097 10.8232 7.97433 11.2715 6.73536 12.6191C6.60847 12.7572 6.51091 12.9266 6.51563 13.1191C6.52157 13.3551 6.67336 13.5584 6.84278 13.71C8.23895 14.9582 13.1598 15.4109 15.0938 15.4707L15.0947 23.916L19.4522 23.9141L19.4551 17.8516C19.4549 17.0811 19.4703 16.2359 19.4522 15.4707C21.3352 15.4034 26.5159 14.9568 27.7705 13.6299C27.9023 13.4905 28.0114 13.3112 28.0059 13.1133C27.9993 12.8852 27.8511 12.6871 27.6875 12.54C26.4012 11.3843 22.3312 10.949 20.5781 10.8232C20.2065 10.7966 19.8284 10.761 19.4561 10.7568C19.4557 9.88282 19.4647 8.98668 19.4531 8.11426L23.3701 8.11329C24.0646 8.11321 24.7919 8.10225 25.4834 8.11622C25.4641 6.79172 25.4816 5.42217 25.4815 4.09473L14.8984 4.09375C12.9636 4.09375 10.9976 4.11223 9.06544 4.0918L9.0713 8.11719Z" fill="var(--fill-0, white)"/>
<path id="Vector" d="M14.7515 11.0728L15.0925 11.0535L15.0931 13.9996C16.6004 14.0673 17.924 14.0965 19.4406 13.9998L19.4402 11.0551C21.2148 11.1303 25.209 11.432 26.5982 12.3738C26.7575 12.4818 26.9439 12.6415 26.9754 12.8413C26.9943 12.9616 26.9523 13.0726 26.8796 13.1674C26.2464 13.994 23.4594 14.3674 22.4593 14.5014C22.2784 14.5246 22.0974 14.5458 21.916 14.5648C19.4809 14.8156 17.0292 14.8686 14.5855 14.7234C13.1043 14.638 11.619 14.4926 10.1644 14.1938C9.45478 14.0479 8.36515 13.7996 7.80707 13.3432C7.68105 13.2401 7.55842 13.0978 7.54693 12.9279C7.53793 12.7951 7.59573 12.6788 7.68211 12.5814C8.63528 11.5069 13.2412 11.1553 14.7515 11.0728Z" fill="var(--fill-0, white)"/>
</g>
</svg>
