<svg preserveAspectRatio="none" width="100%" height="100%" overflow="visible" style="display: block;" viewBox="0 0 23.04 23.04" fill="none" xmlns="http://www.w3.org/2000/svg">
<g id="EyeSlash">
<path id="Vector" d="M4.85292 3.11131C4.78969 3.04004 4.71294 2.98202 4.62713 2.94063C4.54131 2.89923 4.44813 2.87528 4.35299 2.87017C4.25785 2.86505 4.16264 2.87886 4.07288 2.91081C3.98312 2.94276 3.90059 2.99221 3.83008 3.05629C3.75957 3.12037 3.70248 3.1978 3.66211 3.28411C3.62175 3.37042 3.59892 3.46387 3.59494 3.55907C3.59097 3.65426 3.60592 3.7493 3.63894 3.83867C3.67197 3.92805 3.7224 4.00998 3.78732 4.07971L5.51892 5.98501C2.25012 7.99111 0.844321 11.0835 0.782221 11.2239C0.741283 11.316 0.720129 11.4156 0.720129 11.5164C0.720129 11.6172 0.741283 11.7168 0.782221 11.8089C0.813721 11.88 1.57602 13.5702 3.27072 15.2649C5.52882 17.5221 8.38092 18.7155 11.5201 18.7155C13.1335 18.7247 14.7305 18.3925 16.2064 17.7408L18.1864 19.9197C18.2497 19.991 18.3264 20.049 18.4122 20.0904C18.498 20.1318 18.5912 20.1557 18.6863 20.1609C18.7815 20.166 18.8767 20.1522 18.9665 20.1202C19.0562 20.0883 19.1387 20.0388 19.2093 19.9747C19.2798 19.9107 19.3369 19.8332 19.3772 19.7469C19.4176 19.6606 19.4404 19.5672 19.4444 19.472C19.4484 19.3768 19.4334 19.2817 19.4004 19.1924C19.3674 19.103 19.3169 19.0211 19.252 18.9513L4.85292 3.11131ZM9.11262 9.93691L12.8629 14.0634C12.2982 14.3605 11.6507 14.4616 11.0223 14.3509C10.3938 14.2402 9.81993 13.9238 9.39074 13.4516C8.96155 12.9794 8.70135 12.3779 8.65101 11.7418C8.60068 11.1056 8.76304 10.4708 9.11262 9.93691ZM11.5201 17.2755C8.74992 17.2755 6.32982 16.2684 4.32642 14.283C3.5041 13.4658 2.80472 12.5336 2.25012 11.5155C2.67222 10.7244 4.01952 8.51041 6.51162 7.07131L8.13162 8.84881C7.50444 9.65207 7.18143 10.6512 7.21968 11.6696C7.25793 12.688 7.65497 13.66 8.34063 14.414C9.02629 15.1679 9.95642 15.6552 10.9666 15.7897C11.9768 15.9241 13.002 15.6971 13.861 15.1488L15.1867 16.6068C14.0167 17.0557 12.7733 17.2825 11.5201 17.2755ZM12.0601 8.68681C11.8725 8.65101 11.7068 8.54214 11.5995 8.38416C11.4921 8.22618 11.4519 8.03203 11.4877 7.84441C11.5235 7.6568 11.6324 7.49109 11.7904 7.38375C11.9484 7.2764 12.1425 7.23621 12.3301 7.27201C13.2478 7.44992 14.0833 7.9197 14.7121 8.61129C15.341 9.30289 15.7294 10.1792 15.8194 11.1096C15.8372 11.2997 15.7787 11.4891 15.6569 11.6361C15.535 11.7831 15.3597 11.8757 15.1696 11.8935C15.1471 11.8948 15.1246 11.8948 15.1021 11.8935C14.9222 11.8943 14.7484 11.8276 14.6152 11.7067C14.4819 11.5858 14.3988 11.4193 14.3821 11.2401C14.3215 10.6213 14.0628 10.0385 13.6445 9.57848C13.2261 9.11846 12.6704 8.80573 12.0601 8.68681ZM22.2553 11.8089C22.2175 11.8935 21.3058 13.9122 19.2529 15.7509C19.1828 15.8157 19.1004 15.866 19.0107 15.8987C18.9209 15.9314 18.8256 15.9459 18.7302 15.9413C18.6348 15.9368 18.5412 15.9134 18.455 15.8723C18.3687 15.8313 18.2915 15.7735 18.2278 15.7024C18.1641 15.6312 18.1152 15.5481 18.0839 15.4578C18.0526 15.3676 18.0396 15.272 18.0457 15.1767C18.0517 15.0813 18.0767 14.9882 18.1191 14.9026C18.1614 14.817 18.2204 14.7407 18.2926 14.6781C19.2998 13.7733 20.1458 12.7038 20.7946 11.5155C20.2388 10.4965 19.5379 9.56367 18.7138 8.74621C16.7104 6.76261 14.2903 5.75551 11.5201 5.75551C10.9364 5.7548 10.3537 5.80206 9.77772 5.89681C9.68406 5.91338 9.58805 5.91122 9.49523 5.89046C9.4024 5.86971 9.31461 5.83077 9.23693 5.77589C9.15924 5.72102 9.0932 5.65129 9.04261 5.57075C8.99203 5.4902 8.9579 5.40043 8.94221 5.30662C8.92651 5.21281 8.92956 5.11682 8.95118 5.0242C8.97279 4.93157 9.01254 4.84415 9.06814 4.76697C9.12373 4.6898 9.19406 4.6244 9.27508 4.57457C9.35609 4.52473 9.44617 4.49144 9.54012 4.47661C10.1946 4.36855 10.8568 4.31467 11.5201 4.31551C14.6593 4.31551 17.5114 5.50891 19.7695 7.76701C21.4642 9.46171 22.2265 11.1528 22.258 11.2239C22.299 11.316 22.3201 11.4156 22.3201 11.5164C22.3201 11.6172 22.299 11.7168 22.258 11.8089H22.2553Z" fill="var(--fill-0, white)"/>
</g>
</svg>
