<svg preserveAspectRatio="none" width="100%" height="100%" overflow="visible" style="display: block;" viewBox="0 0 64 64" fill="none" xmlns="http://www.w3.org/2000/svg">
<g id="PhosphorIcon/Face ID/Regular">
<path id="Vector" d="M18.6667 8H13.3333C10.3878 8 8 10.3878 8 13.3333V18.6667" stroke="var(--stroke-0, #53B1FD)" stroke-width="4" stroke-linecap="round" stroke-linejoin="round"/>
<path id="Vector_2" d="M45.3336 8H50.6669C53.6125 8 56.0002 10.3878 56.0002 13.3333V18.6667" stroke="var(--stroke-0, #53B1FD)" stroke-width="4" stroke-linecap="round" stroke-linejoin="round"/>
<path id="Vector_3" d="M42.6664 21.3332V26.6666" stroke="var(--stroke-0, #53B1FD)" stroke-width="4" stroke-linecap="round" stroke-linejoin="round"/>
<path id="Vector_4" d="M21.3336 21.3332V26.6666" stroke="var(--stroke-0, #53B1FD)" stroke-width="4" stroke-linecap="round" stroke-linejoin="round"/>
<path id="Vector_5" d="M24 42.6668C24 42.6668 26.6667 45.3334 32 45.3334C37.3333 45.3334 40 42.6668 40 42.6668" stroke="var(--stroke-0, #53B1FD)" stroke-width="4" stroke-linecap="round" stroke-linejoin="round"/>
<path id="Vector_6" d="M32.0002 21.3332V34.6666H29.3336" stroke="var(--stroke-0, #53B1FD)" stroke-width="4" stroke-linecap="round" stroke-linejoin="round"/>
<path id="Vector_7" d="M18.6667 55.9999H13.3333C10.3878 55.9999 8 53.6122 8 50.6666V45.3332" stroke="var(--stroke-0, #53B1FD)" stroke-width="4" stroke-linecap="round" stroke-linejoin="round"/>
<path id="Vector_8" d="M45.3336 55.9999H50.6669C53.6125 55.9999 56.0002 53.6122 56.0002 50.6666V45.3332" stroke="var(--stroke-0, #53B1FD)" stroke-width="4" stroke-linecap="round" stroke-linejoin="round"/>
</g>
</svg>
