<svg preserveAspectRatio="none" width="100%" height="100%" overflow="visible" style="display: block;" viewBox="0 0 64 64" fill="none" xmlns="http://www.w3.org/2000/svg">
<g id="PhosphorIcon/GlobeSimple/Regular">
<path id="Icon" d="M32 6C26.8577 6 21.8309 7.52487 17.5552 10.3818C13.2795 13.2387 9.94702 17.2994 7.97914 22.0502C6.01127 26.8011 5.49638 32.0288 6.49959 37.0723C7.50281 42.1159 9.97907 46.7486 13.6152 50.3848C17.2514 54.0209 21.8842 56.4972 26.9277 57.5004C31.9712 58.5036 37.1989 57.9887 41.9498 56.0209C46.7007 54.053 50.7613 50.7205 53.6182 46.4448C56.4751 42.1691 58 37.1423 58 32C57.9921 25.1068 55.2502 18.4982 50.376 13.624C45.5018 8.74977 38.8932 6.00794 32 6ZM53.905 30H43.9475C43.5 20.8725 39.985 14.4175 37.1025 10.6C41.5782 11.6748 45.6053 14.1234 48.619 17.6025C51.6328 21.0817 53.482 25.4168 53.9075 30H53.905ZM24.0575 34H39.9425C39.365 44.4025 34.385 50.7775 32 53.25C29.6125 50.775 24.635 44.4 24.0575 34ZM24.0575 30C24.635 19.5975 29.615 13.2225 32 10.75C34.3875 13.2325 39.365 19.6075 39.9425 30H24.0575ZM26.8975 10.6C24.015 14.4175 20.5 20.8725 20.0525 30H10.0925C10.518 25.4168 12.3673 21.0817 15.381 17.6025C18.3948 14.1234 22.4218 11.6748 26.8975 10.6ZM10.0925 34H20.0525C20.5075 43.1275 24.015 49.5825 26.8975 53.4C22.4218 52.3252 18.3948 49.8766 15.381 46.3975C12.3673 42.9183 10.518 38.5832 10.0925 34ZM37.0925 53.4C39.975 49.5825 43.4825 43.1275 43.9375 34H53.8975C53.4727 38.5819 51.6248 42.916 48.613 46.395C45.6012 49.874 41.5763 52.3234 37.1025 53.4H37.0925Z" fill="var(--fill-0, #53B1FD)"/>
</g>
</svg>
