<svg preserveAspectRatio="none" width="100%" height="100%" overflow="visible" style="display: block;" viewBox="0 0 64 64" fill="none" xmlns="http://www.w3.org/2000/svg">
<g id="PhosphorIcon/HandWithdraw/Regular">
<path id="Icon" d="M58 49.6625V60C58 60.5304 57.7893 61.0391 57.4142 61.4142C57.0391 61.7893 56.5304 62 56 62C55.4696 62 54.9609 61.7893 54.5858 61.4142C54.2107 61.0391 54 60.5304 54 60V49.6625C53.9907 47.0954 53.4532 44.5577 52.421 42.2072C51.3888 39.8568 49.8839 37.7439 48 36V50.5875C47.9996 51.0179 47.8604 51.4367 47.6031 51.7817C47.3457 52.1267 46.9839 52.3794 46.5715 52.5024C46.159 52.6254 45.7179 52.612 45.3136 52.4643C44.9093 52.3166 44.5635 52.0424 44.3275 51.6825L41.6575 47.605C41.6375 47.575 41.6175 47.5425 41.6 47.51C41.2078 46.8175 40.5566 46.3091 39.7895 46.0967C39.0225 45.8843 38.2025 45.9853 37.51 46.3775C36.8175 46.7697 36.3091 47.4209 36.0967 48.188C35.8843 48.955 35.9853 49.775 36.3775 50.4675L41.91 58.915C42.2004 59.3589 42.3026 59.9 42.1941 60.4192C42.0855 60.9385 41.7752 61.3933 41.3312 61.6838C40.8873 61.9742 40.3463 62.0763 39.827 61.9678C39.3078 61.8593 38.8529 61.5489 38.5625 61.105L32.9975 52.605L32.9375 52.51C32.076 51.0337 31.7845 49.2933 32.1178 47.6169C32.4512 45.9404 33.3864 44.4439 34.7471 43.4095C36.1077 42.3751 37.7999 41.8742 39.5044 42.0014C41.2089 42.1286 42.8079 42.8751 44 44.1V16H40C39.4696 16 38.9609 15.7893 38.5858 15.4142C38.2107 15.0391 38 14.5304 38 14C38 13.4696 38.2107 12.9609 38.5858 12.5858C38.9609 12.2107 39.4696 12 40 12H44C45.0609 12 46.0783 12.4214 46.8284 13.1716C47.5786 13.9217 48 14.9391 48 16V30.905C51.0697 32.9794 53.5857 35.773 55.3286 39.0423C57.0716 42.3116 57.9887 45.9576 58 49.6625ZM22 14C22 13.4696 21.7893 12.9609 21.4142 12.5858C21.0391 12.2107 20.5304 12 20 12H16C14.9391 12 13.9217 12.4214 13.1716 13.1716C12.4214 13.9217 12 14.9391 12 16V50C12 50.5304 12.2107 51.0391 12.5858 51.4142C12.9609 51.7893 13.4696 52 14 52C14.5304 52 15.0391 51.7893 15.4142 51.4142C15.7893 51.0391 16 50.5304 16 50V16H20C20.5304 16 21.0391 15.7893 21.4142 15.4142C21.7893 15.0391 22 14.5304 22 14ZM39.415 24.585C39.2293 24.399 39.0087 24.2515 38.7659 24.1509C38.5231 24.0502 38.2628 23.9984 38 23.9984C37.7372 23.9984 37.4769 24.0502 37.2341 24.1509C36.9913 24.2515 36.7707 24.399 36.585 24.585L32 29.1725V4C32 3.46957 31.7893 2.96086 31.4142 2.58579C31.0391 2.21071 30.5304 2 30 2C29.4696 2 28.9609 2.21071 28.5858 2.58579C28.2107 2.96086 28 3.46957 28 4V29.1725L23.415 24.585C23.0397 24.2097 22.5307 23.9989 22 23.9989C21.4693 23.9989 20.9603 24.2097 20.585 24.585C20.2097 24.9603 19.9989 25.4693 19.9989 26C19.9989 26.5307 20.2097 27.0397 20.585 27.415L28.585 35.415C28.7707 35.601 28.9913 35.7485 29.2341 35.8491C29.4769 35.9498 29.7372 36.0016 30 36.0016C30.2628 36.0016 30.5231 35.9498 30.7659 35.8491C31.0087 35.7485 31.2293 35.601 31.415 35.415L39.415 27.415C39.601 27.2293 39.7485 27.0087 39.8491 26.7659C39.9498 26.5231 40.0016 26.2628 40.0016 26C40.0016 25.7372 39.9498 25.4769 39.8491 25.2341C39.7485 24.9913 39.601 24.7707 39.415 24.585Z" fill="var(--fill-0, #53B1FD)"/>
</g>
</svg>
