<svg preserveAspectRatio="none" width="100%" height="100%" overflow="visible" style="display: block;" viewBox="0 0 64 64" fill="none" xmlns="http://www.w3.org/2000/svg">
<g id="PhosphorIcon/Prohibit/Regular">
<path id="Icon" d="M32 6C26.8577 6 21.8309 7.52487 17.5552 10.3818C13.2795 13.2387 9.94702 17.2994 7.97914 22.0502C6.01127 26.8011 5.49638 32.0288 6.49959 37.0723C7.50281 42.1159 9.97907 46.7486 13.6152 50.3848C17.2514 54.0209 21.8842 56.4972 26.9277 57.5004C31.9712 58.5036 37.1989 57.9887 41.9498 56.0209C46.7007 54.053 50.7613 50.7205 53.6182 46.4448C56.4751 42.1691 58 37.1423 58 32C57.9927 25.1066 55.2511 18.4976 50.3767 13.6233C45.5024 8.74889 38.8934 6.00728 32 6ZM54 32C54.0051 37.1438 52.1986 42.1252 48.8975 46.07L17.93 15.1C21.1425 12.4274 25.0497 10.7251 29.1944 10.1922C33.3392 9.65928 37.5499 10.3178 41.334 12.0908C45.1181 13.8638 48.319 16.6778 50.562 20.2036C52.8051 23.7294 53.9976 27.8212 54 32ZM10 32C9.99489 26.8562 11.8014 21.8748 15.1025 17.93L46.07 48.9C42.8575 51.5726 38.9503 53.2749 34.8056 53.8078C30.6609 54.3407 26.4501 53.6822 22.666 51.9092C18.8819 50.1362 15.6811 47.3222 13.438 43.7964C11.1949 40.2706 10.0024 36.1788 10 32Z" fill="var(--fill-0, #53B1FD)"/>
</g>
</svg>
