<svg preserveAspectRatio="none" width="100%" height="100%" overflow="visible" style="display: block;" viewBox="0 0 64 64" fill="none" xmlns="http://www.w3.org/2000/svg">
<g id="Password">
<path id="Vector" d="M12 14V50C12 50.5304 11.7893 51.0391 11.4142 51.4142C11.0391 51.7893 10.5304 52 10 52C9.46957 52 8.96086 51.7893 8.58579 51.4142C8.21071 51.0391 8 50.5304 8 50V14C8 13.4696 8.21071 12.9609 8.58579 12.5858C8.96086 12.2107 9.46957 12 10 12C10.5304 12 11.0391 12.2107 11.4142 12.5858C11.7893 12.9609 12 13.4696 12 14ZM35 27.625L30 29.25V24C30 23.4696 29.7893 22.9609 29.4142 22.5858C29.0391 22.2107 28.5304 22 28 22C27.4696 22 26.9609 22.2107 26.5858 22.5858C26.2107 22.9609 26 23.4696 26 24V29.25L21 27.625C20.4954 27.4592 19.9457 27.5007 19.4717 27.7403C18.9977 27.9799 18.6383 28.3979 18.4725 28.9025C18.3067 29.4071 18.3482 29.9568 18.5878 30.4308C18.8274 30.9048 19.2454 31.2642 19.75 31.43L24.75 33.0525L21.665 37.3025C21.502 37.5143 21.3831 37.7567 21.3153 38.0153C21.2475 38.2738 21.2323 38.5434 21.2704 38.8079C21.3086 39.0725 21.3994 39.3267 21.5375 39.5556C21.6756 39.7845 21.8582 39.9833 22.0745 40.1404C22.2908 40.2975 22.5363 40.4097 22.7967 40.4703C23.057 40.5309 23.3269 40.5386 23.5903 40.4931C23.8537 40.4477 24.1053 40.3498 24.3303 40.2054C24.5552 40.0611 24.7489 39.873 24.9 39.6525L27.985 35.4025L31.07 39.6525C31.2211 39.873 31.4148 40.0611 31.6397 40.2054C31.8647 40.3498 32.1163 40.4477 32.3797 40.4931C32.6431 40.5386 32.913 40.5309 33.1733 40.4703C33.4337 40.4097 33.6792 40.2975 33.8955 40.1404C34.1118 39.9833 34.2944 39.7845 34.4325 39.5556C34.5706 39.3267 34.6614 39.0725 34.6996 38.8079C34.7377 38.5434 34.7225 38.2738 34.6547 38.0153C34.5869 37.7567 34.468 37.5143 34.305 37.3025L31.22 33.0525L36.22 31.43C36.7023 31.2506 37.0969 30.8922 37.3217 30.4294C37.5466 29.9665 37.5844 29.4348 37.4273 28.9448C37.2701 28.4548 36.9302 28.0442 36.4782 27.7984C36.0261 27.5526 35.4967 27.4905 35 27.625ZM61.5 28.91C61.3361 28.41 60.9818 27.9948 60.5138 27.7542C60.0459 27.5137 59.502 27.4673 59 27.625L54 29.25V24C54 23.4696 53.7893 22.9609 53.4142 22.5858C53.0391 22.2107 52.5304 22 52 22C51.4696 22 50.9609 22.2107 50.5858 22.5858C50.2107 22.9609 50 23.4696 50 24V29.25L45 27.6275C44.4954 27.4634 43.9463 27.5065 43.4735 27.7472C43.0007 27.988 42.6429 28.4067 42.4787 28.9112C42.3146 29.4158 42.3577 29.9649 42.5985 30.4377C42.8392 30.9106 43.2579 31.2684 43.7625 31.4325L48.7625 33.055L45.6775 37.305C45.5145 37.5168 45.3956 37.7592 45.3278 38.0178C45.26 38.2763 45.2448 38.5459 45.2829 38.8104C45.3211 39.075 45.4119 39.3292 45.55 39.5581C45.6881 39.787 45.8707 39.9858 46.087 40.1429C46.3033 40.3 46.5488 40.4122 46.8092 40.4728C47.0695 40.5334 47.3394 40.5411 47.6028 40.4956C47.8662 40.4502 48.1178 40.3523 48.3428 40.2079C48.5677 40.0636 48.7614 39.8755 48.9125 39.655L51.9975 35.405L55.0825 39.655C55.2336 39.8755 55.4273 40.0636 55.6522 40.2079C55.8772 40.3523 56.1288 40.4502 56.3922 40.4956C56.6556 40.5411 56.9255 40.5334 57.1858 40.4728C57.4462 40.4122 57.6917 40.3 57.908 40.1429C58.1243 39.9858 58.3069 39.787 58.445 39.5581C58.5831 39.3292 58.6739 39.075 58.7121 38.8104C58.7502 38.5459 58.735 38.2763 58.6672 38.0178C58.5994 37.7592 58.4805 37.5168 58.3175 37.305L55.2325 33.055L60.2325 31.4325C60.7345 31.2652 61.1497 30.9058 61.3873 30.4331C61.6248 29.9603 61.6654 29.4126 61.5 28.91Z" fill="var(--fill-0, #53B1FD)"/>
</g>
</svg>
