<svg preserveAspectRatio="none" width="100%" height="100%" overflow="visible" style="display: block;" viewBox="0 0 50.688 50.688" fill="none" xmlns="http://www.w3.org/2000/svg">
<g id="Frame">
<path id="Vector" d="M39.6272 21.625C40.2185 17.6228 37.1878 15.4896 33.0145 14.0408L34.3662 8.64887L31.0715 7.8273L29.7557 13.0862L27.1262 12.4589L28.4589 7.16202L25.1642 6.34256L23.8104 11.7535L21.7153 11.2593V11.2382L17.1597 10.0977L16.2832 13.6205C16.2832 13.6205 18.7226 14.195 18.6846 14.2119C20.0173 14.5561 20.2475 15.4326 20.2094 16.119L18.6846 22.2924L19.0267 22.4064L18.6656 22.3304L16.5113 30.9621C16.3593 31.3634 15.9411 31.9717 15.0076 31.7225C15.0456 31.7816 12.6253 31.1522 12.6253 31.1522L10.9863 34.9074L15.2737 35.9739L17.618 36.5843L16.2452 42.0544L19.5399 42.8717L20.8747 37.4608L23.5232 38.1451L22.1715 43.5391L25.4662 44.3586L26.82 38.8885C32.4421 39.955 36.6725 39.539 38.4466 34.4491C39.8743 30.3518 38.3684 28.0075 35.4158 26.4446C37.5701 25.9694 39.1879 24.5396 39.6082 21.625H39.6272ZM32.1 32.1829C31.0884 36.2802 24.1906 34.0499 21.9624 33.5134L23.7724 26.2566C26.0005 26.8269 33.1666 27.9124 32.1 32.1618V32.1829ZM33.1095 21.568C32.195 25.2851 26.4398 23.397 24.5918 22.9408L26.2286 16.3661C28.0978 16.8244 34.0811 17.7009 33.1095 21.568Z" fill="var(--fill-0, white)"/>
</g>
</svg>
