<svg preserveAspectRatio="none" width="100%" height="100%" overflow="visible" style="display: block;" viewBox="0 0 64 64" fill="none" xmlns="http://www.w3.org/2000/svg">
<g id="PhosphorIcon/Enta Wallet/Regular">
<path id="Icon" d="M49.8 8.56641C50.3941 8.56641 50.9638 8.8011 51.3839 9.21875C51.8041 9.63649 52.04 10.203 52.04 10.7937C52.04 11.3844 51.8041 11.9509 51.3839 12.3686C50.9638 12.7863 50.3941 13.021 49.8 13.021H11.72C11.1259 13.021 10.5562 13.2556 10.1361 13.6733C9.71595 14.091 9.48 14.6575 9.48 15.2482C9.48 15.8389 9.71604 16.4054 10.1361 16.8232C10.5562 17.2409 11.1259 17.4755 11.72 17.4755H56.52C57.7082 17.4755 58.8477 17.9448 59.6879 18.7802C60.528 19.6156 61 20.7486 61 21.93V53.1119C61 54.2933 60.528 55.4263 59.6879 56.2617C58.8477 57.0971 57.7082 57.5664 56.52 57.5664H11.72C9.93777 57.5664 8.2285 56.8625 6.96821 55.6094C5.70802 54.3563 5 52.6567 5 50.8846V15.2482C5 13.4761 5.70793 11.7766 6.96821 10.5234C8.2285 9.27031 9.93777 8.56641 11.72 8.56641H49.8ZM9.48 50.8846C9.48 51.4753 9.71604 52.0418 10.1361 52.4595C10.5562 52.8773 11.1259 53.1119 11.72 53.1119H56.52V21.93H11.72C10.9569 21.9311 10.1992 21.8022 9.48 21.5487V50.8846ZM25.6773 26.8345C26.4402 26.8345 27.0586 27.4498 27.0587 28.2088V29.4084C27.0587 29.6231 27.1679 29.8233 27.349 29.9403L27.5779 30.0883C27.7782 30.2177 28.0055 30.2964 28.2442 30.3038C28.5992 30.3147 29.1523 30.3219 29.7152 30.3219C31.1252 30.3213 31.283 30.3303 31.5747 30.4286C31.75 30.4878 31.8249 30.5058 32.053 30.6088C32.2389 30.6929 32.3212 30.7855 32.4546 30.9123C32.5879 31.0386 32.7665 31.2373 32.8515 31.3536C33.0518 31.6275 33.1467 31.944 33.1471 32.2829C33.1477 32.9181 33.1398 34.032 33.1398 35.0332H33.1454V35.6153C33.1454 36.6624 32.2921 37.5113 31.2396 37.5113H22.9978V36.7783C22.9978 35.474 24.0607 35.0333 25.3718 35.0332C26.2626 35.0332 26.9849 34.3151 26.9849 33.4293V32.8336C26.9743 31.3468 26.9642 31.1754 26.8723 30.9836C26.8165 30.8673 26.7043 30.7104 26.6225 30.6353C26.5338 30.5534 26.3462 30.4683 26.1555 30.4239C25.9063 30.3658 25.3335 30.3499 23.5255 30.3509C22.2542 30.352 21.1247 30.37 21.0151 30.3906C20.9057 30.4118 20.7299 30.5058 20.6242 30.6005C20.5189 30.6951 20.3813 30.8552 20.3186 30.9572C20.2107 31.1327 20.2033 31.2268 20.1752 32.7807C20.1631 33.4406 20.1543 34.7147 20.1392 35.9684C20.1653 37.6839 20.1686 40.0303 20.1672 40.8675C20.1661 41.9309 20.1842 42.4071 20.2335 42.5588C20.2707 42.6752 20.3632 42.8475 20.4393 42.9421C20.5146 43.0372 20.6783 43.1619 20.8025 43.2195C21.0183 43.3205 21.1417 43.3253 23.499 43.3253C25.309 43.3253 26.0348 43.3078 26.2144 43.2592C26.351 43.2222 26.539 43.117 26.6395 43.0214C26.7383 42.9268 26.8536 42.7841 26.8956 42.7042C26.9556 42.5894 27.0221 41.7925 27.0221 41.7396C27.0151 40.3919 28.1113 39.2957 29.4661 39.2957H30.848C32.0263 39.2882 33.0241 39.2999 33.0661 39.3216C33.1299 39.3549 33.1421 39.6889 33.1421 41.4224C33.1421 42.4879 32.2739 43.3517 31.2029 43.3517H28.1692C27.8882 43.3517 27.6165 43.4524 27.4041 43.6355C27.2623 43.755 27.1714 43.8666 27.1145 43.9654C27.0242 44.1224 27.0125 44.2354 27.0221 44.8845C27.03 45.3934 27.0087 45.7233 26.9545 45.9416C26.8956 46.1794 26.8255 46.3084 26.6751 46.4564C26.5264 46.6028 26.3913 46.6741 26.1555 46.7318C25.8993 46.7946 25.3712 46.8105 23.4724 46.8121C21.1693 46.8143 21.1027 46.8111 20.8956 46.7027C20.7787 46.6414 20.6146 46.5283 20.5311 46.4516C20.4472 46.3745 20.3308 46.2049 20.2729 46.0738C20.1842 45.874 20.1646 45.7 20.1534 44.9902C20.1428 44.3649 20.1178 44.0964 20.0572 43.9595C20.0115 43.8575 19.9069 43.7121 19.824 43.6355C19.7411 43.5594 19.6136 43.4664 19.5408 43.4299C19.4431 43.3808 18.9245 43.3591 17.575 43.3491C15.8297 43.3359 15.7266 43.3295 15.4232 43.2175C15.3253 43.1815 15.2037 43.1223 15.0926 43.0591C14.9356 42.9697 14.8081 42.8396 14.6948 42.6993C14.2207 42.1124 13.9621 41.382 13.9619 40.6291L13.9616 39.7708C13.9614 39.4145 13.9636 39.0714 13.9675 38.7736C13.9619 37.8031 13.96 36.3144 13.96 34.0228C13.9597 33.2521 13.9726 32.758 13.9919 32.4292C14.0163 32.011 14.182 31.622 14.4052 31.2668C14.5326 31.0638 14.7106 30.8971 14.9219 30.7826L15.1873 30.6386C15.449 30.4968 15.7324 30.3967 16.0297 30.3764C16.3472 30.3547 16.8213 30.3389 17.6015 30.3262C19.3967 30.2966 19.4096 30.2954 19.6662 30.1644C19.8696 30.0603 19.9456 29.9821 20.028 29.7944C20.113 29.6015 20.1364 29.4069 20.1513 28.7638V28.2088C20.1513 27.4498 20.7697 26.8345 21.5326 26.8345H25.6773ZM45.1542 33.3207C45.7682 33.0678 46.4438 33.0016 47.0955 33.1306C47.7473 33.2594 48.3459 33.5777 48.8158 34.045C49.2857 34.5122 49.6059 35.1074 49.7355 35.7555C49.8652 36.4035 49.7986 37.0753 49.5442 37.6858C49.2899 38.2963 48.8593 38.8181 48.3068 39.1852C47.7542 39.5523 47.1046 39.7482 46.44 39.7482C45.5489 39.7482 44.6943 39.3962 44.0642 38.7697C43.4341 38.1432 43.08 37.2934 43.08 36.4073C43.08 35.7465 43.2771 35.1006 43.6463 34.5513C44.0155 34.0019 44.5402 33.5736 45.1542 33.3207Z" fill="var(--fill-0, #53B1FD)"/>
</g>
</svg>
