<svg preserveAspectRatio="none" width="100%" height="100%" overflow="visible" style="display: block;" viewBox="0 0 64 64" fill="none" xmlns="http://www.w3.org/2000/svg">
<g id="PhosphorIcon/UsersThree/Regular">
<path id="Icon" d="M61.2008 37.5998C60.9906 37.7574 60.7515 37.872 60.4971 37.9372C60.2427 38.0024 59.9779 38.0168 59.7179 37.9797C59.4579 37.9426 59.2078 37.8546 58.9818 37.7207C58.7558 37.5869 58.5583 37.4099 58.4008 37.1998C57.1953 35.5794 55.6262 34.2648 53.8199 33.3616C52.0135 32.4584 50.0203 31.992 48.0008 31.9998C47.6075 31.9998 47.2229 31.8838 46.8952 31.6663C46.5675 31.4489 46.3112 31.1397 46.1583 30.7773C46.0544 30.5312 46.0009 30.2669 46.0009 29.9998C46.0009 29.7327 46.0544 29.4684 46.1583 29.2223C46.3112 28.8599 46.5675 28.5507 46.8952 28.3333C47.2229 28.1158 47.6075 27.9998 48.0008 27.9998C49.1229 27.9997 50.2226 27.6849 51.1748 27.0911C52.1271 26.4974 52.8937 25.6485 53.3877 24.6409C53.8816 23.6333 54.0831 22.5073 53.9693 21.391C53.8554 20.2746 53.4307 19.2125 52.7435 18.3254C52.0563 17.4382 51.134 16.7616 50.0815 16.3723C49.029 15.9831 47.8884 15.8968 46.7893 16.1233C45.6903 16.3497 44.6767 16.8799 43.8638 17.6535C43.0509 18.4272 42.4713 19.4132 42.1908 20.4998C42.1251 20.7542 42.01 20.9932 41.8519 21.2032C41.6939 21.4131 41.4961 21.5899 41.2697 21.7234C41.0434 21.8569 40.793 21.9444 40.5328 21.9812C40.2726 22.0179 40.0077 22.003 39.7533 21.9373C39.4988 21.8716 39.2598 21.7565 39.0499 21.5985C38.8399 21.4404 38.6632 21.2426 38.5297 21.0163C38.3962 20.7899 38.3086 20.5395 38.2719 20.2793C38.2352 20.0191 38.2501 19.7542 38.3158 19.4998C38.7051 17.9931 39.4408 16.598 40.4642 15.4257C41.4876 14.2533 42.7706 13.336 44.2109 12.7467C45.6512 12.1574 47.2092 11.9124 48.7609 12.0311C50.3125 12.1499 51.8151 12.6292 53.1489 13.4308C54.4828 14.2325 55.6111 15.3344 56.4442 16.6488C57.2773 17.9633 57.792 19.4541 57.9476 21.0025C58.1031 22.5509 57.8951 24.1143 57.3401 25.5682C56.7852 27.0221 55.8985 28.3264 54.7508 29.3773C57.4703 30.5548 59.8344 32.4233 61.6083 34.7973C61.7658 35.0079 61.8803 35.2476 61.9451 35.5026C62.0099 35.7575 62.0238 36.0228 61.986 36.2831C61.9481 36.5434 61.8593 36.7937 61.7245 37.0197C61.5898 37.2456 61.4118 37.4427 61.2008 37.5998ZM47.7308 52.9998C47.8755 53.2274 47.9726 53.482 48.0164 53.7481C48.0602 54.0143 48.0497 54.2866 47.9855 54.5486C47.9213 54.8106 47.8048 55.0569 47.643 55.2727C47.4812 55.4885 47.2773 55.6693 47.0438 55.8043C46.8103 55.9393 46.5519 56.0256 46.2841 56.0582C46.0163 56.0907 45.7447 56.0687 45.4857 55.9935C45.2266 55.9184 44.9855 55.7916 44.7767 55.6208C44.5679 55.4501 44.3958 55.2388 44.2708 54.9998C43.0109 52.8665 41.2165 51.0985 39.0648 49.8703C36.9131 48.6421 34.4783 47.9961 32.0008 47.9961C29.5232 47.9961 27.0884 48.6421 24.9367 49.8703C22.785 51.0985 20.9906 52.8665 19.7308 54.9998C19.6057 55.2388 19.4336 55.4501 19.2249 55.6208C19.0161 55.7916 18.7749 55.9184 18.5158 55.9935C18.2568 56.0687 17.9852 56.0907 17.7174 56.0582C17.4497 56.0256 17.1912 55.9393 16.9577 55.8043C16.7242 55.6693 16.5204 55.4885 16.3585 55.2727C16.1967 55.0569 16.0802 54.8106 16.016 54.5486C15.9518 54.2866 15.9413 54.0143 15.9851 53.7481C16.0289 53.482 16.1261 53.2274 16.2708 52.9998C18.2098 49.6682 21.1662 47.0465 24.7058 45.5198C22.7141 43.9949 21.2503 41.8842 20.5203 39.4844C19.7902 37.0846 19.8305 34.5163 20.6355 32.1406C21.4406 29.7648 22.9699 27.7011 25.0084 26.2395C27.047 24.7778 29.4923 23.9918 32.0008 23.9918C34.5092 23.9918 36.9545 24.7778 38.9931 26.2395C41.0317 27.7011 42.5609 29.7648 43.366 32.1406C44.171 34.5163 44.2113 37.0846 43.4813 39.4844C42.7512 41.8842 41.2874 43.9949 39.2958 45.5198C42.8353 47.0465 45.7918 49.6682 47.7308 52.9998ZM32.0008 43.9998C33.583 43.9998 35.1297 43.5306 36.4453 42.6516C37.7609 41.7725 38.7863 40.5231 39.3918 39.0613C39.9973 37.5995 40.1557 35.9909 39.847 34.4391C39.5384 32.8872 38.7764 31.4618 37.6576 30.3429C36.5388 29.2241 35.1133 28.4622 33.5615 28.1535C32.0096 27.8448 30.4011 28.0033 28.9393 28.6088C27.4775 29.2143 26.2281 30.2396 25.349 31.5552C24.47 32.8708 24.0008 34.4175 24.0008 35.9998C24.0008 38.1215 24.8436 40.1564 26.3439 41.6566C27.8442 43.1569 29.879 43.9998 32.0008 43.9998ZM18.0008 29.9998C18.0008 29.4694 17.79 28.9607 17.415 28.5856C17.0399 28.2105 16.5312 27.9998 16.0008 27.9998C14.8786 27.9997 13.7789 27.6849 12.8267 27.0911C11.8744 26.4974 11.1078 25.6485 10.6138 24.6409C10.1199 23.6333 9.91838 22.5073 10.0323 21.391C10.1461 20.2746 10.5708 19.2125 11.258 18.3254C11.9453 17.4382 12.8675 16.7616 13.92 16.3723C14.9725 15.9831 16.1131 15.8968 17.2122 16.1233C18.3113 16.3497 19.3248 16.8799 20.1377 17.6535C20.9506 18.4272 21.5302 19.4132 21.8108 20.4998C21.9434 21.0137 22.2747 21.4538 22.7318 21.7234C23.1889 21.993 23.7344 22.0699 24.2483 21.9373C24.7621 21.8047 25.2022 21.4734 25.4718 21.0163C25.7414 20.5591 25.8184 20.0137 25.6858 19.4998C25.2964 17.9931 24.5607 16.598 23.5373 15.4257C22.5139 14.2533 21.231 13.336 19.7906 12.7467C18.3503 12.1574 16.7923 11.9124 15.2407 12.0311C13.689 12.1499 12.1864 12.6292 10.8526 13.4308C9.51872 14.2325 8.39037 15.3344 7.55731 16.6488C6.72425 17.9633 6.20947 19.4541 6.05393 21.0025C5.89839 22.5509 6.10639 24.1143 6.66137 25.5682C7.21635 27.0221 8.10299 28.3264 9.25076 29.3773C6.53397 30.5559 4.17254 32.4244 2.40076 34.7973C2.08217 35.2216 1.9452 35.7552 2.01998 36.2805C2.09476 36.8058 2.37516 37.28 2.79951 37.5985C3.22385 37.9171 3.75738 38.0541 4.28272 37.9793C4.80805 37.9045 5.28217 37.6241 5.60076 37.1998C6.80622 35.5794 8.37529 34.2648 10.1817 33.3616C11.988 32.4584 13.9812 31.992 16.0008 31.9998C16.5312 31.9998 17.0399 31.7891 17.415 31.414C17.79 31.0389 18.0008 30.5302 18.0008 29.9998Z" fill="var(--fill-0, #53B1FD)"/>
</g>
</svg>
