<svg preserveAspectRatio="none" width="100%" height="100%" overflow="visible" style="display: block;" viewBox="0 0 25.8252 25.8252" fill="none" xmlns="http://www.w3.org/2000/svg">
<g id="Icon">
<path id="Icon_2" d="M23.4041 16.9478H22.5971V7.26335C22.5971 6.62123 22.342 6.00541 21.888 5.55136C21.4339 5.09731 20.8181 4.84223 20.176 4.84223H5.64927C5.00715 4.84223 4.39133 5.09731 3.93728 5.55136C3.48324 6.00541 3.22816 6.62123 3.22816 7.26335V16.9478H2.42112C2.20708 16.9478 2.0018 17.0328 1.85045 17.1842C1.6991 17.3355 1.61408 17.5408 1.61408 17.7549V19.3689C1.61408 20.0111 1.86916 20.6269 2.32321 21.0809C2.77725 21.535 3.39307 21.79 4.03519 21.79H21.79C22.4322 21.79 23.048 21.535 23.502 21.0809C23.9561 20.6269 24.2112 20.0111 24.2112 19.3689V17.7549C24.2112 17.5408 24.1261 17.3355 23.9748 17.1842C23.8234 17.0328 23.6182 16.9478 23.4041 16.9478ZM4.84223 7.26335C4.84223 7.04931 4.92726 6.84404 5.07861 6.69269C5.22996 6.54134 5.43523 6.45631 5.64927 6.45631H20.176C20.39 6.45631 20.5953 6.54134 20.7466 6.69269C20.898 6.84404 20.983 7.04931 20.983 7.26335V16.9478H4.84223V7.26335ZM22.5971 19.3689C22.5971 19.583 22.5121 19.7882 22.3607 19.9396C22.2094 20.0909 22.0041 20.176 21.79 20.176H4.03519C3.82115 20.176 3.61588 20.0909 3.46453 19.9396C3.31318 19.7882 3.22816 19.583 3.22816 19.3689V18.5619H22.5971V19.3689Z" fill="var(--fill-0, #667085)"/>
<g id="PhosphorIcon/WindowsLogo/filled">
<path id="Icon_3" d="M12.7445 12.3073V13.8267C12.7445 13.8892 12.7197 13.949 12.6755 13.9932C12.6314 14.0373 12.5715 14.0621 12.5091 14.0621C12.495 14.062 12.4809 14.0608 12.467 14.0583L10.5839 13.7158C10.5297 13.706 10.4806 13.6774 10.4453 13.6351C10.41 13.5927 10.3906 13.5394 10.3906 13.4843V12.3073C10.3906 12.2449 10.4154 12.185 10.4596 12.1409C10.5037 12.0967 10.5636 12.0719 10.626 12.0719H12.5091C12.5715 12.0719 12.6314 12.0967 12.6755 12.1409C12.7197 12.185 12.7445 12.2449 12.7445 12.3073ZM12.66 9.6657C12.6336 9.64359 12.6026 9.62757 12.5692 9.61877C12.5358 9.60998 12.501 9.60862 12.467 9.6148L10.5839 9.95728C10.5297 9.96714 10.4806 9.99571 10.4453 10.038C10.41 10.0803 10.3906 10.1337 10.3906 10.1888V11.3658C10.3906 11.4282 10.4154 11.4881 10.4596 11.5322C10.5037 11.5764 10.5636 11.6012 10.626 11.6012H12.5091C12.5715 11.6012 12.6314 11.5764 12.6755 11.5322C12.7197 11.4881 12.7445 11.4282 12.7445 11.3658V9.84636C12.7445 9.8119 12.7369 9.77786 12.7223 9.74664C12.7078 9.71543 12.6865 9.68779 12.66 9.6657ZM15.8045 12.0719H13.4506C13.3882 12.0719 13.3283 12.0967 13.2842 12.1409C13.2401 12.185 13.2153 12.2449 13.2153 12.3073V13.9977C13.2152 14.0529 13.2345 14.1063 13.2699 14.1487C13.3052 14.1911 13.3543 14.2197 13.4086 14.2295L15.7624 14.6574C15.7763 14.66 15.7904 14.6612 15.8045 14.6612C15.8669 14.6612 15.9268 14.6364 15.971 14.5922C16.0151 14.5481 16.0399 14.4882 16.0399 14.4258V12.3073C16.0399 12.2449 16.0151 12.185 15.971 12.1409C15.9268 12.0967 15.8669 12.0719 15.8045 12.0719ZM15.9555 9.06664C15.929 9.04453 15.898 9.02851 15.8646 9.01971C15.8313 9.01092 15.7964 9.00956 15.7624 9.01574L13.4086 9.44385C13.3543 9.4537 13.3053 9.48228 13.2699 9.52459C13.2346 9.56691 13.2153 9.62028 13.2153 9.67541V11.3658C13.2153 11.4282 13.2401 11.4881 13.2842 11.5322C13.3283 11.5764 13.3882 11.6012 13.4506 11.6012H15.8045C15.8669 11.6012 15.9268 11.5764 15.971 11.5322C16.0151 11.4881 16.0399 11.4282 16.0399 11.3658V9.2473C16.0399 9.21284 16.0323 9.1788 16.0178 9.14758C16.0032 9.11637 15.9819 9.08874 15.9555 9.06664Z" fill="var(--fill-0, #667085)"/>
</g>
</g>
</svg>
