<svg preserveAspectRatio="none" width="100%" height="100%" overflow="visible" style="display: block;" viewBox="0 0 7.74757 7.74757" fill="none" xmlns="http://www.w3.org/2000/svg">
<g id="PhosphorIcon/Clock/Regular">
<g id="Icon">
<mask id="path-1-inside-1_0_139" fill="white">
<path d="M3.87379 0.726335C3.25128 0.726335 2.64275 0.91093 2.12516 1.25678C1.60756 1.60262 1.20414 2.09419 0.965922 2.66931C0.727699 3.24443 0.665369 3.87728 0.786814 4.48782C0.908259 5.09837 1.20802 5.65919 1.6482 6.09937C2.08838 6.53955 2.6492 6.83932 3.25975 6.96076C3.8703 7.08221 4.50314 7.01988 5.07827 6.78165C5.65339 6.54343 6.14495 6.14001 6.4908 5.62242C6.83664 5.10482 7.02124 4.49629 7.02124 3.87379C7.02036 3.0393 6.68847 2.23925 6.0984 1.64918C5.50833 1.0591 4.70827 0.727216 3.87379 0.726335ZM3.87379 6.53701C3.34705 6.53701 2.83214 6.38082 2.39418 6.08818C1.95621 5.79554 1.61486 5.3796 1.41329 4.89296C1.21171 4.40632 1.15897 3.87083 1.26173 3.35422C1.36449 2.8376 1.61814 2.36306 1.9906 1.9906C2.36306 1.61814 2.8376 1.36449 3.35422 1.26173C3.87083 1.15897 4.40632 1.21171 4.89296 1.41328C5.3796 1.61486 5.79554 1.95621 6.08818 2.39418C6.38082 2.83214 6.53702 3.34705 6.53702 3.87379C6.53621 4.57987 6.25537 5.25681 5.75609 5.75609C5.25681 6.25537 4.57987 6.53621 3.87379 6.53701ZM5.81068 3.87379C5.81068 3.938 5.78517 3.99958 5.73977 4.04499C5.69436 4.09039 5.63278 4.1159 5.56857 4.1159H3.87379C3.80958 4.1159 3.74799 4.09039 3.70259 4.04499C3.65718 3.99958 3.63168 3.938 3.63168 3.87379V2.179C3.63168 2.11479 3.65718 2.05321 3.70259 2.00781C3.74799 1.9624 3.80958 1.93689 3.87379 1.93689C3.938 1.93689 3.99958 1.9624 4.04499 2.00781C4.09039 2.05321 4.1159 2.11479 4.1159 2.179V3.63167H5.56857C5.63278 3.63167 5.69436 3.65718 5.73977 3.70259C5.78517 3.74799 5.81068 3.80957 5.81068 3.87379Z"/>
</mask>
<path d="M3.87379 0.726335C3.25128 0.726335 2.64275 0.91093 2.12516 1.25678C1.60756 1.60262 1.20414 2.09419 0.965922 2.66931C0.727699 3.24443 0.665369 3.87728 0.786814 4.48782C0.908259 5.09837 1.20802 5.65919 1.6482 6.09937C2.08838 6.53955 2.6492 6.83932 3.25975 6.96076C3.8703 7.08221 4.50314 7.01988 5.07827 6.78165C5.65339 6.54343 6.14495 6.14001 6.4908 5.62242C6.83664 5.10482 7.02124 4.49629 7.02124 3.87379C7.02036 3.0393 6.68847 2.23925 6.0984 1.64918C5.50833 1.0591 4.70827 0.727216 3.87379 0.726335ZM3.87379 6.53701C3.34705 6.53701 2.83214 6.38082 2.39418 6.08818C1.95621 5.79554 1.61486 5.3796 1.41329 4.89296C1.21171 4.40632 1.15897 3.87083 1.26173 3.35422C1.36449 2.8376 1.61814 2.36306 1.9906 1.9906C2.36306 1.61814 2.8376 1.36449 3.35422 1.26173C3.87083 1.15897 4.40632 1.21171 4.89296 1.41328C5.3796 1.61486 5.79554 1.95621 6.08818 2.39418C6.38082 2.83214 6.53702 3.34705 6.53702 3.87379C6.53621 4.57987 6.25537 5.25681 5.75609 5.75609C5.25681 6.25537 4.57987 6.53621 3.87379 6.53701ZM5.81068 3.87379C5.81068 3.938 5.78517 3.99958 5.73977 4.04499C5.69436 4.09039 5.63278 4.1159 5.56857 4.1159H3.87379C3.80958 4.1159 3.74799 4.09039 3.70259 4.04499C3.65718 3.99958 3.63168 3.938 3.63168 3.87379V2.179C3.63168 2.11479 3.65718 2.05321 3.70259 2.00781C3.74799 1.9624 3.80958 1.93689 3.87379 1.93689C3.938 1.93689 3.99958 1.9624 4.04499 2.00781C4.09039 2.05321 4.1159 2.11479 4.1159 2.179V3.63167H5.56857C5.63278 3.63167 5.69436 3.65718 5.73977 3.70259C5.78517 3.74799 5.81068 3.80957 5.81068 3.87379Z" fill="var(--fill-0, #101828)"/>
<path d="M3.87379 0.726335L3.87481 -0.242112H3.87379V0.726335ZM7.02124 3.87379H7.98969L7.98969 3.87276L7.02124 3.87379ZM3.87379 6.53701V7.50546L3.87489 7.50546L3.87379 6.53701ZM6.53702 3.87379L7.50546 3.87488V3.87379H6.53702ZM3.87379 1.93689V2.90534V1.93689ZM4.1159 3.63167H3.14745V4.60012H4.1159V3.63167ZM3.87379 0.726335V-0.242112C3.05974 -0.242112 2.26397 -0.000718474 1.58712 0.451542L2.12516 1.25678L2.6632 2.06201C3.02153 1.82258 3.44282 1.69478 3.87379 1.69478V0.726335ZM2.12516 1.25678L1.58712 0.451542C0.910261 0.903803 0.382716 1.54662 0.0711938 2.2987L0.965922 2.66931L1.86065 3.03992C2.02557 2.64176 2.30486 2.30144 2.6632 2.06201L2.12516 1.25678ZM0.965922 2.66931L0.0711938 2.2987C-0.240329 3.05078 -0.321837 3.87835 -0.163024 4.67676L0.786814 4.48782L1.73665 4.29889C1.65257 3.8762 1.69573 3.43808 1.86065 3.03992L0.965922 2.66931ZM0.786814 4.48782L-0.163024 4.67676C-0.0042116 5.47516 0.38779 6.20855 0.963408 6.78417L1.6482 6.09937L2.333 5.41458C2.02826 5.10984 1.82073 4.72157 1.73665 4.29889L0.786814 4.48782ZM1.6482 6.09937L0.963408 6.78417C1.53903 7.35978 2.27241 7.75179 3.07082 7.9106L3.25975 6.96076L3.44869 6.01092C3.026 5.92684 2.63774 5.71931 2.333 5.41458L1.6482 6.09937ZM3.25975 6.96076L3.07082 7.9106C3.86922 8.06941 4.69679 7.9879 5.44887 7.67638L5.07827 6.78165L4.70766 5.88692C4.3095 6.05185 3.87137 6.095 3.44869 6.01092L3.25975 6.96076ZM5.07827 6.78165L5.44887 7.67638C6.20096 7.36486 6.84377 6.83731 7.29603 6.16046L6.4908 5.62242L5.68556 5.08438C5.44613 5.44271 5.10582 5.722 4.70766 5.88692L5.07827 6.78165ZM6.4908 5.62242L7.29603 6.16046C7.74829 5.4836 7.98969 4.68783 7.98969 3.87379H7.02124H6.05279C6.05279 4.30475 5.925 4.72604 5.68556 5.08438L6.4908 5.62242ZM7.02124 3.87379L7.98969 3.87276C7.98853 2.78178 7.55463 1.73582 6.78319 0.96438L6.0984 1.64918L5.4136 2.33397C5.82231 2.74267 6.05218 3.29682 6.05279 3.87481L7.02124 3.87379ZM6.0984 1.64918L6.78319 0.96438C6.01175 0.192941 4.96579 -0.240959 3.87481 -0.242111L3.87379 0.726335L3.87277 1.69478C4.45076 1.69539 5.0049 1.92527 5.4136 2.33397L6.0984 1.64918ZM3.87379 6.53701V5.56857C3.53859 5.56857 3.21092 5.46917 2.93222 5.28295L2.39418 6.08818L1.85614 6.89341C2.45336 7.29247 3.15551 7.50546 3.87379 7.50546V6.53701ZM2.39418 6.08818L2.93222 5.28295C2.65351 5.09672 2.43629 4.83203 2.30801 4.52235L1.41329 4.89296L0.518558 5.26357C0.793431 5.92717 1.25891 6.49436 1.85614 6.89341L2.39418 6.08818ZM1.41329 4.89296L2.30801 4.52235C2.17974 4.21267 2.14618 3.87191 2.21157 3.54315L1.26173 3.35422L0.311895 3.16528C0.171766 3.86976 0.243685 4.59997 0.518558 5.26357L1.41329 4.89296ZM1.26173 3.35422L2.21157 3.54315C2.27696 3.2144 2.43838 2.91241 2.6754 2.67539L1.9906 1.9906L1.30581 1.3058C0.797907 1.8137 0.452024 2.46081 0.311895 3.16528L1.26173 3.35422ZM1.9906 1.9906L2.6754 2.67539C2.91242 2.43838 3.2144 2.27696 3.54315 2.21157L3.35422 1.26173L3.16528 0.311893C2.46081 0.452022 1.8137 0.797906 1.30581 1.3058L1.9906 1.9906ZM3.35422 1.26173L3.54315 2.21157C3.87191 2.14618 4.21267 2.17974 4.52235 2.30801L4.89296 1.41328L5.26357 0.518556C4.59997 0.243684 3.86976 0.171764 3.16528 0.311893L3.35422 1.26173ZM4.89296 1.41328L4.52235 2.30801C4.83203 2.43629 5.09672 2.65351 5.28295 2.93222L6.08818 2.39418L6.89341 1.85614C6.49436 1.25891 5.92717 0.793429 5.26357 0.518556L4.89296 1.41328ZM6.08818 2.39418L5.28295 2.93222C5.46917 3.21092 5.56857 3.53859 5.56857 3.87379H6.53702H7.50546C7.50546 3.15551 7.29247 2.45336 6.89341 1.85614L6.08818 2.39418ZM6.53702 3.87379L5.56857 3.87269C5.56806 4.32231 5.38922 4.75336 5.07129 5.07129L5.75609 5.75609L6.44088 6.44088C7.12151 5.76026 7.50437 4.83744 7.50546 3.87488L6.53702 3.87379ZM5.75609 5.75609L5.07129 5.07129C4.75337 5.38922 4.32231 5.56806 3.87269 5.56857L3.87379 6.53701L3.87489 7.50546C4.83744 7.50437 5.76026 7.12151 6.44088 6.44088L5.75609 5.75609ZM5.81068 3.87379H4.84223C4.84223 3.68115 4.91876 3.49641 5.05497 3.36019L5.73977 4.04499L6.42456 4.72978C6.65159 4.50276 6.77913 4.19484 6.77913 3.87379H5.81068ZM5.73977 4.04499L5.05497 3.36019C5.19119 3.22397 5.37594 3.14745 5.56857 3.14745V4.1159V5.08434C5.88963 5.08434 6.19754 4.95681 6.42456 4.72978L5.73977 4.04499ZM5.56857 4.1159V3.14745H3.87379V4.1159V5.08434H5.56857V4.1159ZM3.87379 4.1159V3.14745C4.06642 3.14745 4.25117 3.22397 4.38738 3.36019L3.70259 4.04499L3.01779 4.72978C3.24482 4.95681 3.55273 5.08434 3.87379 5.08434V4.1159ZM3.70259 4.04499L4.38738 3.36019C4.5236 3.4964 4.60012 3.68115 4.60012 3.87379H3.63168H2.66323C2.66323 4.19485 2.79077 4.50276 3.01779 4.72978L3.70259 4.04499ZM3.63168 3.87379H4.60012V2.179H3.63168H2.66323V3.87379H3.63168ZM3.63168 2.179H4.60012C4.60012 2.37164 4.5236 2.55639 4.38738 2.6926L3.70259 2.00781L3.01779 1.32301C2.79077 1.55003 2.66323 1.85794 2.66323 2.179H3.63168ZM3.70259 2.00781L4.38738 2.6926C4.25117 2.82882 4.06642 2.90534 3.87379 2.90534V1.93689V0.968447C3.55273 0.968447 3.24482 1.09599 3.01779 1.32301L3.70259 2.00781ZM3.87379 1.93689V2.90534C3.68115 2.90534 3.49641 2.82882 3.36019 2.6926L4.04499 2.00781L4.72978 1.32301C4.50276 1.09599 4.19485 0.968447 3.87379 0.968447V1.93689ZM4.04499 2.00781L3.36019 2.6926C3.22398 2.55639 3.14745 2.37164 3.14745 2.179H4.1159H5.08435C5.08435 1.85795 4.95681 1.55004 4.72978 1.32301L4.04499 2.00781ZM4.1159 2.179H3.14745V3.63167H4.1159H5.08435V2.179H4.1159ZM4.1159 3.63167V4.60012H5.56857V3.63167V2.66323H4.1159V3.63167ZM5.56857 3.63167V4.60012C5.37593 4.60012 5.19119 4.5236 5.05497 4.38738L5.73977 3.70259L6.42456 3.01779C6.19754 2.79077 5.88963 2.66323 5.56857 2.66323V3.63167ZM5.73977 3.70259L5.05497 4.38738C4.91876 4.25117 4.84223 4.06642 4.84223 3.87379H5.81068H6.77913C6.77913 3.55273 6.65159 3.24482 6.42456 3.01779L5.73977 3.70259Z" fill="var(--stroke-0, #667085)" mask="url(#path-1-inside-1_0_139)"/>
</g>
</g>
</svg>
