<svg width="120" height="40" viewBox="0 0 120 40" fill="none" xmlns="http://www.w3.org/2000/svg">
<path d="M119.416 4L115.911 20.458C116.173 20.4917 116.55 20.4912 116.92 20.4912C117.928 20.4912 119.527 20.2311 119.527 21.041C119.527 21.6237 118.631 22.6215 115.436 22.7314L112.614 36H89.2598L93.5449 15.8301C93.5449 15.8301 92.9414 14.9518 92.9414 12.5557C92.9415 11.0286 93.5677 8.70824 93.7412 8.16406C93.9186 7.61957 94.501 7.27942 95.334 7.41211L96.0596 4H119.416ZM97.4258 29.9971L95.6758 34.1943L96.1523 35.1504H100.35L99.8818 34.1855L100.892 29.2158L97.4131 26.7734L97.4258 29.9971ZM91.9434 27.4287L92.915 27.5732L97.4971 25.9834L103.839 30.4766L101.385 32.0137L105.012 35.0303L105.064 33.9648L106.16 31.2715L106.074 28.9482L103.769 25.2021L104.215 23.5752L104.062 21.751C98.0997 21.7644 95.5417 19.1557 94.1318 17.0195L91.9434 27.4287ZM109.278 22.4658C109.349 23.1598 108.45 26.833 108.635 28.6445C108.637 28.6663 108.801 30.4992 110.606 30.4922C111.048 30.4922 111.355 30.2293 111.366 30.2197C111.412 29.5554 111.26 29.2093 111.258 29.2051C110.72 29.346 110.281 29.1553 110.223 28.6055C110.149 27.8664 111.817 24.6357 112.244 23.5576C112.409 23.1435 112.426 22.555 112.427 22.5361C110.658 22.2905 109.128 21.3497 109.105 21.3359L109.278 22.4658ZM108.869 17.8877C107.067 17.4187 106.446 18.6618 106.438 18.6797C106.438 18.6797 110.603 22.8501 116.422 22.1387C118.53 21.8757 118.998 21.3203 118.932 21.0654C118.868 20.8206 118.146 20.9241 117.443 20.9531C117.035 20.9762 113.533 21.4313 108.869 17.8877ZM95.3887 7.98633C95.3711 7.98317 94.5119 7.83144 94.3223 8.31055C94.1319 8.79912 93.5332 11.0291 93.5332 12.5557C93.5332 13.3902 93.2785 20.6357 104.898 20.6357C104.914 20.6246 105.623 20.111 105.843 19.1035L105.254 18.5811C105.254 18.5811 106.15 16.4969 108.753 17.0166C108.753 17.0166 111.039 18.8575 112.404 19.4814C112.29 17.9483 112.153 16.9467 111.76 16.2217C111.4 15.5484 109.907 13.7412 109.907 13.7412L109.994 12.8135C108.861 11.023 105.927 8.56738 105.927 8.56738C104.019 8.02973 102.269 8.15918 102.269 8.15918L101.073 8.81445L95.3887 7.98633ZM106.099 13.6152L102.838 14.0684L104.788 12.3613L106.099 13.6152Z" fill="#BBBBBB"/>
<path fill-rule="evenodd" clip-rule="evenodd" d="M79.9369 27.7941C80.5075 27.7941 80.8999 28.0221 81.1322 28.4901C81.3636 28.9569 81.384 29.6577 81.1975 30.5887C81.095 31.0736 80.96 31.498 80.7861 31.8588C80.6174 32.2182 80.421 32.5193 80.1965 32.7486C79.9746 32.99 79.7345 33.1661 79.4727 33.2768C79.2076 33.3962 78.9385 33.4481 78.6647 33.4481C78.5081 33.4481 78.3545 33.4286 78.1966 33.3988C78.0374 33.3625 77.8929 33.3274 77.7674 33.2768C77.6351 33.2301 77.536 33.1816 77.4573 33.131C77.3816 33.0782 77.3452 33.0333 77.3526 32.9973C77.3621 32.9813 77.3643 32.9623 77.3755 32.9428C77.3755 32.9225 77.3889 32.8996 77.4101 32.8801L77.5974 32.5617C77.6178 32.5293 77.6489 32.5193 77.6866 32.5193C77.677 32.5193 77.706 32.5293 77.7722 32.5483C77.8496 32.5686 77.9336 32.5942 78.0465 32.6197C78.1559 32.6547 78.2775 32.6785 78.4029 32.6932C78.5336 32.7149 78.6534 32.7257 78.7685 32.7257C78.9298 32.7257 79.0908 32.6906 79.2482 32.6245C79.4066 32.5617 79.5523 32.4436 79.686 32.2797C79.8214 32.1226 79.9443 31.9115 80.0624 31.6438C80.1722 31.376 80.2739 31.0446 80.3557 30.6488C80.2739 30.8357 80.177 30.9806 80.0771 31.1C79.9746 31.2142 79.8686 31.3072 79.7608 31.376C79.6523 31.4426 79.5329 31.4885 79.4126 31.5161C79.2893 31.5473 79.1626 31.5525 79.0354 31.5525C78.7239 31.5525 78.4778 31.5019 78.2835 31.4076C78.0893 31.3072 77.9496 31.1774 77.8531 31.0044C77.7506 30.8409 77.7013 30.644 77.6866 30.4247C77.677 30.1967 77.6926 29.9601 77.7484 29.7036C77.8025 29.4379 77.8855 29.1944 77.995 28.9591C78.114 28.7276 78.2545 28.5226 78.431 28.3552C78.6106 28.1791 78.8226 28.045 79.0773 27.9459C79.3231 27.8378 79.6164 27.7941 79.9369 27.7941ZM75.5278 27.7881C75.8185 27.7881 76.0659 27.8196 76.2597 27.8919C76.4561 27.9594 76.611 28.0537 76.7204 28.1791C76.8351 28.302 76.9039 28.4517 76.9315 28.6217C76.964 28.7965 76.9536 28.992 76.9121 29.1944C76.8606 29.4588 76.7399 29.6863 76.5483 29.8723C76.3614 30.0653 76.0997 30.221 75.7895 30.3473C76.1226 30.4801 76.3614 30.6618 76.5033 30.908C76.6447 31.1446 76.6832 31.4426 76.6084 31.7887C76.5033 32.329 76.2537 32.7339 75.863 33.0212C75.4629 33.3058 74.9654 33.4421 74.365 33.4421C73.7416 33.4421 73.2977 33.2998 73.03 33.0151C72.7635 32.7279 72.6947 32.3165 72.7985 31.7801C72.8699 31.4426 73.0239 31.1506 73.2687 30.908C73.5045 30.6618 73.8186 30.4728 74.2157 30.3365C73.9492 30.2253 73.761 30.0726 73.6464 29.8918C73.5339 29.7036 73.5006 29.4717 73.5608 29.197C73.6066 28.992 73.6801 28.8034 73.7792 28.6238C73.8817 28.4517 74.0154 28.302 74.1733 28.1791C74.3399 28.0537 74.528 27.9594 74.7547 27.8919C74.9758 27.8171 75.2349 27.7881 75.5278 27.7881ZM62.8705 29.291C63.0042 29.291 63.1287 29.304 63.2417 29.3295C63.3615 29.3533 63.4675 29.384 63.5613 29.426C63.6543 29.4588 63.7387 29.5034 63.8075 29.5467C63.8776 29.5912 63.9295 29.6323 63.9619 29.6635C63.9861 29.6911 63.9991 29.7154 63.997 29.7409C63.9918 29.772 63.9714 29.8153 63.9282 29.8629L63.7097 30.1025C63.6812 30.1281 63.6509 30.1445 63.6145 30.1363C63.5795 30.1363 63.5458 30.1281 63.5073 30.1229C63.4424 30.0978 63.3398 30.0545 63.2226 30.0052C63.1032 29.9533 62.957 29.9325 62.7861 29.9325C62.5958 29.9325 62.4292 29.9689 62.2852 30.0519C62.1433 30.1341 62.0191 30.2423 61.9153 30.3677C61.8141 30.4997 61.7319 30.6537 61.6648 30.825C61.5974 30.9998 61.5424 31.1793 61.51 31.3675C61.4689 31.5569 61.4498 31.7378 61.4425 31.9177C61.4317 32.0864 61.4581 32.2383 61.5052 32.3685C61.5571 32.5026 61.632 32.6051 61.7453 32.6834C61.8513 32.757 62.0057 32.8006 62.1852 32.8006C62.3375 32.8006 62.476 32.7738 62.6101 32.734C62.739 32.6908 62.8679 32.6484 62.9985 32.6112C63.0418 32.5882 63.0876 32.5856 63.1179 32.5856C63.1599 32.5856 63.1807 32.5978 63.1971 32.6241L63.3022 32.8655C63.3398 32.9404 63.3225 33.0053 63.2624 33.0619C63.1707 33.1415 63.0176 33.2298 62.7848 33.3107C62.5581 33.3963 62.2796 33.4396 61.9495 33.4396C61.5974 33.4396 61.3157 33.3782 61.1072 33.2661C60.9022 33.1502 60.7503 32.997 60.6504 32.8089C60.5548 32.6198 60.5068 32.3966 60.4955 32.1431C60.4955 31.897 60.5224 31.6292 60.5816 31.3597C60.6396 31.0793 60.7248 30.8176 60.8321 30.5672C60.9381 30.3149 61.0843 30.093 61.2686 29.9083C61.4425 29.7154 61.6648 29.5705 61.9283 29.4588C62.1852 29.349 62.5015 29.291 62.8705 29.291ZM66.4075 29.2935C66.6377 29.2956 66.8479 29.3272 67.0374 29.3934C67.229 29.4587 67.3848 29.5599 67.5037 29.6975C67.6244 29.8312 67.7066 30.0051 67.7464 30.2097C67.7923 30.4186 67.7814 30.6535 67.7269 30.9287C67.6971 31.0732 67.6581 31.1999 67.6106 31.2929C67.5643 31.3894 67.499 31.4668 67.422 31.5231C67.3424 31.5823 67.245 31.629 67.1373 31.6537C67.0227 31.6779 66.8864 31.6896 66.7337 31.6896H65.1474C65.1244 31.8523 65.121 31.9963 65.1327 32.1348C65.1426 32.2697 65.1755 32.3831 65.2352 32.4821C65.2897 32.5812 65.3715 32.6643 65.4766 32.7149C65.5843 32.7737 65.7262 32.8005 65.894 32.8005C66.0433 32.8005 66.1977 32.7823 66.3496 32.7447C66.5066 32.704 66.6757 32.6642 66.8405 32.611C66.9275 32.5859 66.9781 32.576 66.9971 32.5859C67.0166 32.5981 67.0374 32.611 67.0374 32.6245L67.1468 32.8658C67.1892 32.9402 67.1702 33.0082 67.1057 33.0622C67.0616 33.1103 66.9928 33.1505 66.8964 33.1933C66.8007 33.2418 66.6913 33.2816 66.562 33.3179C66.4309 33.3516 66.2929 33.378 66.135 33.4031C65.9866 33.4286 65.8287 33.4395 65.66 33.4395C65.3079 33.4395 65.021 33.378 64.8112 33.2707C64.6014 33.16 64.4444 33.0082 64.3479 32.8208C64.2489 32.634 64.197 32.4194 64.1909 32.1746C64.184 31.9288 64.2112 31.6753 64.261 31.4076C64.315 31.1095 64.4055 30.8409 64.5227 30.5804C64.6347 30.3256 64.7857 30.1024 64.9605 29.9168C65.1327 29.7178 65.3416 29.5708 65.5769 29.4587C65.8205 29.3488 66.0952 29.2935 66.4075 29.2935ZM51.8027 27.7675C51.9714 27.7675 52.1414 27.7856 52.3041 27.812C52.4745 27.8376 52.6324 27.87 52.7687 27.9159C52.9097 27.957 53.0278 27.9929 53.1217 28.0366C53.2242 28.0772 53.2848 28.1149 53.3125 28.1451C53.3345 28.162 53.3475 28.1849 53.3428 28.2126C53.3393 28.2368 53.3246 28.2827 53.2848 28.3441L53.0919 28.6612C53.0776 28.6902 53.0473 28.7071 53.0062 28.6989C52.9699 28.6928 52.9279 28.6854 52.8929 28.6733C52.8483 28.6612 52.783 28.6444 52.6913 28.6193C52.6043 28.5998 52.5031 28.5816 52.3902 28.5648C52.279 28.5466 52.1618 28.5275 52.0441 28.512C51.9221 28.4973 51.8075 28.4903 51.7015 28.4903C51.4977 28.4903 51.3191 28.5167 51.1828 28.5673C51.0392 28.6193 50.9211 28.6854 50.8281 28.7637C50.7364 28.8446 50.6615 28.9238 50.6148 29.016C50.569 29.1042 50.5352 29.1946 50.5192 29.2777C50.4842 29.4152 50.5002 29.5407 50.569 29.6571C50.6304 29.7769 50.7896 29.8915 51.0271 29.988L51.7145 30.2666C51.9156 30.3475 52.0969 30.4461 52.2319 30.5668C52.3755 30.6849 52.4849 30.8177 52.571 30.9626C52.6489 31.1071 52.6965 31.2564 52.7177 31.4208C52.7423 31.5825 52.741 31.7461 52.7021 31.9174C52.6588 32.1518 52.5684 32.3578 52.4335 32.5399C52.2911 32.7255 52.1246 32.8851 51.9208 33.0209C51.7192 33.1503 51.4865 33.2502 51.2248 33.3177C50.9644 33.3964 50.6871 33.4289 50.3916 33.4289C50.2263 33.4289 50.0659 33.4133 49.8993 33.3878C49.7319 33.3622 49.5822 33.3298 49.4386 33.2974C49.2941 33.2584 49.1686 33.2117 49.0674 33.1732C48.9623 33.1312 48.8914 33.0849 48.849 33.056C48.8252 33.0261 48.8152 32.9993 48.8165 32.9738C48.8252 32.9513 48.8468 32.9089 48.8779 32.8548L49.0683 32.5364C49.0852 32.5061 49.1193 32.4927 49.1578 32.5001C49.2011 32.5022 49.2374 32.5061 49.2746 32.523C49.324 32.5364 49.3927 32.5593 49.4905 32.5762C49.5848 32.5978 49.6943 32.6195 49.8141 32.6316C49.9274 32.6545 50.0503 32.6688 50.1731 32.6787C50.3025 32.693 50.418 32.7017 50.5352 32.7017C50.8718 32.7017 51.1564 32.6376 51.3831 32.5144C51.618 32.3833 51.7508 32.2081 51.7919 31.9961C51.8252 31.8153 51.7893 31.6535 51.676 31.5185C51.5592 31.381 51.4108 31.2724 51.236 31.2023L50.5434 30.9107C50.3747 30.8406 50.2242 30.755 50.0888 30.6572C49.9538 30.5629 49.8418 30.4487 49.7583 30.3259C49.6718 30.1969 49.6173 30.0546 49.5848 29.8997C49.5511 29.741 49.5619 29.5636 49.6017 29.3655C49.6549 29.1159 49.7475 28.8966 49.8824 28.6989C50.0213 28.4973 50.1926 28.3312 50.3916 28.1932C50.5932 28.0573 50.8112 27.9509 51.0513 27.88C51.2949 27.806 51.5423 27.7675 51.8027 27.7675ZM85.5949 27.8917C85.6909 27.8917 85.7359 27.9362 85.7139 28.0366L85.023 31.3676H85.5088C85.6113 31.3676 85.655 31.4208 85.6273 31.5233L85.5512 31.8971C85.5417 32.0009 85.479 32.0494 85.3717 32.0494H84.8867L84.6453 33.2057C84.6155 33.3108 84.5623 33.3597 84.4623 33.3597H83.7979C83.6889 33.3597 83.6469 33.3082 83.6672 33.2057L83.9112 32.0494H81.6833C81.5834 32.0494 81.5415 31.9957 81.5531 31.8971L81.5709 31.8235C81.5895 31.7669 81.6038 31.7223 81.6193 31.6752C81.6375 31.6293 81.6678 31.5895 81.7149 31.5475L84.8097 28.0098C84.8924 27.928 84.9832 27.8917 85.081 27.8917H85.5949ZM72.3835 27.9233L71.2886 33.1936C71.2683 33.2974 71.2077 33.3519 71.1117 33.3519H70.4541C70.3456 33.3519 70.3023 33.2974 70.3248 33.1936L71.1935 29.0004L70.1405 29.433C70.0354 29.472 69.9969 29.4378 70.0198 29.3413L70.1115 28.9156C70.128 28.8083 70.1933 28.7335 70.295 28.6924L72.2594 27.8376C72.3632 27.7943 72.4017 27.8194 72.3835 27.9233ZM54.9338 29.3838C55.0363 29.3838 55.0792 29.4357 55.0575 29.5378L54.5125 32.1745C54.4727 32.3639 54.467 32.498 54.4956 32.5759C54.5246 32.6642 54.5609 32.6988 54.6163 32.6988H54.6332C54.7322 32.6988 54.7729 32.7485 54.7552 32.8502L54.6877 33.1815C54.666 33.2897 54.6055 33.3407 54.5055 33.3407H54.4571C53.7143 33.3407 53.4176 32.9644 53.5755 32.2264L54.1305 29.5378C54.1508 29.4331 54.2161 29.3838 54.3156 29.3838H54.9338ZM58.5254 29.2955C58.7265 29.2955 58.9182 29.3271 59.0847 29.3933C59.2608 29.4586 59.404 29.5551 59.513 29.684C59.6237 29.8081 59.7012 29.9665 59.747 30.152C59.789 30.3363 59.7903 30.5474 59.744 30.7888L59.4524 32.1805C59.4126 32.3661 59.4113 32.5028 59.439 32.5811C59.4693 32.6663 59.513 32.7018 59.561 32.7018H59.5705C59.6817 32.7018 59.7154 32.7545 59.6951 32.8549L59.6237 33.1897C59.6068 33.2948 59.5441 33.3407 59.4524 33.3407H59.404C58.6577 33.3407 58.3636 32.9739 58.5154 32.2289L58.7616 31.0445C58.7892 30.9 58.8035 30.7551 58.81 30.6262C58.813 30.4873 58.8035 30.3679 58.7698 30.2714C58.7373 30.1676 58.6807 30.0867 58.5972 30.0253C58.5202 29.9664 58.4176 29.9349 58.2874 29.9349C57.7497 29.9349 57.3963 30.3281 57.2297 31.1254L56.8002 33.1897C56.7811 33.2901 56.7219 33.3407 56.6232 33.3407H56.0042C55.8973 33.3407 55.8536 33.2901 55.8757 33.1815L56.4398 30.4678C56.4723 30.3147 56.4723 30.1966 56.4433 30.1256C56.4082 30.059 56.3689 30.0253 56.3131 30.0253H56.3022C56.2019 30.0253 56.1552 29.9734 56.1785 29.8721L56.2495 29.5382C56.2685 29.4357 56.3286 29.3837 56.4398 29.3837H56.4831C56.6388 29.3837 56.7738 29.4006 56.8776 29.4309C56.9862 29.4586 57.0731 29.4958 57.1307 29.5464C57.196 29.607 57.2371 29.6658 57.2622 29.7432C57.2877 29.8263 57.2972 29.9167 57.2972 30.0123H57.3128C57.4927 29.7649 57.6736 29.5914 57.8509 29.472C58.0365 29.3535 58.2563 29.2955 58.5254 29.2955ZM74.9234 30.7392C74.7924 30.7392 74.663 30.7656 74.5436 30.808C74.4186 30.856 74.3027 30.9261 74.201 31.017C74.0963 31.1022 74.0094 31.206 73.9324 31.3349C73.8549 31.4569 73.8008 31.5945 73.7693 31.7545C73.7083 32.06 73.7537 32.2987 73.8986 32.4714C74.0513 32.6461 74.2516 32.7305 74.5138 32.7305C74.644 32.7305 74.7629 32.7089 74.8875 32.6691C75.0104 32.6245 75.125 32.5618 75.231 32.4796C75.3279 32.3892 75.4244 32.2832 75.4953 32.1742C75.5697 32.0491 75.6229 31.9176 75.6532 31.7667C75.6848 31.6066 75.687 31.4643 75.6593 31.3349C75.6372 31.206 75.5965 31.1 75.5278 31.0139C75.4568 30.9261 75.3725 30.8578 75.2699 30.808C75.1622 30.7656 75.0502 30.7392 74.9234 30.7392ZM84.4623 29.3837H84.4442L82.7808 31.3676H84.051L84.4623 29.3837ZM66.3258 29.9324C66.1847 29.9324 66.0632 29.9601 65.9485 30.0254C65.8326 30.0821 65.7396 30.163 65.6505 30.269C65.5683 30.368 65.4947 30.4822 65.4346 30.6224C65.3715 30.7552 65.32 30.8997 65.281 31.0481L66.4694 31.0528C66.5909 31.0528 66.6692 31.042 66.7164 31.007C66.767 30.9806 66.8025 30.9105 66.8211 30.7937C66.8444 30.6804 66.8527 30.5718 66.8444 30.468C66.8362 30.368 66.8025 30.2737 66.7597 30.1967C66.7164 30.1158 66.6602 30.0544 66.5909 30.0051C66.5105 29.9579 66.4257 29.9324 66.3258 29.9324ZM79.8625 28.5118C79.6704 28.5118 79.5065 28.5468 79.3702 28.6169C79.2378 28.6857 79.1232 28.7687 79.0315 28.8894C78.935 29.0041 78.8623 29.1317 78.807 29.28C78.7455 29.4306 78.6984 29.5755 78.6759 29.7299C78.6391 29.8757 78.6162 30.0254 78.6162 30.1604C78.6106 30.2919 78.6348 30.4113 78.6759 30.503C78.72 30.6081 78.7966 30.6873 78.8926 30.7418C78.993 30.8058 79.1314 30.8322 79.3122 30.8322C79.4823 30.8322 79.6319 30.7959 79.7479 30.7228C79.8686 30.6488 79.9746 30.5476 80.0624 30.4247C80.1472 30.3027 80.2168 30.1604 80.2739 29.9943C80.3306 29.8411 80.3712 29.6633 80.4123 29.4777C80.4374 29.3125 80.4422 29.1702 80.4232 29.0521C80.4028 28.9266 80.3617 28.8302 80.3059 28.7493C80.248 28.6671 80.187 28.6069 80.1035 28.5723C80.0243 28.5312 79.9443 28.5118 79.8625 28.5118ZM74.8261 28.7026C74.6591 28.8388 74.5644 29.0002 74.528 29.1918C74.5051 29.2978 74.5038 29.3982 74.5185 29.496C74.5376 29.5911 74.5687 29.666 74.6198 29.7408C74.6678 29.8152 74.7357 29.8723 74.8101 29.9121C74.8862 29.9532 74.9758 29.9757 75.0805 29.9757C75.1691 29.9757 75.2647 29.9575 75.3599 29.919C75.4538 29.8723 75.5399 29.8213 75.6208 29.7516C75.703 29.6863 75.7679 29.6071 75.8245 29.5107C75.8847 29.4129 75.9197 29.3039 75.9461 29.1944C75.9906 28.9833 75.9513 28.8159 75.8388 28.6905C75.7281 28.565 75.5697 28.5044 75.3725 28.5044C75.1691 28.4975 74.9853 28.5698 74.8261 28.7026ZM55.2821 27.7109C55.3846 27.7109 55.4257 27.7654 55.4002 27.8675L55.2725 28.4745C55.2462 28.5718 55.1882 28.619 55.0887 28.619H54.4753C54.3645 28.619 54.3247 28.5718 54.3416 28.4745L54.4753 27.8615C54.4956 27.7603 54.5583 27.7109 54.666 27.7109H55.2821Z" fill="#BBBBBB"/>
<path fill-rule="evenodd" clip-rule="evenodd" d="M14.6244 15.1059C14.9151 15.1059 15.0259 15.2483 14.9644 15.5338L13.2942 23.2007C13.1856 23.7267 13.1713 24.1005 13.2578 24.3259C13.3318 24.5573 13.446 24.6672 13.5905 24.6672H13.6329C13.9189 24.6672 14.0335 24.8121 13.9708 25.0929L13.7839 26.0229C13.7225 26.3089 13.5559 26.4521 13.2821 26.4521H13.1545C11.0728 26.446 10.25 25.4126 10.6817 23.3486L12.3827 15.5312C12.4368 15.2483 12.6124 15.1059 12.9035 15.1059H14.6244ZM58.6342 14.7706C59.3731 14.7706 60.0012 14.8969 60.5121 15.1599C61.0269 15.4121 61.4284 15.8222 61.7277 16.3759H61.7723L62.1257 15.4796C62.182 15.323 62.2421 15.2144 62.3122 15.1517C62.3848 15.0838 62.4982 15.0526 62.6574 15.0526H64.1784C64.4661 15.0526 64.5833 15.201 64.5193 15.4843L62.9758 23.1149C62.8711 23.5735 62.865 23.8953 62.9576 24.0921C63.0458 24.2799 63.1601 24.3777 63.3076 24.3777H63.3504C63.6402 24.3777 63.7549 24.526 63.6896 24.8046L63.4979 25.7455C63.4438 26.031 63.2686 26.176 62.9987 26.176H62.865C61.9648 26.1734 61.354 26.0176 61.0183 25.7031C60.6865 25.3943 60.5277 24.9673 60.5446 24.42H60.5C59.9052 25.1317 59.2563 25.6486 58.5494 25.9687C57.8426 26.2854 57.0721 26.452 56.2459 26.452C55.626 26.4459 55.0567 26.3507 54.5432 26.1578C54.021 25.9661 53.6014 25.6356 53.2791 25.1805C52.9499 24.7263 52.7401 24.1233 52.6411 23.3753C52.5472 22.6243 52.6108 21.6921 52.8435 20.5665C53.0719 19.4655 53.3899 18.5454 53.7883 17.8022C54.1876 17.062 54.647 16.4611 55.1592 16.0199C55.6744 15.57 56.2268 15.2481 56.8152 15.0526C57.4087 14.8657 58.0152 14.7706 58.6342 14.7706ZM29.2225 14.7489C30.1474 14.7489 30.9326 14.8631 31.5668 15.0898C32.201 15.3204 32.6176 15.5518 32.8018 15.7967C32.8274 15.8404 32.8451 15.9031 32.8685 15.9935C32.8836 16.0766 32.8209 16.196 32.6799 16.3526L32.0747 17.0378C32.0093 17.1369 31.9224 17.1788 31.8177 17.1572C31.7126 17.1343 31.6053 17.1118 31.5062 17.0798C31.1385 16.934 30.76 16.812 30.3789 16.706C29.9978 16.5987 29.5729 16.5446 29.1075 16.5446C28.4603 16.5446 27.962 16.6723 27.6328 16.927C27.2914 17.1862 27.0743 17.5214 26.9813 17.9376C26.9354 18.176 26.9622 18.3923 27.0539 18.5744C27.1573 18.7613 27.3446 18.8962 27.628 18.984L30.0125 19.7117C30.895 19.9842 31.4582 20.3822 31.7126 20.9117C31.9587 21.4373 31.9985 22.1178 31.8285 22.9436C31.7056 23.5285 31.4738 24.035 31.1385 24.4585C30.7976 24.8881 30.3932 25.2506 29.9169 25.5426C29.438 25.8333 28.9171 26.054 28.3452 26.1941C27.7716 26.3351 27.1876 26.4048 26.5967 26.4048C26.136 26.4048 25.6947 26.3762 25.2868 26.317C24.8767 26.2616 24.5077 26.1842 24.1711 26.0903C23.8337 25.9973 23.5625 25.8904 23.3466 25.7611C23.1307 25.633 22.9823 25.4981 22.9049 25.3545C22.8037 25.1676 22.8266 24.9829 22.9836 24.796L23.5936 24.1159C23.6671 24.0459 23.7602 24.0061 23.8735 24.0169C23.9808 24.0242 24.0716 24.0459 24.1594 24.0688C24.5548 24.215 24.9662 24.3366 25.3967 24.4451C25.8236 24.5576 26.3038 24.6069 26.8428 24.6095C27.2888 24.6095 27.6652 24.5658 27.962 24.4828C28.2635 24.3971 28.5109 24.2872 28.6939 24.1497C28.876 24.0121 29.0088 23.8642 29.1014 23.6842C29.1897 23.5211 29.2572 23.3468 29.2948 23.175C29.361 22.851 29.2861 22.5967 29.075 22.4193C28.8592 22.2372 28.4638 22.0503 27.8811 21.8474L26.1143 21.2915C25.3642 21.0445 24.865 20.65 24.6189 20.0915C24.3688 19.533 24.3243 18.901 24.4644 18.1872C24.573 17.701 24.7491 17.2537 25.0095 16.8306C25.2665 16.4097 25.5983 16.0424 25.9997 15.7314C26.4037 15.4147 26.8753 15.1733 27.4143 15.0046C27.9568 14.8341 28.555 14.7489 29.2225 14.7489ZM23.5683 14.8498C23.7107 14.8498 23.8076 14.8632 23.8565 14.89C23.9049 14.9237 23.9144 15.0142 23.8733 15.1733L23.5298 16.7761C23.4935 16.9184 23.4455 17.0149 23.3828 17.0642C23.3187 17.114 23.2465 17.1451 23.1595 17.1503C23.073 17.1572 22.9796 17.1503 22.8796 17.1295C22.7806 17.1079 22.6819 17.0958 22.5829 17.0958C21.2081 17.0958 20.3697 17.7841 20.0816 19.1688L18.6333 25.7841C18.5706 26.0774 18.4031 26.2158 18.128 26.2158L16.3937 26.2123C16.0888 26.2123 15.9689 26.0722 16.0282 25.7841L17.695 18.0774C17.7975 17.6201 17.7997 17.2935 17.7179 17.1027C17.6275 16.9115 17.5081 16.8146 17.3632 16.8146H17.3186C17.0318 16.812 16.9146 16.6723 16.9786 16.3863L17.1668 15.4398C17.2308 15.1599 17.403 15.0142 17.695 15.0142H17.8226C18.7202 15.0167 19.3462 15.124 19.6957 15.3421C20.0384 15.5519 20.2157 15.8607 20.2205 16.2613H20.265C20.7305 15.7595 21.2081 15.4013 21.7026 15.1781C22.1923 14.9622 22.8135 14.8498 23.5683 14.8498ZM83.2392 10.794L81.3557 19.9408L85.9182 15.412C86.1523 15.1784 86.414 15.0659 86.703 15.0659L88.5039 15.0719C88.837 15.0719 88.8647 15.1853 88.5887 15.412L83.2362 20.4366L86.69 25.8488C86.8384 26.0772 86.7588 26.1914 86.4538 26.1914H84.3263C84.0235 26.1914 83.8102 26.0772 83.6921 25.8488L81.0507 21.3303L80.1401 25.761C80.0782 26.0469 79.9086 26.1845 79.6335 26.1845H77.9226C77.6146 26.1845 77.4939 26.0434 77.5592 25.761L80.3499 12.257L83.2392 10.794ZM72.9475 14.8006C73.5259 14.8006 74.0541 14.8923 74.5356 15.0818C75.0144 15.2635 75.4194 15.5364 75.7308 15.8946C76.0471 16.248 76.2638 16.6902 76.3879 17.2101C76.5065 17.7323 76.5004 18.3293 76.3737 18.995L75.5574 22.91C75.4548 23.4404 75.4427 23.8193 75.5184 24.046C75.5993 24.274 75.7092 24.3865 75.8589 24.3865H75.9008C76.1842 24.3865 76.3049 24.5323 76.2413 24.8204L76.054 25.7608C75.9912 26.0433 75.8238 26.1822 75.5452 26.1822H75.4194C73.3174 26.1822 72.4894 25.1401 72.922 23.0584L73.6141 19.7196C73.6985 19.3061 73.743 18.9146 73.753 18.5343C73.766 18.1584 73.7227 17.8227 73.631 17.5419C73.5419 17.2534 73.3887 17.028 73.1616 16.8567C72.9475 16.6845 72.6494 16.5989 72.2696 16.5989C70.7473 16.5967 69.7645 17.7107 69.318 19.9325L68.105 25.75C68.0436 26.0338 67.8744 26.1783 67.5972 26.1783L65.8642 26.1761C65.5588 26.1761 65.4385 26.0312 65.4973 25.7479L67.0664 18.1112C67.1715 17.6587 67.1762 17.3321 67.0832 17.1366C66.9941 16.945 66.8808 16.8485 66.7337 16.8485H66.6904C66.4032 16.8485 66.2898 16.7083 66.3452 16.4202L66.5395 15.4793C66.6022 15.196 66.7709 15.0528 67.0664 15.0528H67.1948C67.6465 15.0528 68.0181 15.0973 68.3187 15.1696C68.6151 15.2526 68.8538 15.3651 69.036 15.5157C69.212 15.664 69.3353 15.8535 69.4002 16.0741C69.4642 16.2878 69.4967 16.537 69.4906 16.81H69.5404C70.0422 16.1235 70.5522 15.6216 71.0549 15.295C71.5628 14.9619 72.1948 14.8006 72.9475 14.8006ZM43.6827 10.7553L46.8956 10.764C48.5901 10.764 49.8611 11.1114 50.6981 11.8109C51.5378 12.5091 51.8199 13.5149 51.5499 14.8295C51.3868 15.5991 51.0732 16.248 50.6125 16.7762C50.1544 17.3005 49.5587 17.7219 48.828 18.0338L48.8202 18.0775C49.8433 18.2366 50.5558 18.6537 50.9577 19.3294C51.3665 20.0107 51.4656 20.8236 51.2614 21.7848C51.1351 22.406 50.8937 22.9857 50.5294 23.513C50.1747 24.0399 49.7334 24.5032 49.2052 24.8999C48.6827 25.3001 48.0943 25.615 47.442 25.8309C46.7931 26.0563 46.1092 26.1601 45.4075 26.1601L40.5178 26.1579C40.2094 26.1579 40.0913 26.0134 40.1575 25.7296L43.1584 11.1849C43.2198 10.9015 43.3946 10.7553 43.6827 10.7553ZM39.3648 11.6311L38.6813 15.0321H40.0911C40.3805 15.0347 40.4999 15.1758 40.4325 15.4617L40.2503 16.2949C40.1924 16.583 40.0115 16.7266 39.723 16.7266H38.3145L37.0543 22.8846C36.9466 23.4141 36.9821 23.7879 37.1555 24.0172C37.3307 24.2464 37.538 24.3598 37.7876 24.3598L38.1483 24.3632C38.4399 24.3632 38.5571 24.503 38.4931 24.7868L38.3002 25.7272C38.2422 26.0132 38.0722 26.1577 37.7984 26.1577H36.7792C35.7963 26.1577 35.1042 25.883 34.7049 25.3292C34.3047 24.7807 34.2238 23.9471 34.4531 22.8171L35.7059 16.7219H34.5768C34.2879 16.7219 34.1732 16.5804 34.2372 16.2875L34.4181 15.4552C34.4743 15.1732 34.6556 15.0321 34.9463 15.0321H36.0736L36.4465 13.1097L39.3648 11.6311ZM3.54961 10.7266L11.2126 10.7352C11.5042 10.7352 11.6154 10.8723 11.5596 11.1631L11.3355 12.2294C11.2749 12.5153 11.098 12.6577 10.8112 12.6577H5.44525L4.4719 17.3842H8.75331C9.04055 17.3842 9.15259 17.5326 9.09463 17.8142L8.874 18.8832C8.81387 19.1687 8.63391 19.311 8.34926 19.311L4.06916 19.3062L2.75104 25.703C2.6918 25.9763 2.53482 26.124 2.27815 26.1288L0.381276 26.1287C0.0784585 26.1287 -0.0469944 25.9864 0.015732 25.6983L3.02357 11.1587C3.08284 10.8702 3.26107 10.7266 3.54961 10.7266ZM58.7424 16.5628C58.353 16.5628 57.9901 16.6229 57.6535 16.7363C57.3191 16.8483 57.022 17.0555 56.7598 17.3575C56.4933 17.659 56.2493 18.0617 56.03 18.5739C55.8068 19.0879 55.6177 19.751 55.4503 20.5665C55.2812 21.3927 55.1908 22.068 55.1882 22.5962C55.1847 23.1236 55.2596 23.5419 55.404 23.8486C55.5481 24.1544 55.7648 24.3634 56.0469 24.4828C56.332 24.5935 56.6633 24.648 57.0579 24.648C58.0264 24.6541 58.8328 24.337 59.4869 23.7024C60.128 23.0716 60.6034 22.0248 60.8989 20.5665C61.1909 19.1424 61.1429 18.1193 60.7674 17.4985C60.3854 16.8773 59.7062 16.5628 58.7424 16.5628ZM46.1009 19.21H44.2351L43.1727 24.3631H45.038C45.632 24.3631 46.1347 24.29 46.5521 24.139C46.967 23.9941 47.3092 23.8011 47.5795 23.5649C47.8447 23.3287 48.0511 23.0584 48.2051 22.7495C48.3513 22.4423 48.4599 22.1287 48.5239 21.8025C48.5888 21.4893 48.6022 21.1744 48.5706 20.8681C48.5416 20.5666 48.4357 20.2833 48.2548 20.0337C48.0775 19.7875 47.8144 19.5898 47.4684 19.4367C47.1236 19.2857 46.6676 19.21 46.1009 19.21ZM46.5024 12.5515H45.6125L44.6111 17.4095L45.9136 17.413C46.2333 17.413 46.5448 17.3576 46.8571 17.2443C47.1694 17.1292 47.4528 16.9605 47.7158 16.7364C47.9736 16.5214 48.1969 16.2515 48.3933 15.9365C48.5888 15.622 48.7298 15.2712 48.8107 14.8719C48.9552 14.1698 48.8505 13.6113 48.4923 13.1904C48.1367 12.7695 47.4684 12.5584 46.5024 12.5515ZM15.5108 10.8678C15.7955 10.8678 15.9123 11.0075 15.8487 11.2909L15.4844 12.9901C15.4204 13.2713 15.2564 13.4136 14.9839 13.4136L13.2613 13.411C12.9637 13.411 12.8395 13.2713 12.8988 12.988L13.2678 11.2861C13.3292 11.0075 13.5014 10.8678 13.7899 10.8678H15.5108Z" fill="#BBBBBB"/>
</svg>
