<svg preserveAspectRatio="none" width="100%" height="100%" overflow="visible" style="display: block;" viewBox="0 0 153 48.0011" fill="none" xmlns="http://www.w3.org/2000/svg">
<g id="Frame 2147237745" opacity="0.7">
<path id="Vector" d="M54.9134 25.6699L55.0961 25.6797C58.1939 25.852 59.4213 26.6639 61.4422 28.9243L61.4433 26.0916L63.541 26.08L63.5386 42.1774L61.4351 42.1671L61.4253 39.5021C60.7468 40.2369 60.3978 40.5348 59.6132 41.1581C58.3843 41.9417 57.2292 42.4106 55.7666 42.551C53.662 42.7729 51.5576 42.1309 49.9344 40.7717C48.1561 39.3108 47.0395 37.1954 46.8365 34.9019C46.616 32.651 47.2999 30.405 48.737 28.6598C50.4458 26.6114 52.3527 25.9076 54.9134 25.6699ZM56.356 40.5091C58.6371 40.1186 60.5319 38.5297 61.3155 36.3503C62.0993 34.171 61.6507 31.7381 60.1413 29.9823C58.632 28.2265 56.2953 27.4192 54.0251 27.8693C50.5783 28.5527 48.3202 31.882 48.958 35.3404C49.5958 38.7988 52.8924 41.102 56.356 40.5091Z" fill="var(--fill-0, white)"/>
<path id="Vector_2" d="M123.67 26.1222C126.088 25.4792 127.569 25.5334 129.883 26.4611C131.294 27.2629 131.678 27.7143 132.758 28.9372L132.763 26.0959L134.846 26.0902L134.86 42.1785L132.761 42.163L132.763 39.476C131.701 40.6008 130.915 41.3365 129.462 41.9617C127.521 42.7889 125.332 42.8132 123.373 42.0293C121.317 41.175 119.674 39.5492 118.799 37.4993C116.827 32.8335 119.068 28.0364 123.67 26.1222ZM127.705 40.5011C129.98 40.0989 131.864 38.5046 132.638 36.3264C133.41 34.148 132.956 31.7217 131.444 29.973C129.935 28.2243 127.601 27.4226 125.335 27.8741C121.885 28.5616 119.63 31.9005 120.28 35.3609C120.929 38.8213 124.242 41.1137 127.705 40.5011Z" fill="var(--fill-0, white)"/>
<path id="Vector_3" d="M24.7056 25.7093C29.344 25.4838 33.2917 29.0537 33.5364 33.6949C33.7809 38.3362 30.2302 42.3019 25.594 42.566C20.9304 42.8315 16.9396 39.2524 16.6936 34.5841C16.4475 29.9156 20.0401 25.9363 24.7056 25.7093ZM26.3281 40.4077C29.7353 39.7431 31.9751 36.4598 31.3527 33.0418C30.7303 29.6237 27.4771 27.3423 24.0547 27.9234C21.8033 28.3056 19.9312 29.8701 19.1537 32.0191C18.3763 34.168 18.8136 36.5694 20.2985 38.3057C21.7834 40.042 24.0867 40.8449 26.3281 40.4077Z" fill="var(--fill-0, white)"/>
<path id="Vector_4" d="M101.339 20.4475C104.651 20.4358 110.39 19.8307 113.087 22.0011C114.146 22.8539 114.899 24.6803 114.889 26.0657C114.852 32.1508 109.506 32.0095 105.053 32.1002C104.477 32.0885 104.122 32.0439 103.587 32.2471C103.452 33.1013 103.516 34.9468 103.519 35.8685V42.1859L101.301 42.1722C101.38 34.9515 101.215 27.6668 101.339 20.4475ZM103.516 29.9548C106.072 29.9921 109.462 30.3977 111.506 28.9091C113.373 26.6873 112.838 23.5149 109.809 22.7874C108.113 22.38 105.353 22.5769 103.522 22.5982L103.516 29.9548Z" fill="var(--fill-0, white)"/>
<path id="Vector_5" d="M130.699 0.161012C134.153 -0.626458 137.586 1.55147 138.351 5.01386C139.114 8.4761 136.915 11.8988 133.45 12.6399C130.018 13.3741 126.638 11.1984 125.882 7.76879C125.125 4.33901 127.276 0.941084 130.699 0.161012ZM127.882 7.39167C127.825 2.05103 131.044 2.93512 131.556 1.89946C131.355 1.68855 131.397 1.66666 131.159 1.60189C128.938 2.28942 126.374 4.9734 127.534 7.27949L127.882 7.39167Z" fill="var(--fill-0, white)"/>
<path id="Vector_6" d="M0.0113153 20.4492L2.22032 20.453L2.21926 28.5988C4.82031 25.9934 8.15719 22.9454 10.8738 20.4507L13.8661 20.4599C10.6959 23.1173 6.51719 27.275 3.39889 30.1869L10.645 37.8885C11.8632 39.2762 13.3545 40.79 14.6324 42.1508C13.6583 42.1629 12.684 42.1581 11.7099 42.1364C8.56856 38.7665 5.4059 35.4161 2.22258 32.0858L2.23676 42.1635L0 42.1584L0.0113153 20.4492Z" fill="var(--fill-0, white)"/>
<path id="Vector_7" d="M117.943 4.24942C120.99 3.73853 123.87 5.80624 124.365 8.85844C124.858 11.9106 122.776 14.782 119.723 15.259C116.694 15.7322 113.854 13.6684 113.364 10.6401C112.873 7.61171 114.92 4.75638 117.943 4.24942ZM115.062 10.615C115.074 6.09897 117.762 6.78967 118.262 5.76215C117.964 5.63836 117.955 5.63413 117.645 5.68833C115.617 6.413 114.145 8.24263 114.677 10.4661L114.854 10.6472L115.062 10.615Z" fill="var(--fill-0, white)"/>
<path id="Vector_8" d="M117.645 5.68743C117.956 5.63323 117.965 5.63745 118.262 5.76125C117.763 6.78877 115.075 6.09807 115.063 10.6141L114.855 10.6463L114.678 10.4652C114.146 8.24172 115.618 6.41209 117.645 5.68743Z" fill="var(--fill-0, white)" fill-opacity="0.01"/>
<path id="Vector_9" d="M76.0195 25.6699C81.8196 25.8894 82.254 30.4486 82.1635 35.0062C82.1168 37.3532 82.1635 39.819 82.1771 42.1694L80.1045 42.1608C80.1256 37.5042 81.8166 23.1217 72.7134 28.6329C72.4532 28.8646 72.2001 29.1042 71.9545 29.3514C69.5687 31.7853 70.2296 38.6787 70.2531 42.1718L68.1885 42.1666L68.1948 26.0862L70.2462 26.0815L70.2385 28.9819C70.3752 28.7908 70.5171 28.6033 70.6639 28.4199C72.1048 26.6275 73.7855 25.9053 76.0195 25.6699Z" fill="var(--fill-0, white)"/>
<path id="Vector_10" d="M137.754 26.0801L139.967 26.0949C141.834 30.158 143.646 34.3604 145.459 38.4553L150.784 26.0854L153 26.0887C151.92 28.8859 150.33 32.2893 149.113 35.0878C147.197 39.3412 145.337 43.7196 143.465 48.0011L141.249 47.9944C142.266 45.6279 143.305 43.2716 144.369 40.9256C143.54 39.3236 142.631 37.1157 141.884 35.4364L137.754 26.0801Z" fill="var(--fill-0, white)"/>
<path id="Vector_11" d="M123.67 26.1181C121.537 23.8808 121.043 20.789 123.498 18.5293C124.526 17.5727 125.897 17.0714 127.298 17.1388C130.3 17.2747 132.348 19.6158 132.133 22.5879C132.015 24.0322 131.305 25.3629 130.169 26.2624C130.053 26.356 130.01 26.3801 129.884 26.457C127.57 25.5293 126.088 25.4751 123.67 26.1181ZM123.519 23.0812C123.604 21.9524 123.628 20.8754 124.357 19.951C124.904 19.2564 125.794 19.1268 126.521 18.6345C126.491 18.5652 126.441 18.4244 126.396 18.38C124.441 19.0597 122.743 20.6227 123.314 22.8749L123.519 23.0812Z" fill="var(--fill-0, white)"/>
<path id="Vector_12" d="M126.396 18.3809C126.442 18.4252 126.491 18.5661 126.522 18.6354C125.794 19.1277 124.904 19.2573 124.357 19.9519C123.628 20.8763 123.604 21.9533 123.52 23.0821L123.315 22.8757C122.743 20.6235 124.441 19.0605 126.396 18.3809Z" fill="var(--fill-0, white)" fill-opacity="0.0392157"/>
<path id="Vector_13" d="M39.0793 20.1702L41.1723 20.168L41.1678 26.09L44.4148 26.0856L44.4173 27.8635L41.1669 27.8712L41.1698 42.0207C40.7219 42.2846 39.7053 42.1711 39.0841 42.1693L39.0934 27.8612L36.2292 27.8567L36.2197 26.0929L39.0858 26.0859L39.0793 20.1702Z" fill="var(--fill-0, white)"/>
<path id="Vector_14" d="M86.1958 26.0859L88.3258 26.0894C88.3198 30.9041 88.1161 37.5144 88.3771 42.167L86.1943 42.1771L86.1958 26.0859Z" fill="var(--fill-0, white)"/>
<path id="Vector_15" d="M86.9544 19.5086C87.8595 19.3321 88.7419 19.9027 88.9516 20.8006C89.1628 21.6986 88.6273 22.6027 87.7388 22.8482C87.1339 23.0158 86.4838 22.8381 86.0478 22.3853C85.6119 21.9326 85.458 21.2772 85.6466 20.6772C85.8351 20.0773 86.3374 19.6289 86.9544 19.5086Z" fill="var(--fill-0, white)"/>
</g>
</svg>
