<svg preserveAspectRatio="none" width="100%" height="100%" overflow="visible" style="display: block;" viewBox="0 0 133.5 47.9919" fill="none" xmlns="http://www.w3.org/2000/svg">
<g id="Frame 2147237751" opacity="0.7">
<path id="Vector" d="M82.1071 0.732326C82.7711 0.697161 83.5575 0.669309 84.2258 0.701171C89.4712 0.951367 95.1995 0.0268965 100.27 1.52604C105.091 2.95143 106.837 7.63071 105.432 12.1485C104.727 14.411 103.308 15.4462 101.292 16.4497C105.493 19.2822 104.952 23.2337 106.422 27.319C106.687 27.748 107.405 28.7581 107.342 29.2297C107.11 29.4097 102.062 29.4033 101.337 29.379C101.148 29.1222 100.888 28.7895 100.737 28.5202C100.178 27.7536 100.042 26.8858 99.7137 26.0525C98.3202 22.5242 97.389 18.2373 92.6428 18.3831C91.132 18.4295 89.4833 18.3411 87.9053 18.43C87.9251 21.9422 88.0087 25.8374 87.8923 29.3317C86.2177 29.4331 84.0568 29.2747 82.1252 29.373C81.9743 26.0565 82.0933 21.9364 82.095 18.5452L82.1071 0.732326ZM87.9829 13.5578C90.2637 13.5426 95.0814 13.7772 96.9664 13.2494C97.8417 13.0041 98.4884 12.6188 99.1463 12.002C100.453 9.93796 100.19 8.15265 98.472 6.50058L98.4306 6.48626C97.9667 6.32234 97.0535 5.77038 96.6094 5.71071C94.4476 5.42046 90.0524 5.22437 87.9492 5.40589L87.9285 10.5111C87.9268 11.4154 87.8897 12.6916 87.9829 13.5578Z" fill="var(--fill-0, #FEFEFE)"/>
<path id="Vector_2" d="M106.422 27.3176C106.687 27.7466 107.405 28.7569 107.342 29.2286C107.11 29.4086 102.062 29.4023 101.337 29.3779C101.148 29.1211 100.888 28.7884 100.737 28.519C100.926 28.6343 101.221 28.964 101.387 29.1356C103.354 29.1834 105.258 29.0266 107.229 29.1549C106.983 28.6185 106.542 27.8644 106.422 27.3176Z" fill="var(--fill-0, #8289B3)"/>
<path id="Vector_3" d="M87.7505 5.26428C89.6545 5.14089 97.5498 4.74329 98.4733 6.5028L98.432 6.48849C97.968 6.32456 97.0548 5.77261 96.6108 5.71294C94.4489 5.42269 90.0537 5.2266 87.9506 5.40811L87.9299 10.5134C87.9282 11.4176 87.8911 12.6938 87.9842 13.56C90.265 13.5448 95.0827 13.7794 96.9678 13.2516C97.843 13.0063 98.4897 12.621 99.1477 12.0043C98.2379 14.0446 92.9692 13.9623 91.1428 13.9035C90.0831 13.8694 88.7974 13.9343 87.7497 13.8049C87.7031 10.9582 87.7031 8.11099 87.7505 5.26428Z" fill="var(--fill-0, #A2A9C8)"/>
<path id="Vector_4" d="M109.498 0.0793122C110.342 -0.0255432 111.626 0.00450791 112.511 0.00530122L117.187 0.0120787L122.18 0.00361968C123.391 0.00195544 124.859 -0.0305273 126.041 0.135974C127.203 0.30908 128.327 0.677428 129.366 1.22544C131.359 2.29205 132.299 3.6554 132.934 5.74401C133.65 7.711 133.691 10.3588 133.032 12.3377C132.381 14.8494 130.987 16.9971 128.482 17.9852C126.823 19.3951 118.218 18.8775 115.618 18.9646L115.602 25.3159C115.602 26.4437 115.569 28.1838 115.686 29.2816C114.913 29.3137 109.936 29.4783 109.589 29.2603L109.465 29.0428C109.538 28.5359 109.511 26.6654 109.51 26.0714L109.492 20.2341L109.498 0.0793122ZM115.642 13.6974C117.709 14.015 120.315 13.67 122.438 13.7536C123.461 13.7939 124.99 13.4536 125.866 12.9176C126.968 11.8602 127.331 11.1178 127.392 9.58434C127.53 6.1054 124.979 5.13695 121.97 5.10453C119.926 5.08245 117.782 5.1517 115.746 5.08952C115.711 5.13393 115.669 5.1886 115.619 5.25353C115.612 7.55208 115.515 11.5111 115.642 13.6974Z" fill="var(--fill-0, #FEFEFE)"/>
<path id="Vector_5" d="M123.694 18.562C125.091 18.6029 126.35 18.5426 127.701 18.1525C127.975 18.0733 128.193 17.9708 128.482 17.9869C126.823 19.3968 118.218 18.8792 115.618 18.9663L115.602 25.3177C115.602 26.4454 115.569 28.1855 115.686 29.2833C114.913 29.3155 109.936 29.4801 109.589 29.262L109.465 29.0445C109.655 29.015 111.067 29.0603 111.322 29.065L115.406 29.1181C115.442 25.6985 115.447 22.2788 115.418 18.8591C118.14 18.8178 121.035 19.1398 123.694 18.562Z" fill="var(--fill-0, #A2A9C8)"/>
<path id="Vector_6" d="M115.418 18.8581C115.734 18.6614 116.03 18.5609 116.401 18.5546C118.805 18.514 121.295 18.4821 123.694 18.5609C121.035 19.1388 118.139 18.8167 115.418 18.8581Z" fill="var(--fill-0, #E7EAF4)"/>
<path id="Vector_7" d="M132.935 5.74121C133.65 7.7082 133.691 10.356 133.032 12.335C133.024 10.1111 133.167 7.99207 132.935 5.74121Z" fill="var(--fill-0, #E7EAF4)"/>
<path id="Vector_8" d="M62.734 0.791861C63.6536 0.698991 65.068 0.732526 66.0255 0.732586C67.3827 0.732681 68.8973 0.702199 70.241 0.777486C70.5948 1.59012 70.8915 2.5971 71.221 3.45946C72.6595 7.22393 73.9659 11.0798 75.3671 14.8553L78.2791 22.7926C78.6542 23.8052 79.5847 26.0696 79.7977 27.0506C80.1495 27.7992 80.5539 28.5891 80.6824 29.3997C78.6844 29.4075 76.6856 29.403 74.6868 29.3863C74.3962 28.7798 74.2651 28.4552 74.0504 27.8203C73.5416 26.5959 72.9777 24.6823 72.4568 23.6373C71.0886 23.498 68.1348 23.5422 66.6875 23.5612C64.8043 23.5859 62.0453 23.4762 60.2116 23.61C60.0019 24.2148 58.7638 27.632 58.5054 28.0455L58.1317 29.3597C57.377 29.4262 52.9094 29.456 52.1684 29.3439L52.0986 29.1643C52.1459 28.5694 52.4625 27.9267 52.7081 27.3798C52.7315 26.9201 55.9488 18.728 56.2319 17.9821L60.8414 5.792C61.4609 4.1642 62.0757 2.38674 62.734 0.791861ZM62.162 18.5583C63.6087 18.5403 65.0554 18.5312 66.5022 18.531C67.8494 18.527 69.1965 18.5381 70.5434 18.5642C70.2856 17.6453 66.562 7.91645 66.3121 7.74235C65.9227 8.59602 65.5461 9.74305 65.2203 10.655C64.2819 13.282 63.0801 15.9382 62.162 18.5583Z" fill="var(--fill-0, #FEFEFE)"/>
<path id="Vector_9" d="M58.1317 29.3623C57.377 29.4288 52.9094 29.4586 52.1684 29.3465L52.0986 29.1668C52.1459 28.5718 52.4625 27.929 52.7081 27.3821C52.6454 28.0056 52.5092 28.4586 52.4139 29.043C54.2182 29.1 56.1382 29.0651 57.9517 29.0594C58.074 28.8091 58.3356 28.2251 58.5054 28.0479L58.1317 29.3623Z" fill="var(--fill-0, #A2A9C8)"/>
<path id="Vector_10" d="M79.7981 27.0481C80.1499 27.7969 80.5543 28.5869 80.6828 29.3976C78.6848 29.4055 76.686 29.401 74.6872 29.3843C74.3966 28.7777 74.2655 28.453 74.0508 27.818C74.3586 28.1212 74.3836 28.6132 74.6803 28.9114C75.0114 29.2446 79.5161 29.0545 80.3543 29.0496C80.1654 28.4185 79.9248 27.6863 79.7981 27.0481Z" fill="var(--fill-0, #A2A9C8)"/>
<path id="Vector_11" d="M15.2389 46.2664C13.9205 45.4695 13.4899 42.7821 14.2985 41.5787C14.975 40.572 16.3248 39.3515 17.2123 38.4771L21.2583 34.4571L34.3609 21.3539C36.4414 19.2838 38.4905 17.1868 40.5953 15.1408C42.7249 13.0707 46.0488 14.301 46.6754 17.1332C47.2582 19.7672 44.6511 21.3657 43.0943 23.0475C42.5179 23.6703 41.8417 24.2902 41.2417 24.8995L24.8737 41.257C24.3189 41.8143 19.9143 46.3244 19.5614 46.4403C18.3416 47.3921 16.3489 47.3639 15.2389 46.2664Z" fill="var(--fill-0, #FEFEFE)"/>
<path id="Vector_12" d="M15.2373 46.2636C17.159 46.9178 17.4428 47.1485 19.5598 46.4376C18.3401 47.3896 16.3474 47.3613 15.2373 46.2636Z" fill="var(--fill-0, #8289B3)"/>
<path id="Vector_13" d="M32.7654 4.80194C32.5031 6.34116 31.4007 7.06791 30.3317 8.11922L27.0513 11.3615L16.3947 22.0263L9.52412 28.9261C8.39406 30.0614 7.30513 31.2452 6.09264 32.3032C3.37955 34.6708 -0.355628 32.3358 0.0272372 28.9292C0.118211 28.1195 0.562989 27.5245 1.11651 26.9341C2.64961 25.2994 4.26954 23.7237 5.85697 22.1383L14.9278 13.0713L22.607 5.39626C24.1325 3.86283 25.7505 2.13935 27.3953 0.756409C27.8874 0.342643 29.1094 0.208461 29.7485 0.305504C30.9 0.480387 31.6802 1.14928 32.3633 2.03882C32.8171 3.13235 32.85 3.612 32.7654 4.80194Z" fill="var(--fill-0, #FEFEFE)"/>
<path id="Vector_14" d="M29.3523 13.2224C30.2853 13.1693 30.9069 13.077 31.8238 13.5041C33.5408 14.2973 34.5729 17.1416 33.4146 18.7511C32.3666 20.2074 30.1575 22.1357 28.8207 23.4666C25.417 26.9141 21.9888 30.3372 18.5365 33.7359L14.0854 38.2463C12.8904 39.4458 11.957 40.7387 10.2905 41.1973C8.24825 41.3835 6.75783 40.8525 5.97908 38.8185C5.73755 38.2466 5.64813 36.6519 6.03694 36.1268C7.59859 34.0181 10.1526 31.6982 11.9866 29.8668L21.2417 20.6246C23.3617 18.5141 25.474 16.3399 27.6221 14.2567C28.163 13.7322 28.641 13.4515 29.3523 13.2224Z" fill="var(--fill-0, #FEFEFE)"/>
<path id="Vector_15" d="M52.5629 32.1872C54.9445 32.2268 57.3493 32.1059 59.7223 32.2651C61.2085 32.3647 62.9943 33.3131 64.0398 34.3501C67.3424 37.6256 67.3116 42.4364 64.0909 45.7641C64.0716 45.7828 64.0522 45.8012 64.0327 45.8195C61.7074 47.9905 59.2674 47.9019 56.3705 47.9003C55.0157 47.9094 53.6607 47.8921 52.3066 47.8487C52.3987 46.5112 52.3173 44.4158 52.3025 43.0214C52.2822 40.6937 52.2808 38.366 52.2982 36.0383C52.3004 35.3383 52.2695 32.8583 52.3784 32.31L52.5629 32.1872ZM53.2809 34.6839C53.1636 38.6734 53.3681 42.8544 53.2557 46.8254C54.3793 46.836 58.8728 46.9218 59.6814 46.7229C61.1232 46.7355 63.1124 45.4697 63.9998 44.3795C67.2492 40.3871 65.2287 34.5679 60.2222 33.409C59.1218 33.1541 58.0874 33.2641 56.9762 33.2476C55.7436 33.2194 54.5111 33.1844 53.2788 33.1428C53.2604 33.6529 53.2738 34.1729 53.2809 34.6839Z" fill="var(--fill-0, #FEFEFE)"/>
<path id="Vector_16" d="M12.0109 2.96798C12.8027 2.92041 13.5339 2.89625 14.2681 3.24534C15.1033 3.64245 15.8496 4.4545 16.1543 5.32925C16.4718 6.24087 16.4662 7.43024 16.0357 8.30702C15.5983 9.19795 8.1798 16.6591 7.02526 17.5797C6.56685 17.9454 6.06275 18.1725 5.51069 18.3573C4.53025 18.4571 3.66596 18.4859 2.78364 17.9626C1.96858 17.4792 1.34962 16.7147 1.11619 15.7926C0.903889 14.9538 0.918289 13.7736 1.38092 13.0142C1.98066 12.0296 9.53803 4.44922 10.6813 3.56634C11.0779 3.2601 11.528 3.08425 12.0109 2.96798Z" fill="var(--fill-0, #FEFEFE)"/>
<path id="Vector_17" d="M41.9577 28.5734C42.9724 28.4937 43.6917 28.5765 44.5573 29.1775C45.364 29.7263 45.9136 30.579 46.08 31.5404C46.2119 32.2807 46.1151 33.6975 45.5746 34.2987C43.6571 36.4314 41.361 38.7312 39.2273 40.6571C38.9105 40.9431 38.1532 41.1296 37.7755 41.1937C36.6835 41.241 36.0919 41.2272 35.1048 40.6324C33.631 39.7443 32.9244 36.9822 34.0798 35.6278C36.0304 33.3414 38.397 31.1092 40.6175 29.0681C40.8726 28.8337 41.6144 28.6378 41.9577 28.5734Z" fill="var(--fill-0, #FEFEFE)"/>
<path id="Vector_18" d="M114.622 32.2752C114.949 32.2423 115.309 32.1896 115.597 32.339C115.963 32.6913 122.539 47.1523 122.633 47.742L122.499 47.8387C122.232 47.8615 122.115 47.8845 121.86 47.8125C121.412 47.2886 120.137 44.207 119.755 43.3748C118.681 43.2929 116.737 43.3507 115.6 43.3511C113.962 43.3336 112.323 43.3417 110.685 43.3754C110.268 44.266 109.264 46.7851 108.725 47.7738C108.66 47.8925 107.955 47.9504 107.754 47.7018C107.845 47.1949 109.293 44.1349 109.602 43.4752C111.314 39.8216 112.895 35.9002 114.622 32.2752ZM111.182 42.2329C112.629 42.282 114.09 42.2243 115.498 42.2744C116.755 42.2673 118.034 42.2725 119.288 42.2508C118.365 40.3835 117.484 38.4953 116.647 36.5877C116.414 36.0691 115.458 33.6784 115.053 33.5639C113.975 36.2835 112.58 38.9018 111.458 41.6038C111.37 41.8148 111.282 42.0277 111.182 42.2329Z" fill="var(--fill-0, #E7EAF4)"/>
<path id="Vector_19" d="M82.6025 32.2019C83.7839 32.1046 85.3602 32.4589 86.3605 33.0775C86.9529 33.4436 88.3567 33.9704 87.8385 34.9089C87.6902 34.9369 87.51 34.9787 87.3797 34.873C84.8885 32.8487 81.1176 32.5648 78.4626 34.5709C75.3824 36.8987 74.4822 41.0767 77.0225 44.2456C78.1927 45.6889 79.8845 46.6121 81.7308 46.8147C83.4899 46.9967 85.4982 46.5599 87.0486 45.5505C87.3073 45.3817 87.3082 45.1447 87.3306 44.8614C87.334 44.0566 87.3315 43.2518 87.3237 42.4471C87.3202 41.9913 87.2263 40.545 87.4884 40.2791C87.8169 40.2355 87.7842 40.1885 88.0403 40.3088C88.3809 40.8266 88.0532 43.2857 88.1963 44.0184C88.2817 44.4552 88.2153 45.8554 87.8325 46.1564C84.8101 48.5319 80.301 48.5168 77.3683 45.9426C75.7886 44.5621 74.8297 42.6052 74.7055 40.511C74.5848 38.4437 75.3005 36.4147 76.6914 34.8806C78.3462 33.0291 80.1924 32.3314 82.6025 32.2019Z" fill="var(--fill-0, #E7EAF4)"/>
<path id="Vector_20" d="M98.8052 32.2007C100.149 32.1905 107.815 31.9722 108.446 32.4757C108.519 32.7666 108.517 32.6547 108.418 32.9535C108.324 33.0572 108.165 33.216 108.016 33.2228C106.406 33.2964 104.731 33.1246 103.127 33.2769C103.156 36.9428 103.161 40.6088 103.141 44.2747C103.142 44.8816 103.187 47.414 103.059 47.799C102.744 47.8602 102.673 47.8567 102.354 47.8194C102.137 47.5354 102.241 34.7019 102.231 33.1966C101.295 33.1812 97.8661 33.359 97.1478 33.1107C96.9943 32.9254 96.9573 32.5258 97.0857 32.3249C97.5341 32.1873 98.3119 32.2089 98.8052 32.2007Z" fill="var(--fill-0, #FEFEFE)"/>
<path id="Vector_21" d="M125.464 32.2551C125.778 32.2238 125.959 32.1878 126.266 32.2795C126.43 32.4618 126.447 32.453 126.443 32.7517C126.422 34.2849 126.405 35.8363 126.4 37.3672C126.386 40.5195 126.409 43.6718 126.472 46.8235C128.541 46.8994 130.658 46.7743 132.732 46.8282C133.419 46.8461 133.423 47.2459 133.365 47.8615C131.097 47.904 127.627 47.9918 125.466 47.8587L125.464 32.2551Z" fill="var(--fill-0, #E7EAF4)"/>
<path id="Vector_22" d="M125.932 40.5049C126.113 41.267 125.745 46.6964 126.292 47.0572C126.868 47.4361 132.549 47.0035 132.971 47.2784C133.058 47.5433 133.058 47.4365 132.967 47.7044L132.717 47.7425L125.831 47.7263C125.797 47.1648 125.827 45.5283 125.84 44.9265C125.864 43.7774 125.753 41.5225 125.932 40.5049Z" fill="var(--fill-0, #FEFEFE)"/>
<path id="Vector_23" d="M93.1963 32.2628C93.5731 32.2267 93.8051 32.1658 94.1043 32.3879C94.2466 33.1958 94.0543 35.4752 94.0767 36.4485C94.1647 40.1629 93.9508 44.1337 94.138 47.8144C93.8448 47.8667 93.5085 47.9079 93.2584 47.7526C93.1282 46.7504 93.1851 43.6385 93.186 42.4915L93.1963 32.2628Z" fill="var(--fill-0, #E7EAF4)"/>
<path id="Vector_24" d="M70.5995 32.1449C70.7554 32.1862 70.845 32.2175 70.9534 32.3412C71.0722 32.4768 71.0876 46.529 70.9916 47.7975L70.5576 47.9902C70.2647 47.8567 70.3056 47.9256 70.1518 47.6868C70.1282 43.8247 70.2384 36.5859 70.1729 32.4146C70.1709 32.2868 70.4497 32.2079 70.5995 32.1449Z" fill="var(--fill-0, #FEFEFE)"/>
</g>
</svg>
