<svg preserveAspectRatio="none" width="100%" height="100%" overflow="visible" style="display: block;" viewBox="0 0 172.5 48.1231" fill="none" xmlns="http://www.w3.org/2000/svg">
<g id="image 50 [Vectorized]" opacity="0.7" clip-path="url(#clip0_0_94)">
<path id="Vector" d="M46.0742 7.87263C49.0292 7.57959 51.4134 8.16162 53.6538 10.114C53.7321 9.5103 53.8001 8.90535 53.8578 8.29929C54.7984 8.24099 57.3992 8.24289 58.2779 8.33502C58.3932 9.1324 58.3543 10.72 58.3537 11.5582L58.3489 16.9728L58.354 24.1451C58.3547 25.4008 58.4082 27.2134 58.28 28.4168C57.2249 28.5117 55.7794 28.4816 54.7188 28.4258C54.5464 27.6608 54.3689 26.7768 54.1244 26.0425C53.4682 26.8059 52.8649 27.3013 52.0153 27.824C45.4534 30.8614 37.5015 27.5386 36.8112 19.8622C36.2198 13.2857 39.3816 8.67375 46.0742 7.87263ZM47.8868 24.6365C51.3542 24.4484 54.0099 21.479 53.8132 18.0101C53.6166 14.5413 50.6423 11.8914 47.1759 12.0969C43.722 12.3017 41.0851 15.2649 41.2811 18.7214C41.477 22.178 44.4319 24.8239 47.8868 24.6365Z" fill="var(--fill-0, white)"/>
<path id="Vector_2" d="M113.112 8.28422C114.092 8.27468 116.501 8.20599 117.376 8.36223C117.573 11.2577 116.935 20.4789 117.921 22.4802C118.373 23.3959 119.062 24.0729 120.04 24.3948C121.308 24.812 122.839 24.6675 124.023 24.0633C127.172 22.4554 127.043 18.7967 127.041 15.7774L127.028 11.0449C127.026 10.4509 126.976 8.97137 127.143 8.46241C127.435 8.17427 131.016 8.12931 131.444 8.51416C131.782 9.03045 131.645 10.5148 131.644 11.1829L131.64 15.7178L131.642 23.5439C131.643 25.0751 131.685 26.8619 131.599 28.3758C130.889 28.5227 128.852 28.4679 128.046 28.4643C127.777 27.5798 127.532 26.5067 127.268 25.5838C125.764 28.1619 122.637 29.0702 119.875 28.8741C112.176 28.3276 112.684 20.4735 112.79 14.7725C112.826 12.8561 112.712 10.8335 112.794 8.90387C112.81 8.53633 112.857 8.50734 113.112 8.28422Z" fill="var(--fill-0, white)"/>
<path id="Vector_3" d="M22.4829 8.28883C26.4684 8.26087 25.465 7.56988 26.6293 11.1807C27.7033 9.79743 28.2791 9.18616 30.1221 8.58138C30.9688 8.30352 34.3991 8.08392 34.9902 8.42295C35.246 8.94723 35.133 12.2796 35.0856 13.0424C30.9236 13.2974 27.7157 12.1053 26.8908 17.6537C26.761 21.111 27.0111 25.0277 26.8252 28.4003C26.0936 28.5323 23.0396 28.4726 22.2491 28.393C22.1817 27.4492 22.2299 25.8907 22.2295 24.9035L22.2277 18.2295L22.2282 12.1271C22.2285 11.3614 22.0977 8.74319 22.4829 8.28883Z" fill="var(--fill-0, white)"/>
<path id="Vector_4" d="M136.712 8.28376C137.8 8.27517 138.915 8.25107 140.001 8.30902C140.315 9.02919 140.552 10.5019 140.846 10.992C141.065 10.9208 141.567 10.2335 141.851 9.96772C143.91 8.03864 146.615 8.22544 149.241 8.30385C149.353 9.2543 149.348 12.097 149.261 13.0558C145.12 13.0518 141.555 12.4909 141.108 17.847C141.035 20.1749 141.126 22.5879 141.094 24.9228C141.08 25.9949 141.146 27.3517 141.024 28.3985C140.161 28.5331 137.428 28.4678 136.484 28.4238C136.408 27.4444 136.451 25.8911 136.45 24.8702L136.447 18.4661V12.1837C136.447 11.101 136.436 9.99292 136.468 8.90985C136.478 8.5547 136.515 8.53473 136.712 8.28376Z" fill="var(--fill-0, white)"/>
<path id="Vector_5" d="M80.1158 8.28396C80.8529 8.27743 83.8878 8.15925 84.3363 8.4377C84.4458 8.75358 84.4854 9.19663 84.4871 9.53636C84.5098 15.5146 84.4618 21.4939 84.4972 27.4719C84.4989 27.8397 84.546 28.2573 84.2088 28.4408C83.0746 28.5215 81.0485 28.4733 79.8938 28.4216C79.8136 27.2671 79.8521 25.751 79.8512 24.5669L79.8486 17.9824L79.8489 12.0183C79.8493 10.979 79.8392 9.91561 79.872 8.87646C79.8825 8.5455 79.9291 8.50766 80.1158 8.28396Z" fill="var(--fill-0, white)"/>
<path id="Vector_6" d="M96.0566 26.721C94.8859 26.3427 93.9476 26.0166 92.8972 25.3657C89.1954 23.0706 87.8174 18.3524 89.1347 14.2772C89.8717 11.9982 91.4906 10.1099 93.6292 9.03449C97.123 7.24977 101.102 7.58528 104.337 9.73013C104.576 8.7187 104.678 8.12142 105.946 8.20926C106.715 8.26248 107.454 8.29167 108.224 8.28768C108.325 9.98086 108.273 11.8936 108.274 13.5855C108.276 17.1772 108.663 20.7623 106.018 23.627C104.713 25.0422 102.23 26.8084 100.608 27.9814C103.616 28.7735 105.983 29.9959 107.577 32.7384C110.274 37.3776 108.951 43.9976 104.116 46.6581C102.471 47.5628 101.448 47.7721 99.6844 48.1256H97.24C94.0402 47.458 91.5496 46.5984 89.6342 43.6656C88.1265 41.3135 87.6119 38.4592 88.2032 35.728C88.9014 32.4404 90.9861 30.5067 93.5769 28.5954C94.4007 27.9881 95.2211 27.3153 96.0566 26.721ZM99.5462 43.7451C102.715 43.1511 104.811 40.1117 104.242 36.9374C103.673 33.7629 100.652 31.6418 97.475 32.1864C94.2634 32.7369 92.1147 35.8007 92.69 39.0102C93.2653 42.2197 96.3439 44.3455 99.5462 43.7451ZM99.1714 22.7506C102.117 22.3595 104.192 19.659 103.813 16.7101C103.434 13.7613 100.744 11.6739 97.7951 12.0413C94.8294 12.4107 92.7288 15.1215 93.1103 18.0873C93.491 21.053 96.2091 23.1438 99.1714 22.7506Z" fill="var(--fill-0, white)"/>
<path id="Vector_7" d="M168.336 26.0454C167.642 26.9004 166.761 27.5837 165.76 28.0424C163.338 29.1712 159.734 29.1495 157.249 28.2365C154.907 27.3914 153.006 25.6348 151.978 23.3661C149.634 18.2807 151.133 11.1676 156.553 8.82495C159.286 7.64351 162.815 7.40862 165.608 8.59142C166.426 8.93755 167.075 9.63403 167.797 9.90321L167.904 9.83301C167.95 9.29262 167.837 8.66853 168.258 8.32486C168.893 8.21311 171.939 8.22104 172.5 8.39003V28.353C171.846 28.5489 169.738 28.4707 168.971 28.4625C168.771 27.6537 168.56 26.8479 168.336 26.0454ZM162.101 24.6344C165.561 24.4404 168.209 21.478 168.018 18.0161C167.826 14.5542 164.867 11.9025 161.407 12.0918C157.944 12.2813 155.291 15.2454 155.482 18.7106C155.674 22.1759 158.638 24.8287 162.101 24.6344Z" fill="var(--fill-0, white)"/>
<path id="Vector_8" d="M0 1.09219C0.395711 0.695384 1.69971 0.811899 2.33417 0.811121L15.5115 0.814445C17.1724 0.815281 20.6585 0.712211 22.1744 0.8654C22.2648 1.62542 22.2788 4.6014 22.1847 5.38496C19.7217 5.45418 16.021 5.47937 13.5623 5.3875L13.5701 21.1638C13.5703 22.2526 13.6552 27.4706 13.433 28.291C13.0849 28.5873 9.46973 28.4631 8.73492 28.4592C8.57236 27.0247 8.67697 22.7549 8.67789 21.1538L8.66981 5.40832C7.69781 5.40743 0.588358 5.50085 0.138044 5.27958L0 5.092V1.09219Z" fill="var(--fill-0, white)"/>
<path id="Vector_9" d="M74.5565 0H76.827C77.3213 0.428428 77.1175 3.44935 77.0687 4.20089C75.0624 4.28003 72.0872 3.81418 71.3565 6.34604C71.2272 6.79408 71.0333 7.74993 71.252 8.1633C71.6614 8.38682 76.1789 8.26447 77.0627 8.30806C77.1353 9.4837 77.1485 11.2157 77.0548 12.3735C75.4714 12.4587 72.8286 12.3824 71.1666 12.3884C70.9853 17.5986 71.3423 23.3313 71.0944 28.4495C69.8835 28.504 67.7975 28.4816 66.6082 28.4294C66.4759 27.1521 66.5585 24.429 66.5585 22.9879L66.5688 12.4035C65.5897 12.353 62.133 12.4682 61.4723 12.3028C61.2278 11.907 61.2062 8.7895 61.4689 8.43856C62.0405 8.16329 65.5883 8.27786 66.5446 8.26181C66.5675 5.4453 67.3039 2.25858 70.0696 0.94092C71.6336 0.195855 72.8815 0.235187 74.5565 0Z" fill="var(--fill-0, white)"/>
<path id="Vector_10" d="M79.9083 0H84.3366C84.3695 0.0297076 84.4006 0.0606835 84.431 0.0928573C84.8538 0.54598 84.6533 4.06401 84.6281 4.8954C83.3146 5.0284 81.075 4.95197 79.7153 4.92794C79.6358 4.16684 79.5453 0.621504 79.9083 0Z" fill="var(--fill-0, white)"/>
</g>
<defs>
<clipPath id="clip0_0_94">
<rect width="172.5" height="48.1231" fill="white"/>
</clipPath>
</defs>
</svg>
