<svg preserveAspectRatio="none" width="100%" height="100%" overflow="visible" style="display: block;" viewBox="0 0 520.5 47.9743" fill="none" xmlns="http://www.w3.org/2000/svg">
<g id="Frame 2147237744" opacity="0.7">
<path id="Vector" d="M0.0115219 0.196999C12.6217 0.765404 25.8736 -0.706031 38.2883 0.830208C42.107 1.30253 42.4608 14.4653 45.361 16.2206C54.1186 21.5207 53.0223 4.34665 56.4342 1.41922C58.9084 -0.7042 68.1299 0.205471 71.9788 0.13258C69.2542 7.85611 66.8554 15.6776 64.0635 23.4346C62.5552 27.7337 57.2224 44.5808 54.9281 46.9829C53.4011 48.5817 31.3795 47.7976 27.7249 47.6691C25.2503 40.8037 23.4961 35.8906 21.7817 28.8426C18.0164 28.5874 12.4354 29.6359 9.39941 27.9723C7.78733 25.6195 -0.347413 2.34766 0.0115219 0.196999Z" fill="var(--fill-0, white)"/>
<path id="Vector_2" d="M379.463 1.14687C387.952 1.29523 402.232 -0.187263 408.837 5.52808C418.478 13.8734 417.712 31.2086 409.904 40.5674C401.26 47.3423 390.084 45.5171 379.43 45.8075C380.107 39.6235 379.805 29.8064 379.816 23.3021C379.831 16.7846 380.07 7.33306 379.463 1.14687ZM384.208 41.8416C392.307 42.0006 399.883 43.0332 406.473 37.7273C412.242 29.9404 413.217 13.9953 404.68 7.58304C399.633 3.79158 390.514 5.157 384.344 4.78886C384.359 15.9092 384.852 30.994 384.208 41.8416Z" fill="var(--fill-0, white)"/>
<path id="Vector_3" d="M299.411 1.18245C305.769 1.41732 318.58 0.245899 323.671 2.79894C325.987 3.93354 327.739 5.96602 328.523 8.42482C329.477 11.3478 329.3 16.0331 327.824 18.7736C325.943 22.2591 322.873 23.1039 319.43 24.1793C325.17 27.2657 325.788 29.708 327.603 35.7517C328.604 39.0973 329.771 42.7128 331.292 45.8545C329.536 45.8044 327.728 45.7967 325.969 45.7698C325.269 44.0963 324.872 42.6528 324.364 40.9237C322.703 35.1086 322.007 30.4921 317.763 26.1566C313.618 24.8394 308.648 25.1917 304.164 25.04C303.899 30.2513 303.799 41.0256 304.374 45.9222C302.702 45.8991 301.458 45.9767 299.842 45.5453C299.36 42.63 299.79 37.5442 299.669 34.3992C299.282 24.5596 300.383 11.0975 299.459 1.65623L299.411 1.18245ZM303.925 21.4694C309.281 21.585 318.116 22.5219 322.302 19.5533C324.702 15.8538 325.726 8.89273 321.234 6.31245C317.148 3.96336 308.909 4.80897 304.009 4.93193C304.02 10.4444 303.991 15.9573 303.925 21.4694Z" fill="var(--fill-0, white)"/>
<path id="Vector_4" d="M489.844 1.22315C492.024 1.14694 494.649 1.0792 496.898 1.18412C502.832 1.48231 511.517 0.180564 516.321 4.34347C521.541 8.86494 521.961 18.8378 517.072 23.7701C512.864 28.0147 508.137 27.8535 502.711 27.9934C499.729 28.0298 497.446 28.039 494.457 27.813C494.807 33.2522 494.225 40.7243 495.009 45.7962C493.327 45.7273 491.438 45.773 489.741 45.7752C490.223 41.1794 490.025 31.5717 489.995 26.759C489.947 18.7031 490.257 9.17125 489.844 1.22315ZM494.406 24.2222C499.622 24.3209 508.159 25.1631 512.341 22.3649C518.379 16.4405 516.372 5.25719 506.97 4.89089C502.843 4.73038 498.698 4.87323 494.538 4.78488C494.663 10.6699 494.88 18.4439 494.406 24.2222Z" fill="var(--fill-0, white)"/>
<path id="Vector_5" d="M208.668 1.02225C210.038 1.15625 211.612 0.953773 213.004 0.837442C210.757 6.17029 209.463 14.5053 208.085 20.3944C206.149 28.6709 203.642 37.638 202.515 45.9914C200.246 45.7359 197.731 45.7646 195.431 45.7377C193.404 34.6575 189.308 24.2109 187.156 13.1785C186.986 12.3075 186.73 11.9964 186.084 11.5013L185.383 11.7991C184.357 13.3762 183.836 16.3699 183.268 18.3693C181.832 23.2725 180.462 28.1952 179.161 33.1357C178.17 37.0328 177.177 42.2673 175.675 45.8857C173.432 45.695 171.424 45.7414 169.178 45.7635C168.437 40.3088 166.583 34.2404 165.388 28.7924C163.837 21.7164 162.32 14.6607 160.663 7.60676C160.06 5.40051 159.517 3.17806 159.035 0.941992C160.644 1.08372 161.635 1.14632 163.228 1.54759C165.624 3.2447 169.61 33.527 172.4 38.248L173.227 38.453C174.818 37.1999 181.786 3.8617 183.882 1.5612C186.772 0.373957 188.04 1.28398 189.001 4.10981C190.46 8.39825 191.007 13.1517 192.339 17.4371C194.39 24.0364 195.961 30.597 197.701 37.254C197.885 37.9597 198.623 38.0628 199.203 38.178C201.424 36.3977 205.553 5.25731 208.668 1.02225Z" fill="var(--fill-0, white)"/>
<path id="Vector_6" d="M132.395 1.01313C134.266 1.25794 136.527 1.19536 138.444 1.20751C139.688 3.81098 141.157 8.84712 142.133 11.7289L148.754 30.8706C150.296 35.3243 152.378 41.741 154.493 45.7625L149.16 45.8107C147.247 41.1799 146.171 38.1667 144.977 33.3695C142.943 33.2569 140.362 33.3106 138.282 33.2977L124.921 33.2539C123.629 37.461 122.297 41.6559 120.927 45.8384C119.118 45.7257 117.542 45.838 115.74 45.9263C121.224 31.5524 125.697 16.7135 131.24 2.36311C131.503 1.68132 131.837 1.41734 132.395 1.01313ZM126.258 29.7603C129.177 29.613 131.709 29.5398 134.63 29.563C137.579 29.5722 140.818 29.5148 143.739 29.6602C142.325 26.0417 136.272 6.61693 134.85 5.47864C131.037 13.6248 129.295 21.4319 126.258 29.7603Z" fill="var(--fill-0, white)"/>
<path id="Vector_7" d="M443.206 1.08926C444.844 1.14816 445.621 1.14595 447.234 1.5428C449.431 3.61763 446.505 30.308 448.831 36.358C449.744 38.7317 451.894 40.4049 454.217 41.2859C457.854 42.6664 462.213 42.5711 465.732 40.9034C467.691 39.9738 469.425 38.4928 470.353 36.5016C472.742 31.3697 471.678 14.939 471.56 8.62577C471.527 6.75379 471.144 3.78624 471.847 2.05857C472.05 1.56011 472.421 1.44158 472.933 1.32561C473.784 1.13382 474.962 1.21148 475.731 1.61201C476.361 2.69654 476.084 4.14406 476.003 5.45831C476.018 15.042 476.6 25.6124 475.529 35.0058C474.2 46.6334 457.91 49.2218 449.49 43.981C442.116 39.3907 443.317 29.1554 443.328 21.6612C443.398 14.8039 443.361 7.94546 443.206 1.08926Z" fill="var(--fill-0, white)" fill-opacity="0.988235"/>
<path id="Vector_8" d="M262.331 1.04827C269.996 1.65533 280.174 0.592499 287.805 1.68918C288.674 1.81398 288.788 2.29771 289.055 2.85029L288.564 3.68745C287.809 4.16087 286.702 4.76131 285.81 4.75432C279.375 4.70388 272.082 4.99175 265.736 4.70313C266.132 9.04532 265.917 16.2597 265.71 20.6774C271.442 20.8997 277.372 20.3954 283.123 20.6067C284.682 20.6641 285.918 21.1887 286.747 22.4849L286.49 23.3379C282.777 26.7263 267.75 21.8584 265.75 25.5467C266.052 30.7769 266.056 36.6859 265.48 41.8744C268.914 42.0949 287.788 41.6929 289.066 42.5797C289.547 44.0383 289.531 43.3341 289.202 44.7657C286.891 46.6848 266.143 45.565 261.426 45.8794C261.89 35.8093 261.226 24.4953 261.474 14.3252C261.559 10.8591 261.191 4.80327 261.618 1.56623L262.331 1.04827Z" fill="var(--fill-0, white)"/>
<path id="Vector_9" d="M341.355 1.21628C349.377 0.983985 357.98 1.33961 366.053 1.24868C367.647 1.23064 367.964 1.28658 368.811 2.20509C369.076 3.36546 369.061 3.28115 368.663 4.41207C367.588 4.94551 348.206 4.85238 345.909 4.61014C346.218 9.58847 346.1 15.6572 345.894 20.6352C351.626 20.9227 357.579 20.4202 363.329 20.683C364.956 20.7574 366.27 20.8837 366.646 22.5786C366.451 23.0984 365.991 24.0349 365.49 24.1726C361.978 25.1371 348.644 23.4039 346.174 24.7326L345.968 25.8281C346.133 31.1628 346.111 36.5019 345.898 41.8351C352.609 42.3756 360.689 41.7983 367.555 42.1031C368.674 42.1528 368.682 42.43 369.304 43.1748C369.444 44.5531 369.598 43.949 368.925 45.0715C366.499 46.2064 346.126 45.6516 341.329 45.8018C342.198 33.2848 341.414 20.2737 341.642 7.70251C341.679 5.55295 341.557 3.357 341.355 1.21628Z" fill="var(--fill-0, white)"/>
<path id="Vector_10" d="M217.189 0.912978C218.816 0.989918 220.568 1.31829 222.19 1.57194C224.809 5.25663 232.478 20.6201 234.837 21.5843C235.14 21.4702 235.444 21.356 235.747 21.2419C239.262 16.3891 244.067 6.5072 247.213 1.74533L247.452 1.38861L252.93 0.825729C249.745 5.9642 246.923 10.8604 243.934 16.1086C241.698 19.9737 238.518 24.8519 237.273 29.0678C236.498 31.6908 237.614 43.966 237.039 45.2861C235.571 45.9344 233.835 45.8232 232.182 45.8737C232.49 42.0498 232.725 31.5652 231.932 28.0359C230.971 23.7556 217.51 3.92177 217.189 0.912978Z" fill="var(--fill-0, white)"/>
<path id="Vector_11" d="M88.5264 1.10834L89.2222 0.972135C89.3853 1.18786 89.5484 1.40395 89.7118 1.61968C89.4898 12.9771 90.0564 31.2872 89.3845 42.0007C93.4064 41.9503 109.18 41.1673 111.435 43.1887C111.805 44.5887 111.816 43.9095 111.388 45.3015L110.41 45.6895C103.833 45.6136 90.7084 45.4252 84.5811 45.9166C84.7692 41.2251 84.178 3.56382 84.8877 1.65392C85.9056 1.04024 87.2917 1.15105 88.5264 1.10834Z" fill="var(--fill-0, white)"/>
</g>
</svg>
