<svg preserveAspectRatio="none" width="100%" height="100%" overflow="visible" style="display: block;" viewBox="0 0 196.5 47.9584" fill="none" xmlns="http://www.w3.org/2000/svg">
<g id="Frame 2147237749" opacity="0.7">
<path id="Vector" d="M156.302 13.3182C156.832 13.4129 157.533 13.3728 157.999 13.637C164.678 17.4219 171.4 21.351 178.041 25.1841L185.512 29.4922C187.553 30.67 190.394 31.7432 190.623 34.504C190.741 35.9299 189.389 37.7142 188.471 38.7563C188.393 38.8289 188.311 38.8957 188.223 38.9563C187.776 39.2634 185.798 40.4592 185.252 40.4355C184.684 40.4109 183.867 39.089 183.515 38.8711C182.305 38.3192 180.905 37.1085 179.744 36.5738C177.333 35.4641 175.203 34.1539 172.951 32.7542C171.903 32.1031 170.735 31.6805 169.718 31.0547C166.081 28.817 162.335 26.8395 158.609 24.7674C157.803 24.318 157.304 23.1107 156.824 22.3423C156.627 22.3341 156.582 22.3658 156.418 22.461L156.37 22.4895C156.111 21.7215 156.238 14.5269 156.302 13.3182Z" fill="var(--fill-0, white)"/>
<path id="Vector_2" d="M195.718 22.5752C195.674 22.7692 195.588 23.0987 195.473 23.2461C194.777 24.1395 191.92 27.0088 190.962 27.2095C190.147 26.7053 189.493 25.6586 188.22 24.9594C186.174 23.8359 184.103 22.6536 182.069 21.5047L171.74 15.6178C169.023 14.0801 166.07 12.5443 163.579 10.6766C162.002 9.49494 161.886 0.779309 162.721 0.0576497C163.058 -0.00941947 162.959 -0.0388059 163.242 0.0870265C163.297 0.213277 163.453 0.600785 163.552 0.658967C164.683 1.32391 165.895 1.96876 167.026 2.6212L185.231 13.023L190.896 16.2186C192.068 16.8824 195.167 18.4266 195.541 19.6683C195.583 20.279 195.641 22.1057 195.718 22.5752Z" fill="var(--fill-0, white)"/>
<path id="Vector_3" d="M81.3013 21.1867C82.1936 21.0929 83.7748 21.1334 84.6796 21.1919C85.0118 21.8508 85.8104 24.5819 86.0572 25.3874C86.938 28.2619 87.9026 31.2046 88.6706 34.1071C89.2252 31.5162 90.1475 28.613 90.8545 26.0394C91.1829 24.8438 91.8745 22.2045 92.3118 21.1861C93.2042 21.1085 95.7131 20.8431 96.1962 21.6367C96.3737 22.3164 95.2675 25.1528 94.9603 26.1133L90.9178 38.6514C90.5656 39.7284 90.4872 39.9389 89.2952 39.8831C88.559 39.8486 87.6544 40.0296 86.9439 39.7624C86.4619 39.3864 83.2348 28.5984 82.9034 27.2914C82.5064 28.6792 79.2053 39.2294 78.638 39.7317C77.908 39.9928 75.9937 39.969 75.2498 39.7338C74.8627 39.6114 74.2496 37.1768 74.0892 36.6467L72.4983 31.3875L70.6133 25.1495C70.4284 24.5378 69.5192 21.9153 69.7005 21.4675C70.0323 21.1728 69.9642 21.2537 70.4391 21.1555C71.4989 21.1511 72.7493 21.115 73.7866 21.2248C74.0555 21.8453 74.7223 24.5971 74.9155 25.3386C75.6877 28.2819 76.4443 31.2294 77.1853 34.1808C77.7426 31.8688 78.7286 29.0707 79.456 26.7562C79.9313 25.2436 80.7148 22.5794 81.3013 21.1867Z" fill="var(--fill-0, white)"/>
<path id="Vector_4" d="M135.627 12.855C136.377 12.7684 138.837 12.6669 139.455 13.0412C139.847 13.6762 139.687 21.5707 139.685 22.9723C140.097 22.5399 140.654 22.1131 141.163 21.8082C142.8 20.813 144.768 20.5227 146.622 21.0036C149.368 21.7135 151.286 24.2876 151.47 27.0847C151.735 31.0994 151.617 35.3063 151.537 39.3283C151.52 40.1666 148.189 39.9345 147.618 39.762C147.111 39.066 147.322 31.948 147.326 30.6524C147.348 27.3067 146.982 23.3972 142.147 24.8375C141.317 25.085 140.099 26.4206 139.943 27.2603C139.221 31.1507 140.02 35.4514 139.601 39.3851C139.518 40.1667 136.053 39.9423 135.627 39.7383C135.559 39.6699 135.449 39.5204 135.446 39.4319C135.37 37.2373 135.412 34.5624 135.41 32.3904L135.402 20.0844C135.401 18.9182 135.252 13.5048 135.627 12.855Z" fill="var(--fill-0, white)"/>
<path id="Vector_5" d="M24.1456 20.8403C34.6307 19.8903 32.6569 28.8421 32.8444 35.7278C32.8616 36.3602 33.1445 39.0503 33.021 39.4911C32.4857 40.0417 29.8255 40.0719 29.2789 39.6623C29.0787 39.3243 29.0486 38.7132 29.0012 38.3011C26.1415 40.6849 22.529 41.0986 19.5605 38.6633C18.5463 37.5464 17.9588 36.2596 17.9503 34.741C17.9174 28.8432 23.9853 27.6099 28.5992 27.5314C28.1588 22.8545 23.9339 24.0407 20.7855 25.3182C20.5392 25.4182 20.3399 25.3908 20.1192 25.2715C19.804 24.8016 19.0249 22.9205 19.4388 22.5143C20.4614 21.5108 22.8088 21.032 24.1456 20.8403ZM23.6118 36.6419C26.472 37.3454 28.6322 35.6801 28.6575 32.7303C28.6631 32.0951 28.6524 31.4585 28.6426 30.8229L27.659 30.8442C25.2845 31.0513 21.9771 31.4413 22.2357 34.6305C22.3156 35.6155 22.7605 36.1755 23.6118 36.6419Z" fill="var(--fill-0, white)"/>
<path id="Vector_6" d="M60.4764 13.8017C62.0082 13.5913 66.8728 13.9383 67.6152 15.4168C67.6509 15.7569 66.9548 17.9293 66.6541 18.2969C66.0518 18.8629 64.5406 17.8011 63.7385 17.6407C61.1332 17.1197 57.3768 17.416 57.5441 20.9422C57.6637 23.4639 61.3842 24.6289 63.4702 25.4849C68.5767 27.5806 70.4155 33.0156 66.8854 37.4712C65.26 39.5024 62.457 40.1253 59.837 40.2843C57.4974 40.2923 54.6227 39.759 52.6816 38.4078C52.8323 37.7053 53.3424 35.7055 53.7412 35.166C54.2807 35.0221 56.5855 36.0714 57.4578 36.2954C60.5411 37.0871 64.8059 36.3649 64.3083 32.259C63.8936 28.8371 58.4143 28.4412 56.1313 26.4794C54.6519 25.208 53.5748 24.0877 53.3219 21.9819C52.7413 17.1229 56.1131 14.4154 60.4764 13.8017Z" fill="var(--fill-0, white)"/>
<path id="Vector_7" d="M7.78512 13.7996C9.71518 13.5139 12.9879 13.9754 14.6523 14.9961C15.3257 15.4089 14.2716 17.806 13.9466 18.3419C13.6441 18.8407 12.5119 18.1303 12.0962 17.9736C9.46217 16.9806 4.63314 17.0279 4.86249 20.9754C4.99701 23.5139 8.93708 24.6974 10.9732 25.5722C16.0517 27.7544 17.6737 33.1955 14.1259 37.5745C12.5085 39.5395 9.54498 40.179 6.95664 40.2836C4.70565 40.2828 1.86868 39.6976 0 38.4087C0.147605 37.8031 0.818067 34.9571 1.228 35.0899C3.63233 35.8682 5.42338 36.8339 8.13338 36.4959C10.4632 36.2054 11.9839 34.6088 11.6306 32.2564C11.1005 28.7275 5.79917 28.5172 3.49196 26.492C2.02405 25.2368 0.896602 24.1449 0.6389 22.0917C0.0800945 17.143 3.34139 14.4302 7.78512 13.7996Z" fill="var(--fill-0, white)"/>
<path id="Vector_8" d="M35.1277 21.1572C35.9943 21.1558 37.9475 21.021 38.639 21.3302C39.2798 22.005 42.9688 32.4913 43.4693 34.0616C44.5188 30.3976 45.938 26.7672 47.0899 23.1295C47.2906 22.4957 47.5207 21.8506 47.7814 21.2396C48.5496 21.1285 51.5362 20.927 51.9891 21.5299C51.9011 22.5241 50.4484 26.0654 49.9833 27.2786L46.5748 36.1432C45.215 39.7534 43.2431 44.3923 39.9796 46.6034C39.2338 47.1088 37.4736 48.1024 36.567 47.9408C36.3183 47.7778 36.2303 47.7255 36.1202 47.4224C36.0056 47.107 35.3291 44.9727 35.408 44.7971C35.7332 44.0725 37.7464 43.4422 38.5005 42.7112C39.8683 41.3851 40.4292 40.5258 41.1675 38.8554C39.2566 33.2653 36.4222 27.5618 34.4625 21.9438C34.4116 21.7979 34.4306 21.63 34.4826 21.4839C34.6875 21.232 34.8024 21.2285 35.1277 21.1572Z" fill="var(--fill-0, white)"/>
<path id="Vector_9" d="M111.395 16.1223C111.784 16.1438 111.667 16.0882 111.951 16.3013C112.317 16.9429 112.161 20.1633 112.154 21.1408C112.696 21.1619 116.508 20.9945 116.609 21.4346C117.595 25.7333 115.243 24.6795 112.152 24.7066L112.138 30.8913C112.136 32.1558 112.084 33.3952 112.214 34.6552C112.502 37.4481 114.507 36.2388 116.049 36.4702C116.713 36.9166 116.923 39.4499 116.017 39.869C115.867 39.9381 115.367 40.0584 115.182 40.1025C112.036 40.6969 108.895 39.9039 108.184 36.367C107.838 34.6477 107.943 32.9461 107.944 31.2005L107.95 24.7093C107.311 24.7181 106.028 24.7979 105.497 24.5672C105.001 24.3521 105.17 21.8443 105.35 21.3842C105.855 21.0253 107.281 21.1505 107.945 21.1606C108.015 16.7807 106.973 17.2342 111.395 16.1223Z" fill="var(--fill-0, white)"/>
<path id="Vector_10" d="M126.372 20.8368C127.627 20.6197 131.943 20.9119 132.652 22.0726C132.7 22.4344 132.031 25.1618 131.669 25.0897C129.711 24.7026 126.969 23.8151 125.07 24.9388C119.222 28.4 122.085 38.3812 129.46 36.4511C130.126 36.2769 131.302 35.7461 131.858 35.936C132.122 36.1846 132.16 36.4922 132.244 36.8435C132.377 37.4191 132.777 38.6052 132.365 39.0573C131.616 39.7574 130.06 39.9631 129.066 40.1344C119.486 41.7851 114.673 31.8943 119.646 24.4802C121.13 22.2678 123.738 21.2029 126.372 20.8368Z" fill="var(--fill-0, white)"/>
<path id="Vector_11" d="M162.613 33.0058C162.838 33.0051 163.044 33.0066 163.241 33.1181C165.292 34.2809 167.334 35.5281 169.357 36.7306C172.693 38.753 176.106 40.6428 179.591 42.3954C179.852 43.6853 177.704 44.3418 176.7 44.8053C175.689 45.4137 173.198 46.5479 172.643 47.3461C172.119 47.4123 170.135 47.5111 169.944 47.3019C168.53 45.7546 163.506 44.2573 162.828 42.1749C162.182 40.1899 162.022 34.5245 162.613 33.0058Z" fill="var(--fill-0, white)"/>
<path id="Vector_12" d="M99.1746 21.1549C99.9751 21.1498 102.046 21.0147 102.614 21.3973C102.754 21.7884 102.77 22.2093 102.785 22.6211C102.84 24.1999 102.906 39.0733 102.72 39.4693C102.593 39.7385 102.419 39.7777 102.162 39.8803C101.5 39.8796 99.0206 40.0883 98.6249 39.5644C98.4077 38.4639 98.4434 21.8234 98.6035 21.5202C98.7432 21.2559 98.9084 21.2394 99.1746 21.1549Z" fill="var(--fill-0, white)"/>
<path id="Vector_13" d="M99.9978 14.2117C101.352 13.8518 102.741 14.6592 103.098 16.0141C103.456 17.369 102.647 18.7572 101.292 19.113C99.9407 19.468 98.5568 18.6606 98.1999 17.3086C97.8429 15.9566 98.6476 14.5708 99.9978 14.2117Z" fill="var(--fill-0, white)"/>
<path id="Vector_14" d="M195.539 19.67C195.731 20.1424 195.651 20.2428 196.222 20.157C196.522 20.4765 196.822 22.7622 195.717 22.5769C195.639 22.1074 195.581 20.2806 195.539 19.67Z" fill="var(--fill-0, white)" fill-opacity="0.741176"/>
</g>
</svg>
