<svg preserveAspectRatio="none" width="100%" height="100%" overflow="visible" style="display: block;" viewBox="0 0 202.5 47.9032" fill="none" xmlns="http://www.w3.org/2000/svg">
<g id="Frame 2147237748" opacity="0.7">
<path id="Vector" d="M99.7061 0L106.376 0.0145736L106.371 21.4937C106.609 21.1781 106.853 20.8668 107.101 20.5599C108.951 18.2897 111.925 17.0405 114.786 16.8073C129.644 15.597 134.865 33.0788 126.269 43.2806C120.8 49.3076 111.106 49.6642 106.126 42.799L106.083 46.8006L99.7061 46.8249V0ZM115.441 41.8873C117.088 41.6277 118.299 41.3632 119.734 40.4099C125.016 36.9043 125.012 27.6163 119.746 24.1032C117.847 22.8368 116.513 22.7369 114.347 22.7297C102.517 23.5141 103.267 42.3342 115.441 41.8873Z" fill="var(--fill-0, white)"/>
<path id="Vector_2" d="M31.8218 8.94079C34.5516 9.00176 37.4393 8.95988 40.1892 8.97764L48.1499 17.1412C49.9121 18.939 53.0882 21.7577 54.2619 23.8689C60.1563 34.4711 54.5433 45.6898 42.9137 47.7633C39.3804 48.3368 34.8622 47.0909 31.9315 45.062C28.623 42.7295 26.3817 39.1736 25.7046 35.1825C24.5397 28.5741 27.4227 21.9143 33.3734 18.663C35.4988 17.5015 37.1052 17.1973 39.4685 16.7802C37.5933 15.0833 33.3865 10.7878 31.8218 8.94079ZM41.5964 41.8729C53.4938 40.4357 52.3991 22.351 40.4731 22.7281C28.4219 23.6292 30.0284 42.762 41.5964 41.8729Z" fill="var(--fill-0, white)"/>
<path id="Vector_3" d="M173.499 0.0117188L180.132 0.0147347L180.162 28.9047C183.77 25.1427 188.288 21.4559 191.879 17.6355L200.268 17.637L191.509 25.7372C189.948 27.1782 187.807 29.2603 186.189 30.5221L196.495 40.8563C198.323 42.7146 200.586 45.1328 202.499 46.8184C199.579 46.7664 196.544 46.8117 193.616 46.8159L180.142 32.9832C180.037 37.4322 180.139 42.3203 180.144 46.8038L173.519 46.8138L173.499 0.0117188Z" fill="var(--fill-0, white)"/>
<path id="Vector_4" d="M151.777 16.8395C157.966 16.2252 162.665 18.8691 163.909 25.2558C164.534 28.4587 164.343 31.4864 164.338 34.728C164.311 38.7514 164.316 42.7752 164.353 46.7986L157.623 46.8136L157.606 35.0994C157.606 32.114 157.953 28.4385 156.827 25.6603C155.434 22.219 150.918 22.0577 147.98 23.4586C143.806 26.3002 144.534 31.6721 144.548 36.1273L144.563 46.8074L137.873 46.8024L137.871 17.6346L144.251 17.6301C144.236 18.9198 144.302 20.1125 144.369 21.3999C146.074 18.4054 148.519 17.3354 151.777 16.8395Z" fill="var(--fill-0, white)"/>
<path id="Vector_5" d="M77.8526 16.8507C81.0511 16.5179 84.7229 17.031 87.1101 19.3582C91.0997 23.2478 90.4646 29.041 90.4937 34.1051C90.518 38.3377 90.414 42.5712 90.5357 46.8023L83.9157 46.8222C83.8604 42.2987 84.5207 29.0236 83.0172 25.7386C82.4288 24.4532 81.4819 23.3724 80.1241 22.8909C78.2545 22.2275 75.8818 22.6671 74.1364 23.4845C73.7215 23.7838 73.3312 24.1158 72.9693 24.4773C70.2336 27.1937 70.7197 32.5112 70.7301 36.1069L70.7375 46.8043L64.1577 46.8142L64.1543 17.6308C66.2449 17.6154 68.3743 17.6435 70.4683 17.6514C70.5197 18.872 70.5167 20.1963 70.5381 21.4264C70.6087 21.3116 70.6817 21.1986 70.7572 21.0872C72.7043 18.1809 74.5793 17.4921 77.8526 16.8507Z" fill="var(--fill-0, white)"/>
<path id="Vector_6" d="M15.6209 0.605277C18.5117 0.287191 20.9013 0.785346 23.6225 1.65552L22.9999 7.10236C12.3458 4.10591 11.971 9.44086 12.0478 18.1478L20.2977 18.1376L20.3001 23.6246L12.0474 23.6378C11.9704 29.5369 12.0382 35.5878 12.036 41.4993L12.0446 46.8056L5.52489 46.8064C5.61551 39.1353 5.53411 31.3083 5.55354 23.6223L0.00301594 23.6353L0 18.1399L5.52422 18.1379C5.4676 10.1045 5.45772 2.0071 15.6209 0.605277Z" fill="var(--fill-0, white)"/>
</g>
</svg>
