<svg preserveAspectRatio="none" width="100%" height="100%" overflow="visible" style="display: block;" viewBox="0 0 93 48" fill="none" xmlns="http://www.w3.org/2000/svg">
<g id="Frame 2147237746" opacity="0.7">
<path id="Vector" d="M62.0564 29.9303C66.9129 29.6204 71.1023 33.2985 71.4208 38.1506C71.7394 43.0027 68.0663 47.1959 63.2113 47.5224C58.3449 47.8505 54.1363 44.1685 53.8171 39.3045C53.4978 34.4406 57.1892 30.241 62.0564 29.9303ZM63.2908 46.8791C67.7965 46.5353 71.1675 42.6024 70.8153 38.1003C70.463 33.5982 66.5209 30.2368 62.016 30.5979C57.5244 30.9579 54.1723 34.8843 54.5238 39.3739C54.8752 43.8635 58.7974 47.2214 63.2908 46.8791Z" fill="var(--fill-0, white)"/>
<path id="Vector_2" d="M40.8461 30.3264C40.5891 30.257 40.404 30.2338 40.2029 30.0637C40.3154 29.937 40.45 29.937 40.656 29.9331C44.1653 29.8669 46.4859 29.5823 49.2829 32.0423C50.9919 33.5478 52.028 35.6735 52.1603 37.9464C52.3258 40.6289 51.7325 42.8133 49.9031 44.8394C47.5127 47.4868 44.7648 47.6808 41.4706 47.5677C41.0742 47.57 40.4581 47.7782 40.1631 47.4973L40.1929 47.3775C40.3977 47.2659 40.519 47.2105 40.7348 47.1213C40.9825 46.6375 40.87 43.9351 40.8687 43.2209L40.8688 36.2552C40.87 35.3843 40.9517 30.8315 40.8461 30.3264ZM41.9185 46.9566C42.1249 47.2442 42.8694 47.1258 43.2327 47.1401C52.8081 47.5295 54.0746 32.4057 45.0791 30.4455C44.4527 30.309 42.3766 30.1441 41.8787 30.4771C41.9668 34.2388 41.8618 38.3886 41.8661 42.1811C41.8642 43.1333 41.871 44.0854 41.8865 45.0374C41.8971 45.4559 41.9727 46.6105 41.9185 46.9566Z" fill="var(--fill-0, white)"/>
<path id="Vector_3" d="M40.8461 30.3301C41.1393 30.0016 41.4243 30.0466 41.772 30.2753L41.8787 30.4809C41.9668 34.2426 41.8618 38.3924 41.8661 42.1849C41.8642 43.137 41.871 44.0891 41.8865 45.0412C41.8971 45.4597 41.9727 46.6143 41.9185 46.9603C41.7121 47.1071 41.5613 47.337 41.4706 47.5715C41.0742 47.5737 40.4581 47.7819 40.1631 47.5011L40.1929 47.3812C40.3977 47.2696 40.519 47.2142 40.7348 47.1251C40.9825 46.6413 40.87 43.9389 40.8687 43.2246L40.8688 36.259C40.87 35.3881 40.9517 30.8353 40.8461 30.3301Z" fill="var(--fill-0, white)"/>
<path id="Vector_4" d="M51.5369 0.00585938C53.3045 0.0367918 54.6682 1.00281 55.4022 2.58988C56.6062 5.19292 52.7041 7.59322 50.7411 8.39507C49.4855 8.88505 48.6396 9.07528 47.3946 8.57317C45.8842 6.12914 48.626 0.422436 51.5369 0.00585938ZM50.782 7.74788C52.1545 7.15358 54.3036 5.7563 54.8659 4.34284C55.6331 2.41395 53.2225 0.341398 51.3769 0.517256C49.9264 1.03644 48.9981 2.50083 48.3799 3.84223C47.3294 6.12172 46.5036 9.49628 50.404 7.91932C50.5328 7.86839 50.6589 7.81117 50.782 7.74788Z" fill="var(--fill-0, white)"/>
<path id="Vector_5" d="M37.5252 0.000667454C39.8143 -0.0420987 40.8912 1.97817 41.8112 3.78506C42.4818 5.1022 42.8716 6.94369 42.3595 8.37707C41.192 9.08335 40.6479 8.8612 39.359 8.56499C36.9915 7.73048 32.3644 4.97855 34.5707 1.87998C35.2957 0.861909 36.2897 0.211353 37.5252 0.000667454ZM39.4609 7.98671C43.8145 9.5206 41.6754 4.52437 40.6212 2.72153C39.934 1.54647 39.0209 0.522025 37.5837 0.511689L37.5167 0.511989C36.4066 0.866776 35.3819 1.49786 34.8513 2.57855C33.5754 5.17687 37.5588 7.22254 39.4609 7.98671Z" fill="var(--fill-0, white)"/>
<path id="Vector_6" d="M29.5401 31.315C29.3609 30.1875 28.9128 30.4751 28.7695 29.9903C29.1278 29.9029 30.5567 29.8713 31.0604 29.8301C30.8602 30.0587 30.6572 30.2846 30.4512 30.508C30.7085 31.4362 31.3315 32.8688 31.6964 33.8028C32.4776 35.8313 33.2762 37.8532 34.0921 39.8681L35.3975 43.1702C35.5916 43.6638 35.8943 44.5071 36.1272 44.9483C36.2446 45.1743 36.3258 45.4284 36.5183 45.5659L36.5668 45.574C36.6346 46.1593 36.657 46.4765 36.8845 47.0195C37.1913 47.1303 37.3927 47.2067 37.6917 47.352L37.7118 47.4404C37.4138 47.6411 35.5363 47.7654 35.335 47.5273C35.3936 47.2696 35.5984 47.1326 35.8022 46.9423C35.4656 46.3199 34.6473 44.0328 34.3338 43.234L31.3174 35.5849C31.1251 35.0872 30.317 32.8272 30.106 32.4891L29.8639 32.3966C29.6605 32.1165 29.6165 31.6772 29.5401 31.315Z" fill="var(--fill-0, white)"/>
<path id="Vector_7" d="M35.8022 46.9395C36.0517 47.3035 36.3136 47.5237 36.7602 47.4061C36.8755 47.284 36.8653 47.1859 36.8845 47.0166C37.1913 47.1274 37.3927 47.2038 37.6917 47.3491L37.7118 47.4375C37.4138 47.6382 35.5363 47.7626 35.335 47.5244C35.3936 47.2668 35.5984 47.1297 35.8022 46.9395Z" fill="var(--fill-0, white)"/>
<path id="Vector_8" d="M0.648052 30.2967C0.89687 30.0055 1.38716 29.9382 1.69526 30.1642L1.73858 30.3884C1.56868 33.1813 1.65876 36.0566 1.70358 38.8541C1.70808 39.1351 1.79037 39.4658 1.78999 39.723L1.72966 40.1831C1.6072 41.8057 1.56508 45.3569 1.83579 47.0189C1.86299 47.1859 2.11788 47.2653 2.29662 47.3499L2.30127 47.4368C1.96477 47.6345 0.233529 47.8315 0 47.4877C0.131829 47.2623 0.608631 47.1103 0.646778 47.0002C0.772236 46.6384 0.674433 45.5284 0.675557 45.1497L0.679155 38.6249C0.68635 36.1062 0.798317 32.7074 0.648052 30.2967Z" fill="var(--fill-0, white)"/>
<path id="Vector_9" d="M85.1293 30.3602C84.8497 30.2825 84.801 30.2732 84.5522 30.134L84.5215 30.0177L84.6407 29.9192C85.145 29.8987 86.2115 29.8393 86.6477 29.9763L86.6994 30.0857C86.5413 30.3085 86.3442 30.3328 86.0736 30.4213C86.177 31.6158 86.1036 33.4813 86.1036 34.7465L86.1028 42.8274C86.0991 43.9318 86.0601 46.0568 86.1808 47.116L86.1598 47.435C85.8997 47.6095 85.7986 47.447 85.5213 47.5496C85.2147 47.6283 84.9067 47.7638 84.6669 47.5084C84.7793 47.2246 84.8572 47.2373 85.1345 47.0366L85.1293 30.3602Z" fill="var(--fill-0, white)"/>
<path id="Vector_10" d="M18.5711 47.0202C18.6306 46.0923 18.5797 44.7735 18.5754 43.8197L18.5798 38.4247L18.5823 33.3956C18.5817 32.5161 18.6223 31.5073 18.4997 30.638C18.4349 30.1789 18.1012 30.3167 17.9144 29.8947L17.9814 29.8125L18.1692 29.8984C18.6518 30.2566 19.4736 29.7962 19.6637 30.217L19.6009 30.3889C19.5709 31.9468 19.5529 33.505 19.547 35.0632C19.5498 36.1563 19.5991 37.43 19.5584 38.5065L19.6078 38.8857C19.4879 39.6867 19.5136 46.7505 19.706 47.1827C19.6616 47.3257 19.6405 47.4306 19.5532 47.5534C19.1995 47.5527 18.0472 47.695 17.8799 47.468C18.0205 47.2374 18.3111 47.1445 18.5711 47.0202Z" fill="var(--fill-0, white)"/>
<path id="Vector_11" d="M74.1658 47.1193C74.3322 46.771 74.2849 45.1729 74.2842 44.6959L74.2715 40.848C74.2677 39.8171 74.3516 30.6726 74.1583 30.3776C73.9642 30.2681 73.8083 30.2142 73.7139 30.0202C73.923 29.8832 75.6624 29.8373 75.8468 30.1206C75.6647 30.3171 75.5343 30.3056 75.2495 30.3918C75.2442 35.896 75.3244 41.6117 75.2495 47.0886C74.8875 47.3904 74.4955 47.6825 74.1658 47.1193Z" fill="var(--fill-0, white)"/>
<path id="Vector_12" d="M0.649381 30.2961C0.468538 30.2851 0.344878 30.2896 0.170105 30.2433L0.0729771 30.0471L0.121541 30.2239L0.0234375 30.0621C0.442531 29.7258 7.17576 29.8134 8.06559 29.9192C15.2432 30.7724 15.3486 40.6238 8.33622 42.1089C8.00511 42.179 6.34619 42.3029 6.22111 42.3849L5.90941 42.2062C5.8975 42.0491 5.9346 42.0049 5.99778 41.8589C8.57822 41.9646 10.8083 40.9448 11.9325 38.5317C12.6352 37.0394 12.7128 35.3284 12.1479 33.7787C11.5685 32.1945 9.70427 30.3603 8.0147 30.3539C6.89165 30.3496 2.59354 30.0715 1.73991 30.3878L1.69659 30.1636C1.38849 29.9376 0.898199 30.0049 0.649381 30.2961Z" fill="var(--fill-0, white)"/>
<path id="Vector_13" d="M44.7828 1.66406L44.9222 1.78705C45.6043 3.81623 45.7356 16.806 45.0269 18.6C44.9734 18.5718 44.8422 18.5208 44.833 18.462C44.2668 14.8424 44.2431 10.8147 44.3132 7.17611C44.3494 5.29702 44.3311 3.32947 44.7828 1.66406Z" fill="var(--fill-0, white)"/>
<path id="Vector_14" d="M1.78885 39.7207C2.99457 40.2893 4.9292 41.5818 5.9953 41.8572C5.93212 42.0033 5.89502 42.0474 5.90694 42.2045L6.21864 42.3832C8.54036 44.0922 11.0803 46.8511 13.907 47.451C14.819 47.6443 15.7507 47.3155 16.2971 47.3844L16.375 47.4892C16.2034 47.7169 15.7463 47.8907 15.4697 47.9311C11.0964 48.5625 7.42818 44.5258 4.38293 41.9595C3.57667 41.2801 2.62269 40.7068 1.72852 40.1808L1.78885 39.7207Z" fill="var(--fill-0, white)"/>
<path id="Vector_15" d="M42.4354 10.5059C42.5085 10.5798 42.5746 10.6031 42.5554 10.7024C42.1711 12.6105 41.5881 14.5316 40.1618 15.9359C38.259 17.8091 35.7911 17.9168 33.2876 17.9016C33.2278 17.8247 33.2511 17.8357 33.2314 17.7155C33.4223 17.5025 33.8918 17.5202 34.1979 17.4585C37.2543 16.843 39.4666 15.1512 41.2264 12.6119C41.6626 11.9825 41.8992 11.2434 42.3784 10.5832L42.4354 10.5059Z" fill="var(--fill-0, white)"/>
<path id="Vector_16" d="M47.1516 10.4941C47.5019 10.7061 48.3297 12.4791 48.6681 12.9616C50.0951 14.9973 52.1157 16.5614 54.5482 17.1781C54.9679 17.2845 55.8836 17.5062 56.2285 17.6961L56.2496 17.8443C52.7953 18.2123 49.1843 17.0585 47.9636 13.5232C47.7479 12.8988 47.0681 11.0968 47.1516 10.4941Z" fill="var(--fill-0, white)"/>
<path id="Vector_17" d="M36.1793 30.373C35.9463 30.2729 35.762 30.2298 35.6309 30.0245L35.6785 29.9389C36.0309 29.8816 36.9503 29.8429 37.2799 29.953C37.2683 30.2488 36.8706 30.3327 36.6234 30.4177C36.8506 34.5459 36.5585 38.8634 36.6962 43.0074C36.7236 43.8341 36.5467 44.7386 36.5673 45.5746L36.5188 45.5664C36.3263 45.429 36.2451 45.1749 36.1277 44.9489C36.367 44.4452 36.1871 41.9928 36.223 41.2657C36.3333 39.0317 36.2585 36.7396 36.2821 34.5007C36.2799 33.2273 36.336 31.608 36.1793 30.373Z" fill="var(--fill-0, white)"/>
<path id="Vector_18" d="M29.54 31.8398C29.8673 32.8769 29.5418 35.7625 29.7991 37.0537C29.8753 36.743 29.8987 36.3352 29.9724 36.1095C29.9746 39.3202 29.8601 42.6718 29.9756 45.8626L29.8569 45.5354L29.7824 45.5622C29.7448 45.8266 29.6855 46.4044 29.6077 46.6119C29.5726 45.5087 29.6347 44.3781 29.6125 43.2741C29.5361 39.468 29.6127 35.6448 29.54 31.8398Z" fill="var(--fill-0, white)"/>
<path id="Vector_19" d="M75.2495 47.0914C75.9997 47.2599 80.6718 47.2914 81.3043 47.0435C81.7428 46.6435 81.6596 46.1548 82.0238 45.9023C82.2591 46.1092 82.089 47.0659 81.9496 47.3333C81.8065 47.4472 81.7368 47.5333 81.5411 47.5333C79.1032 47.5363 76.295 47.7662 73.8937 47.6322L73.7783 47.5213C73.8495 47.2921 73.9402 47.2292 74.1658 47.1221C74.4955 47.6853 74.8875 47.3932 75.2495 47.0914Z" fill="var(--fill-0, white)"/>
<path id="Vector_20" d="M18.1699 29.8967C19.424 30.0107 25.6901 29.499 26.2498 30.1507C26.4377 30.3695 26.4404 31.1612 26.3823 31.4236C26.3648 31.5024 26.3512 31.5157 26.3144 31.5759C26.0123 31.3303 25.9546 30.7245 25.7561 30.3753C24.9507 30.3086 20.2467 30.1837 19.6017 30.3872L19.6644 30.2154C19.4743 29.7945 18.6526 30.2549 18.1699 29.8967Z" fill="var(--fill-0, white)"/>
<path id="Vector_21" d="M92.3907 47.0726C92.4627 46.7453 92.5429 46.1175 92.8644 45.9551C93.1364 46.2398 92.9221 47.1535 92.8644 47.5467C91.2156 47.5954 89.5668 47.6141 87.918 47.6021C87.4391 47.6021 85.9619 47.6261 85.5205 47.5497C85.7978 47.4471 85.899 47.6096 86.159 47.4351L86.18 47.1161C87.2293 47.2119 91.3782 47.2441 92.3907 47.0726Z" fill="var(--fill-0, white)"/>
<path id="Vector_22" d="M25.6946 47.054C25.8573 46.6668 25.9678 46.2788 26.2573 45.9961L26.3479 46.0298C26.438 46.4084 26.3706 47.1102 26.3555 47.5296C24.927 47.5835 23.4814 47.5858 22.0516 47.5745C21.357 47.5686 20.2007 47.6277 19.5527 47.5543C19.64 47.4315 19.6612 47.3266 19.7055 47.1836C21.3519 47.1491 24.1991 47.3027 25.6946 47.054Z" fill="var(--fill-0, white)"/>
<path id="Vector_23" d="M19.5586 38.5105C20.2422 38.5116 22.9842 38.3618 23.3442 38.7014C22.8945 39.0908 20.2735 38.9793 19.608 38.8897L19.5586 38.5105Z" fill="var(--fill-0, white)"/>
<path id="Vector_24" d="M29.5415 31.3125C29.6178 31.6747 29.6618 32.114 29.8652 32.3942L30.1073 32.4867C29.8321 32.9966 30.0479 35.3116 29.9724 36.1072C29.8987 36.3329 29.8753 36.7407 29.7991 37.0514C29.5418 35.7602 29.8673 32.8746 29.54 31.8375L29.5415 31.3125Z" fill="var(--fill-0, white)"/>
<path id="Vector_25" d="M29.6081 46.6097C29.6859 46.4022 29.7452 45.8244 29.7828 45.56L29.8573 45.5332L29.976 45.8604C29.9725 46.2539 29.9656 46.6217 29.9921 47.0149C30.2151 47.2051 30.4194 47.2381 30.5384 47.4141C30.3244 47.6665 29.0953 47.7197 28.8132 47.5489L28.8076 47.4283C29.2714 47.1916 29.6103 47.1669 29.6081 46.6097Z" fill="var(--fill-0, white)"/>
</g>
</svg>
