<svg preserveAspectRatio="none" width="100%" height="100%" overflow="visible" style="display: block;" viewBox="0 0 108 48" fill="none" xmlns="http://www.w3.org/2000/svg">
<g id="Frame 2147237747" opacity="0.7">
<path id="Vector" d="M35.0811 24.7271C35.047 25.8262 35.0601 27.0213 34.9294 28.1094C34.8399 28.855 34.3621 29.4575 33.5547 29.3527C31.0292 29.0734 28.8056 28.0022 27.1355 26.0477C25.4614 24.0832 24.647 21.5271 24.8758 18.955C25.0929 16.3417 26.2719 14.1406 28.2624 12.453C30.1606 10.8453 32.6233 10.0669 35.0996 10.292C44.3041 11.1592 47.1106 23.1105 39.2816 27.9123C38.5187 28.3803 37.7057 28.6483 36.9216 29.0572C35.7549 28.8818 35.9523 26.0731 35.7019 25.0624C35.4716 23.7535 33.9263 19.3957 34.3096 18.5968C34.9273 18.7148 35.0225 19.1865 35.7799 19.5112C36.453 18.9218 35.1131 17.6892 34.6916 17.2098C35.6702 16.96 36.048 16.8996 37.0556 16.8156C37.682 17.0952 38.402 17.5009 39.0172 17.8265C38.1458 16.5678 37.8699 16.1701 36.6226 15.2938C36.178 15.6588 35.1752 16.5665 34.6806 16.6551L34.4508 16.4545C34.002 14.8894 35.2403 14.6743 35.9986 13.9518L35.4553 13.3294C35.1068 13.2873 34.8319 12.8372 34.6346 12.5794C32.4907 12.3009 33.4909 15.3647 31.9721 15.0846C29.8826 14.6991 29.7139 14.4826 28.3573 16.5205C28.9758 16.1367 30.5146 15.2075 31.0807 15.8953C30.9416 17.8918 28.9707 16.7104 30.9649 19.6543C31.3446 18.8158 31.4467 18.1717 32.4164 17.9545C32.9571 18.3262 33.0807 18.4072 33.481 18.9183C34.3747 20.9581 34.8283 22.4877 35.0811 24.7271Z" fill="var(--fill-0, #FBFBFB)"/>
<path id="Vector_2" d="M47.4397 11.2892C48.9669 11.0709 48.3042 12.5547 48.2646 13.5392C48.2441 14.0472 48.1061 14.713 48.0349 15.2343C49.6091 13.6983 51.3229 12.4216 53.4269 11.7273C59.5274 9.71527 61.0972 17.4128 58.7466 21.5182C57.1962 24.2258 54.6159 26.0327 51.6645 26.9045C49.929 27.3132 49.4272 27.4381 47.6026 27.3811C47.4902 29.0108 47.5857 31.7499 46.9673 33.128C46.6256 33.8897 45.8401 34.0287 45.0794 34.2593C44.5933 27.8128 44.9476 21.3763 44.5819 14.9384C44.5128 13.7218 42.888 13.0305 42.0329 12.4941L42.0059 12.2956C42.6518 11.7856 46.4463 11.4109 47.4397 11.2892ZM52.22 24.7065C58.9771 23.4392 58.9288 14.8801 53.1407 14.0593C49.57 14.736 48.4995 19.4988 47.9607 22.5396C47.8448 23.1935 47.8188 24.0029 48.2724 24.5332C48.9958 24.9475 51.3527 24.8196 52.22 24.7065Z" fill="var(--fill-0, #FBFBFB)"/>
<path id="Vector_3" d="M98.316 10.3945C99.1267 10.8471 100.027 10.8012 100.704 11.5618C101.128 12.7235 100.349 20.5508 100.48 22.5028C100.511 22.9653 100.668 26.6321 100.566 26.9689C99.9839 27.4204 98.494 26.4597 98.2536 26.0723C97.2908 24.5215 97.2773 22.7822 97.3971 21.0148C96.1102 22.6313 94.4305 24.7975 92.8783 26.0776L92.8021 26.1207C91.7347 26.7134 90.9444 27.0766 89.7041 27.1296C86.394 27.2713 85.1746 25.1714 85.0173 22.2459C84.7083 16.5003 88.351 12.6394 93.7986 11.5713C95.093 11.3175 96.4358 11.3641 97.6897 11.0258C97.792 10.9967 98.1978 10.5225 98.316 10.3945ZM90.4411 23.8703C91.0704 23.8504 91.7509 23.8429 92.3745 23.8041C95.857 21.4397 96.8942 18.1934 97.331 14.148C96.3453 14.0055 95.4068 13.8431 94.41 13.8368C92.0832 13.9161 91.09 14.0805 89.2857 15.8174C87.0935 17.9279 86.4102 23.4503 90.4411 23.8703Z" fill="var(--fill-0, #FBFBFB)"/>
<path id="Vector_4" d="M15.7142 4.61133L16.1763 4.71671L16.2756 4.94154C15.5096 7.20735 11.8106 7.4694 9.75519 7.49015C9.88173 9.56099 9.57019 25.8499 9.20969 26.7271C8.96544 27.3218 7.09072 27.8256 6.45694 28.1186C6.19128 26.369 6.23355 24.3899 6.19783 22.6095C6.06567 21.1072 6.08266 19.2085 6.02019 17.6462L5.64191 7.60197C4.71638 7.62942 0.851102 7.92548 0.302664 7.43445C0.109908 7.26185 0.044094 6.93793 0.0218889 6.68713C-0.023725 6.17387 -0.0300104 5.52643 0.331156 5.1203C0.642294 4.77027 14.3055 4.64494 15.7142 4.61133Z" fill="var(--fill-0, #FBFBFB)"/>
<path id="Vector_5" d="M106.598 3.2513C106.865 3.20899 107.686 3.19078 107.996 3.17578C108.023 4.4219 107.826 5.69226 107.801 6.93369C107.683 12.8851 107.445 18.8345 107.375 24.7871C107.358 26.2271 106.607 27.6864 104.953 27.4909C104.635 27.1283 104.729 27.238 104.698 26.6622L104.034 6.39031C103.506 5.53666 102.51 4.55473 101.804 3.81116C103.53 3.55219 104.853 3.36753 106.598 3.2513Z" fill="var(--fill-0, #FBFBFB)"/>
<path id="Vector_6" d="M24.4561 11.4141L24.7338 11.531C25.1537 12.3001 24.7432 14.3886 24.5332 15.2634C16.7263 14.9959 18.1857 21.3644 16.8816 26.5098C16.7258 27.1243 15.477 27.7933 14.6544 27.3781C13.9058 26.3893 14.257 21.0322 14.2558 19.5014C14.2506 17.9525 14.2681 16.3454 14.1919 14.8029C13.6705 14.0725 12.005 12.9757 11.9678 12.3964C12.7159 11.8545 16.7794 11.5994 18.0133 11.4442C17.7714 13.4127 17.498 15.3772 17.1932 17.3369C19.296 13.9939 20.5132 12.3601 24.4561 11.4141Z" fill="var(--fill-0, #FBFBFB)"/>
<path id="Vector_7" d="M79.1481 11.2852C80.3147 11.324 81.7742 11.4204 82.9091 11.6405C82.9068 12.3394 82.7317 14.9741 82.5142 15.5708C81.8019 15.3868 80.9648 13.8935 80.25 13.6084C78.9205 13.0926 77.4422 13.1171 76.1304 13.6766C73.3229 14.8543 71.536 18.7504 72.7296 21.5984C74.2402 25.2031 79.0319 25.5802 82.2439 24.0801C82.6386 23.9459 82.6913 23.9289 83.1019 23.9897C83.3103 26.0479 69.9056 30.0911 69.2337 21.2411C69.0767 18.8898 69.8553 16.5719 71.3998 14.7933C73.6121 12.2048 75.9112 11.5295 79.1481 11.2852Z" fill="var(--fill-0, #FBFBFB)"/>
<path id="Vector_8" d="M65.9327 11.2969C66.3355 11.305 66.4242 11.29 66.7563 11.508C66.9413 12.2734 66.2472 25.7298 66.0345 26.6467C65.6252 26.9251 63.7385 27.369 63.257 27.2138C63.0207 26.8036 63.0839 26.3832 63.0881 25.8916C62.9852 22.0868 62.868 17.895 62.8642 14.118C62.1726 13.5825 60.7505 13.0616 60.5684 12.261C61.0573 11.5435 64.9696 11.3844 65.9327 11.2969Z" fill="var(--fill-0, #FBFBFB)"/>
<path id="Vector_9" d="M63.0502 9.19318C61.9104 8.65876 59.3277 8.48482 57.8227 7.66037C56.0016 6.66278 52.6589 2.42803 52.1367 0.723954C52.2099 0.306705 52.1338 0.464313 52.4778 0.135978C53.1398 -0.110006 53.6804 0.0305939 54.3484 0.146288C57.9037 0.762385 61.0028 2.60371 62.3208 6.1064C62.6155 6.88961 63.0347 8.14805 63.4657 8.8165L63.0502 9.19318Z" fill="var(--fill-0, #FBFBFB)"/>
<path id="Vector_10" d="M93.3107 38.8595C95.1481 38.2275 94.6442 40.7655 94.5524 41.7868C94.4343 43.0994 94.2807 44.2014 94.4762 45.5244C94.5452 45.9925 94.5166 46.2791 94.1 46.5233C93.0981 46.3038 92.9216 45.0619 93.0411 44.1825L92.9022 44.0595C92.2087 44.5205 91.6676 45.3794 90.7206 46.0565C86.8822 48.8653 85.8933 41.5333 89.3181 39.9278C91.04 39.1206 91.6199 39.303 93.3107 38.8595ZM90.4407 45.0205C91.576 44.2722 92.5219 43.1038 92.8037 41.771C93.1582 40.0957 91.9378 40.2465 90.9223 40.3021C87.9472 41.2801 87.163 45.0183 90.4407 45.0205Z" fill="var(--fill-0, #FBFBFB)"/>
<path id="Vector_11" d="M62.8535 38.8629C63.1271 38.7547 63.3084 38.7933 63.6109 38.8074C63.7401 38.8977 64.0523 39.0726 64.0412 39.2413C63.9694 40.3248 64.2489 45.984 63.3028 46.3529C62.3911 45.761 62.4335 44.633 62.4958 43.6981C61.7019 44.6113 61.106 45.3569 60.1136 46.0574C59.9868 46.1503 59.8804 46.2162 59.7302 46.2715C58.414 46.7752 57.3014 46.5892 56.8825 45.1068C56.2079 42.7202 57.46 40.1147 59.9009 39.4354C60.8656 39.1669 61.8346 39.1797 62.7485 38.8965L62.8535 38.8629ZM59.841 44.992C61.0188 44.2624 63.0083 42.1202 62.0945 40.5513C61.8129 40.0678 60.7249 40.2664 60.2131 40.3253C57.4982 41.3827 56.6873 44.993 59.841 44.992Z" fill="var(--fill-0, #FBFBFB)"/>
<path id="Vector_12" d="M45.6416 35.9285C46.3364 35.8697 47.971 35.6164 48.3937 36.0804C50.2144 38.0792 52.1047 42.5435 53.9761 44.3549C53.9757 43.7428 53.952 42.9477 54.0038 42.3518C54.4068 41.747 54.541 39.8093 54.6433 38.9956C54.7271 39.8201 54.6781 40.3896 55.1874 41.0061C55.197 42.3127 55.6332 46.0697 54.2368 46.6005C54.2057 46.5895 53.888 46.4777 53.888 46.4777C51.8157 43.6752 50.0865 40.6643 47.8066 38.0052C47.6134 40.7847 47.7588 45.6606 46.9037 47.9975C46.7052 46.2135 46.7208 44.0484 46.6921 42.2467C46.6468 39.4209 47.1861 38.4526 45.6416 35.9285Z" fill="var(--fill-0, #FBFBFB)"/>
<path id="Vector_13" d="M102.412 38.8377C103.496 38.7524 105.01 38.692 105.661 39.7212C105.779 40.1889 105.742 40.2711 105.6 40.7176C105.084 40.9148 101.935 38.7446 101.298 40.8398C101.759 42.0088 106.996 42.3685 105.744 44.8389C105.262 45.7906 104.259 46.1857 103.27 46.4077C102.306 46.5605 99.208 46.9155 98.9766 45.7005C99.6296 44.9705 102.63 45.9858 103.721 45.0507C103.925 44.4426 103.485 44.1801 102.944 43.9739C99.3474 42.6043 97.091 40.4832 102.412 38.8377Z" fill="var(--fill-0, #FBFBFB)"/>
<path id="Vector_14" d="M28.3564 16.5215C29.7131 14.4836 29.8818 14.7001 31.9713 15.0857C33.4901 15.3658 32.4899 12.3019 34.6338 12.5804C34.1339 13.7155 34.054 13.3616 33.6733 14.7799C34.2594 14.7323 34.9319 13.6853 35.4544 13.3304L35.9978 13.9528C35.2395 14.6754 34.0012 14.8904 34.45 16.4555L34.6798 16.6561C35.1743 16.5676 36.1772 15.6598 36.6218 15.2948C37.869 16.1711 38.145 16.5688 39.0163 17.8275C38.4012 17.502 37.6812 17.0962 37.0548 16.8166C36.0471 16.9006 35.6694 16.961 34.6908 17.2109C35.1123 17.6902 36.4522 18.9228 35.7791 19.5123C35.0217 19.1876 34.9265 18.7158 34.3087 18.5978C33.9255 19.3967 35.4708 23.7545 35.7011 25.0635L35.5197 25.1749L35.3144 25.0451L35.211 24.4846L35.0803 24.7282C34.8275 22.4887 34.3739 20.9591 33.4802 18.9194C33.5421 18.2342 33.7893 17.9781 33.4554 17.3568L33.0872 17.3615C32.7536 17.5886 32.6874 17.6556 32.4156 17.9555C31.4459 18.1727 31.3438 18.8168 30.9641 19.6553C28.9699 16.7114 30.9408 17.8928 31.0799 15.8963C30.5138 15.2086 28.975 16.1377 28.3564 16.5215Z" fill="var(--fill-0, white)" fill-opacity="0.0156863"/>
<path id="Vector_15" d="M72.2893 39.2734C72.7109 39.2384 72.8888 39.2284 73.3217 39.2566C73.4926 39.3941 73.6612 39.4907 73.6371 39.7201C73.5329 40.7083 73.2257 44.3755 73.6157 45.0946C75.4929 46.1583 76.969 41.533 77.4266 40.3596C77.682 39.7052 77.8147 39.3599 78.5405 39.2421L78.7924 39.4496C78.8622 39.6469 78.6843 44.1804 78.6558 44.811C78.6697 45.0913 78.6791 45.3718 78.684 45.6523C78.6917 46.2128 78.6771 46.544 78.2624 46.9709C77.0964 46.7126 77.407 44.1996 77.4934 43.345C76.5323 44.4591 74.9679 46.4508 73.4727 46.6654C71.5985 46.9346 72.1703 42.9198 72.1127 41.8959C72.0491 40.7693 71.959 40.5923 71.1583 39.837L71.1533 39.5902C71.4745 39.3221 71.8559 39.3295 72.2893 39.2734Z" fill="var(--fill-0, #FBFBFB)"/>
<path id="Vector_16" d="M97.2837 34.8605C97.807 34.762 97.9707 34.7833 98.2932 35.1637C98.0921 38.3071 98.0976 41.4521 97.9755 44.5986C97.9297 45.7729 98.0254 46.3758 96.7352 46.6904C96.5121 45.8889 96.6424 45.0767 96.5562 44.2852C96.2319 41.3044 97.2101 37.4421 95.2441 34.9999C95.995 34.9786 96.5287 34.9545 97.2837 34.8605Z" fill="var(--fill-0, #FBFBFB)"/>
<path id="Vector_17" d="M82.2132 38.7445L82.4771 38.8283C83.1375 39.649 82.2544 40.0879 82.5341 40.9783L82.5337 40.9674C83.2173 40.6928 85.3782 37.4817 86.2438 39.1617C86.1236 41.3728 83.9031 39.8748 82.6949 42.578L82.6382 42.7073C82.5372 43.5731 82.5153 46.4814 81.4144 46.4879C80.7684 45.7709 80.941 41.5614 80.6657 40.0055C80.3698 39.7603 79.789 39.3752 79.4561 39.1388C80.3495 38.9915 81.3112 38.8725 82.2132 38.7445Z" fill="var(--fill-0, #FBFBFB)"/>
<path id="Vector_18" d="M67.5261 36.9141C68.59 37.5216 68.2006 38.2028 67.9562 39.247C68.3585 39.2349 68.7608 39.2291 69.1633 39.2297C69.7247 39.2349 69.849 39.2794 70.2055 39.6429L70.1188 39.9107C69.2559 40.4982 68.7111 40.3826 67.6819 40.3498C67.6686 41.276 67.4915 44.7293 68.0203 45.358C68.5008 45.5974 69.1906 45.5539 69.7459 45.5627C69.7412 45.6567 69.6897 45.8427 69.666 45.943C65.7575 48.5566 66.6205 42.6898 66.5629 40.6171C66.5533 40.2712 65.8013 40.0963 65.54 39.7108C65.8238 39.0879 66.2202 39.3904 66.3666 39.1298C66.9784 38.0403 66.3301 37.8072 67.5261 36.9141Z" fill="var(--fill-0, #FBFBFB)"/>
<path id="Vector_19" d="M54.0059 42.3535C54.0127 41.0715 54.0255 36.906 54.5635 35.9166L54.7384 35.9062C55.2171 36.9059 55.1611 39.7855 55.1894 41.0078C54.6802 40.3913 54.7291 39.8218 54.6454 38.9973C54.5431 39.8111 54.4089 41.7487 54.0059 42.3535Z" fill="var(--fill-0, white)" fill-opacity="0.980392"/>
<path id="Vector_20" d="M34.6343 12.5801C34.8316 12.8378 35.1065 13.288 35.4549 13.3301C34.9324 13.6849 34.2599 14.7319 33.6738 14.7796C34.0545 13.3613 34.1344 13.7152 34.6343 12.5801Z" fill="var(--fill-0, white)" fill-opacity="0.984314"/>
<path id="Vector_21" d="M63.4682 8.81836C63.9492 9.13183 64.6432 9.71017 64.8396 10.2593L64.7988 10.5274C64.0379 10.4796 63.6925 9.70869 63.0527 9.19503L63.4682 8.81836Z" fill="var(--fill-0, white)" fill-opacity="0.956863"/>
</g>
</svg>
