<svg preserveAspectRatio="none" width="100%" height="100%" overflow="visible" style="display: block;" viewBox="0 0 208.501 47.8489" fill="none" xmlns="http://www.w3.org/2000/svg">
<g id="Frame 2147237752" opacity="0.7">
<path id="Vector" d="M118.741 4.88674C119.494 4.80156 123.591 4.5612 124.065 5.20596C124.968 6.43638 124.736 9.14506 124.734 10.7172L124.714 17.5608C125.006 17.2628 125.303 16.9693 125.604 16.6805C128.816 13.6201 137.397 14.4196 140.343 17.7457C143.938 21.803 143.205 27.2997 143.222 32.2997C143.23 34.5053 142.449 37.9438 140.836 39.4572C139.935 40.5314 138.795 41.3792 137.508 41.9322C133.903 43.4608 127.629 43.4402 123.921 41.9897C117.294 39.3977 117.464 33.3971 117.465 27.369L117.468 19.7557L117.469 11.8099C117.469 10.1595 117.007 5.59161 118.741 4.88674ZM132.084 36.1825C136.693 35.3751 135.934 32.3701 136.084 28.8023C136.328 23.0275 134.714 21.2635 128.97 21.749C124.25 22.596 124.87 24.9887 124.703 28.9639C124.449 35.0376 125.976 36.6691 132.084 36.1825Z" fill="var(--fill-0, white)"/>
<path id="Vector_2" d="M178.94 14.8623C178.984 14.8507 179.052 14.8317 179.098 14.8298C182.356 14.7006 186.088 14.9202 188.757 16.9857C190.804 18.5905 192.043 21.3799 192.294 23.9705C192.465 25.7503 192.509 28.4058 192.076 30.1556C192.016 30.3968 191.533 31.0227 191.364 31.2442C189.688 31.7121 187.424 31.5507 185.629 31.5477L178.696 31.5276C177.9 31.5249 176.049 31.4648 175.355 31.6409C175.223 31.8545 175.226 32.4081 175.27 32.6522C176.268 38.2539 186.187 35.8463 189.586 35.3093C189.653 35.3068 189.721 35.3055 189.787 35.3056C192.179 35.3084 191.581 38.8998 191.541 40.5579C190.603 42.302 187.914 42.8084 186.069 42.8974C181.344 43.1252 175.587 43.4933 171.611 40.5075C167.905 37.5836 168.004 33.176 168.046 28.964C168.085 25.1415 167.962 21.5587 170.51 18.4452C172.599 15.8922 175.843 15.1637 178.94 14.8623ZM182.521 25.6681L185.517 25.7071C185.572 20.8318 182.051 21.1829 178.406 21.2745C177.091 21.6882 176.431 22.0373 175.817 23.3158C175.518 23.9382 175.095 24.8653 175.341 25.5485C175.94 25.7897 181.488 25.6727 182.521 25.6681Z" fill="var(--fill-0, white)"/>
<path id="Vector_3" d="M59.8382 3.93097C60.8998 3.82142 64.1742 3.6044 65.0407 4.27168C65.3998 4.57308 65.6993 5.39267 65.7296 5.84925C65.9682 9.43856 65.6354 13.1704 65.8493 16.753C67.8971 14.6506 70.3599 14.0425 73.1719 13.9019C79.3096 13.5953 83.0569 16.7982 83.0832 23.0499C83.1055 27.8627 83.0605 32.7345 83.1062 37.5436C83.1408 41.1752 82.6174 41.6008 79.0948 41.6588C75.2507 41.7219 75.8536 39.3197 75.8601 36.5204L75.8679 29.5864C75.8582 28.6271 75.8727 27.6544 75.8866 26.6792C75.9134 24.7929 76.1113 21.9734 73.9109 21.1596C72.6987 20.7321 69.8212 20.7133 68.6859 21.297C64.1061 23.651 66.291 31.796 65.8056 36.0888C65.5636 38.2291 66.1656 38.8707 65.2689 41.1016C63.0506 41.8128 60.7109 42.1547 58.7708 40.6371C58.3991 38.5664 58.4055 6.098 58.7456 4.95126C58.8969 4.44112 59.4089 4.17501 59.8382 3.93097Z" fill="var(--fill-0, white)"/>
<path id="Vector_4" d="M0.0857589 24.218C0.0679523 24.0619 0.119649 22.7722 0.121027 22.5087L0.136192 17.7212C0.147221 15.367 0.146187 13.0127 0.13332 10.6586C0.108161 7.63975 -0.51392 0.546086 3.74484 0.0382378C6.16987 -0.294312 8.24841 1.61167 10.1102 3.06142C14.2364 6.27427 18.616 9.43493 22.6847 12.7142C23.1672 13.3225 24.2556 14.0487 24.8791 14.5638C28.323 17.4091 32.1369 18.7921 32.9367 23.5977L32.7641 23.9633C31.8712 24.1122 29.327 24.0078 28.283 24.0053L18.0007 24.0098C16.4783 24.009 13.3819 23.9292 12.036 24.1325C11.7679 24.0362 0.677168 24.0342 0.169737 24.1457L0.0857589 24.218Z" fill="var(--fill-0, white)"/>
<path id="Vector_5" d="M32.9358 23.5962C33.0681 23.7225 33.2667 23.873 33.4569 23.8805C37.2764 24.0315 41.156 23.8133 44.974 23.9118L44.9816 36.2955C44.9816 38.0853 45.0407 40.0897 44.9588 41.8093C44.6456 48.3802 40.7507 49.4486 35.9479 45.501C33.4633 43.4588 30.4604 41.4069 27.9132 39.3818C26.1061 38.0112 24.283 36.4156 22.4051 35.1561C22.111 34.6584 21.0123 33.9468 20.5082 33.5292C18.0642 31.5043 14.6801 29.6303 13.0058 26.9146C12.5031 26.0992 12.2642 25.0324 12.0352 24.1311C13.381 23.9277 16.4774 24.0075 17.9998 24.0083L28.2821 24.0038C29.3262 24.0063 31.8703 24.1107 32.7632 23.9619L32.9358 23.5962Z" fill="var(--fill-0, white)"/>
<path id="Vector_6" d="M94.6928 15.9173C95.4987 17.44 95.2576 19.0287 95.2499 20.7136L95.2209 28.5408C95.2137 31.0975 94.6104 35.186 97.8285 35.9681C100.224 36.5503 104.759 36.6532 105.245 33.4267C105.4 32.3922 105.331 30.8628 105.331 29.7791L105.319 21.3873C105.311 18.8804 104.503 15.2538 108.22 15.389C108.922 15.3134 111.788 15.4839 112.165 16.2157C112.815 17.4781 112.556 22.806 112.55 24.0669C112.55 27.9939 112.985 33.7583 111.777 37.3819C109.387 44.0847 98.8004 43.9539 93.407 41.7794C89.7725 40.314 88.1302 36.5859 88.0076 32.9098C87.8468 28.0842 88.0813 23.0191 87.9693 18.1712C87.9432 17.0398 88.3949 15.9542 89.4987 15.5455C91.1708 15.4088 93.1603 15.2732 94.6928 15.9173Z" fill="var(--fill-0, white)"/>
<path id="Vector_7" d="M150.616 8.40839C152.221 8.13837 153.737 8.29367 155.121 9.16522C155.651 11.0056 155.498 13.511 155.474 15.4553C157.764 15.5062 160.221 15.3602 162.505 15.5148C163.446 15.5786 163.86 15.8729 164.39 16.5778C164.66 18.376 164.874 20.4068 163.803 21.8787C162.304 22.4323 157.381 22.222 155.411 22.2705C155.907 25.8825 154.982 30.7906 155.724 34.4779C155.761 34.6589 156.18 35.3197 156.303 35.5152C159.342 37.3511 162.402 35.0624 165.067 35.9897C165.093 36.0182 165.165 36.0939 165.173 36.1298C166.537 41.9855 164.129 43.1925 158.673 43.0512C157.328 43.1442 156.116 42.9749 154.827 42.6704C151.152 41.803 148.598 39.0899 148.341 35.2228C148.125 31.9744 148.262 28.2671 148.258 24.933C148.243 21.6369 148.247 18.3409 148.271 15.0448C148.288 13.2954 148.163 10.7401 148.597 9.13085C149.332 8.66426 149.763 8.53069 150.616 8.40839Z" fill="var(--fill-0, white)"/>
<path id="Vector_8" d="M22.6846 12.7168C24.1841 11.1985 25.9926 9.95867 27.6703 8.64054C30.3339 6.56938 32.9551 4.47832 35.7419 2.57142C37.3973 1.43871 38.6294 0.0534459 40.8201 0.0295363C44.3721 -0.00920176 44.9898 4.66132 44.9891 7.37552L44.9747 23.9159C41.1568 23.8174 37.2771 24.0355 33.4577 23.8845C33.2674 23.877 33.0688 23.7266 32.9366 23.6002C32.1368 18.7946 28.3228 17.4117 24.8789 14.5663C24.2555 14.0512 23.1671 13.3251 22.6846 12.7168Z" fill="var(--fill-0, white)"/>
<path id="Vector_9" d="M0.0855438 24.2204L0.169522 24.148C0.676953 24.0365 11.7677 24.0385 12.0358 24.1348C12.2649 25.0362 12.5037 26.103 13.0065 26.9183C14.6807 29.634 18.0649 31.5081 20.5089 33.533C21.013 33.9506 22.1117 34.6622 22.4058 35.1599C22.3607 35.2111 22.314 35.2609 22.2659 35.3094C20.671 36.8992 18.3172 38.4461 16.5434 39.871C14.2857 41.6847 12.0855 43.3577 9.69662 45.0232C7.68471 46.6924 4.142 49.3373 1.7033 46.7947C-0.474846 44.5238 0.0561347 38.3523 0.0591216 35.3686L0.0855438 24.2204Z" fill="var(--fill-0, white)"/>
<path id="Vector_10" d="M198.101 4.86502C199.435 4.77364 201.546 4.78697 202.88 4.86169C203.353 5.21102 203.553 5.46943 203.936 5.92026C204.214 7.09895 204.107 10.4948 204.106 11.8839L204.091 26.2011C204.088 28.8377 203.738 33.429 204.769 35.6709C206.271 36.5104 207.62 36.0862 208.335 36.7588C208.617 37.4308 208.459 40.7293 208.444 41.6439C207.908 42.4417 207.822 42.5432 206.943 42.8928C205.063 43.2877 202.384 42.9478 200.685 42.0885C196.996 40.2234 196.82 36.2601 196.856 32.6333C196.872 31.0335 196.862 29.4016 196.865 27.7954L196.869 17.8626C196.871 14.4157 196.82 10.9616 196.884 7.51726C196.9 6.64835 197.127 5.1501 198.101 4.86502Z" fill="var(--fill-0, white)"/>
</g>
</svg>
