<svg preserveAspectRatio="none" width="100%" height="100%" overflow="visible" style="display: block;" viewBox="0 0 207 48" fill="none" xmlns="http://www.w3.org/2000/svg">
<g id="Frame 2147237750" opacity="0.7">
<path id="Vector" d="M41.7033 0.0351562L41.8654 0.133062C41.9383 0.934108 41.895 3.06627 41.8805 3.96722C41.8532 5.66616 41.9548 7.88181 41.816 9.52296C40.9515 10.1554 38.2747 11.5959 37.2255 12.1976L27.1922 17.9554C25.5609 18.8838 22.4529 20.5565 20.9769 21.619L34.2563 29.2552C36.4838 30.5247 39.8487 32.3145 41.8459 33.7015C41.9832 36.8215 41.7755 40.1164 41.899 43.2695C36.016 39.6297 29.731 36.3645 23.7811 32.7993C22.8939 32.2677 21.8805 31.702 20.9438 31.2684C20.9293 32.8497 20.9256 34.4311 20.9327 36.0124C19.1383 37.1422 17.0242 38.2879 15.1689 39.35L5.4846 44.9126C3.80505 45.8775 1.80097 46.962 0.212908 47.9976L0.119565 47.9733C-0.0762952 47.6962 0.0250914 39.5177 0.0350589 38.5533C0.959429 37.8163 4.52371 35.9029 5.794 35.1742L14.1062 30.3828C16.3238 29.1185 18.8241 27.7499 20.9707 26.3835C16.2 23.449 10.9635 20.7282 6.13485 17.8357C4.31566 16.746 1.7045 15.4154 0.016868 14.2436L0.0212969 4.74753L20.9703 16.7648C21.0985 15.5741 21.0531 13.1854 21.0699 11.9081L41.7033 0.0351562Z" fill="var(--fill-0, white)"/>
<path id="Vector_2" d="M157.997 0.0129614C158.221 -0.0111469 158.341 0.00295958 158.562 0.0183299C158.862 0.469754 158.675 11.9053 158.673 13.3993C159.642 12.7066 160.406 11.8153 161.516 11.1743C164.079 9.69405 167.248 9.40212 170.077 10.0992C172.954 10.8262 175.426 12.6563 176.954 15.1906C180.416 20.9116 178.878 29.0805 172.952 32.6391C168.594 35.0373 163.173 34.7935 159.512 31.2148C159.172 30.8837 158.844 30.5407 158.516 30.1994C158.278 31.2225 158.071 32.5761 157.896 33.6257L153.322 33.6244L153.302 0.44154C154.867 0.308156 156.433 0.165191 157.997 0.0129614ZM167.069 29.3001C171.113 28.7466 173.952 25.0479 173.428 21.0161C172.903 16.9841 169.212 14.1283 165.159 14.6198C161.063 15.1167 158.158 18.8425 158.688 22.9185C159.219 26.9946 162.982 29.8597 167.069 29.3001Z" fill="var(--fill-0, white)"/>
<path id="Vector_3" d="M192.361 9.80556C192.522 9.77113 193.26 9.7585 193.454 9.7624C197.342 9.84072 199.192 11.0607 201.761 13.6507C202.011 12.671 202.203 11.383 202.379 10.3641C203.838 10.2589 205.52 10.3253 206.999 10.3562L206.995 33.6449C205.513 33.5919 203.855 33.6293 202.361 33.6315C202.201 32.474 201.989 31.3245 201.723 30.1867C201.361 30.6207 200.961 31.0201 200.568 31.4264C198.825 33.0876 196.671 33.936 194.286 34.1632C191.231 34.4495 188.185 33.5152 185.821 31.5657C178.05 25.1541 181.21 10.7114 192.361 9.80556ZM195.296 29.2971C199.369 28.7343 202.209 24.9836 201.63 20.9289C201.053 16.8742 197.279 14.0578 193.209 14.6451C189.158 15.23 186.345 18.9696 186.92 23.0071C187.495 27.0444 191.241 29.8575 195.296 29.2971Z" fill="var(--fill-0, white)"/>
<path id="Vector_4" d="M93.0364 9.57163C99.923 8.69236 106.219 13.5465 107.09 20.4071C107.961 27.2676 103.076 33.5301 96.1871 34.3861C89.314 35.2399 83.0448 30.3893 82.1757 23.5452C81.3068 16.7011 86.1662 10.4487 93.0364 9.57163ZM95.5546 29.3247C99.6338 28.8235 102.533 25.1232 102.029 21.0603C101.526 16.9974 97.81 14.1106 93.7308 14.6127C89.6522 15.1146 86.7542 18.8145 87.2579 22.8768C87.7614 26.9392 91.4759 29.8259 95.5546 29.3247Z" fill="var(--fill-0, white)"/>
<path id="Vector_5" d="M131.273 14.1088C131.619 13.6182 132.115 12.9394 132.522 12.5056C134.099 10.8018 136.305 9.81076 138.631 9.76075C140.876 9.69043 142.85 10.2744 144.503 11.8199C147.622 14.7345 147.082 18.5921 147.133 22.4283C147.182 26.1442 147.017 29.9347 147.127 33.6533C145.383 33.6104 143.545 33.6364 141.787 33.6137C141.767 30.4175 141.762 27.2212 141.776 24.0249C141.776 22.0854 141.867 20.1501 141.567 18.229C140.978 14.4755 136.324 13.3664 133.783 15.9209C133.14 16.5788 132.681 17.3942 132.454 18.2851C131.984 20.0592 132.16 26.2991 132.166 28.5555L132.169 33.6252C130.719 33.5337 128.321 33.617 126.794 33.6259L126.78 24.6952C126.79 21.1812 127.653 14.5677 122.269 14.5798C116.403 14.5929 117.11 20.901 117.115 25.0001C117.123 27.8856 117.115 30.7711 117.091 33.6565C115.347 33.5836 113.508 33.6466 111.721 33.5882C111.843 31.1956 111.745 27.9595 111.746 25.5141L111.741 10.3314C113.225 10.2846 114.939 10.3728 116.441 10.4176C116.542 11.3215 116.703 12.2177 116.922 13.1005C118.875 11.1074 120.236 10.1448 123.066 9.80213C127.019 9.38586 129.173 11.0261 131.273 14.1088Z" fill="var(--fill-0, white)"/>
<path id="Vector_6" d="M67.7399 9.79878C70.137 9.34104 73.1998 10.3906 74.9054 12.1134C75.971 13.1912 76.7256 14.5348 77.0898 16.0033C77.5646 17.9404 77.4475 21.7628 77.4474 23.9179L77.4196 33.6411C75.6274 33.6209 73.835 33.6117 72.0427 33.6136C72.2755 29.0757 72.0265 23.9399 72.009 19.3707C71.992 14.9732 67.545 13.4786 63.8033 15.3883C60.6968 17.7592 61.3879 21.346 61.3884 24.8825C61.3985 27.8033 61.3919 30.7242 61.3687 33.6449C59.5673 33.6115 57.7657 33.6045 55.9642 33.624C55.9303 25.9158 56.0473 18.1069 55.9307 10.4143C57.5039 10.2751 59.0587 10.2403 60.631 10.4046C60.762 11.3436 60.9466 12.2744 61.184 13.1924C63.2706 11.059 64.6926 10.1583 67.7399 9.79878Z" fill="var(--fill-0, white)"/>
</g>
</svg>
