<svg width="161" height="40" viewBox="0 0 161 40" fill="none" xmlns="http://www.w3.org/2000/svg">
<path d="M0 34.9991V5.03906H29.96V28.5191L29.84 28.6511C28.336 30.1591 26.828 31.6631 25.32 33.1671C24.708 33.7791 24.096 34.3871 23.48 34.9991H0ZM19.724 16.5831H20.808C21.12 16.5831 21.208 16.6671 21.212 16.9871C21.212 17.5191 21.208 18.0551 21.208 18.5871C21.208 18.8991 21.316 19.0191 21.624 19.0191C22.752 19.0231 23.876 19.0231 25.004 19.0191C25.392 19.0151 25.48 18.9111 25.48 18.5231C25.48 16.8351 25.484 15.1511 25.484 13.4631C25.484 13.0031 25.396 12.9071 24.94 12.9071C23.008 12.9031 21.072 12.9071 19.14 12.9031C18.912 12.9031 18.712 12.9591 18.54 13.1271C17.664 14.0031 16.792 14.8871 15.9 15.7431C15.556 16.0711 15.44 16.4471 15.44 16.9031C15.444 20.3551 15.444 23.8071 15.444 27.2631C15.444 27.3551 15.448 27.4511 15.452 27.5431C15.476 27.8431 15.476 27.8431 15.784 27.8431C17.836 27.8431 19.892 27.8391 21.944 27.8471C22.196 27.8471 22.396 27.7711 22.572 27.5951C23.432 26.7391 24.296 25.8871 25.156 25.0311C25.352 24.8351 25.456 24.5991 25.456 24.3151C25.46 23.0071 25.468 21.7031 25.476 20.3951C25.476 20.0671 25.368 19.9671 25.04 19.9671C24.24 19.9671 23.44 19.9711 22.64 19.9711C22.292 19.9711 21.948 19.9631 21.6 19.9671C21.328 19.9671 21.228 20.0671 21.208 20.3351C21.204 20.4071 21.204 20.4831 21.204 20.5551C21.204 21.8071 21.204 23.0631 21.208 24.3151V24.5311H19.72C19.724 21.8871 19.724 19.2551 19.724 16.5831ZM4.516 12.9711V13.1751C4.516 16.6671 4.52 20.1591 4.52 23.6511C4.52 24.1631 4.672 24.6111 5.02 24.9831C5.812 25.8271 6.616 26.6631 7.416 27.5031C7.66 27.7591 7.944 27.8631 8.308 27.8631C10.276 27.8511 12.24 27.8551 14.208 27.8551C14.504 27.8551 14.512 27.8471 14.516 27.5391L14.564 19.4231C14.568 19.0231 14.492 18.9511 14.084 18.9511C13.024 18.9471 11.964 18.9471 10.904 18.9391C10.34 18.9351 10.256 19.0151 10.26 19.5791C10.268 20.9071 10.268 22.2311 10.272 23.5591C10.272 23.7551 10.256 23.9511 10.248 24.1431H8.816V17.4031H9.04C10.66 17.3991 12.28 17.3991 13.9 17.3951C13.96 17.3951 14.02 17.3991 14.08 17.3911C14.304 17.3631 14.5 17.2351 14.5 17.0911C14.508 16.3271 14.504 15.5591 14.504 14.7751C14.416 14.7671 14.316 14.7551 14.22 14.7551C12.732 14.7471 11.248 14.7431 9.76 14.7311C9.572 14.7311 9.388 14.7231 9.2 14.6991C8.94 14.6631 8.828 14.5631 8.804 14.3031C8.772 13.9991 8.768 13.6911 8.768 13.3871C8.764 13.0111 8.684 12.9191 8.296 12.9191H4.976C4.824 12.9271 4.68 12.9551 4.516 12.9711Z" fill="#BBBBBB"/>
<path d="M30.0009 28.5229C29.9889 28.5229 29.9769 28.5269 29.9609 28.5269V14.3589V5.04688C29.9729 5.05487 29.9969 5.05887 30.0009 5.06687C30.0049 5.11887 30.0009 5.17488 30.0009 5.22688V28.5229Z" fill="#BBBBBB"/>
<path d="M23.484 35C23.48 35.012 23.48 35.024 23.48 35.04H0.18C0.12 35.04 0.06 35.016 0 35H23.484Z" fill="#BBBBBB"/>
<path d="M43.5579 27.2713C41.9468 27.2713 40.7466 26.8849 39.9575 26.1122C39.1848 25.3231 38.7984 24.1312 38.7984 22.5364V11.6118L42.4975 10.2308V22.6597C42.4975 23.2187 42.6537 23.6379 42.9661 23.9174C43.2784 24.1969 43.7634 24.3367 44.421 24.3367C44.6676 24.3367 44.8978 24.312 45.1115 24.2627C45.3252 24.2134 45.539 24.1558 45.7527 24.0901V26.9014C45.539 27.0164 45.2348 27.1069 44.8403 27.1726C44.4621 27.2384 44.0347 27.2713 43.5579 27.2713ZM36.4557 17.2344V14.4231H45.7527V17.2344H36.4557ZM53.0108 27.2466C51.6134 27.2466 50.3968 26.9753 49.361 26.4328C48.3253 25.8738 47.5197 25.1011 46.9443 24.1147C46.3853 23.1283 46.1058 21.9939 46.1058 20.7116C46.1058 19.4128 46.3853 18.2784 46.9443 17.3084C47.5197 16.322 48.3171 15.5575 49.3364 15.015C50.3557 14.456 51.5394 14.1765 52.8875 14.1765C54.1863 14.1765 55.3124 14.4396 56.266 14.9657C57.2195 15.4917 57.9593 16.2233 58.4854 17.1604C59.0115 18.0975 59.2746 19.199 59.2746 20.465C59.2746 20.728 59.2664 20.9746 59.2499 21.2048C59.2335 21.4185 59.2088 21.624 59.1759 21.8213H48.276V19.3799H56.192L55.5508 19.8238C55.5508 18.8045 55.3042 18.0564 54.811 17.5797C54.3342 17.0865 53.6766 16.8399 52.8382 16.8399C51.8682 16.8399 51.1119 17.1687 50.5694 17.8263C50.0433 18.4839 49.7803 19.4703 49.7803 20.7855C49.7803 22.0679 50.0433 23.0214 50.5694 23.6462C51.1119 24.2709 51.9175 24.5833 52.9861 24.5833C53.578 24.5833 54.0876 24.4846 54.5151 24.2873C54.9425 24.0901 55.2631 23.7695 55.4769 23.3256H58.954C58.543 24.5422 57.836 25.5039 56.8332 26.2109C55.8468 26.9014 54.5726 27.2466 53.0108 27.2466ZM66.7463 27.2466C65.4311 27.2466 64.2721 26.9671 63.2692 26.4081C62.2663 25.8492 61.4772 25.0765 60.9018 24.0901C60.3428 23.1036 60.0633 21.9775 60.0633 20.7116C60.0633 19.4457 60.3428 18.3195 60.9018 17.3331C61.4772 16.3466 62.2663 15.5739 63.2692 15.015C64.2721 14.456 65.4311 14.1765 66.7463 14.1765C67.8478 14.1765 68.8343 14.382 69.7056 14.793C70.5934 15.1876 71.3168 15.7383 71.8757 16.4453C72.4511 17.1522 72.8211 17.9825 72.9855 18.936H69.4097C69.2288 18.3277 68.9 17.8674 68.4233 17.555C67.9629 17.2426 67.4204 17.0865 66.7957 17.0865C66.2038 17.0865 65.6859 17.2344 65.242 17.5303C64.8146 17.8263 64.4858 18.2455 64.2556 18.788C64.0255 19.3306 63.9104 19.9717 63.9104 20.7116C63.9104 21.4514 64.0255 22.0926 64.2556 22.6351C64.4858 23.1776 64.8146 23.5968 65.242 23.8928C65.6859 24.1887 66.2038 24.3367 66.7957 24.3367C67.4204 24.3367 67.9629 24.1805 68.4233 23.8681C68.9 23.5557 69.2288 23.0954 69.4097 22.4871H72.9855C72.8211 23.4407 72.4511 24.2709 71.8757 24.9778C71.3168 25.6848 70.5934 26.2437 69.7056 26.6548C68.8343 27.0493 67.8478 27.2466 66.7463 27.2466ZM74.4533 27V9.2444H78.1524V27H74.4533ZM83.2078 27V19.2073C83.2078 18.5168 83.027 17.9989 82.6653 17.6537C82.3201 17.3084 81.8104 17.1358 81.1363 17.1358C80.5609 17.1358 80.0431 17.2673 79.5827 17.5303C79.1388 17.7934 78.7854 18.1551 78.5223 18.6154C78.2757 19.0757 78.1524 19.6183 78.1524 20.243L77.8318 17.2098C78.2428 16.2891 78.8429 15.5575 79.6321 15.015C80.4376 14.456 81.4241 14.1765 82.5913 14.1765C83.9888 14.1765 85.0574 14.5711 85.7972 15.3602C86.537 16.1329 86.9069 17.1769 86.9069 18.4921V27H83.2078ZM94.9744 27.2466C93.6592 27.2466 92.5001 26.9671 91.4972 26.4081C90.4944 25.8492 89.7052 25.0765 89.1298 24.0901C88.5709 23.1036 88.2914 21.9775 88.2914 20.7116C88.2914 19.4457 88.5709 18.3195 89.1298 17.3331C89.7052 16.3466 90.4944 15.5739 91.4972 15.015C92.5001 14.456 93.6592 14.1765 94.9744 14.1765C96.0759 14.1765 97.0623 14.382 97.9337 14.793C98.8214 15.1876 99.5448 15.7383 100.104 16.4453C100.679 17.1522 101.049 17.9825 101.214 18.936H97.6377C97.4569 18.3277 97.1281 17.8674 96.6513 17.555C96.191 17.2426 95.6484 17.0865 95.0237 17.0865C94.4319 17.0865 93.914 17.2344 93.4701 17.5303C93.0426 17.8263 92.7138 18.2455 92.4837 18.788C92.2535 19.3306 92.1384 19.9717 92.1384 20.7116C92.1384 21.4514 92.2535 22.0926 92.4837 22.6351C92.7138 23.1776 93.0426 23.5968 93.4701 23.8928C93.914 24.1887 94.4319 24.3367 95.0237 24.3367C95.6484 24.3367 96.191 24.1805 96.6513 23.8681C97.1281 23.5557 97.4569 23.0954 97.6377 22.4871H101.214C101.049 23.4407 100.679 24.2709 100.104 24.9778C99.5448 25.6848 98.8214 26.2437 97.9337 26.6548C97.0623 27.0493 96.0759 27.2466 94.9744 27.2466ZM110.357 27C110.258 26.6383 110.184 26.252 110.135 25.841C110.102 25.4299 110.085 24.9532 110.085 24.4106H109.987V18.4674C109.987 17.9578 109.814 17.5632 109.469 17.2837C109.14 16.9878 108.647 16.8399 107.989 16.8399C107.364 16.8399 106.863 16.9467 106.485 17.1604C106.123 17.3742 105.885 17.6865 105.77 18.0975H102.243C102.408 16.9632 102.991 16.0261 103.994 15.2862C104.997 14.5464 106.37 14.1765 108.112 14.1765C109.921 14.1765 111.302 14.5793 112.255 15.3849C113.209 16.1905 113.686 17.3495 113.686 18.862V24.4106C113.686 24.8217 113.71 25.2409 113.76 25.6683C113.826 26.0793 113.924 26.5232 114.056 27H110.357ZM105.967 27.2466C104.718 27.2466 103.723 26.9342 102.983 26.3095C102.243 25.6683 101.873 24.8217 101.873 23.7695C101.873 22.6022 102.309 21.6651 103.18 20.9582C104.068 20.2348 105.301 19.7662 106.879 19.5525L110.554 19.0346V21.1801L107.496 21.6487C106.838 21.7473 106.353 21.9281 106.041 22.1912C105.729 22.4542 105.572 22.8159 105.572 23.2763C105.572 23.6873 105.72 23.9996 106.016 24.2134C106.312 24.4271 106.707 24.5339 107.2 24.5339C107.973 24.5339 108.63 24.3284 109.173 23.9174C109.715 23.49 109.987 22.9968 109.987 22.4378L110.332 24.4106C109.97 25.3477 109.419 26.0547 108.68 26.5314C107.94 27.0082 107.036 27.2466 105.967 27.2466ZM123.754 27.2466C122.554 27.2466 121.576 26.9671 120.82 26.4081C120.08 25.8492 119.644 25.0847 119.513 24.1147L119.71 24.0901V27H116.085V9.2444H119.784V17.2098L119.562 17.1604C119.743 16.2398 120.22 15.5164 120.992 14.9903C121.782 14.4478 122.768 14.1765 123.952 14.1765C125.086 14.1765 126.064 14.4478 126.886 14.9903C127.725 15.5164 128.366 16.2644 128.81 17.2344C129.27 18.2044 129.5 19.347 129.5 20.6622C129.5 21.9939 129.262 23.153 128.785 24.1394C128.308 25.1258 127.643 25.8903 126.788 26.4328C125.933 26.9753 124.922 27.2466 123.754 27.2466ZM122.719 24.2873C123.59 24.2873 124.297 23.975 124.839 23.3502C125.382 22.7255 125.653 21.8377 125.653 20.6869C125.653 19.5361 125.374 18.6565 124.815 18.0482C124.272 17.4399 123.557 17.1358 122.669 17.1358C121.814 17.1358 121.108 17.4481 120.549 18.0729C120.006 18.6812 119.735 19.5607 119.735 20.7116C119.735 21.8624 120.006 22.7502 120.549 23.3749C121.108 23.9832 121.831 24.2873 122.719 24.2873ZM138.994 27C138.895 26.6383 138.821 26.252 138.772 25.841C138.739 25.4299 138.723 24.9532 138.723 24.4106H138.624V18.4674C138.624 17.9578 138.452 17.5632 138.106 17.2837C137.777 16.9878 137.284 16.8399 136.627 16.8399C136.002 16.8399 135.5 16.9467 135.122 17.1604C134.761 17.3742 134.522 17.6865 134.407 18.0975H130.881C131.045 16.9632 131.629 16.0261 132.632 15.2862C133.634 14.5464 135.007 14.1765 136.75 14.1765C138.558 14.1765 139.939 14.5793 140.893 15.3849C141.846 16.1905 142.323 17.3495 142.323 18.862V24.4106C142.323 24.8217 142.348 25.2409 142.397 25.6683C142.463 26.0793 142.562 26.5232 142.693 27H138.994ZM134.604 27.2466C133.355 27.2466 132.36 26.9342 131.621 26.3095C130.881 25.6683 130.511 24.8217 130.511 23.7695C130.511 22.6022 130.946 21.6651 131.818 20.9582C132.706 20.2348 133.939 19.7662 135.517 19.5525L139.191 19.0346V21.1801L136.133 21.6487C135.476 21.7473 134.991 21.9281 134.678 22.1912C134.366 22.4542 134.21 22.8159 134.21 23.2763C134.21 23.6873 134.358 23.9996 134.654 24.2134C134.95 24.4271 135.344 24.5339 135.837 24.5339C136.61 24.5339 137.268 24.3284 137.81 23.9174C138.353 23.49 138.624 22.9968 138.624 22.4378L138.969 24.4106C138.608 25.3477 138.057 26.0547 137.317 26.5314C136.577 27.0082 135.673 27.2466 134.604 27.2466ZM144.722 27V9.2444H148.422V27H144.722Z" fill="#BBBBBB"/>
</svg>
