<svg width="154" height="40" viewBox="0 0 154 40" fill="none" xmlns="http://www.w3.org/2000/svg">
<path d="M17.0967 3C26.539 3 34.1933 10.6544 34.1934 20.0967C34.1934 29.539 26.539 37.1934 17.0967 37.1934C7.65442 37.1932 0 29.539 0 20.0967C9.98689e-05 10.6545 7.65449 3.00012 17.0967 3ZM24.0742 13.3047C23.4351 13.3047 22.4497 13.6516 17.71 15.6221C16.0589 16.3145 12.7298 17.7255 7.75 19.9092C6.95108 20.2287 6.5252 20.5486 6.44531 20.8682C6.36565 21.4539 7.2172 21.6402 8.28223 21.9863C9.16097 22.2792 10.3328 22.6259 10.9453 22.626C11.5045 22.626 12.1173 22.4128 12.8096 21.9336C17.4689 18.7919 19.8656 17.1934 20.0264 17.166C20.1329 17.1394 20.2665 17.1125 20.373 17.1924C20.4793 17.2721 20.4523 17.4316 20.4521 17.4854C20.3723 17.8581 15.9811 21.8246 15.7393 22.0928C14.7806 23.0781 13.6885 23.6911 15.3662 24.8096C16.8308 25.7682 17.6836 26.3809 19.1748 27.3662C20.1332 27.9786 20.9055 28.7244 21.8906 28.6445C22.3433 28.5913 22.8228 28.1648 23.0625 26.8867C23.6484 23.8775 24.7405 17.2991 25.0068 14.6094C25.0334 14.37 25.0061 14.0776 24.9795 13.9443C24.9529 13.8112 24.9 13.6244 24.7402 13.4912C24.5272 13.3314 24.2074 13.3047 24.0742 13.3047Z" fill="#BBBBBB"/>
<path d="M63.262 12.492C65.3116 12.492 66.8883 13.1226 67.9919 14.4628C69.0956 15.8029 69.6474 17.6161 69.6474 19.9811V21.3212H59.8722C59.951 22.5825 60.424 23.5285 61.1335 24.238C61.843 24.9475 62.789 25.3417 63.8927 25.3417C65.4693 25.3417 66.7306 24.711 67.6766 23.4497L69.4898 25.184C68.8591 26.0512 68.0708 26.7607 67.046 27.2336C66.0211 27.7066 64.9175 27.9431 63.6562 27.9431C61.5277 27.9431 59.7934 27.2336 58.4532 25.8935C57.1131 24.5533 56.4824 22.7402 56.4824 20.5329V20.1387C56.4824 18.6409 56.7977 17.3008 57.3496 16.1183C57.9014 14.9358 58.7685 13.9898 59.7934 13.3591C60.8182 12.8073 62.0007 12.492 63.262 12.492ZM57.0342 7.52554V10.3635H50.7276V27.7066H47.259V10.3635H41.0312V7.52554H57.0342ZM63.262 15.1723C62.316 15.1723 61.6065 15.4876 61.0547 16.1183C60.5029 16.7489 60.1087 17.6949 59.951 18.7986H66.3365V18.5621C66.2576 17.4584 65.9423 16.5913 65.4693 16.0394C64.9175 15.4088 64.208 15.1723 63.262 15.1723ZM75.2445 27.7066H71.8547V6.42188H75.2445V27.7066ZM84.7044 28.022C82.5759 28.022 80.8416 27.3125 79.5015 25.9723C78.1613 24.6322 77.5307 22.819 77.5307 20.6117V20.2176C77.5307 18.7197 77.846 17.3796 78.3978 16.1971C78.9497 15.0146 79.8168 14.0686 80.8416 13.438C81.8665 12.8073 83.0489 12.492 84.3103 12.492C86.3599 12.492 87.9366 13.1226 89.0402 14.4628C90.1439 15.8029 90.6957 17.6161 90.6957 19.9811V21.3212H80.9205C80.9993 22.5825 81.4723 23.5285 82.1818 24.238C82.8913 24.9475 83.8373 25.3417 84.9409 25.3417C86.5176 25.3417 87.7789 24.711 88.7249 23.4497L90.538 25.184C89.9074 26.0512 89.119 26.7607 88.0942 27.2336C87.0694 27.7855 85.9657 28.022 84.7044 28.022ZM84.3103 15.1723C83.3643 15.1723 82.6548 15.4876 82.103 16.1183C81.5511 16.7489 81.157 17.6949 80.9993 18.7986H87.3847V18.5621C87.3059 17.4584 86.9906 16.5913 86.5176 16.0394C85.9657 15.4088 85.2563 15.1723 84.3103 15.1723ZM92.3512 20.1387C92.3512 17.7738 92.903 15.9606 94.0066 14.5416C95.1103 13.1226 96.5293 12.492 98.3424 12.492C100.077 12.492 101.417 13.1226 102.363 14.3051L102.521 12.8073H105.595V27.3913C105.595 29.3621 104.964 30.9388 103.782 32.0424C102.521 33.1461 100.865 33.7767 98.8154 33.7767C97.7118 33.7767 96.6081 33.5402 95.5833 33.0672C94.5585 32.5942 93.7702 32.0424 93.2183 31.2541L94.795 29.2045C95.8198 30.4658 97.0811 31.0176 98.6578 31.0176C99.7614 31.0176 100.629 30.7023 101.338 30.0716C101.969 29.4409 102.284 28.5738 102.284 27.3913V26.3665C101.338 27.4701 99.9979 28.022 98.4213 28.022C96.687 28.022 95.268 27.3125 94.0855 25.8935C92.903 24.5533 92.3512 22.5825 92.3512 20.1387ZM95.741 20.4541C95.741 21.9519 96.0563 23.1344 96.687 24.0015C97.3176 24.8687 98.1848 25.2628 99.2096 25.2628C100.55 25.2628 101.575 24.711 102.205 23.5285V16.9066C101.575 15.8029 100.55 15.1723 99.2096 15.1723C98.1059 15.1723 97.2388 15.6453 96.6081 16.5124C96.0563 17.3796 95.741 18.7197 95.741 20.4541ZM116.553 15.8029C116.08 15.7241 115.686 15.7241 115.213 15.7241C113.636 15.7241 112.611 16.3548 112.059 17.5373V27.7855H108.669V12.8073H111.902L111.98 14.4628C112.769 13.1226 113.951 12.492 115.37 12.492C115.843 12.492 116.237 12.5708 116.553 12.6496V15.8029ZM126.801 27.7066C126.643 27.3913 126.486 26.9183 126.407 26.2876C125.303 27.3913 124.042 27.9431 122.465 27.9431C120.967 27.9431 119.706 27.549 118.76 26.6818C117.814 25.8147 117.341 24.7898 117.341 23.5285C117.341 21.9519 117.972 20.6905 119.154 19.8234C120.337 18.9562 122.071 18.5621 124.278 18.5621H126.328V17.6161C126.328 16.8278 126.091 16.1971 125.697 15.7241C125.224 15.2511 124.594 15.0146 123.726 15.0146C122.938 15.0146 122.307 15.1723 121.835 15.5664C121.362 15.9606 121.125 16.4336 121.125 17.0643H117.735C117.735 16.2759 117.972 15.4876 118.524 14.7781C119.075 14.0686 119.785 13.5168 120.731 13.1226C121.677 12.7285 122.702 12.492 123.884 12.492C125.618 12.492 127.037 12.965 128.062 13.8321C129.087 14.6993 129.639 15.9606 129.639 17.5373V24.3168C129.639 25.657 129.797 26.7606 130.191 27.549V27.7855H126.801V27.7066ZM123.096 25.3417C123.726 25.3417 124.357 25.184 124.988 24.8687C125.54 24.5533 126.013 24.0803 126.328 23.5285V20.6906H124.515C123.253 20.6906 122.307 20.9271 121.677 21.3212C121.046 21.7942 120.731 22.346 120.731 23.1343C120.731 23.765 120.967 24.3168 121.362 24.711C121.835 25.1052 122.386 25.3417 123.096 25.3417ZM135.946 12.7285L136.024 14.3051C137.049 13.0438 138.547 12.492 140.36 12.492C142.331 12.492 143.75 13.2803 144.459 14.7781C145.563 13.2803 147.061 12.492 149.032 12.492C150.687 12.492 151.948 12.965 152.737 13.8321C153.525 14.7781 153.998 16.1183 153.998 17.8526V27.7066H150.608V17.9314C150.608 16.9854 150.372 16.2759 149.978 15.8029C149.584 15.3299 148.874 15.1723 147.928 15.1723C147.14 15.1723 146.509 15.4088 146.036 15.8029C145.563 16.1971 145.248 16.7489 145.011 17.3796V27.7066H141.621V17.8526C141.543 16.1183 140.675 15.1723 138.941 15.1723C137.601 15.1723 136.655 15.7241 136.103 16.8278V27.7066H132.713V12.7285H135.946Z" fill="#BBBBBB"/>
</svg>
