<svg width="124" height="40" viewBox="0 0 124 40" fill="none" xmlns="http://www.w3.org/2000/svg">
<g clip-path="url(#clip0_460_21786)">
<mask id="mask0_460_21786" style="mask-type:luminance" maskUnits="userSpaceOnUse" x="0" y="6" width="125" height="28">
<path d="M124.327 6H0V34H124.327V6Z" fill="white"/>
</mask>
<g mask="url(#mask0_460_21786)">
<path fill-rule="evenodd" clip-rule="evenodd" d="M68.8137 12.333C66.2586 12.333 64.3718 13.4068 63.3571 15.4372L62.9421 16.2681V6H54.828V33.4573H62.9421V22.6243C62.9421 20.8811 63.0931 19.1802 64.9007 19.1802C66.7083 19.1802 66.7864 20.7069 66.7864 22.4068V33.4573H74.8278V19.7978C74.8278 14.7055 72.9167 12.334 68.8137 12.334V12.333ZM26.6717 12.333C20.0114 12.333 15.8747 16.3875 15.8747 22.9126V23.6738C15.8747 30.4291 19.5711 34 26.563 34C32.557 34 36.0846 31.618 37.3368 26.7199H28.8837C28.5088 27.5487 27.8194 27.9521 26.7815 27.9521C25.0562 27.9521 24.1239 27.0863 23.8473 25.2291L23.8093 24.9778H37.397V22.6602C37.397 16.0981 33.4882 12.334 26.6727 12.334L26.6717 12.333ZM23.7976 20.8495L23.8473 20.5897C24.1619 18.9351 25.0827 18.1644 26.7445 18.1644C28.4064 18.1644 29.2912 18.9383 29.5341 20.5992L29.5711 20.8505H23.7976V20.8495ZM76.7738 22.9126C76.7738 16.3875 80.9106 12.333 87.5708 12.333L87.5719 12.334C94.3874 12.334 98.2961 16.0981 98.2961 22.6602V24.9778H84.7085L84.7465 25.2291C85.0231 27.0863 85.9554 27.9521 87.6806 27.9521C88.7185 27.9521 89.408 27.5487 89.7828 26.7199H98.2359C96.9837 31.618 93.4561 34 87.4621 34C80.4702 34 76.7738 30.4291 76.7738 23.6738V22.9126ZM84.7465 20.5897L84.6969 20.8495V20.8505H90.4702L90.4332 20.5992C90.1904 18.9383 89.3056 18.1644 87.6436 18.1644C85.9818 18.1644 85.061 18.9351 84.7465 20.5897ZM115.1 12.333H114.342C110.367 12.333 108.706 13.4617 108.217 16.4972L108.061 17.458L106.676 12.6951H100.32V33.4562H108.723V24.6885C108.723 21.8346 109.631 20.9181 112.458 20.9181H115.066L115.1 12.333ZM122.417 24.6631L124.27 27.8465C124.367 28.0112 124.339 28.2181 124.201 28.3522L119.098 33.3337C118.933 33.4953 118.667 33.4953 118.502 33.3337L113.405 28.3597C113.264 28.2224 113.239 28.008 113.342 27.8423L115.324 24.6525C115.402 24.529 115.539 24.453 115.686 24.453H122.049C122.2 24.453 122.341 24.5333 122.417 24.6631ZM9.93553 7.80339H3.52547V7.89842C3.48534 9.0229 3.38821 9.9172 3.22877 10.6236C2.99122 11.6277 2.50342 12.3763 1.81712 12.7912C1.28708 13.0932 0.676797 13.2579 0 13.2822V19.7662H2.32815V24.3622C2.32815 31.3318 4.27512 33.4563 10.6609 33.4563H14.4281V26.0674H13.4515C10.5563 26.0674 9.93449 25.7644 9.93449 22.5504V19.7587H14.4281V12.6962H9.93449V7.80445L9.93553 7.80339ZM41.7007 7.80339H48.1107V7.8055V12.6972H52.6043V19.7598H48.1107V22.5514C48.1107 25.7655 48.7325 26.0685 51.6277 26.0685H52.6043V33.4573H48.8371C42.4513 33.4573 40.5043 31.333 40.5043 24.3633V19.7672H38.1762V13.2832C38.8531 13.259 39.4633 13.0942 39.9934 12.7923C40.6796 12.3773 41.1674 11.6287 41.405 10.6246C41.5634 9.91931 41.6605 9.02713 41.7007 7.90687V7.80339Z" fill="#BBBBBB"/>
</g>
</g>
<defs>
<clipPath id="clip0_460_21786">
<rect width="124" height="40" fill="white"/>
</clipPath>
</defs>
</svg>
