<svg width="141" height="40" viewBox="0 0 141 40" fill="none" xmlns="http://www.w3.org/2000/svg">
<path d="M6.57977 22.781V7.02228C6.57977 6.84495 6.48289 6.74016 6.29718 6.74016H0.718133C0.540507 6.74016 0.435547 6.64343 0.435547 6.45803V3.84637C0.435547 3.66098 0.532433 3.56425 0.718133 3.56425H15.8405C16.0181 3.56425 16.1231 3.66098 16.1231 3.84637V6.45803C16.1231 6.63537 16.0262 6.74016 15.8405 6.74016H10.2453C10.0677 6.74016 9.96272 6.83689 9.96272 7.02228V22.789C9.96272 22.9663 9.86586 23.0711 9.68015 23.0711H6.86236C6.67666 23.0631 6.57977 22.9663 6.57977 22.781ZM16.228 22.781V9.13419C16.228 8.95685 16.325 8.85206 16.5107 8.85206H18.4645C18.626 8.85206 18.7229 8.90849 18.7633 9.09388L19.1427 10.5851C19.1992 10.8028 19.3607 10.843 19.5061 10.6415C20.4346 9.47274 21.5568 8.85206 23.5511 8.85206H24.9801C25.1578 8.85206 25.2627 8.94879 25.2627 9.13419V11.8909C25.2627 12.0683 25.1659 12.173 24.9801 12.173H23.1312C20.8786 12.173 19.4091 13.0194 19.4091 16.1711V22.789C19.4091 22.9663 19.3123 23.0711 19.1266 23.0711H16.5026C16.325 23.0631 16.228 22.9663 16.228 22.781ZM26.4981 15.9455C26.4981 11.4637 29.5176 8.56994 33.8049 8.52963C35.7991 8.51352 37.2282 9.05358 38.2374 9.95638C38.4151 10.1176 38.5765 10.037 38.5765 9.79516V9.13419C38.5765 8.95685 38.6735 8.85206 38.8592 8.85206H41.4751C41.6527 8.85206 41.7576 8.94879 41.7576 9.13419V22.789C41.7576 22.9663 41.6608 23.0711 41.4751 23.0711H39.5212C39.3597 23.0711 39.2628 23.0147 39.2224 22.8293L38.9399 21.6847C38.8834 21.4429 38.7622 21.3864 38.6573 21.5073C37.6077 22.7164 36.0172 23.4178 33.6838 23.3936C29.4773 23.3452 26.4981 20.4353 26.4981 15.9455ZM38.5765 15.9455C38.5765 13.0114 36.5823 11.5202 34.144 11.5202C31.6653 11.5202 29.6711 13.1081 29.6711 15.9455C29.6711 18.7828 31.6653 20.3869 34.144 20.3869C36.5823 20.395 38.5765 18.8876 38.5765 15.9455ZM47.6839 22.781V11.9635C47.6839 11.7861 47.587 11.6813 47.4013 11.6813H44.2363C44.0587 11.6813 43.9537 11.5846 43.9537 11.3992V9.13419C43.9537 8.95685 44.0507 8.85206 44.2363 8.85206H47.4013C47.5789 8.85206 47.6839 8.75533 47.6839 8.56994C47.8454 4.00759 50.2433 3 53.8685 3H54.8131C54.9907 3 55.0957 3.09673 55.0957 3.28212V5.61166C55.0957 5.789 54.9988 5.89379 54.8131 5.89379H53.9089C52.0599 5.89379 50.865 6.35325 50.865 8.48933V8.56994C50.865 8.74728 50.9619 8.85206 51.1476 8.85206H54.8131C54.9907 8.85206 55.0957 8.94879 55.0957 9.13419V11.4073C55.0957 11.5846 54.9988 11.6894 54.8131 11.6894H51.1476C50.97 11.6894 50.865 11.7861 50.865 11.9715V22.789C50.865 22.9663 50.7681 23.0711 50.5824 23.0711H47.9665C47.7808 23.0631 47.6839 22.9663 47.6839 22.781ZM57.2918 3H60.15C60.3276 3 60.4326 3.09673 60.4326 3.28212V6.13561C60.4326 6.31295 60.3356 6.41773 60.15 6.41773H57.2918C57.1142 6.41773 57.0092 6.32101 57.0092 6.13561V3.28212C57.0092 3.09673 57.1061 3 57.2918 3ZM57.1303 22.781V9.13419C57.1303 8.95685 57.2272 8.85206 57.4129 8.85206H60.0289C60.2065 8.85206 60.3114 8.94879 60.3114 9.13419V22.789C60.3114 22.9663 60.2146 23.0711 60.0289 23.0711H57.4129C57.2272 23.0631 57.1303 22.9663 57.1303 22.781ZM62.887 29.8583C62.887 27.1015 64.2192 25.2556 66.3103 23.6676L68.3853 22.0797C68.5629 21.9426 68.5468 21.7814 68.3045 21.7169C65.4464 20.9512 63.3714 18.5813 63.3714 15.2845C63.3714 11.2864 66.4557 8.58606 70.2988 8.58606C71.8087 8.58606 73.1166 8.96491 74.2066 9.73068C74.3681 9.86771 74.5296 9.81129 74.5699 9.60977L74.691 9.08583C74.7314 8.90849 74.8525 8.844 75.0139 8.844H76.9439C77.1214 8.844 77.2264 8.94073 77.2264 9.12613V14.8734C77.2264 18.1138 75.9183 19.5808 74.1662 20.927L72.0509 22.5391C71.849 22.7004 71.8893 22.8615 72.1316 22.9019C75.3369 23.6434 77.6866 26.2632 77.6866 29.8583C77.6866 34.1223 74.36 37 70.2988 37C66.1892 37 62.887 34.1223 62.887 29.8583ZM74.5053 29.8421C74.5053 27.3513 72.616 25.6989 70.2988 25.6989C67.9413 25.6989 66.0681 27.3513 66.0681 29.8421C66.0681 32.3329 67.9413 34.0014 70.2988 34.0014C72.616 34.0014 74.5053 32.3329 74.5053 29.8421ZM74.1016 15.2684C74.1016 12.9388 72.39 11.3912 70.2988 11.3912C68.1673 11.3912 66.4718 12.9388 66.4718 15.2684C66.4718 17.5979 68.1673 19.1697 70.2988 19.1697C72.39 19.1617 74.1016 17.5979 74.1016 15.2684ZM80.5123 16.7757V9.13419C80.5123 8.95685 80.6091 8.85206 80.7949 8.85206H83.4107C83.5882 8.85206 83.6932 8.94879 83.6932 9.13419V16.6145C83.6932 19.4922 84.8402 20.4111 86.7532 20.4111C89.2889 20.4111 90.5967 18.4201 90.5967 15.9455V9.13419C90.5967 8.95685 90.6935 8.85206 90.8793 8.85206H93.4951C93.6726 8.85206 93.7776 8.94879 93.7776 9.13419V22.789C93.7776 22.9663 93.6809 23.0711 93.4951 23.0711H91.5412C91.3795 23.0711 91.2828 23.0147 91.2427 22.8293L90.8793 21.3784C90.8227 21.1366 90.6776 21.056 90.5967 21.201C89.8132 22.4262 88.1419 23.3936 86.0022 23.3936C82.3612 23.3855 80.5123 20.9512 80.5123 16.7757ZM97.3061 22.781V9.13419C97.3061 8.95685 97.4028 8.85206 97.5887 8.85206H99.5425C99.7042 8.85206 99.8009 8.90849 99.841 9.09388L100.229 10.5771C100.285 10.7947 100.447 10.835 100.592 10.6335C101.521 9.46468 102.643 8.844 104.637 8.844H106.066C106.244 8.844 106.349 8.94073 106.349 9.12613V11.8829C106.349 12.0602 106.252 12.165 106.066 12.165H104.217C101.965 12.165 100.495 13.0114 100.495 16.1631V22.781C100.495 22.9583 100.399 23.0631 100.213 23.0631H97.597C97.4028 23.0631 97.3061 22.9663 97.3061 22.781ZM107.576 15.9455C107.576 11.4637 110.596 8.56994 114.883 8.52963C116.877 8.51352 118.306 9.05358 119.315 9.95638C119.493 10.1176 119.655 10.037 119.655 9.79516V9.13419C119.655 8.95685 119.751 8.85206 119.937 8.85206H122.553C122.731 8.85206 122.836 8.94879 122.836 9.13419V22.789C122.836 22.9663 122.739 23.0711 122.553 23.0711H120.599C120.437 23.0711 120.341 23.0147 120.301 22.8293L120.018 21.6847C119.961 21.4429 119.84 21.3864 119.736 21.5073C118.685 22.7164 117.095 23.4178 114.762 23.3936C110.556 23.3452 107.576 20.4353 107.576 15.9455ZM119.662 15.9455C119.662 13.0114 117.668 11.5202 115.23 11.5202C112.751 11.5202 110.757 13.1081 110.757 15.9455C110.757 18.7828 112.751 20.3869 115.23 20.3869C117.668 20.395 119.662 18.8876 119.662 15.9455Z" fill="#BBBBBB"/>
</svg>
