<svg width="105" height="40" viewBox="0 0 105 40" fill="none" xmlns="http://www.w3.org/2000/svg">
<g clip-path="url(#clip0_454_21621)">
<path d="M56.2965 6C50.1694 6 44.6682 9.19529 44.6682 15.0588C44.6682 21.8118 54.3859 22.2729 54.3859 25.6329C54.3859 27.0494 52.7388 28.3341 49.9718 28.3341C46.0188 28.3341 43.0541 26.5553 43.0541 26.5553L41.8024 32.4847C41.8024 32.4847 45.1953 34 49.7412 34C56.4612 34 61.7318 30.6729 61.7318 24.6776C61.7318 17.5624 51.9812 17.1012 51.9812 13.9718C51.9812 12.8518 53.3318 11.6329 56.0988 11.6329C59.2282 11.6329 61.7977 12.9176 61.7977 12.9176L63.0494 7.18588C63.0165 7.18588 60.2165 6 56.2965 6ZM0.164706 6.42824L0 7.28471C0 7.28471 2.56941 7.74588 4.90824 8.70118C7.90588 9.78824 8.10353 10.4141 8.63059 12.3576L14.1318 33.5388H21.5106L32.8094 6.42824H25.4635L18.1835 24.8753L15.2188 9.22824C14.9553 7.44941 13.5718 6.42824 11.8588 6.42824H0.164706ZM35.7741 6.42824L30.0094 33.5388H37.0259L42.7576 6.42824H35.7741ZM74.8424 6.42824C73.1624 6.42824 72.2729 7.31765 71.6141 8.89882L61.3365 33.5388H68.6824L70.0988 29.4212H79.0588L79.9153 33.5388H86.4047L80.7718 6.42824H74.8424ZM75.7977 13.7741L77.9718 23.9529H72.1412L75.7977 13.7741Z" fill="#BBBBBB"/>
</g>
<defs>
<clipPath id="clip0_454_21621">
<rect width="86.4047" height="28" fill="white" transform="translate(0 6)"/>
</clipPath>
</defs>
</svg>
