<svg preserveAspectRatio="none" width="100%" height="100%" overflow="visible" style="display: block;" viewBox="0 0 3037.9 2357.81" fill="none" xmlns="http://www.w3.org/2000/svg">
<g id="Group 1597880416" opacity="0.84" filter="url(#filter0_f_0_200)">
<g id="Vector 2768" filter="url(#filter1_f_0_200)">
<path d="M897.458 670.699C937.186 615.78 1037.67 518.562 1121.81 569.041C1226.97 632.139 1423.27 1028.26 1637.11 1133.42C1850.94 1238.58 2481.92 1466.44 2464.39 1473.45L2464.16 1473.97C2462.55 1488.35 2562.28 1786.11 2317.77 1800.8C1853.27 1828.69 891.33 1565.14 879.928 1540.05C865.907 1509.2 885.772 947.63 897.458 670.699Z" fill="var(--fill-0, #194DD0)"/>
</g>
<g id="Vector 2767" filter="url(#filter2_f_0_200)">
<path d="M889.172 750.099C814.47 705.278 725.243 791.6 689.968 840.364C679.592 1086.26 661.953 1584.89 674.403 1612.29C689.966 1646.52 2065.73 1559.37 2081.29 1553.15C2096.85 1546.92 1536.59 1344.6 1346.72 1251.23C1156.85 1157.85 982.549 806.126 889.172 750.099Z" fill="var(--fill-0, #FF78FF)"/>
</g>
<g id="Vector 2769" filter="url(#filter3_f_0_200)">
<path d="M774.001 932.727C699.299 887.906 610.072 974.228 574.797 1022.99C564.421 1268.89 546.782 1767.52 559.232 1794.91C574.795 1829.15 1950.56 1742 1966.12 1735.77C1981.68 1729.55 1421.42 1527.23 1231.55 1433.85C1041.68 1340.48 867.378 988.754 774.001 932.727Z" fill="var(--fill-0, #FFE2CF)"/>
</g>
</g>
<defs>
<filter id="filter0_f_0_200" x="498.15" y="498.15" width="2041.6" height="1361.51" filterUnits="userSpaceOnUse" color-interpolation-filters="sRGB">
<feFlood flood-opacity="0" result="BackgroundImageFix"/>
<feBlend mode="normal" in="SourceGraphic" in2="BackgroundImageFix" result="shape"/>
<feGaussianBlur stdDeviation="28.4" result="effect1_foregroundBlur_0_200"/>
</filter>
<filter id="filter1_f_0_200" x="320.156" y="1.33465e-05" width="2717.74" height="2357.81" filterUnits="userSpaceOnUse" color-interpolation-filters="sRGB">
<feFlood flood-opacity="0" result="BackgroundImageFix"/>
<feBlend mode="normal" in="SourceGraphic" in2="BackgroundImageFix" result="shape"/>
<feGaussianBlur stdDeviation="277.475" result="effect1_foregroundBlur_0_200"/>
</filter>
<filter id="filter2_f_0_200" x="300.154" y="367.621" width="2151.42" height="1622.57" filterUnits="userSpaceOnUse" color-interpolation-filters="sRGB">
<feFlood flood-opacity="0" result="BackgroundImageFix"/>
<feBlend mode="normal" in="SourceGraphic" in2="BackgroundImageFix" result="shape"/>
<feGaussianBlur stdDeviation="184.983" result="effect1_foregroundBlur_0_200"/>
</filter>
<filter id="filter3_f_0_200" x="1.86626e-05" y="365.266" width="2521.39" height="1992.54" filterUnits="userSpaceOnUse" color-interpolation-filters="sRGB">
<feFlood flood-opacity="0" result="BackgroundImageFix"/>
<feBlend mode="normal" in="SourceGraphic" in2="BackgroundImageFix" result="shape"/>
<feGaussianBlur stdDeviation="277.475" result="effect1_foregroundBlur_0_200"/>
</filter>
</defs>
</svg>
