<svg preserveAspectRatio="none" width="100%" height="100%" overflow="visible" style="display: block;" viewBox="0 0 28.2815 28.2815" fill="none" xmlns="http://www.w3.org/2000/svg">
<g id="Currencies (Fiat &#38; Crypto)">
<g clip-path="url(#clip0_0_64)">
<path id="Vector" d="M28.2815 14.1407C28.2815 16.9375 27.4522 19.6715 25.8984 21.9969C24.3446 24.3224 22.1361 26.1348 19.5522 27.2051C16.9683 28.2754 14.1251 28.5554 11.382 28.0098C8.63898 27.4642 6.11934 26.1174 4.14172 24.1398C2.1641 22.1621 0.81732 19.6425 0.271695 16.8995C-0.273929 14.1564 0.006105 11.3132 1.07639 8.7293C2.14667 6.14541 3.95912 3.93693 6.28456 2.38312C8.61 0.829315 11.344 -2.67105e-05 14.1407 -2.67105e-05C17.8911 -2.67105e-05 21.4879 1.4898 24.1398 4.14171C26.7917 6.79362 28.2815 10.3904 28.2815 14.1407V14.1407Z" fill="var(--fill-0, #255A1F)"/>
<g id="Group 1000001955">
<path id="&#226;&#130;&#166;" d="M20.3243 12.4714V13.6796H7.953V12.4714H20.3243ZM20.3243 15.081V16.2891H7.953V15.081H20.3243ZM19.2509 7.953V20.3243H17.2497L11.3915 11.8976H11.2945V20.3243H9.03852V7.953H11.058L16.898 16.3858H17.0132V7.953H19.2509Z" fill="var(--fill-0, white)"/>
</g>
</g>
</g>
<defs>
<clipPath id="clip0_0_64">
<path d="M0 14.1408C0 6.33103 6.33103 0 14.1408 0V0C21.9505 0 28.2815 6.33103 28.2815 14.1408V14.1408C28.2815 21.9505 21.9505 28.2815 14.1408 28.2815V28.2815C6.33103 28.2815 0 21.9505 0 14.1408V14.1408Z" fill="white"/>
</clipPath>
</defs>
</svg>
