<svg preserveAspectRatio="none" width="100%" height="100%" overflow="visible" style="display: block;" viewBox="0 0 28.2815 28.2815" fill="none" xmlns="http://www.w3.org/2000/svg">
<g id="Currencies (Fiat &#38; Crypto)">
<g clip-path="url(#clip0_0_71)">
<path id="Vector" d="M28.2814 14.1408C28.2814 16.9376 27.4521 19.6715 25.8983 21.997C24.3445 24.3224 22.136 26.1349 19.5521 27.2051C16.9682 28.2754 14.125 28.5555 11.3819 28.0098C8.6389 27.4642 6.11925 26.1174 4.14163 24.1398C2.16401 22.1622 0.817234 19.6425 0.27161 16.8995C-0.274015 14.1565 0.00601923 11.3132 1.0763 8.72934C2.14658 6.14545 3.95904 3.93696 6.28448 2.38316C8.60991 0.829349 11.3439 7.19503e-06 14.1407 7.19503e-06C17.891 7.19503e-06 21.4878 1.48983 24.1397 4.14174C26.7916 6.79365 28.2814 10.3904 28.2814 14.1408V14.1408Z" fill="var(--fill-0, #F7931A)"/>
<path id="Vector_2" fill-rule="evenodd" clip-rule="evenodd" d="M10.0502 6.45716L13.3 7.32746L14.0263 4.62015L15.6512 5.06108L14.9532 7.65656L16.2785 8.01265L16.9779 5.38889L18.6311 5.83111L17.9189 8.46901C17.9189 8.46901 20.6185 9.06678 21.2535 11.2625C21.8886 13.4581 19.8574 14.6112 19.2301 14.6549C19.2301 14.6549 21.5955 15.952 20.783 18.5038C19.9706 21.0556 17.4767 21.5119 14.8529 20.927L14.1407 23.6626L12.4875 23.2204L13.2139 20.5272L11.9026 20.1698L11.1763 22.8823L9.53597 22.4414L10.2636 19.7418L6.92764 18.8419L7.76838 16.9753C7.76838 16.9753 8.70938 17.2324 9.06547 17.3173C9.42156 17.4021 9.65038 17.0319 9.75065 16.6617C9.85092 16.2914 11.3614 10.1556 11.5041 9.65041C11.6468 9.14519 11.589 8.75054 10.9899 8.59499C10.3908 8.43944 9.57582 8.19648 9.57582 8.19648L10.0502 6.45716ZM13.3283 14.583L12.4284 18.1606C12.4284 18.1606 16.8905 19.7713 17.4612 17.505C18.032 15.2386 13.3283 14.583 13.3283 14.583ZM13.7422 12.8861L14.6254 9.60798C14.6254 9.60798 18.4459 10.2919 17.9754 12.116C17.5049 13.9402 15.2527 13.2409 13.7422 12.8861Z" fill="var(--fill-0, white)"/>
</g>
</g>
<defs>
<clipPath id="clip0_0_71">
<path d="M0 14.1408C0 6.33103 6.33103 0 14.1408 0V0C21.9505 0 28.2815 6.33103 28.2815 14.1408V14.1408C28.2815 21.9505 21.9505 28.2815 14.1408 28.2815V28.2815C6.33103 28.2815 0 21.9505 0 14.1408V14.1408Z" fill="white"/>
</clipPath>
</defs>
</svg>
