<svg preserveAspectRatio="none" width="100%" height="100%" overflow="visible" style="display: block;" viewBox="0 0 28.2815 28.2815" fill="none" xmlns="http://www.w3.org/2000/svg">
<g id="Group">
<path id="Vector" d="M14.1408 28.2815C21.9505 28.2815 28.2815 21.9505 28.2815 14.1408C28.2815 6.33104 21.9505 0 14.1408 0C6.33104 0 0 6.33104 0 14.1408C0 21.9505 6.33104 28.2815 14.1408 28.2815Z" fill="var(--fill-0, #009393)"/>
<path id="Vector_2" fill-rule="evenodd" clip-rule="evenodd" d="M14.3545 14.3655C16.5948 14.3655 18.4671 13.9867 18.9247 13.4806C18.5362 13.0514 17.1309 12.7133 15.3461 12.6208V13.69C15.0266 13.7066 14.6945 13.7148 14.3541 13.7148C14.0138 13.7148 13.6816 13.7066 13.3615 13.69V12.6208C11.5774 12.7133 10.1714 13.0514 9.78291 13.4806C10.2411 13.9867 12.1138 14.3655 14.3541 14.3655H14.3545ZM18.3349 9.33276V10.8052H15.3461V11.8262C17.4455 11.9353 19.0208 12.384 19.0325 12.9211V14.0408C19.0208 14.5778 17.4455 15.0256 15.3461 15.135V17.6408H13.3618V15.135C11.2625 15.0259 9.68781 14.5778 9.67608 14.0408V12.9211C9.68781 12.384 11.2625 11.9353 13.3618 11.8262V10.8052H10.373V9.33276H18.3352H18.3349ZM9.19766 6.98951H19.6897C19.9405 6.98951 20.1714 7.12141 20.2964 7.3357L23.3529 12.5843C23.5112 12.8566 23.4643 13.2002 23.2383 13.4207L14.8247 21.6336C14.5518 21.8997 14.1134 21.8997 13.8412 21.6336L5.43803 13.4317C5.20713 13.2057 5.16349 12.8524 5.33382 12.5788L8.60134 7.31942C8.72868 7.11489 8.95471 6.98983 9.19799 6.98983L9.19766 6.98951Z" fill="var(--fill-0, white)"/>
</g>
</svg>
