<svg preserveAspectRatio="none" width="100%" height="100%" overflow="visible" style="display: block;" viewBox="0 0 28.2815 28.2815" fill="none" xmlns="http://www.w3.org/2000/svg">
<g id="Group">
<path id="Vector" d="M14.1408 28.2815C21.9505 28.2815 28.2815 21.9505 28.2815 14.1408C28.2815 6.33104 21.9505 0 14.1408 0C6.33104 0 0 6.33104 0 14.1408C0 21.9505 6.33104 28.2815 14.1408 28.2815Z" fill="var(--fill-0, #D3B25A)"/>
<path id="Vector_2" fill-rule="evenodd" clip-rule="evenodd" d="M14.3536 14.3645C16.5936 14.3645 18.4656 13.9858 18.9231 13.4798C18.5346 13.0506 17.1295 12.7127 15.3452 12.6202V13.6892C15.0257 13.7058 14.6936 13.7139 14.3533 13.7139C14.013 13.7139 13.6809 13.7058 13.3608 13.6892V12.6202C11.5771 12.7127 10.1714 13.0506 9.78294 13.4798C10.2411 13.9858 12.1134 14.3645 14.3533 14.3645H14.3536ZM18.3334 9.33273V10.8049H15.3452V11.8257C17.4441 11.9348 19.0191 12.3835 19.0308 12.9204V14.0399C19.0191 14.5768 17.4441 15.0245 15.3452 15.134V17.6393H13.3612V15.134C11.2622 15.0249 9.68785 14.5768 9.67613 14.0399V12.9204C9.68785 12.3835 11.2622 11.9348 13.3612 11.8257V10.8049H10.373V9.33273H18.3337H18.3334ZM9.1978 6.98991H19.6879C19.9387 6.98991 20.1695 7.12178 20.2946 7.33604L23.3505 12.5837C23.5087 12.8559 23.4618 13.1995 23.2359 13.4199L14.8238 21.6314C14.551 21.8974 14.1127 21.8974 13.8405 21.6314L5.43886 13.431C5.20799 13.205 5.16436 12.8517 5.33466 12.5782L8.60159 7.31976C8.72891 7.11527 8.95489 6.99023 9.19812 6.99023L9.1978 6.98991Z" fill="var(--fill-0, white)"/>
</g>
</svg>
