<svg width="48" height="48" viewBox="0 0 48 48" fill="none" xmlns="http://www.w3.org/2000/svg">
<g clip-path="url(#clip0_40000015_14825)">
<path d="M24 48C37.2548 48 48 37.2548 48 24C48 10.7452 37.2548 0 24 0C10.7452 0 0 10.7452 0 24C0 37.2548 10.7452 48 24 48Z" fill="#058353"/>
<path fill-rule="evenodd" clip-rule="evenodd" d="M24.3625 24.378C28.1649 24.378 31.3426 23.7352 32.1192 22.8762C31.4598 22.1477 29.0747 21.5739 26.0456 21.4169V23.2316C25.5034 23.2598 24.9396 23.2736 24.362 23.2736C23.7844 23.2736 23.2206 23.2598 22.6772 23.2316V21.4169C19.6492 21.5739 17.263 22.1477 16.6036 22.8762C17.3813 23.7352 20.5596 24.378 24.362 24.378H24.3625ZM31.1182 15.8364V18.3354H26.0456V20.0682C29.6087 20.2534 32.2823 21.0151 32.3022 21.9266V23.8269C32.2823 24.7384 29.6087 25.4984 26.0456 25.6842V29.937H22.6778V25.6842C19.1147 25.499 16.4422 24.7384 16.4223 23.8269V21.9266C16.4422 21.0151 19.1147 20.2534 22.6778 20.0682V18.3354H17.6052V15.8364H31.1188H31.1182ZM15.6103 11.8594H33.4176C33.8433 11.8594 34.2352 12.0832 34.4474 12.4469L39.635 21.355C39.9036 21.8171 39.824 22.4003 39.4404 22.7745L25.1607 36.7137C24.6975 37.1653 23.9535 37.1653 23.4914 36.7137L9.2294 22.7933C8.8375 22.4097 8.76343 21.8099 9.05252 21.3456L14.5982 12.4193C14.8144 12.0722 15.198 11.8599 15.6109 11.8599L15.6103 11.8594Z" fill="white"/>
</g>
<defs>
<clipPath id="clip0_40000015_14825">
<path d="M0 24C0 10.7452 10.7452 0 24 0V0C37.2548 0 48 10.7452 48 24V24C48 37.2548 37.2548 48 24 48V48C10.7452 48 0 37.2548 0 24V24Z" fill="white"/>
</clipPath>
</defs>
</svg>
