<svg width="48" height="48" viewBox="0 0 48 48" fill="none" xmlns="http://www.w3.org/2000/svg">
<g clip-path="url(#clip0_40000015_14827)">
<path d="M48 24C48 28.7468 46.5924 33.3869 43.9553 37.3337C41.3181 41.2805 37.5698 44.3566 33.1844 46.1731C28.799 47.9896 23.9734 48.4649 19.3178 47.5389C14.6623 46.6128 10.3859 44.327 7.02945 40.9706C3.67299 37.6141 1.38721 33.3377 0.461164 28.6822C-0.464881 24.0266 0.0103987 19.201 1.8269 14.8156C3.64341 10.4302 6.71955 6.68188 10.6663 4.04473C14.6131 1.40758 19.2533 0 24 0C30.3652 0 36.4697 2.52856 40.9706 7.02944C45.4715 11.5303 48 17.6348 48 24V24Z" fill="#F7931A"/>
<path fill-rule="evenodd" clip-rule="evenodd" d="M17.0574 10.9616L22.5731 12.4387L23.8058 7.84375L26.5636 8.59211L25.3789 12.9972L27.6284 13.6016L28.8153 9.14848L31.6211 9.89902L30.4124 14.3761C30.4124 14.3761 34.9942 15.3907 36.072 19.1172C37.1498 22.8438 33.7025 24.8008 32.6378 24.875C32.6378 24.875 36.6524 27.0765 35.2734 31.4074C33.8945 35.7383 29.6618 36.5128 25.2087 35.5201L24 40.163L21.1942 39.4125L22.4269 34.8416L20.2014 34.235L18.9687 38.8387L16.1847 38.0903L17.4196 33.5085L11.7578 31.9812L13.1847 28.8132C13.1847 28.8132 14.7818 29.2496 15.3862 29.3936C15.9905 29.5376 16.3789 28.9092 16.5491 28.2808C16.7193 27.6525 19.2829 17.2387 19.5251 16.3812C19.7673 15.5238 19.6691 14.8539 18.6524 14.5899C17.6356 14.3259 16.2524 13.9136 16.2524 13.9136L17.0574 10.9616ZM22.6211 24.7528L21.0938 30.8248C21.0938 30.8248 28.6669 33.5587 29.6356 29.7121C30.6044 25.8656 22.6211 24.7528 22.6211 24.7528ZM23.3236 21.8728L24.8225 16.3092C24.8225 16.3092 31.3069 17.4699 30.5084 20.5659C29.7098 23.6619 25.8873 22.475 23.3236 21.8728Z" fill="white"/>
</g>
<defs>
<clipPath id="clip0_40000015_14827">
<path d="M0 24C0 10.7452 10.7452 0 24 0V0C37.2548 0 48 10.7452 48 24V24C48 37.2548 37.2548 48 24 48V48C10.7452 48 0 37.2548 0 24V24Z" fill="white"/>
</clipPath>
</defs>
</svg>
