<svg preserveAspectRatio="none" width="100%" height="100%" overflow="visible" style="display: block;" viewBox="0 0 20 20" fill="none" xmlns="http://www.w3.org/2000/svg">
<g id="PhosphorIcon/CaretDown/Regular">
<g id="Icon">
<mask id="path-1-inside-1_0_233" fill="white">
<path d="M16.6919 7.94223L10.4419 14.1922C10.3839 14.2503 10.3149 14.2964 10.2391 14.3279C10.1632 14.3593 10.0819 14.3755 9.99974 14.3755C9.9176 14.3755 9.83627 14.3593 9.7604 14.3279C9.68453 14.2964 9.6156 14.2503 9.55755 14.1922L3.30755 7.94223C3.19027 7.82495 3.12439 7.66589 3.12439 7.50004C3.12439 7.33419 3.19027 7.17513 3.30755 7.05785C3.42483 6.94058 3.58388 6.87469 3.74974 6.87469C3.91559 6.87469 4.07465 6.94058 4.19192 7.05785L9.99974 12.8664L15.8075 7.05785C15.8656 6.99979 15.9346 6.95372 16.0104 6.9223C16.0863 6.89087 16.1676 6.87469 16.2497 6.87469C16.3319 6.87469 16.4132 6.89087 16.489 6.9223C16.5649 6.95372 16.6339 6.99979 16.6919 7.05785C16.75 7.11592 16.7961 7.18486 16.8275 7.26073C16.8589 7.3366 16.8751 7.41792 16.8751 7.50004C16.8751 7.58216 16.8589 7.66348 16.8275 7.73935C16.7961 7.81522 16.75 7.88416 16.6919 7.94223Z"/>
</mask>
<path d="M16.6919 7.94223L10.4419 14.1922C10.3839 14.2503 10.3149 14.2964 10.2391 14.3279C10.1632 14.3593 10.0819 14.3755 9.99974 14.3755C9.9176 14.3755 9.83627 14.3593 9.7604 14.3279C9.68453 14.2964 9.6156 14.2503 9.55755 14.1922L3.30755 7.94223C3.19027 7.82495 3.12439 7.66589 3.12439 7.50004C3.12439 7.33419 3.19027 7.17513 3.30755 7.05785C3.42483 6.94058 3.58388 6.87469 3.74974 6.87469C3.91559 6.87469 4.07465 6.94058 4.19192 7.05785L9.99974 12.8664L15.8075 7.05785C15.8656 6.99979 15.9346 6.95372 16.0104 6.9223C16.0863 6.89087 16.1676 6.87469 16.2497 6.87469C16.3319 6.87469 16.4132 6.89087 16.489 6.9223C16.5649 6.95372 16.6339 6.99979 16.6919 7.05785C16.75 7.11592 16.7961 7.18486 16.8275 7.26073C16.8589 7.3366 16.8751 7.41792 16.8751 7.50004C16.8751 7.58216 16.8589 7.66348 16.8275 7.73935C16.7961 7.81522 16.75 7.88416 16.6919 7.94223Z" fill="var(--fill-0, #101828)"/>
<path d="M16.6919 7.94223L17.8704 9.12074V9.12074L16.6919 7.94223ZM10.4419 14.1922L9.26341 13.0137L9.26276 13.0144L10.4419 14.1922ZM9.55755 14.1922L10.7367 13.0144L10.7361 13.0137L9.55755 14.1922ZM3.30755 7.94223L4.48606 6.76372V6.76372L3.30755 7.94223ZM3.74974 6.87469V5.20803V6.87469ZM4.19192 7.05785L5.37052 5.87942L5.37044 5.87934L4.19192 7.05785ZM9.99974 12.8664L8.82115 14.0449L9.99974 15.2236L11.1783 14.0449L9.99974 12.8664ZM15.8076 7.05785L14.629 5.87934L14.629 5.87942L15.8076 7.05785ZM16.8751 7.50004H18.5418H16.8751ZM16.6919 7.94223L15.5134 6.76372L9.26341 13.0137L10.4419 14.1922L11.6204 15.3707L17.8704 9.12074L16.6919 7.94223ZM10.4419 14.1922L9.26276 13.0144C9.3595 12.9175 9.47438 12.8407 9.60084 12.7883L10.2391 14.3279L10.8773 15.8675C11.1555 15.7522 11.4083 15.5832 11.6211 15.3701L10.4419 14.1922ZM10.2391 14.3279L9.60084 12.7883C9.72731 12.7358 9.86286 12.7089 9.99974 12.7089V14.3755V16.0422C10.3009 16.0422 10.5991 15.9828 10.8773 15.8675L10.2391 14.3279ZM9.99974 14.3755V12.7089C10.1366 12.7089 10.2722 12.7358 10.3986 12.7883L9.7604 14.3279L9.12217 15.8675C9.40038 15.9828 9.69859 16.0422 9.99974 16.0422V14.3755ZM9.7604 14.3279L10.3986 12.7883C10.5251 12.8407 10.64 12.9175 10.7367 13.0144L9.55755 14.1922L8.37838 15.3701C8.59122 15.5832 8.84396 15.7522 9.12217 15.8675L9.7604 14.3279ZM9.55755 14.1922L10.7361 13.0137L4.48606 6.76372L3.30755 7.94223L2.12904 9.12074L8.37904 15.3707L9.55755 14.1922ZM3.30755 7.94223L4.48606 6.76372C4.68135 6.959 4.79106 7.22387 4.79106 7.50004H3.12439H1.45772C1.45772 8.10792 1.6992 8.6909 2.12904 9.12074L3.30755 7.94223ZM3.12439 7.50004H4.79106C4.79106 7.77622 4.68135 8.04108 4.48606 8.23637L3.30755 7.05785L2.12904 5.87934C1.6992 6.30918 1.45772 6.89216 1.45772 7.50004H3.12439ZM3.30755 7.05785L4.48606 8.23637C4.29077 8.43165 4.02591 8.54136 3.74974 8.54136V6.87469V5.20803C3.14186 5.20803 2.55888 5.44951 2.12904 5.87934L3.30755 7.05785ZM3.74974 6.87469V8.54136C3.47356 8.54136 3.2087 8.43165 3.01341 8.23637L4.19192 7.05785L5.37044 5.87934C4.9406 5.44951 4.35761 5.20803 3.74974 5.20803V6.87469ZM4.19192 7.05785L3.01333 8.23629L8.82115 14.0449L9.99974 12.8664L11.1783 11.688L5.37052 5.87942L4.19192 7.05785ZM9.99974 12.8664L11.1783 14.0449L16.9861 8.23629L15.8076 7.05785L14.629 5.87942L8.82115 11.688L9.99974 12.8664ZM15.8076 7.05785L16.9861 8.23637C16.8894 8.33306 16.7746 8.40977 16.6482 8.4621L16.0104 6.9223L15.3726 5.3825C15.0945 5.49768 14.8419 5.66651 14.629 5.87934L15.8076 7.05785ZM16.0104 6.9223L16.6482 8.4621C16.5219 8.51443 16.3865 8.54136 16.2497 8.54136V6.87469V5.20803C15.9488 5.20803 15.6507 5.26731 15.3726 5.3825L16.0104 6.9223ZM16.2497 6.87469V8.54136C16.113 8.54136 15.9776 8.51443 15.8512 8.4621L16.489 6.9223L17.1269 5.3825C16.8488 5.26731 16.5507 5.20803 16.2497 5.20803V6.87469ZM16.489 6.9223L15.8512 8.4621C15.7249 8.40977 15.6101 8.33306 15.5134 8.23637L16.6919 7.05785L17.8704 5.87934C17.6576 5.66651 17.4049 5.49768 17.1269 5.3825L16.489 6.9223ZM16.6919 7.05785L15.5134 8.23637C15.4167 8.13966 15.34 8.02487 15.2877 7.89854L16.8275 7.26073L18.3673 6.62293C18.2521 6.34485 18.0833 6.09218 17.8704 5.87934L16.6919 7.05785ZM16.8275 7.26073L15.2877 7.89854C15.2354 7.77221 15.2084 7.6368 15.2084 7.50004H16.8751H18.5418C18.5418 7.19904 18.4825 6.901 18.3673 6.62293L16.8275 7.26073ZM16.8751 7.50004H15.2084C15.2084 7.36328 15.2354 7.22787 15.2877 7.10155L16.8275 7.73935L18.3673 8.37716C18.4825 8.09909 18.5418 7.80105 18.5418 7.50004H16.8751ZM16.8275 7.73935L15.2877 7.10155C15.34 6.97522 15.4167 6.86042 15.5134 6.76372L16.6919 7.94223L17.8704 9.12074C18.0833 8.9079 18.2521 8.65523 18.3673 8.37716L16.8275 7.73935Z" fill="var(--stroke-0, #1849A9)" mask="url(#path-1-inside-1_0_233)"/>
</g>
</g>
</svg>
