<svg preserveAspectRatio="none" width="100%" height="100%" overflow="visible" style="display: block;" viewBox="0 0 20 20" fill="none" xmlns="http://www.w3.org/2000/svg">
<g id="Currencies (Fiat &#38; Crypto)">
<g clip-path="url(#clip0_0_254)">
<path id="Vector" d="M20 9.99997C20 11.9778 19.4135 13.9112 18.3147 15.5557C17.2159 17.2002 15.6541 18.4819 13.8268 19.2388C11.9996 19.9956 9.98889 20.1937 8.04908 19.8078C6.10927 19.422 4.32744 18.4696 2.92891 17.071C1.53039 15.6725 0.577979 13.8907 0.192127 11.9509C-0.193725 10.0111 0.004308 8.0004 0.761184 6.17314C1.51806 4.34587 2.79979 2.78409 4.44428 1.68527C6.08877 0.58646 8.02217 -3.02269e-05 9.99998 -3.02269e-05C12.6521 -3.02269e-05 15.1957 1.05354 17.071 2.9289C18.9464 4.80427 20 7.3478 20 9.99997V9.99997Z" fill="var(--fill-0, #255A1F)"/>
<g id="Group 1000001955">
<path id="&#226;&#130;&#166;" d="M14.3729 8.81949V9.67385H5.62416V8.81949H14.3729ZM14.3729 10.6649V11.5193H5.62416V10.6649H14.3729ZM13.6138 5.62416V14.3729H12.1986L8.05579 8.41367H7.98717V14.3729H6.39182V5.62416H7.81992L11.9498 11.5876H12.0313V5.62416H13.6138Z" fill="var(--fill-0, white)"/>
</g>
</g>
</g>
<defs>
<clipPath id="clip0_0_254">
<path d="M0 10C0 4.47715 4.47715 0 10 0V0C15.5228 0 20 4.47715 20 10V10C20 15.5228 15.5228 20 10 20V20C4.47715 20 0 15.5228 0 10V10Z" fill="white"/>
</clipPath>
</defs>
</svg>
