<svg preserveAspectRatio="none" width="100%" height="100%" overflow="visible" style="display: block;" viewBox="0 0 32 32" fill="none" xmlns="http://www.w3.org/2000/svg">
<g id="Cardholder">
<path id="Vector" d="M25.9984 5.99687H5.99844C5.20279 5.99687 4.43973 6.31295 3.87712 6.87555C3.31451 7.43816 2.99844 8.20123 2.99844 8.99687V22.9969C2.99844 23.7925 3.31451 24.5556 3.87712 25.1182C4.43973 25.6808 5.20279 25.9969 5.99844 25.9969H25.9984C26.7941 25.9969 27.5571 25.6808 28.1198 25.1182C28.6824 24.5556 28.9984 23.7925 28.9984 22.9969V8.99687C28.9984 8.20123 28.6824 7.43816 28.1198 6.87555C27.5571 6.31295 26.7941 5.99687 25.9984 5.99687ZM4.99844 11.9969H26.9984V13.9969H19.9984C19.7332 13.9969 19.4789 14.1022 19.2913 14.2898C19.1038 14.4773 18.9984 14.7317 18.9984 14.9969C18.9984 15.7925 18.6824 16.5556 18.1198 17.1182C17.5571 17.6808 16.7941 17.9969 15.9984 17.9969C15.2028 17.9969 14.4397 17.6808 13.8771 17.1182C13.3145 16.5556 12.9984 15.7925 12.9984 14.9969C12.9984 14.7317 12.8931 14.4773 12.7055 14.2898C12.518 14.1022 12.2637 13.9969 11.9984 13.9969H4.99844V11.9969ZM5.99844 7.99687H25.9984C26.2637 7.99687 26.518 8.10223 26.7055 8.28977C26.8931 8.4773 26.9984 8.73166 26.9984 8.99687V9.99687H4.99844V8.99687C4.99844 8.73166 5.10379 8.4773 5.29133 8.28977C5.47887 8.10223 5.73322 7.99687 5.99844 7.99687ZM25.9984 23.9969H5.99844C5.73322 23.9969 5.47887 23.8915 5.29133 23.704C5.10379 23.5164 4.99844 23.2621 4.99844 22.9969V15.9969H11.0984C11.328 17.1272 11.9412 18.1433 12.8342 18.8733C13.7272 19.6032 14.8451 20.0019 15.9984 20.0019C17.1518 20.0019 18.2697 19.6032 19.1627 18.8733C20.0557 18.1433 20.6689 17.1272 20.8984 15.9969H26.9984V22.9969C26.9984 23.2621 26.8931 23.5164 26.7055 23.704C26.518 23.8915 26.2637 23.9969 25.9984 23.9969Z" fill="var(--fill-0, #101828)"/>
</g>
</svg>
