<svg preserveAspectRatio="none" width="100%" height="100%" overflow="visible" style="display: block;" viewBox="0 0 32 32" fill="none" xmlns="http://www.w3.org/2000/svg">
<g id="Scroll">
<path id="Vector" d="M12.001 13.0013C12.001 12.736 12.1064 12.4817 12.2939 12.2942C12.4815 12.1066 12.7358 12.0013 13.001 12.0013H21.001C21.2663 12.0013 21.5206 12.1066 21.7081 12.2942C21.8957 12.4817 22.001 12.736 22.001 13.0013C22.001 13.2665 21.8957 13.5208 21.7081 13.7084C21.5206 13.8959 21.2663 14.0013 21.001 14.0013H13.001C12.7358 14.0013 12.4815 13.8959 12.2939 13.7084C12.1064 13.5208 12.001 13.2665 12.001 13.0013ZM13.001 18.0013H21.001C21.2663 18.0013 21.5206 17.8959 21.7081 17.7084C21.8957 17.5208 22.001 17.2665 22.001 17.0013C22.001 16.736 21.8957 16.4817 21.7081 16.2942C21.5206 16.1066 21.2663 16.0013 21.001 16.0013H13.001C12.7358 16.0013 12.4815 16.1066 12.2939 16.2942C12.1064 16.4817 12.001 16.736 12.001 17.0013C12.001 17.2665 12.1064 17.5208 12.2939 17.7084C12.4815 17.8959 12.7358 18.0013 13.001 18.0013ZM29.001 24.0013C29.001 25.0621 28.5796 26.0795 27.8295 26.8297C27.0793 27.5798 26.0619 28.0013 25.001 28.0013H11.001C9.94017 28.0013 8.92276 27.5798 8.17261 26.8297C7.42246 26.0795 7.00104 25.0621 7.00104 24.0013V8.00127C7.00104 7.47083 6.79032 6.96213 6.41525 6.58705C6.04018 6.21198 5.53147 6.00127 5.00104 6.00127C4.4706 6.00127 3.9619 6.21198 3.58682 6.58705C3.21175 6.96213 3.00104 7.47083 3.00104 8.00127C3.00104 8.71877 3.60479 9.20377 3.61104 9.20877C3.77654 9.33613 3.89801 9.51211 3.95842 9.71202C4.01882 9.91193 4.01513 10.1257 3.94785 10.3234C3.88057 10.5211 3.75308 10.6928 3.58328 10.8144C3.41348 10.9359 3.20987 11.0013 3.00104 11.0013C2.78479 11.0016 2.57441 10.9309 2.40229 10.8C2.25729 10.6938 1.00104 9.70252 1.00104 8.00127C1.00104 6.9404 1.42246 5.92298 2.17261 5.17284C2.92276 4.42269 3.94017 4.00127 5.00104 4.00127H22.001C23.0619 4.00127 24.0793 4.42269 24.8295 5.17284C25.5796 5.92298 26.001 6.9404 26.001 8.00127V21.0013H27.001C27.2174 21.0013 27.4279 21.0714 27.601 21.2013C27.751 21.3088 29.001 22.3 29.001 24.0013ZM12.0335 21.6863C12.1019 21.4846 12.2323 21.3097 12.4061 21.1867C12.5798 21.0636 12.7881 20.9987 13.001 21.0013H24.001V8.00127C24.001 7.47083 23.7903 6.96213 23.4153 6.58705C23.0402 6.21198 22.5315 6.00127 22.001 6.00127H8.46229C8.81596 6.6084 9.00189 7.29863 9.00104 8.00127V24.0013C9.00104 24.5317 9.21175 25.0404 9.58682 25.4155C9.9619 25.7906 10.4706 26.0013 11.001 26.0013C11.5315 26.0013 12.0402 25.7906 12.4153 25.4155C12.7903 25.0404 13.001 24.5317 13.001 24.0013C13.001 23.2838 12.3973 22.7988 12.391 22.7938C12.2206 22.6719 12.0939 22.4984 12.0295 22.299C11.9651 22.0996 11.9666 21.8848 12.0335 21.6863ZM27.001 24.0013C26.9885 23.6308 26.8455 23.2766 26.5973 23.0013H14.8473C14.9478 23.3251 14.9988 23.6622 14.9985 24.0013C14.9995 24.7036 14.8145 25.3936 14.4623 26.0013H25.001C25.5315 26.0013 26.0402 25.7906 26.4153 25.4155C26.7903 25.0404 27.001 24.5317 27.001 24.0013Z" fill="var(--fill-0, black)"/>
</g>
</svg>
