<svg preserveAspectRatio="none" width="100%" height="100%" overflow="visible" style="display: block;" viewBox="0 0 32 32" fill="none" xmlns="http://www.w3.org/2000/svg">
<g id="PaperPlaneTilt">
<path id="Vector" d="M28.4159 3.58802C28.1644 3.33668 27.8505 3.15694 27.5064 3.06729C27.1623 2.97765 26.8006 2.98135 26.4584 3.07802H26.4397L2.44718 10.358C2.05768 10.4703 1.71148 10.6982 1.45446 11.0117C1.19744 11.3252 1.04174 11.7093 1.00798 12.1133C0.974231 12.5172 1.06402 12.9219 1.26546 13.2737C1.46689 13.6254 1.77046 13.9077 2.13593 14.083L12.7509 19.253L17.9134 29.8618C18.074 30.2044 18.3293 30.494 18.6491 30.6962C18.969 30.8984 19.34 31.0049 19.7184 31.003C19.7759 31.003 19.8334 31.0005 19.8909 30.9955C20.2946 30.9628 20.6785 30.8075 20.9913 30.5503C21.3042 30.2931 21.5308 29.9465 21.6409 29.5568L28.9159 5.56427C28.9159 5.55802 28.9159 5.55177 28.9159 5.54552C29.0139 5.20422 29.0192 4.84301 28.9313 4.49899C28.8434 4.15497 28.6655 3.84055 28.4159 3.58802ZM19.7297 28.9843L19.7234 29.0018V28.993L14.7159 18.7055L20.7159 12.7055C20.8956 12.5165 20.9942 12.2647 20.9909 12.0039C20.9875 11.7432 20.8825 11.494 20.6981 11.3096C20.5137 11.1252 20.2645 11.0202 20.0038 11.0168C19.743 11.0135 19.4912 11.1121 19.3022 11.2918L13.3022 17.2918L3.01093 12.2843H3.00218H3.01968L27.0009 5.00302L19.7297 28.9843Z" fill="var(--fill-0, black)"/>
</g>
</svg>
