<svg preserveAspectRatio="none" width="100%" height="100%" overflow="visible" style="display: block;" viewBox="0 0 32 32" fill="none" xmlns="http://www.w3.org/2000/svg">
<g id="HandCoins" clip-path="url(#clip0_0_8)">
<path id="Vector" d="M28.7912 17.6352C28.4191 17.3489 27.9859 17.1522 27.5255 17.0605C27.065 16.9688 26.5896 16.9845 26.1362 17.1064L20.9062 18.3089C21.0279 17.7949 21.0316 17.26 20.9172 16.7444C20.8027 16.2287 20.573 15.7456 20.2453 15.3314C19.9177 14.9171 19.5004 14.5823 19.025 14.3522C18.5495 14.1221 18.0281 14.0026 17.4999 14.0027H11.2424C10.7169 14.0014 10.1964 14.1042 9.71084 14.3052C9.22531 14.5063 8.78443 14.8015 8.41367 15.1739L5.58617 18.0027H1.99992C1.46949 18.0027 0.960781 18.2134 0.585708 18.5885C0.210636 18.9635 -7.82013e-05 19.4723 -7.82013e-05 20.0027L-7.82013e-05 25.0027C-7.82013e-05 25.5331 0.210636 26.0418 0.585708 26.4169C0.960781 26.792 1.46949 27.0027 1.99992 27.0027H14.9999C15.0817 27.0027 15.1631 26.9927 15.2424 26.9727L23.2424 24.9727C23.2934 24.9606 23.3432 24.9438 23.3912 24.9227L28.2499 22.8552L28.3049 22.8302C28.7719 22.5969 29.1718 22.2485 29.4669 21.8179C29.762 21.3873 29.9426 20.8887 29.9918 20.369C30.0409 19.8493 29.9569 19.3256 29.7478 18.8473C29.5386 18.3691 29.2111 17.9519 28.7962 17.6352H28.7912ZM1.99992 20.0027H4.99992V25.0027H1.99992V20.0027ZM27.4287 21.0289L22.6787 23.0514L14.8749 25.0027H6.99992V19.4164L9.82867 16.5889C10.0137 16.4024 10.234 16.2545 10.4767 16.1539C10.7194 16.0532 10.9797 16.0019 11.2424 16.0027H17.4999C17.8977 16.0027 18.2793 16.1607 18.5606 16.442C18.8419 16.7233 18.9999 17.1049 18.9999 17.5027C18.9999 17.9005 18.8419 18.282 18.5606 18.5633C18.2793 18.8447 17.8977 19.0027 17.4999 19.0027H13.9999C13.7347 19.0027 13.4804 19.108 13.2928 19.2956C13.1053 19.4831 12.9999 19.7375 12.9999 20.0027C12.9999 20.2679 13.1053 20.5223 13.2928 20.7098C13.4804 20.8973 13.7347 21.0027 13.9999 21.0027H17.9999C18.0752 21.0025 18.1502 20.9941 18.2237 20.9777L26.5987 19.0514L26.6374 19.0414C26.8931 18.9705 27.166 18.9965 27.4036 19.1147C27.6411 19.2328 27.8267 19.4346 27.9244 19.6813C28.0221 19.9279 28.0252 20.2021 27.933 20.4508C27.8408 20.6996 27.6598 20.9055 27.4249 21.0289H27.4287ZM20.4999 12.0027C20.747 12.003 20.9937 11.9829 21.2374 11.9427C21.5116 12.7571 22.0133 13.476 22.6831 14.0144C23.3529 14.5527 24.1628 14.888 25.0172 14.9807C25.8715 15.0733 26.7345 14.9193 27.5042 14.537C28.2738 14.1547 28.9178 13.5601 29.3602 12.8233C29.8026 12.0866 30.0247 11.2386 30.0004 10.3796C29.9761 9.52056 29.7063 8.68648 29.223 7.97593C28.7397 7.26539 28.063 6.70809 27.273 6.36993C26.483 6.03177 25.6127 5.92689 24.7649 6.06769C24.5009 5.283 24.0255 4.58635 23.3911 4.05441C22.7567 3.52247 21.9878 3.17586 21.1691 3.05273C20.3504 2.9296 19.5136 3.03472 18.7508 3.35652C17.988 3.67832 17.3287 4.20432 16.8456 4.87664C16.3624 5.54897 16.0741 6.34155 16.0124 7.16716C15.9507 7.99277 16.1179 8.81941 16.4957 9.5561C16.8735 10.2928 17.4472 10.911 18.1537 11.3427C18.8601 11.7743 19.672 12.0027 20.4999 12.0027ZM27.9999 10.5027C27.9999 10.9971 27.8533 11.4805 27.5786 11.8916C27.3039 12.3027 26.9134 12.6232 26.4566 12.8124C25.9998 13.0016 25.4971 13.0511 25.0122 12.9547C24.5272 12.8582 24.0818 12.6201 23.7322 12.2705C23.3825 11.9208 23.1444 11.4754 23.048 10.9904C22.9515 10.5055 23.001 10.0028 23.1902 9.54598C23.3794 9.08916 23.6999 8.69872 24.111 8.42401C24.5221 8.14931 25.0055 8.00269 25.4999 8.00269C26.163 8.00269 26.7988 8.26608 27.2677 8.73492C27.7365 9.20376 27.9999 9.83965 27.9999 10.5027ZM20.4999 5.00269C21.0453 5.00296 21.5756 5.18157 22.0101 5.51129C22.4445 5.841 22.7592 6.30373 22.9062 6.82894C22.394 7.18931 21.9627 7.65261 21.6398 8.18921C21.317 8.72581 21.1097 9.32389 21.0312 9.94519C20.8566 9.98289 20.6785 10.0022 20.4999 10.0027C19.8369 10.0027 19.201 9.7393 18.7322 9.27046C18.2633 8.80161 17.9999 8.16573 17.9999 7.50269C17.9999 6.83965 18.2633 6.20376 18.7322 5.73492C19.201 5.26608 19.8369 5.00269 20.4999 5.00269Z" fill="var(--fill-0, black)"/>
</g>
<defs>
<clipPath id="clip0_0_8">
<rect width="32" height="32" fill="white"/>
</clipPath>
</defs>
</svg>
