<svg preserveAspectRatio="none" width="100%" height="100%" overflow="visible" style="display: block;" viewBox="0 0 20 20" fill="none" xmlns="http://www.w3.org/2000/svg">
<g id="PhosphorIcon/CaretLeft/Regular">
<g id="Icon">
<mask id="path-1-inside-1_0_214" fill="white">
<path d="M12.9421 15.8079C13.0001 15.8659 13.0462 15.9349 13.0776 16.0107C13.1091 16.0866 13.1252 16.1679 13.1252 16.25C13.1252 16.3322 13.1091 16.4135 13.0776 16.4894C13.0462 16.5652 13.0001 16.6342 12.9421 16.6922C12.884 16.7503 12.8151 16.7964 12.7392 16.8278C12.6633 16.8592 12.582 16.8754 12.4999 16.8754C12.4178 16.8754 12.3364 16.8592 12.2606 16.8278C12.1847 16.7964 12.1158 16.7503 12.0577 16.6922L5.80769 10.4422C5.74958 10.3842 5.70348 10.3153 5.67203 10.2394C5.64058 10.1635 5.62439 10.0822 5.62439 10C5.62439 9.91791 5.64058 9.83658 5.67203 9.7607C5.70348 9.68483 5.74958 9.6159 5.80769 9.55785L12.0577 3.30785C12.175 3.19058 12.334 3.12469 12.4999 3.12469C12.6657 3.12469 12.8248 3.19058 12.9421 3.30785C13.0593 3.42513 13.1252 3.58419 13.1252 3.75004C13.1252 3.91589 13.0593 4.07495 12.9421 4.19223L7.13347 10L12.9421 15.8079Z"/>
</mask>
<path d="M12.9421 15.8079C13.0001 15.8659 13.0462 15.9349 13.0776 16.0107C13.1091 16.0866 13.1252 16.1679 13.1252 16.25C13.1252 16.3322 13.1091 16.4135 13.0776 16.4894C13.0462 16.5652 13.0001 16.6342 12.9421 16.6922C12.884 16.7503 12.8151 16.7964 12.7392 16.8278C12.6633 16.8592 12.582 16.8754 12.4999 16.8754C12.4178 16.8754 12.3364 16.8592 12.2606 16.8278C12.1847 16.7964 12.1158 16.7503 12.0577 16.6922L5.80769 10.4422C5.74958 10.3842 5.70348 10.3153 5.67203 10.2394C5.64058 10.1635 5.62439 10.0822 5.62439 10C5.62439 9.91791 5.64058 9.83658 5.67203 9.7607C5.70348 9.68483 5.74958 9.6159 5.80769 9.55785L12.0577 3.30785C12.175 3.19058 12.334 3.12469 12.4999 3.12469C12.6657 3.12469 12.8248 3.19058 12.9421 3.30785C13.0593 3.42513 13.1252 3.58419 13.1252 3.75004C13.1252 3.91589 13.0593 4.07495 12.9421 4.19223L7.13347 10L12.9421 15.8079Z" fill="var(--fill-0, #101828)"/>
<path d="M12.9421 15.8079L14.1206 14.6293L14.1205 14.6293L12.9421 15.8079ZM12.4999 16.8754V18.5421V16.8754ZM12.0577 16.6922L10.8792 17.8707V17.8707L12.0577 16.6922ZM5.80769 10.4422L6.98621 9.26372L6.98555 9.26306L5.80769 10.4422ZM5.80769 9.55785L6.98555 10.737L6.9862 10.7364L5.80769 9.55785ZM12.0577 3.30785L10.8792 2.12934L12.0577 3.30785ZM12.9421 4.19223L14.1205 5.37082L14.1206 5.37074L12.9421 4.19223ZM7.13347 10L5.95504 8.82145L4.77629 10L5.95504 11.1786L7.13347 10ZM12.9421 15.8079L11.7636 16.9864C11.6669 16.8897 11.5902 16.7749 11.5378 16.6485L13.0776 16.0107L14.6174 15.3729C14.5022 15.0949 14.3334 14.8422 14.1206 14.6293L12.9421 15.8079ZM13.0776 16.0107L11.5378 16.6485C11.4855 16.5222 11.4586 16.3868 11.4586 16.25H13.1252H14.7919C14.7919 15.949 14.7326 15.651 14.6174 15.3729L13.0776 16.0107ZM13.1252 16.25H11.4586C11.4586 16.1133 11.4855 15.9779 11.5378 15.8515L13.0776 16.4894L14.6174 17.1272C14.7326 16.8491 14.7919 16.551 14.7919 16.25H13.1252ZM13.0776 16.4894L11.5378 15.8515C11.5902 15.7252 11.6669 15.6104 11.7636 15.5137L12.9421 16.6922L14.1206 17.8707C14.3334 17.6579 14.5022 17.4052 14.6174 17.1272L13.0776 16.4894ZM12.9421 16.6922L11.7636 15.5137C11.8603 15.417 11.9751 15.3403 12.1014 15.288L12.7392 16.8278L13.377 18.3676C13.6551 18.2524 13.9077 18.0836 14.1206 17.8707L12.9421 16.6922ZM12.7392 16.8278L12.1014 15.288C12.2277 15.2357 12.3631 15.2087 12.4999 15.2087V16.8754V18.5421C12.8009 18.5421 13.0989 18.4828 13.377 18.3676L12.7392 16.8278ZM12.4999 16.8754V15.2087C12.6366 15.2087 12.772 15.2357 12.8984 15.288L12.2606 16.8278L11.6228 18.3676C11.9008 18.4828 12.1989 18.5421 12.4999 18.5421V16.8754ZM12.2606 16.8278L12.8984 15.288C13.0247 15.3403 13.1395 15.417 13.2362 15.5137L12.0577 16.6922L10.8792 17.8707C11.092 18.0836 11.3447 18.2524 11.6228 18.3676L12.2606 16.8278ZM12.0577 16.6922L13.2362 15.5137L6.9862 9.26372L5.80769 10.4422L4.62918 11.6207L10.8792 17.8707L12.0577 16.6922ZM5.80769 10.4422L6.98555 9.26306C7.0824 9.35981 7.15923 9.4747 7.21165 9.60115L5.67203 10.2394L4.13241 10.8776C4.24773 11.1558 4.41676 11.4086 4.62984 11.6214L5.80769 10.4422ZM5.67203 10.2394L7.21165 9.60115C7.26407 9.7276 7.29106 9.86315 7.29106 10H5.62439H3.95772C3.95772 10.3012 4.01708 10.5994 4.13241 10.8776L5.67203 10.2394ZM5.62439 10H7.29106C7.29106 10.1369 7.26407 10.2725 7.21165 10.3989L5.67203 9.7607L4.13241 9.12247C4.01708 9.40067 3.95772 9.69888 3.95772 10H5.62439ZM5.67203 9.7607L7.21165 10.3989C7.15923 10.5254 7.0824 10.6403 6.98555 10.737L5.80769 9.55785L4.62984 8.37869C4.41676 8.59153 4.24773 8.84427 4.13241 9.12247L5.67203 9.7607ZM5.80769 9.55785L6.9862 10.7364L13.2362 4.48637L12.0577 3.30785L10.8792 2.12934L4.62918 8.37934L5.80769 9.55785ZM12.0577 3.30785L13.2362 4.48637C13.0409 4.68165 12.7761 4.79136 12.4999 4.79136V3.12469V1.45803C11.892 1.45803 11.309 1.69951 10.8792 2.12934L12.0577 3.30785ZM12.4999 3.12469V4.79136C12.2237 4.79136 11.9588 4.68165 11.7636 4.48637L12.9421 3.30785L14.1206 2.12934C13.6907 1.69951 13.1078 1.45803 12.4999 1.45803V3.12469ZM12.9421 3.30785L11.7636 4.48637C11.5683 4.29108 11.4586 4.02622 11.4586 3.75004L13.1252 3.75004L14.7919 3.75004C14.7919 3.14216 14.5504 2.55918 14.1206 2.12934L12.9421 3.30785ZM13.1252 3.75004L11.4586 3.75004C11.4586 3.47387 11.5683 3.209 11.7636 3.01372L12.9421 4.19223L14.1206 5.37074C14.5504 4.94091 14.7919 4.35792 14.7919 3.75004L13.1252 3.75004ZM12.9421 4.19223L11.7636 3.01364L5.95504 8.82145L7.13347 10L8.31191 11.1786L14.1205 5.37082L12.9421 4.19223ZM7.13347 10L5.95504 11.1786L11.7636 16.9864L12.9421 15.8079L14.1205 14.6293L8.31191 8.82145L7.13347 10Z" fill="var(--stroke-0, #1849A9)" mask="url(#path-1-inside-1_0_214)"/>
</g>
</g>
</svg>
